<?xml version="1.0" encoding="UTF-8"?>
<svg width="32" height="32" viewBox="0 0 32 32" fill="none" x="2389" y="960"
    xmlns="http://www.w3.org/2000/svg">
    <g clip-path="url(#acclip0_1_2)">
        <path d="M32 0H0V32H32V0Z" fill="url(#acpaint0_linear_1_2)" />
        <path
            d="M26.21 17.092C26.086 16.422 25.327 15.949 24.81 15.612C24.644 15.505 24.187 15.334 24.149 15.185C24.1463 15.078 24.1609 14.9714 24.192 14.869L24.618 11.802C24.742 10.902 24.862 10.002 24.985 9.102C25.0314 8.73294 24.9644 8.35851 24.7929 8.02843C24.6215 7.69835 24.3536 7.42825 24.025 7.254C22.5649 6.38159 20.9332 5.83574 19.242 5.654C17.2142 5.32312 15.1521 5.25589 13.107 5.454C11.2675 5.58879 9.46206 6.02107 7.761 6.734C6.844 7.159 5.649 7.825 5.8 8.99C6.227 12.454 6.731 15.91 7.2 19.371C7.41333 20.9543 7.62667 22.537 7.84 24.119C7.87377 24.4266 7.98794 24.7199 8.17104 24.9693C8.35413 25.2187 8.59968 25.4156 8.883 25.54C10.2781 26.1822 11.7863 26.5424 13.321 26.6C15.2835 26.7777 17.2609 26.6903 19.2 26.34C20.429 26.114 22.716 25.74 22.912 24.207C23.155 22.307 23.424 20.401 23.68 18.507L23.774 17.927C24.469 18.086 26.453 18.441 26.21 17.092ZM15.381 6.187C18.0643 6.06421 20.7371 6.59726 23.168 7.74C23.522 7.94 24.346 8.375 24.098 8.896C23.85 9.417 23.083 9.677 22.613 9.865C21.943 10.1122 21.2541 10.3048 20.553 10.441C17.5072 11.0442 14.3792 11.1088 11.311 10.632C9.92547 10.4896 8.57765 10.0951 7.334 9.468C7.027 9.293 6.519 8.977 6.66 8.559C6.77063 8.33474 6.94443 8.14773 7.16 8.021C8.09836 7.41794 9.14187 6.99694 10.236 6.78C11.9207 6.37511 13.6483 6.17599 15.381 6.187V6.187ZM22.071 24.171C22.007 24.671 21.184 24.917 20.791 25.058C19.9764 25.3307 19.136 25.5194 18.283 25.621C16.3897 25.873 14.4713 25.873 12.578 25.621C11.3927 25.5306 10.2349 25.2182 9.165 24.7C9.01946 24.6368 8.89444 24.5342 8.80399 24.4039C8.71355 24.2735 8.66125 24.1205 8.653 23.962C8.226 20.579 7.74 17.195 7.283 13.812L6.783 10.143C7.75417 10.6765 8.80769 11.0439 9.9 11.23C11.0696 11.4679 12.2546 11.6233 13.446 11.695C15.784 11.8622 18.1338 11.7318 20.439 11.307C21.6661 11.1295 22.8515 10.7336 23.939 10.138L23.034 16.838C20.8718 16.126 18.7595 15.2708 16.711 14.278C16.6211 14.2441 16.5342 14.203 16.451 14.155C16.335 14.069 16.365 14.112 16.31 13.98C16.2465 13.7432 16.1228 13.5269 15.951 13.352C15.829 13.2547 15.6852 13.1884 15.532 13.159C15.3782 13.1296 15.2196 13.1382 15.0699 13.1841C14.9202 13.2299 14.784 13.3116 14.673 13.422C14.5622 13.5323 14.4801 13.6681 14.4339 13.8175C14.3877 13.9669 14.3788 14.1254 14.408 14.279C14.4369 14.4325 14.5028 14.5767 14.6 14.699C14.6974 14.8213 14.8232 14.918 14.9665 14.9807C15.1097 15.0434 15.266 15.0703 15.422 15.059C15.5693 15.035 15.7128 14.992 15.849 14.931C16.015 14.88 16.015 14.888 16.19 14.969C18.2683 15.982 20.4093 16.8608 22.6 17.6C22.929 17.706 22.925 17.6 22.925 17.873C22.911 18.0805 22.8839 18.2869 22.844 18.491L22.57 20.527L22.071 24.171ZM15.488 14.08C15.488 14.195 15.326 14.18 15.283 14.11C15.24 14.04 15.488 13.918 15.488 14.08ZM23.893 17.067L24.021 16.124C24.448 16.367 25.173 16.734 25.365 17.224C24.8692 17.307 24.3601 17.2527 23.893 17.067V17.067Z"
            fill="white" />
    </g>
    <defs>
        <linearGradient id="acpaint0_linear_1_2" x1="-6.626" y1="38.626" x2="38.626" y2="-6.627"
            gradientUnits="userSpaceOnUse">
            <stop stop-color="#1B660F" />
            <stop offset="1" stop-color="#6CAE3E" />
        </linearGradient>
        <clipPath id="acclip0_1_2">
            <rect width="32" height="32" fill="white" />
        </clipPath>
    </defs>
</svg>