<?xml version="1.0" encoding="UTF-8"?>
<svg width="25" height="25" viewBox="0 0 25 25" fill="none" x="2837" y="960"
    xmlns="http://www.w3.org/2000/svg">
    <g clip-path="url(#adclip0_7508_91)">
        <path
            d="M14.235 24.8428L15.38 23.6153V20.3403H9.67499V23.6153L10.82 24.8428C10.8873 24.9253 10.9824 24.9804 11.0875 24.9978H13.9125C13.9741 24.9959 14.0346 24.9811 14.0901 24.9544C14.1456 24.9277 14.195 24.8897 14.235 24.8428Z"
            fill="url(#adpaint0_linear_7508_91)" />
        <path
            d="M12.5 0.997948C10.2946 0.976621 8.17105 1.83178 6.59593 3.37549C5.02082 4.91919 4.12307 7.02512 4.09998 9.23045C4.09703 9.57874 4.1154 9.92689 4.15498 10.2729C4.53748 13.7604 7.85498 15.3829 8.79998 19.8029C8.83506 19.9538 8.91955 20.0887 9.04003 20.1861C9.16052 20.2834 9.31008 20.3378 9.46498 20.3404H15.535C15.6896 20.3377 15.8388 20.2832 15.9588 20.1858C16.0789 20.0884 16.1629 19.9536 16.1975 19.8029C17.145 15.3829 20.4325 13.7604 20.8425 10.2729C21.0973 8.08262 20.4716 5.88077 19.1031 4.15171C17.7346 2.42266 15.7353 1.30801 13.545 1.05295C13.1981 1.01344 12.8491 0.995071 12.5 0.997948Z"
            fill="url(#adpaint1_radial_7508_91)" />
        <path
            d="M15.9725 5.64307C15.4508 5.66134 14.9576 5.88539 14.6006 6.26625C14.2436 6.64711 14.0519 7.1538 14.0675 7.67557V8.76307H11.0875V7.67557C11.0962 7.14851 10.8965 6.6393 10.5318 6.25869C10.1671 5.87808 9.66692 5.65683 9.13996 5.64307H9.09746C8.57579 5.66134 8.08256 5.88539 7.72559 6.26625C7.36862 6.64711 7.17695 7.1538 7.19246 7.67557C7.17947 8.1981 7.37155 8.70496 7.7276 9.08764C8.08364 9.47031 8.57535 9.6984 9.09746 9.72307H9.99996V18.1931C9.99996 18.328 10.0536 18.4574 10.149 18.5528C10.2444 18.6482 10.3738 18.7018 10.5087 18.7018C10.6436 18.7018 10.773 18.6482 10.8685 18.5528C10.9639 18.4574 11.0175 18.328 11.0175 18.1931V9.72307H14.0675V18.1931C14.0675 18.3277 14.1209 18.4567 14.2161 18.5519C14.3113 18.6471 14.4404 18.7006 14.575 18.7006C14.7096 18.7006 14.8386 18.6471 14.9338 18.5519C15.029 18.4567 15.0825 18.3277 15.0825 18.1931V9.72307H15.9725C16.2319 9.71404 16.487 9.65396 16.7231 9.54627C16.9593 9.43858 17.1719 9.28539 17.3489 9.09546C17.5258 8.90553 17.6635 8.68258 17.7542 8.43938C17.8449 8.19617 17.8868 7.93747 17.8775 7.67807C17.8937 7.15587 17.7023 6.64854 17.3452 6.26714C16.9882 5.88573 16.4946 5.66133 15.9725 5.64307ZM9.99996 8.76307H9.03996C8.77053 8.74072 8.52018 8.61506 8.34126 8.41238C8.16234 8.2097 8.06871 7.94569 8.07996 7.67557C8.06871 7.40544 8.16234 7.14144 8.34126 6.93875C8.52018 6.73607 8.77053 6.61042 9.03996 6.58807C9.30963 6.60981 9.56035 6.73529 9.73939 6.93811C9.91843 7.14093 10.0118 7.40529 9.99996 7.67557V8.76307ZM16.0425 8.76307H15.0825V7.62057C15.0672 7.49466 15.0769 7.36698 15.111 7.24482C15.145 7.12266 15.2028 7.0084 15.2811 6.90858C15.3593 6.80876 15.4564 6.72532 15.5669 6.66303C15.6774 6.60075 15.7991 6.56083 15.925 6.54557C16.1792 6.51474 16.4353 6.58618 16.6369 6.74418C16.8385 6.90218 16.9691 7.13379 17 7.38807C17.0075 7.46539 17.0075 7.54325 17 7.62057C17.0302 7.89236 16.9513 8.16503 16.7807 8.37876C16.6101 8.59248 16.3617 8.72979 16.09 8.76057L16.0425 8.76307Z"
            fill="url(#adpaint2_linear_7508_91)" />
        <path d="M9.61993 22.5981L15.3799 21.4831V20.8481L9.61993 21.9781V22.5981Z" fill="#50E6FF" />
        <path d="M15.3799 23.0355V22.4155L9.61993 23.558V23.6155L10.0574 24.0955L15.3799 23.0355Z"
            fill="#50E6FF" />
    </g>
    <defs>
        <linearGradient id="adpaint0_linear_7508_91" x1="12.5275" y1="24.9978" x2="12.5275"
            y2="20.3403" gradientUnits="userSpaceOnUse">
            <stop stop-color="#32D4F5" />
            <stop offset="0.27" stop-color="#31D1F2" />
            <stop offset="0.49" stop-color="#2EC7E9" />
            <stop offset="0.69" stop-color="#28B6DA" />
            <stop offset="0.88" stop-color="#209EC5" />
            <stop offset="1" stop-color="#198AB3" />
        </linearGradient>
        <radialGradient id="adpaint1_radial_7508_91" cx="0" cy="0" r="1"
            gradientUnits="userSpaceOnUse"
            gradientTransform="translate(12.9687 10.3388) scale(9.06825)">
            <stop stop-color="#0078D4" />
            <stop offset="0.26" stop-color="#0075CE" />
            <stop offset="0.59" stop-color="#006CBE" />
            <stop offset="0.97" stop-color="#005CA4" />
            <stop offset="1" stop-color="#005BA1" />
        </radialGradient>
        <linearGradient id="adpaint2_linear_7508_91" x1="12.52" y1="5.81307" x2="12.605"
            y2="16.5131" gradientUnits="userSpaceOnUse">
            <stop stop-color="#F2F2F2" />
            <stop offset="0.23" stop-color="#E6E6E6" stop-opacity="0.99" />
            <stop offset="0.37" stop-color="#D1D3D4" stop-opacity="0.95" />
            <stop offset="0.48" stop-color="#E7E5F0" stop-opacity="0.89" />
            <stop offset="0.58" stop-color="#DEDBEE" stop-opacity="0.81" />
            <stop offset="0.67" stop-color="#D3CEEB" stop-opacity="0.7" />
            <stop offset="0.76" stop-color="#C4BEE8" stop-opacity="0.57" />
            <stop offset="0.84" stop-color="#B4ABE5" stop-opacity="0.41" />
            <stop offset="0.92" stop-color="#A095E1" stop-opacity="0.22" />
            <stop offset="0.99" stop-color="#8B7DDC" stop-opacity="0.02" />
            <stop offset="1" stop-color="#897BDC" stop-opacity="0" />
        </linearGradient>
        <clipPath id="adclip0_7508_91">
            <rect width="24" height="24" fill="white" transform="translate(0.5 0.998047)" />
        </clipPath>
    </defs>
</svg>