<?xml version="1.0" encoding="UTF-8"?>
<svg width="20" height="20" viewBox="0 0 20 20" fill="none" x="3310" y="960"
    xmlns="http://www.w3.org/2000/svg">
    <path
        d="M10.0001 0L1.27783 4.98889V14.9889L10.0001 20L18.7223 15.0111V5.01111L10.0001 0ZM17.1112 13.9667L10.0001 18.0778L2.88894 14.0111V5.97778L10.0001 1.86667L17.1112 5.98889V13.9667Z"
        fill="#0078D4" />
    <path
        d="M10.0001 0L1.27783 4.98889L2.88894 5.97778L10.0001 1.86667L17.1112 5.97778L18.7223 4.98889L10.0001 0Z"
        fill="url(#cgpaint0_linear_1474_167678)" />
    <path
        d="M12.5778 12.8777C12.28 11.6425 11.5045 10.5757 10.4215 9.9113C9.33842 9.24689 8.0361 9.03901 6.80002 9.33323L6.41113 7.71101C8.07743 7.31689 9.83203 7.59971 11.2901 8.49746C12.7481 9.39521 13.7906 10.8346 14.1889 12.4999L12.5778 12.8777Z"
        fill="#50E6FF" />
    <path
        d="M14.1556 11.6333C14.0464 11.4478 13.869 11.3125 13.6612 11.2565C13.4535 11.2004 13.2321 11.2279 13.0444 11.3333L4.01111 16.5333L5.67778 17.4999L13.8556 12.7777C14.0455 12.6643 14.1834 12.4808 14.2395 12.2668C14.2956 12.0528 14.2654 11.8253 14.1556 11.6333Z"
        fill="#50E6FF" />
    <path
        d="M14.3445 2.48877L6.1445 7.2221C5.96327 7.33505 5.83156 7.51247 5.7759 7.71864C5.72023 7.9248 5.74475 8.1444 5.8445 8.33321C5.91839 8.45894 6.02397 8.56308 6.15071 8.63522C6.27744 8.70736 6.42089 8.74498 6.56672 8.74433C6.7115 8.74686 6.85404 8.70833 6.97783 8.63321L16.0223 3.41099L14.3445 2.48877Z"
        fill="#50E6FF" />
    <path
        d="M13.4335 14.1111C14.5687 14.1111 15.489 13.1908 15.489 12.0556C15.489 10.9203 14.5687 10 13.4335 10C12.2982 10 11.3779 10.9203 11.3779 12.0556C11.3779 13.1908 12.2982 14.1111 13.4335 14.1111Z"
        fill="url(#cgpaint1_linear_1474_167678)" />
    <path
        d="M6.56691 10C7.70216 10 8.62246 9.07972 8.62246 7.94447C8.62246 6.80922 7.70216 5.88892 6.56691 5.88892C5.43166 5.88892 4.51135 6.80922 4.51135 7.94447C4.51135 9.07972 5.43166 10 6.56691 10Z"
        fill="url(#cgpaint2_linear_1474_167678)" />
    <defs>
        <linearGradient id="cgpaint0_linear_1474_167678" x1="10.0001" y1="5.97778" x2="10.0001"
            y2="0" gradientUnits="userSpaceOnUse">
            <stop offset="0.2" stop-color="#005BA1" />
            <stop offset="1" stop-color="#0078D4" />
        </linearGradient>
        <linearGradient id="cgpaint1_linear_1474_167678" x1="13.4335" y1="14.1111" x2="13.4335"
            y2="10.0111" gradientUnits="userSpaceOnUse">
            <stop stop-color="#198AB3" />
            <stop offset="0.35" stop-color="#32BEDD" />
            <stop offset="0.8" stop-color="#50E6FF" />
        </linearGradient>
        <linearGradient id="cgpaint2_linear_1474_167678" x1="6.56691" y1="10" x2="6.56691"
            y2="5.90003" gradientUnits="userSpaceOnUse">
            <stop stop-color="#198AB3" />
            <stop offset="0.35" stop-color="#32BEDD" />
            <stop offset="0.8" stop-color="#50E6FF" />
        </linearGradient>
    </defs>
</svg>