<?xml version="1.0" encoding="UTF-8"?>
<svg width="70" height="70" viewBox="0 0 70 70" fill="none" x="2095" y="960"
    xmlns="http://www.w3.org/2000/svg">
    <path
        d="M0.969788 58.0732C0.969788 59.4732 2.08979 60.7332 3.48979 60.7332H68.3098C69.7098 60.7332 70.9698 59.6132 70.9698 58.0732V11.7332H0.969788V58.0732Z"
        fill="#A0A1A2" />
    <path
        d="M68.3098 0.733154H3.48979C2.08979 0.733154 0.969788 2.03579 0.969788 3.48315V11.7332H70.9698V3.48315C70.9698 2.03579 69.8498 0.733154 68.3098 0.733154Z"
        fill="#7A7A7A" />
    <rect x="5.96979" y="16.7332" width="29" height="18" fill="#0072C6" />
    <rect x="5.96979" y="37.7332" width="29" height="18" fill="#0072C6" />
    <rect x="36.9698" y="16.7332" width="28" height="18" fill="white" />
    <rect x="36.9698" y="37.7332" width="28" height="18" fill="#0072C6" />
    <path opacity="0.2"
        d="M3.76795 0.733154C2.22896 0.733154 0.969788 2.00076 0.969788 3.55006V13.8317V18.4796V57.9163C0.969788 59.4655 2.22896 60.7332 3.76795 60.7332H6.84593L61.9698 0.733154H3.76795Z"
        fill="white" />
</svg>