<?xml version="1.0" encoding="UTF-8"?>
<svg width="32" height="32" viewBox="0 0 32 32" fill="none" x="2357" y="960"
    xmlns="http://www.w3.org/2000/svg">
    <g clip-path="url(#abclip0_1_16)">
        <path
            d="M31.246 5.836H17.3C17.1509 5.84121 17.0046 5.79456 16.886 5.704L12.894 3.05C12.7685 2.97616 12.6256 2.93715 12.48 2.937H0.753C0.556541 2.93694 0.367836 3.01366 0.227155 3.15079C0.0864739 3.28792 0.00495713 3.4746 0 3.671L0 28.329C0.00495713 28.5254 0.0864739 28.7121 0.227155 28.8492C0.367836 28.9863 0.556541 29.0631 0.753 29.063H31.246C31.4426 29.0633 31.6316 28.9867 31.7725 28.8496C31.9134 28.7124 31.995 28.5256 32 28.329V6.589C32.0003 6.49004 31.981 6.39201 31.9432 6.30053C31.9055 6.20905 31.85 6.12594 31.78 6.05596C31.7101 5.98599 31.627 5.93053 31.5355 5.89278C31.444 5.85503 31.346 5.83574 31.247 5.836H31.246Z"
            fill="#005BA1" />
        <path
            d="M9.882 4.367H3.219C3.13943 4.367 3.06313 4.39861 3.00687 4.45487C2.95061 4.51113 2.919 4.58744 2.919 4.667V5.514C2.919 5.59357 2.95061 5.66987 3.00687 5.72613C3.06313 5.78239 3.13943 5.814 3.219 5.814H9.882C9.96156 5.814 10.0379 5.78239 10.0941 5.72613C10.1504 5.66987 10.182 5.59357 10.182 5.514V4.669C10.1823 4.62944 10.1747 4.59021 10.1597 4.55358C10.1448 4.51695 10.1227 4.48364 10.0948 4.45557C10.067 4.4275 10.0338 4.40523 9.99727 4.39003C9.96074 4.37483 9.92157 4.367 9.882 4.367V4.367Z"
            fill="white" />
        <path
            d="M4.16 4.367H3.125C3.09773 4.367 3.07073 4.37239 3.04555 4.38285C3.02037 4.39332 2.99751 4.40865 2.97827 4.42798C2.95904 4.44731 2.94381 4.47025 2.93347 4.49548C2.92313 4.52071 2.91787 4.54773 2.918 4.575V5.61C2.918 5.6649 2.93981 5.71755 2.97863 5.75637C3.01745 5.79519 3.0701 5.817 3.125 5.817H4.16C4.2149 5.817 4.26755 5.79519 4.30637 5.75637C4.34519 5.71755 4.367 5.6649 4.367 5.61V4.575C4.367 4.52001 4.34522 4.46725 4.30643 4.42827C4.26764 4.3893 4.21499 4.36726 4.16 4.367Z"
            fill="#1AC3F2" />
        <path
            d="M31.246 5.8H16C15.9009 5.79678 15.8023 5.8152 15.711 5.854C15.6199 5.89344 15.5383 5.95211 15.472 6.026L12.931 8.471C12.786 8.60123 12.5989 8.67473 12.404 8.678H0.753C0.553292 8.678 0.361763 8.75733 0.220549 8.89855C0.0793337 9.03976 0 9.23129 0 9.431L0 28.254C0.00495713 28.4504 0.0864739 28.6371 0.227155 28.7742C0.367836 28.9113 0.556541 28.9881 0.753 28.988H31.246C31.4426 28.9883 31.6316 28.9117 31.7725 28.7746C31.9134 28.6374 31.995 28.4506 32 28.254V6.588C32.0049 6.48593 31.9893 6.3839 31.954 6.288C31.9182 6.19235 31.8635 6.10494 31.793 6.03104C31.7225 5.95713 31.6378 5.89827 31.544 5.858C31.4497 5.81831 31.3483 5.79856 31.246 5.8V5.8Z"
            fill="url(#abpaint0_linear_1_16)" />
        <path
            d="M18.221 9.788C18.1715 9.77513 18.1195 9.77513 18.07 9.788C18.0215 9.78858 17.9739 9.80088 17.9313 9.82387C17.8886 9.84686 17.8521 9.87984 17.825 9.92L11.877 18.56C11.8507 18.6056 11.8368 18.6573 11.8368 18.71C11.8368 18.7627 11.8507 18.8144 11.877 18.86C11.905 18.9124 11.9455 18.9571 11.995 18.99C12.0442 19.023 12.101 19.043 12.16 19.048H15.68L14.117 24.281C14.1017 24.3122 14.0929 24.3463 14.091 24.381C14.0897 24.4152 14.0955 24.4492 14.108 24.481C14.1201 24.5132 14.1392 24.5422 14.164 24.566C14.1881 24.5902 14.2171 24.6089 14.249 24.621C14.2915 24.637 14.3385 24.637 14.381 24.621C14.4308 24.6312 14.4827 24.6236 14.5274 24.5994C14.5722 24.5753 14.6071 24.5362 14.626 24.489L20.762 15.718V15.529C20.7569 15.4476 20.721 15.3713 20.6615 15.3155C20.602 15.2598 20.5235 15.2288 20.442 15.229H16.677L18.2 10.09C18.2363 10.0489 18.2578 9.99677 18.261 9.942C18.2654 9.88763 18.2513 9.83336 18.221 9.788Z"
            fill="white" />
    </g>
    <defs>
        <linearGradient id="abpaint0_linear_1_16" x1="16.45" y1="0.866" x2="15.716" y2="30.155"
            gradientUnits="userSpaceOnUse">
            <stop stop-color="#32D4F5" />
            <stop offset="0.23" stop-color="#31D0F1" />
            <stop offset="0.46" stop-color="#2CC3E6" />
            <stop offset="0.7" stop-color="#25AFD4" />
            <stop offset="0.94" stop-color="#1C92BA" />
            <stop offset="1" stop-color="#198AB3" />
        </linearGradient>
        <clipPath id="abclip0_1_16">
            <rect width="32" height="32" fill="white" />
        </clipPath>
    </defs>
</svg>