<svg xmlns="http://www.w3.org/2000/svg" fill="none" viewBox="0 0 16 16">
  <g clip-path="url(#a)">
    <path fill="none" d="M0 0h16v16H0z"/>
    <path fill="url(#b)" d="M2.391.982A.68.68 0 0 1 3.446.414l1.759 1.16c.508.336.814.905.814 1.514v10.816H3.752l-1.36-2.042V.982Z"/>
    <path fill="url(#c)" d="M2.391.982A.68.68 0 0 1 3.446.414l1.759 1.16c.508.336.814.905.814 1.514v10.816H3.752l-1.36-2.042V.982Z"/>
    <path fill="url(#d)" d="m3.82 12.933-.034-.014a2.667 2.667 0 0 1-1.395-1.284 4.082 4.082 0 0 0 4.082 4.082h.056c.85 0 1.678-.26 2.373-.748l2.704-1.892a1.79 1.79 0 0 0 .763-1.466v-.73a1.06 1.06 0 0 0-1.616-.902L6.297 12.72a2.765 2.765 0 0 1-2.476.212Z"/>
    <path fill="url(#e)" d="m3.82 12.933-.034-.014a2.667 2.667 0 0 1-1.395-1.284 4.082 4.082 0 0 0 4.082 4.082h.056c.85 0 1.678-.26 2.373-.748l2.704-1.892a1.79 1.79 0 0 0 .763-1.466v-.73a1.06 1.06 0 0 0-1.616-.902L6.297 12.72a2.765 2.765 0 0 1-2.476.212Z"/>
    <path fill="url(#f)" d="M7.584 8.086 6.96 6.035a.722.722 0 0 1 1.054-.833L11.3 7.119a3.569 3.569 0 0 1 .552 5.767l-.064.056-.323.234a1.798 1.798 0 0 0-.494-3.086l-2.324-.872a1.754 1.754 0 0 1-1.062-1.132Z"/>
  </g>
  <defs>
    <linearGradient id="b" x1="8.729" x2="8.729" y1="14.047" y2=".524" gradientUnits="userSpaceOnUse">
      <stop stop-color="#1B48EF"/>
      <stop offset=".12" stop-color="#1C51F0"/>
      <stop offset=".32" stop-color="#1E69F5"/>
      <stop offset=".57" stop-color="#2190FB"/>
      <stop offset="1" stop-color="#26B8F4"/>
    </linearGradient>
    <linearGradient id="c" x1="8.729" x2="8.729" y1=".283" y2="13.908" gradientUnits="userSpaceOnUse">
      <stop stop-opacity="0"/>
      <stop offset="1" stop-opacity=".1"/>
    </linearGradient>
    <linearGradient id="d" x1="2.391" x2="12.369" y1="12.764" y2="12.764" gradientUnits="userSpaceOnUse">
      <stop stop-color="#39D2FF"/>
      <stop offset=".15" stop-color="#38CEFE"/>
      <stop offset=".29" stop-color="#35C3FA"/>
      <stop offset=".43" stop-color="#2FB0F3"/>
      <stop offset=".55" stop-color="#299AEB"/>
      <stop offset=".58" stop-color="#2692EC"/>
      <stop offset=".76" stop-color="#1A6CF1"/>
      <stop offset=".91" stop-color="#1355F4"/>
      <stop offset="1" stop-color="#104CF5"/>
    </linearGradient>
    <linearGradient id="e" x1="3.539" x2="10.775" y1="14.789" y2="9.865" gradientUnits="userSpaceOnUse">
      <stop stop-color="#fff" stop-opacity="0"/>
      <stop offset="1" stop-opacity=".15"/>
    </linearGradient>
    <linearGradient id="f" x1="6.076" x2="13.063" y1="6.748" y2="10.8" gradientUnits="userSpaceOnUse">
      <stop stop-color="#37BDFF"/>
      <stop offset=".18" stop-color="#33BFFD"/>
      <stop offset=".36" stop-color="#28C5F5"/>
      <stop offset=".53" stop-color="#15D0E9"/>
      <stop offset=".55" stop-color="#12D1E7"/>
      <stop offset=".59" stop-color="#1CD2E5"/>
      <stop offset=".77" stop-color="#42D8DC"/>
      <stop offset=".91" stop-color="#59DBD6"/>
      <stop offset="1" stop-color="#62DCD4"/>
    </linearGradient>
    <clipPath id="a">
      <path fill="#fff" d="M0 0h16v16H0z"/>
    </clipPath>
  </defs>
</svg>
