<?xml version="1.0" encoding="UTF-8"?>
<svg width="20" height="20" fill="currentColor" viewBox="0 0 20 20" x="3170" y="960"
    xmlns="http://www.w3.org/2000/svg">
    <path fill="url(#bba)"
        d="M2.034 3.26A1.002 1.002 0 0 1 3 2h10.333C15.911 2 18 3.194 18 4.667v.499l-1.046 7.5H5.78a1 1 0 0 1-.95-.687L2.05 3.312A1 1 0 0 1 3 2" />
    <path fill="url(#bbb)"
        d="M9.439 15.333h5.85l.045-2.767V6.028c0-.752-1.067-1.361-2.382-1.361H6.658a1 1 0 0 0-.954 1.302l2.782 8.67a1 1 0 0 0 .953.694Z" />
    <path fill="url(#bbc)"
        d="m15.309 14.116.024-1.55V6.028c0-.752-1.066-1.361-2.382-1.361H6.658a1 1 0 0 0-.954 1.302c.157.486 1.646 5.13 2.614 8.147h6.99Z" />
    <path fill="url(#bbd)"
        d="M12.141 17.3a1 1 0 0 0 .954.7h.239C15.91 18 18 16.806 18 15.333V4.667c0 1.472-2.09 2.666-4.666 2.666h-3.02a1 1 0 0 0-.951 1.307c.174.542 1.829 5.698 2.778 8.66Z" />
    <path fill="url(#bbe)"
        d="M4.623 11.333H17.14L18 5.166v-.5C18 3.195 15.91 2 13.333 2H3a1 1 0 0 0-1 1c0 .081.013.16.031.235.002.008.001.017.003.026l.003-.003c.004.018.007.037.013.054l2.573 8.021Z" />
    <defs>
        <linearGradient id="bba" x1="1.42" x2="17.822" y1="5.031" y2="9.426"
            gradientUnits="userSpaceOnUse">
            <stop stop-color="#D594F0" />
            <stop offset=".585" stop-color="#524BB5" />
            <stop offset=".826" stop-color="#0B3B7F" />
            <stop offset="1" stop-color="#002561" />
        </linearGradient>
        <linearGradient id="bbb" x1="4.925" x2="16.362" y1="8.267" y2="11.331"
            gradientUnits="userSpaceOnUse">
            <stop stop-color="#CFB6FB" />
            <stop offset=".257" stop-color="#B897F2" />
            <stop offset=".811" stop-color="#2F65DA" />
        </linearGradient>
        <linearGradient id="bbc" x1="10.495" x2="10.495" y1="4.667" y2="14.116"
            gradientUnits="userSpaceOnUse">
            <stop stop-color="#CFB6FB" stop-opacity=".25" />
            <stop offset=".15" stop-color="#CFB6FB" stop-opacity="0" />
        </linearGradient>
        <linearGradient id="bbd" x1="9.013" x2="19.078" y1="8.987" y2="12.65"
            gradientUnits="userSpaceOnUse">
            <stop offset=".059" stop-color="#EFCEFD" />
            <stop offset=".462" stop-color="#CFB6FB" />
            <stop offset=".673" stop-color="#B5A5F4" />
            <stop offset="1" stop-color="#8787E8" />
        </linearGradient>
        <linearGradient id="bbe" x1="10" x2="10" y1="2" y2="11.333" gradientUnits="userSpaceOnUse">
            <stop stop-color="#D594F0" stop-opacity=".2" />
            <stop offset=".457" stop-color="#D594F0" stop-opacity="0" />
        </linearGradient>
    </defs>
</svg>