<?xml version="1.0" encoding="UTF-8"?>
<svg width="20" height="20" viewBox="0 0 20 20" fill="none" x="3110" y="960"
    xmlns="http://www.w3.org/2000/svg">
    <path
        d="M6.622 17.9968C6.29073 17.9968 6.03529 17.7009 6.08318 17.3729C6.79363 12.5619 10.9166 8.99868 15.77 8.99868H16.7519C17.4224 8.99868 17.9133 8.59877 17.9133 7.92691L17.9692 7.66296V12.33C17.9692 13.0658 17.3745 13.6617 16.6401 13.6617H16.0893C14.0458 13.6617 12.2417 14.9974 11.639 16.957L11.4634 17.5249C11.3756 17.8048 11.1202 17.9968 10.8288 17.9968H6.62998H6.622Z"
        fill="url(#avpaint0_linear_35749_112824)" />
    <path
        d="M6.622 17.9968C6.29073 17.9968 6.03529 17.7009 6.08318 17.3729C6.79363 12.5619 10.9166 8.99868 15.77 8.99868H16.7519C17.4224 8.99868 17.9133 8.59877 17.9133 7.92691L17.9692 7.66296V12.33C17.9692 13.0658 17.3745 13.6617 16.6401 13.6617H16.0893C14.0458 13.6617 12.2417 14.9974 11.639 16.957L11.4634 17.5249C11.3756 17.8048 11.1202 17.9968 10.8288 17.9968H6.62998H6.622Z"
        fill="url(#avpaint1_linear_35749_112824)" />
    <path
        d="M2.66654 12.6658C2.29935 12.6658 2 12.3658 2 11.9979V7.99873C2 7.63081 2.29935 7.33087 2.66654 7.33087H14.6404C15.0076 7.33087 15.3069 7.63081 15.3069 7.99873V11.9979C15.3069 12.3658 15.0076 12.6658 14.6404 12.6658H2.66654Z"
        fill="url(#avpaint2_linear_35749_112824)" />
    <path
        d="M2.66654 12.6658C2.29935 12.6658 2 12.3658 2 11.9979V7.99873C2 7.63081 2.29935 7.33087 2.66654 7.33087H14.6404C15.0076 7.33087 15.3069 7.63081 15.3069 7.99873V11.9979C15.3069 12.3658 15.0076 12.6658 14.6404 12.6658H2.66654Z"
        fill="url(#avpaint3_radial_35749_112824)" />
    <path
        d="M6.62991 2C6.29464 2 6.03521 2.29994 6.08311 2.63187C6.79355 7.53084 10.9844 11.1621 15.9256 11.1621H16.7518C17.4223 11.1621 17.9651 11.706 17.9651 12.3778V7.66682C17.9651 6.93097 17.3704 6.33509 16.636 6.33509H16.0852C14.0417 6.33509 12.2377 4.99937 11.635 3.03978L11.4594 2.4719C11.3715 2.19196 11.1161 2 10.8247 2H6.6339H6.62991Z"
        fill="url(#avpaint4_linear_35749_112824)" />
    <path opacity="0.4"
        d="M16.6358 6.3312H16.085C15.1391 6.3312 14.245 6.04326 13.4987 5.53937V10.8583C14.277 11.0542 15.0912 11.1622 15.9293 11.1622H16.7555C17.4261 11.1622 17.9689 11.7061 17.9689 12.3779V7.66692C17.9689 6.93108 17.3742 6.3352 16.6398 6.3352L16.6358 6.3312Z"
        fill="url(#avpaint5_linear_35749_112824)" />
    <g opacity="0.7">
        <path
            d="M6.66165 2.00006C6.32638 2.00006 6.06695 2.3 6.11484 2.63193C6.82529 7.5309 11.0161 11.1621 15.9573 11.1621H16.7835C17.4541 11.1621 17.9969 11.706 17.9969 12.3779V7.66688C17.9969 6.93103 17.4022 6.33515 16.6678 6.33515H16.117C14.0734 6.33515 12.2694 4.99943 11.6667 3.03984L11.4911 2.47196C11.4033 2.19202 11.1478 2.00006 10.8565 2.00006H6.66564H6.66165Z"
            fill="url(#avpaint6_linear_35749_112824)" />
    </g>
    <defs>
        <linearGradient id="avpaint0_linear_35749_112824" x1="7.01714" y1="18.7806" x2="18.0588"
            y2="7.76074" gradientUnits="userSpaceOnUse">
            <stop offset="0.26" stop-color="#0D7012" />
            <stop offset="1" stop-color="#085714" />
        </linearGradient>
        <linearGradient id="avpaint1_linear_35749_112824" x1="23.3614" y1="10.8423" x2="2.41131"
            y2="15.4878" gradientUnits="userSpaceOnUse">
            <stop offset="0.04" stop-color="#114A8A" />
            <stop offset="1" stop-color="#0C59A3" stop-opacity="0" />
        </linearGradient>
        <linearGradient id="avpaint2_linear_35749_112824" x1="-6.34177" y1="9.99831" x2="14.8958"
            y2="9.99831" gradientUnits="userSpaceOnUse">
            <stop stop-color="#107C10" />
            <stop offset="0.96" stop-color="#56B50E" />
        </linearGradient>
        <radialGradient id="avpaint3_radial_35749_112824" cx="0" cy="0" r="1"
            gradientUnits="userSpaceOnUse"
            gradientTransform="translate(12.5869 9.1306) rotate(-56.3222) scale(4.06468 10.3571)">
            <stop stop-opacity="0.3" />
            <stop offset="1" stop-opacity="0" />
        </radialGradient>
        <linearGradient id="avpaint4_linear_35749_112824" x1="18.7275" y1="15.4612" x2="8.38667"
            y2="0.71945" gradientUnits="userSpaceOnUse">
            <stop offset="0.04" stop-color="#33980F" />
            <stop offset="1" stop-color="#BAE884" />
        </linearGradient>
        <linearGradient id="avpaint5_linear_35749_112824" x1="15.5143" y1="8.95865" x2="17.917"
            y2="8.95865" gradientUnits="userSpaceOnUse">
            <stop stop-color="#E5FAC1" stop-opacity="0" />
            <stop offset="0.56" stop-color="#E5FAC1" stop-opacity="0.52" />
            <stop offset="1" stop-color="#E5FAC1" />
        </linearGradient>
        <linearGradient id="avpaint6_linear_35749_112824" x1="5.57602" y1="-5.56236" x2="11.8129"
            y2="5.21272" gradientUnits="userSpaceOnUse">
            <stop offset="0.14" stop-color="#FDE100" />
            <stop offset="0.98" stop-color="#FFC600" stop-opacity="0" />
        </linearGradient>
    </defs>
</svg>