<?xml version="1.0" encoding="UTF-8"?>
<svg width="32" height="32" viewBox="0 0 32 32" fill="none" x="2613" y="960"
    xmlns="http://www.w3.org/2000/svg">
    <g clip-path="url(#arclip0_35749_113868)">
        <path fill-rule="evenodd" clip-rule="evenodd"
            d="M26.6719 10.8402C27.8516 9.10498 30.0022 10.2817 30.0022 12.1359L30.0022 19.7603C29.9678 20.4194 29.684 21.0516 29.2131 21.5178L22.3405 28.3597C21.8099 28.885 21.0691 29.1116 20.3506 28.9684C20.3506 28.9684 0.0236322 24.6823 10.4997 22.0484C20.9758 19.4145 26.6719 10.8402 26.6719 10.8402Z"
            fill="#767676" />
        <path fill-rule="evenodd" clip-rule="evenodd"
            d="M26.6719 10.8402C27.8516 9.10498 30.0022 10.2817 30.0022 12.1359L30.0022 19.7603C29.9678 20.4194 29.684 21.0516 29.2131 21.5178L22.3405 28.3597C21.8099 28.885 21.0691 29.1116 20.3506 28.9684C20.3506 28.9684 0.0236322 24.6823 10.4997 22.0484C20.9758 19.4145 26.6719 10.8402 26.6719 10.8402Z"
            fill="url(#arpaint0_linear_35749_113868)" />
        <path fill-rule="evenodd" clip-rule="evenodd"
            d="M26.6719 10.8402C27.8516 9.10498 30.0022 10.2817 30.0022 12.1359L30.0022 19.7603C29.9678 20.4194 29.684 21.0516 29.2131 21.5178L22.3405 28.3597C21.8099 28.885 21.0691 29.1116 20.3506 28.9684C20.3506 28.9684 0.0236322 24.6823 10.4997 22.0484C20.9758 19.4145 26.6719 10.8402 26.6719 10.8402Z"
            fill="url(#arpaint1_linear_35749_113868)" />
        <path fill-rule="evenodd" clip-rule="evenodd"
            d="M23.9663 26.7694L23.9734 26.7768L28.6674 22.0914C27.2827 23.48 23.6666 23.5078 20.3093 21.8486C18.0701 20.742 16.5223 18.6106 15.1493 16.4606L7.57513 4.48772L2.67296 9.52456C2.25644 9.95021 1.98494 10.5436 1.9597 11.1658L1.98673 20.853C1.96025 21.5056 2.19369 22.1405 2.63178 22.6076L8.86269 29.2882C9.2912 29.745 9.87871 30.0019 10.4917 30.0005L19.8045 30.0005C20.3794 29.9993 20.9339 29.75 21.3535 29.3404L23.9663 26.7694Z"
            fill="#4F1A1A" />
        <path fill-rule="evenodd" clip-rule="evenodd"
            d="M23.9663 26.7694L23.9734 26.7768L28.6674 22.0914C27.2827 23.48 23.6666 23.5078 20.3093 21.8486C18.0701 20.742 16.5223 18.6106 15.1493 16.4606L7.57513 4.48772L2.67296 9.52456C2.25644 9.95021 1.98494 10.5436 1.9597 11.1658L1.98673 20.853C1.96025 21.5056 2.19369 22.1405 2.63178 22.6076L8.86269 29.2882C9.2912 29.745 9.87871 30.0019 10.4917 30.0005L19.8045 30.0005C20.3794 29.9993 20.9339 29.75 21.3535 29.3404L23.9663 26.7694Z"
            fill="url(#arpaint2_linear_35749_113868)" />
        <path fill-rule="evenodd" clip-rule="evenodd"
            d="M23.9663 26.7694L23.9734 26.7768L28.6674 22.0914C27.2827 23.48 23.6666 23.5078 20.3093 21.8486C18.0701 20.742 16.5223 18.6106 15.1493 16.4606L7.57513 4.48772L2.67296 9.52456C2.25644 9.95021 1.98494 10.5436 1.9597 11.1658L1.98673 20.853C1.96025 21.5056 2.19369 22.1405 2.63178 22.6076L8.86269 29.2882C9.2912 29.745 9.87871 30.0019 10.4917 30.0005L19.8045 30.0005C20.3794 29.9993 20.9339 29.75 21.3535 29.3404L23.9663 26.7694Z"
            fill="url(#arpaint3_linear_35749_113868)" />
        <path fill-rule="evenodd" clip-rule="evenodd"
            d="M23.9663 26.7694L23.9734 26.7768L28.6674 22.0914C27.2827 23.48 23.6666 23.5078 20.3093 21.8486C18.0701 20.742 16.5223 18.6106 15.1493 16.4606L7.57513 4.48772L2.67296 9.52456C2.25644 9.95021 1.98494 10.5436 1.9597 11.1658L1.98673 20.853C1.96025 21.5056 2.19369 22.1405 2.63178 22.6076L8.86269 29.2882C9.2912 29.745 9.87871 30.0019 10.4917 30.0005L19.8045 30.0005C20.3794 29.9993 20.9339 29.75 21.3535 29.3404L23.9663 26.7694Z"
            fill="url(#arpaint4_linear_35749_113868)" />
        <path fill-rule="evenodd" clip-rule="evenodd"
            d="M6.34694 20.0977C8.37108 16.1922 9.01865 17.2283 16.4362 11.4056C19.8775 8.70427 21.8746 5.52159 22.8479 3.63345C23.2493 2.8548 22.693 1.98648 21.8449 1.98645L10.9374 1.98611C10.3404 1.98609 9.76744 2.23101 9.34241 2.66789L2.63439 9.56298C2.20167 10.0078 1.95806 10.6147 1.95806 11.2482L1.95806 20.9109C1.95806 21.5276 2.189 22.1199 2.60173 22.5618L7.99347 28.3347C7.99347 28.3347 4.18901 24.2613 6.34694 20.0977Z"
            fill="#585858" />
        <path fill-rule="evenodd" clip-rule="evenodd"
            d="M6.34694 20.0977C8.37108 16.1922 9.01865 17.2283 16.4362 11.4056C19.8775 8.70427 21.8746 5.52159 22.8479 3.63345C23.2493 2.8548 22.693 1.98648 21.8449 1.98645L10.9374 1.98611C10.3404 1.98609 9.76744 2.23101 9.34241 2.66789L2.63439 9.56298C2.20167 10.0078 1.95806 10.6147 1.95806 11.2482L1.95806 20.9109C1.95806 21.5276 2.189 22.1199 2.60173 22.5618L7.99347 28.3347C7.99347 28.3347 4.18901 24.2613 6.34694 20.0977Z"
            fill="url(#arpaint5_linear_35749_113868)" />
        <path fill-rule="evenodd" clip-rule="evenodd"
            d="M6.34694 20.0977C8.37108 16.1922 9.01865 17.2283 16.4362 11.4056C19.8775 8.70427 21.8746 5.52159 22.8479 3.63345C23.2493 2.8548 22.693 1.98648 21.8449 1.98645L10.9374 1.98611C10.3404 1.98609 9.76744 2.23101 9.34241 2.66789L2.63439 9.56298C2.20167 10.0078 1.95806 10.6147 1.95806 11.2482L1.95806 20.9109C1.95806 21.5276 2.189 22.1199 2.60173 22.5618L7.99347 28.3347C7.99347 28.3347 4.18901 24.2613 6.34694 20.0977Z"
            fill="url(#arpaint6_linear_35749_113868)" />
        <path fill-rule="evenodd" clip-rule="evenodd"
            d="M6.34694 20.0977C8.37108 16.1922 9.01865 17.2283 16.4362 11.4056C19.8775 8.70427 21.8746 5.52159 22.8479 3.63345C23.2493 2.8548 22.693 1.98648 21.8449 1.98645L10.9374 1.98611C10.3404 1.98609 9.76744 2.23101 9.34241 2.66789L2.63439 9.56298C2.20167 10.0078 1.95806 10.6147 1.95806 11.2482L1.95806 20.9109C1.95806 21.5276 2.189 22.1199 2.60173 22.5618L7.99347 28.3347C7.99347 28.3347 4.18901 24.2613 6.34694 20.0977Z"
            fill="url(#arpaint7_linear_35749_113868)" />
    </g>
    <defs>
        <linearGradient id="arpaint0_linear_35749_113868" x1="23.8338" y1="21.8684" x2="32.0894"
            y2="12.9024" gradientUnits="userSpaceOnUse">
            <stop stop-color="#114A85" />
            <stop offset="0.795693" stop-color="#028EDB" />
        </linearGradient>
        <linearGradient id="arpaint1_linear_35749_113868" x1="24.1306" y1="24.3267" x2="35.2102"
            y2="6.29493" gradientUnits="userSpaceOnUse">
            <stop stop-color="#114A85" />
            <stop offset="0.67" stop-color="#028EDB" />
        </linearGradient>
        <linearGradient id="arpaint2_linear_35749_113868" x1="7.49882" y1="20.8039" x2="22.2008"
            y2="20.9104" gradientUnits="userSpaceOnUse">
            <stop offset="0.074218" stop-color="#0669B6" />
            <stop offset="0.261846" stop-color="#0E7FCB" />
            <stop offset="0.544674" stop-color="#148DD9" />
            <stop offset="0.95" stop-color="#3CC5EE" />
        </linearGradient>
        <linearGradient id="arpaint3_linear_35749_113868" x1="7.33125" y1="26.2163" x2="24.1016"
            y2="23.7927" gradientUnits="userSpaceOnUse">
            <stop offset="0.31" stop-color="#0094E5" />
            <stop offset="1" stop-color="#40D8F9" />
        </linearGradient>
        <linearGradient id="arpaint4_linear_35749_113868" x1="5.72545" y1="17.42" x2="21.9799"
            y2="22.2604" gradientUnits="userSpaceOnUse">
            <stop offset="0.09" stop-opacity="0.2" />
            <stop offset="0.55" stop-opacity="0" />
        </linearGradient>
        <linearGradient id="arpaint5_linear_35749_113868" x1="17.9425" y1="4.74038" x2="3.63692"
            y2="14.3694" gradientUnits="userSpaceOnUse">
            <stop stop-color="#BDF5FF" />
            <stop offset="1" stop-color="#40D9FA" />
        </linearGradient>
        <linearGradient id="arpaint6_linear_35749_113868" x1="2.44052" y1="22.6881" x2="17.2226"
            y2="12.8612" gradientUnits="userSpaceOnUse">
            <stop stop-color="#3CC5EE" />
            <stop offset="1" stop-color="#50E0FF" />
        </linearGradient>
        <linearGradient id="arpaint7_linear_35749_113868" x1="6.73677" y1="15.4976" x2="12.2912"
            y2="18.3233" gradientUnits="userSpaceOnUse">
            <stop stop-color="#A1ECFF" stop-opacity="0" />
            <stop offset="0.9" stop-color="#A1ECFF" stop-opacity="0.9" />
        </linearGradient>
        <clipPath id="arclip0_35749_113868">
            <rect width="32" height="32" fill="white" />
        </clipPath>
    </defs>
</svg>