<?xml version="1.0" encoding="UTF-8"?>
<svg width="32" height="32" viewBox="0 0 32 32" fill="none" x="2581" y="960"
    xmlns="http://www.w3.org/2000/svg">
    <path
        d="M6.69703 10.522H15.976C18.585 10.522 20.764 12.341 21.322 14.778H29.944C29.323 7.61898 23.309 2.00098 15.977 2.00098H12.794C12.458 2.00098 12.154 2.13598 11.934 2.35598L5.83403 8.44598C5.61403 8.66598 5.47803 8.96998 5.47803 9.30598C5.47803 9.97798 6.02403 10.522 6.69703 10.522Z"
        fill="#73262F" />
    <path
        d="M6.69703 10.522H15.976C18.585 10.522 20.764 12.341 21.322 14.778H29.944C29.323 7.61898 23.309 2.00098 15.977 2.00098H12.794C12.458 2.00098 12.154 2.13598 11.934 2.35598L5.83403 8.44598C5.61403 8.66598 5.47803 8.96998 5.47803 9.30598C5.47803 9.97798 6.02403 10.522 6.69703 10.522Z"
        fill="url(#appaint0_linear_38524_177898)" />
    <path
        d="M24.801 5.126C24.859 5.174 24.916 5.225 24.971 5.279C25.923 6.23 25.923 7.771 24.971 8.722L20.614 13.071C21.152 13.918 21.463 14.922 21.463 15.999C21.463 19.025 19.006 21.477 15.975 21.477C14.719 21.477 13.566 21.051 12.641 20.343L6.61804 26.424C9.10004 28.646 12.379 29.999 15.975 29.999C23.72 29.999 29.999 23.731 29.999 15.999C29.999 11.607 27.97 7.692 24.8 5.125L24.801 5.126Z"
        fill="url(#appaint1_linear_38524_177898)" />
    <path
        d="M19.159 20.4449C17.344 21.7469 14.914 21.8109 13.04 20.6329L9.04896 24.6169C8.09696 25.5679 8.09696 27.1089 9.04896 28.0599C9.23896 28.2489 9.45196 28.4009 9.67896 28.5149C12.632 29.9919 15.998 30.3629 19.158 29.6269L19.159 20.4449Z"
        fill="url(#appaint2_linear_38524_177898)" />
    <path
        d="M9.68 28.515C8.369 27.859 7.14 26.986 6.046 25.894C3.657 23.509 2.31 20.479 2.005 17.365C1.963 16.692 2.199 16.005 2.715 15.491C3.192 15.014 3.818 14.777 4.444 14.778H15.97C16.28 14.779 16.589 14.898 16.825 15.134C17.301 15.609 17.301 16.38 16.825 16.856L9.05 24.618C8.098 25.569 8.098 27.11 9.05 28.061C9.24 28.25 9.453 28.402 9.68 28.516V28.515Z"
        fill="url(#appaint3_linear_38524_177898)" />
    <path
        d="M24.971 5.27998L24.966 5.27598C22.531 3.23898 19.402 2.00098 15.976 2.00098H15.328V10.522H15.976C17.928 10.522 19.639 11.541 20.611 13.075L20.614 13.072L24.971 8.72298C25.923 7.77198 25.923 6.23098 24.971 5.27998Z"
        fill="url(#appaint4_linear_38524_177898)" />
    <defs>
        <linearGradient id="appaint0_linear_38524_177898" x1="8.54903" y1="3.65898" x2="29.409"
            y2="15.703" gradientUnits="userSpaceOnUse">
            <stop offset="0.12" stop-color="#F0364C" stop-opacity="0.5" />
            <stop offset="0.261" stop-color="#F0364C" stop-opacity="0.454" />
            <stop offset="0.507" stop-color="#F0364C" stop-opacity="0.333" />
            <stop offset="0.65" stop-color="#F0364C" stop-opacity="0.25" />
            <stop offset="1" stop-color="#F0364C" stop-opacity="0" />
        </linearGradient>
        <linearGradient id="appaint1_linear_38524_177898" x1="5.52704" y1="23.425" x2="30.318"
            y2="14.402" gradientUnits="userSpaceOnUse">
            <stop offset="0.166" stop-color="#920B18" />
            <stop offset="0.55" stop-color="#F0364C" />
            <stop offset="0.8" stop-color="#FF5C39" />
        </linearGradient>
        <linearGradient id="appaint2_linear_38524_177898" x1="9.16896" y1="22.0339" x2="19.526"
            y2="26.8639" gradientUnits="userSpaceOnUse">
            <stop offset="0.114" stop-color="#6E0811" stop-opacity="0.75" />
            <stop offset="0.699" stop-color="#6E0811" stop-opacity="0" />
        </linearGradient>
        <linearGradient id="appaint3_linear_38524_177898" x1="2.21" y1="24.257" x2="15.409"
            y2="16.636" gradientUnits="userSpaceOnUse">
            <stop stop-color="#920B18" />
            <stop offset="0.026" stop-color="#A41322" />
            <stop offset="0.074" stop-color="#BF1F31" />
            <stop offset="0.126" stop-color="#D5293D" />
            <stop offset="0.183" stop-color="#E43045" />
            <stop offset="0.25" stop-color="#ED344A" />
            <stop offset="0.35" stop-color="#F0364C" />
            <stop offset="0.75" stop-color="#FF5C39" />
        </linearGradient>
        <linearGradient id="appaint4_linear_38524_177898" x1="14.415" y1="3.08898" x2="23.391"
            y2="10.62" gradientUnits="userSpaceOnUse">
            <stop offset="0.5" stop-color="#6E0811" stop-opacity="0" />
            <stop offset="0.581" stop-color="#6E0811" stop-opacity="0.093" />
            <stop offset="0.72" stop-color="#6E0811" stop-opacity="0.342" />
            <stop offset="0.899" stop-color="#6E0811" stop-opacity="0.744" />
            <stop offset="1" stop-color="#6E0811" />
        </linearGradient>
    </defs>
</svg>