<?xml version="1.0" encoding="UTF-8"?>
<svg width="20" height="20" viewBox="0 0 20 20" fill="none" x="3150" y="960"
    xmlns="http://www.w3.org/2000/svg">
    <path
        d="M15.9966 17.4827C17.1003 17.4827 17.996 16.5883 17.996 15.4863V7.70008C17.996 7.46051 17.8721 7.25287 17.6841 7.13708C16.1085 6.16281 12.1975 3.75108 10.342 2.60511C10.242 2.54522 10.1261 2.51328 10.0021 2.51328C9.87014 2.51328 9.75016 2.5532 9.64619 2.61709C7.78667 3.76705 3.89566 6.1668 2.32006 7.13708C2.13211 7.25287 2.00415 7.4645 2.00415 7.70407V15.4903C2.00415 16.5923 2.89992 17.4867 4.00364 17.4867H16.0006L15.9966 17.4827Z"
        fill="url(#azpaint0_linear_35749_113617)" />
    <path
        d="M2 11.018V15.4861C2 16.5881 2.89577 17.4826 3.99949 17.4826H15.9964C17.1001 17.4826 17.9959 16.5881 17.9959 15.4861V11.018H2Z"
        fill="url(#azpaint1_linear_35749_113617)" />
    <path
        d="M3.99949 17.4827C2.89577 17.4827 2 16.5883 2 15.4862V10.8305C2 10.5869 2.13197 10.3753 2.32392 10.2595L7.64655 6.97331C7.75052 6.90943 7.8705 6.87349 7.99846 6.87349C8.12643 6.87349 8.2504 6.90943 8.35037 6.97331L13.673 10.2595C13.869 10.3753 13.9969 10.5869 13.9969 10.8305V15.4862C13.9969 16.5883 14.8927 17.4827 15.9964 17.4827H3.99949Z"
        fill="url(#azpaint2_linear_35749_113617)" />
    <path
        d="M3.99949 17.4827C2.89577 17.4827 2 16.5883 2 15.4862V10.8305C2 10.5869 2.13197 10.3753 2.32392 10.2595L7.64655 6.97331C7.75052 6.90943 7.8705 6.87349 7.99846 6.87349C8.12643 6.87349 8.2504 6.90943 8.35037 6.97331L13.673 10.2595C13.869 10.3753 13.9969 10.5869 13.9969 10.8305V15.4862C13.9969 16.5883 14.8927 17.4827 15.9964 17.4827H3.99949Z"
        fill="url(#azpaint3_radial_35749_113617)" />
    <path
        d="M13.9969 15.4861V11.018H2V15.4861C2 16.5881 2.89577 17.4826 3.99949 17.4826H15.9964C14.8927 17.4826 13.9969 16.5881 13.9969 15.4861Z"
        fill="url(#azpaint4_linear_35749_113617)" />
    <path
        d="M3.99949 17.4827C2.89577 17.4827 2 16.5883 2 15.4863V13.961C2 13.7214 2.12797 13.5138 2.31592 13.394L5.64706 11.3376C5.75104 11.2737 5.87101 11.2378 5.99897 11.2378C6.12694 11.2378 6.25091 11.2737 6.35089 11.3376C6.35089 11.3376 8.16642 12.4596 9.67804 13.39C9.86999 13.5058 9.99795 13.7174 9.99795 13.957V15.4863C9.99795 16.5883 10.8937 17.4827 11.9974 17.4827H3.99949Z"
        fill="url(#azpaint5_linear_35749_113617)" />
    <path
        d="M10.3299 16.5882C10.1219 16.2728 9.99795 15.8974 9.99795 15.4902V13.9609C9.99795 13.7213 9.86999 13.5097 9.67804 13.3939C8.16642 12.4635 6.35089 11.3415 6.35089 11.3415C6.24691 11.2776 6.12694 11.2417 5.99897 11.2417C5.87101 11.2417 5.74704 11.2776 5.64706 11.3415L2.31592 13.3979C2.12797 13.5137 2 13.7253 2 13.9649V15.4902C2 15.8974 2.12396 16.2768 2.33191 16.5922H10.3299V16.5882Z"
        fill="url(#azpaint6_linear_35749_113617)" />
    <defs>
        <linearGradient id="azpaint0_linear_35749_113617" x1="9.9981" y1="17.4827" x2="9.9981"
            y2="2.50928" gradientUnits="userSpaceOnUse">
            <stop stop-color="#114A85" />
            <stop offset="0.67" stop-color="#028EDB" />
        </linearGradient>
        <linearGradient id="azpaint1_linear_35749_113617" x1="9.99795" y1="18.1693" x2="9.99795"
            y2="11.7048" gradientUnits="userSpaceOnUse">
            <stop stop-opacity="0.2" />
            <stop offset="0.55" stop-opacity="0" />
        </linearGradient>
        <linearGradient id="azpaint2_linear_35749_113617" x1="8.99821" y1="17.4827" x2="8.99821"
            y2="6.87349" gradientUnits="userSpaceOnUse">
            <stop offset="0.31" stop-color="#0094E5" />
            <stop offset="1" stop-color="#40D8F9" />
        </linearGradient>
        <radialGradient id="azpaint3_radial_35749_113617" cx="0" cy="0" r="1"
            gradientUnits="userSpaceOnUse"
            gradientTransform="translate(6.3109 16.1011) scale(5.87449 5.8656)">
            <stop stop-opacity="0.3" />
            <stop offset="1" stop-opacity="0" />
        </radialGradient>
        <linearGradient id="azpaint4_linear_35749_113617" x1="8.99821" y1="17.4826" x2="8.99821"
            y2="11.018" gradientUnits="userSpaceOnUse">
            <stop offset="0.09" stop-opacity="0.2" />
            <stop offset="0.55" stop-opacity="0" />
        </linearGradient>
        <linearGradient id="azpaint5_linear_35749_113617" x1="6.99872" y1="17.4867" x2="6.99872"
            y2="11.2378" gradientUnits="userSpaceOnUse">
            <stop stop-color="#3CC5EE" />
            <stop offset="1" stop-color="#50E0FF" />
        </linearGradient>
        <linearGradient id="azpaint6_linear_35749_113617" x1="6.16293" y1="15.6259" x2="6.16293"
            y2="10.2754" gradientUnits="userSpaceOnUse">
            <stop stop-color="#A1ECFF" stop-opacity="0" />
            <stop offset="0.9" stop-color="#A1ECFF" stop-opacity="0.9" />
        </linearGradient>
    </defs>
</svg>