<?xml version="1.0" encoding="UTF-8"?>
<svg width="20" height="20" viewBox="0 0 20 20" fill="none" x="3130" y="960"
    xmlns="http://www.w3.org/2000/svg">
    <path
        d="M10.3559 17.9295C10.064 18.0415 9.72411 18.0135 9.44823 17.8295C8.98842 17.5257 8.72453 16.83 9.0324 16.3701L12.9228 10.5845L16.4973 14.5949C16.7412 14.8708 16.7172 15.2906 16.4413 15.5345C16.3854 15.5865 16.3214 15.6265 16.2534 15.6544L10.3559 17.9295Z"
        fill="url(#awpaint0_linear_35749_113351)" />
    <path
        d="M7.221 11.0043L3.43456 5.30669C3.37059 5.20673 3.3346 5.08678 3.3346 4.95883C3.3346 4.59098 3.63448 4.29111 4.00233 4.29111C4.09429 4.29111 4.21824 4.27511 4.29821 4.3071L10.4557 7.20191L10.1038 7.90162L7.221 11.0043Z"
        fill="url(#awpaint1_linear_35749_113351)" />
    <path
        d="M9.64404 17.9333C9.57607 17.9093 9.5121 17.8733 9.44812 17.8333C8.98831 17.5294 8.86436 16.9057 9.16824 16.4459L16.5652 5.31048C16.6292 5.21052 16.6651 5.09057 16.6651 4.96262C16.6651 4.68674 16.4972 4.44684 16.2533 4.34688L10.3557 2.07182C10.2438 2.02784 10.1238 2.00385 9.9999 2.00385C9.87595 2.00385 9.756 2.02784 9.64404 2.06782L3.74648 4.34288C3.82645 4.31089 3.91441 4.2909 4.00637 4.2909C4.09833 4.2909 4.1823 4.31089 4.26226 4.34288L8.91634 6.58595C9.2562 6.76188 9.49611 7.08974 9.49611 7.49358C9.49611 7.74547 9.40414 7.97338 9.2482 8.1493L3.50658 14.5946C3.26268 14.8705 3.28667 15.2904 3.56255 15.5343C3.61853 15.5862 3.6825 15.6262 3.75048 15.6542L9.64804 17.9293"
        fill="url(#awpaint2_linear_35749_113351)" />
    <path
        d="M4.2744 4.34303L8.92848 6.5861C9.20436 6.72605 9.40828 6.96995 9.48025 7.26982L16.6653 4.85882C16.6293 4.62691 16.4814 4.431 16.2694 4.34303L10.3719 2.06797C10.2599 2.02399 10.14 2 10.016 2C9.89207 2 9.77212 2.02399 9.66017 2.06397L3.76261 4.33903C3.84257 4.30705 3.93054 4.28705 4.0225 4.28705C4.11447 4.28705 4.19843 4.30705 4.2784 4.33903L4.2744 4.34303Z"
        fill="url(#awpaint3_linear_35749_113351)" />
    <defs>
        <linearGradient id="awpaint0_linear_35749_113351" x1="10.1279" y1="13.3274" x2="14.5861"
            y2="17.0699" gradientUnits="userSpaceOnUse">
            <stop stop-color="#292941" />
            <stop offset="0.22" stop-color="#114A85" />
            <stop offset="0.44" stop-color="#0A5BA0" />
            <stop offset="0.65" stop-color="#0669B6" />
        </linearGradient>
        <linearGradient id="awpaint1_linear_35749_113351" x1="4.91795" y1="3.50743" x2="9.19618"
            y2="9.6209" gradientUnits="userSpaceOnUse">
            <stop offset="0.22" stop-color="#114A85" />
            <stop offset="0.85" stop-color="#0669B6" />
        </linearGradient>
        <linearGradient id="awpaint2_linear_35749_113351" x1="9.99989" y1="17.9333" x2="9.99989"
            y2="2.00385" gradientUnits="userSpaceOnUse">
            <stop offset="0.1" stop-color="#288CD9" />
            <stop offset="0.75" stop-color="#3CC5EE" />
        </linearGradient>
        <linearGradient id="awpaint3_linear_35749_113351" x1="9.54022" y1="2.09596" x2="10.8317"
            y2="6.90597" gradientUnits="userSpaceOnUse">
            <stop stop-color="#A1ECFF" stop-opacity="0.9" />
            <stop offset="0.92" stop-color="#A1ECFF" stop-opacity="0" />
        </linearGradient>
    </defs>
</svg>