<?xml version="1.0" encoding="UTF-8"?>
<svg fill="none" version="1.1" viewBox="0 0 228 228" xmlns="http://www.w3.org/2000/svg"><path d="m194.84 171h-161.67c-2.565 0-4.6636-2.137-4.6636-4.75v-114c0-2.6125 2.0986-4.75 4.6636-4.75h161.67c2.565 0 4.664 2.1375 4.664 4.75v114c0 2.613-2.099 4.75-4.664 4.75z" fill="url(#d)"/><path d="m28.5 49.875c0-3.935 3.19-7.125 7.125-7.125h156.75c3.935 0 7.125 3.19 7.125 7.125v2.375h-171v-2.375z" fill="#B8C2CC"/><path d="m194.84 168.62h-161.67c-1.2124 0-2.2886-1.033-2.2886-2.375v-114c0-1.3421 1.0762-2.375 2.2886-2.375h161.67c1.213 0 2.289 1.0329 2.289 2.375v114c0 1.342-1.076 2.375-2.289 2.375z" stroke="url(#c)" stroke-miterlimit="10" stroke-width="4.75"/><path d="m.012756 205.6-1e-7-4.862h3.4965l24.003-24.003c.6325-.633 1.4903-.988 2.3847-.988h168.21c.895 0 1.752.355 2.385.988l24.003 24.003h3.497v4.893h-.001c-.016 1.723-1.358 3.366-3.379 3.366h-221.22c-2.0208 0-3.3631-1.643-3.3791-3.366h-.0001446l1e-7-.031z" clip-rule="evenodd" fill="url(#b)" fill-rule="evenodd"/><path d="m1.0072 198.49 26.505-26.505c.6325-.633 1.4903-.988 2.3847-.988h168.21c.895 0 1.752.355 2.385.988l26.505 26.505c2.124 2.124.62 5.757-2.385 5.757h-221.22c-3.0046 0-4.5093-3.633-2.3847-5.757z" fill="url(#a)"/><path d="m89.554 190.7-4.75 4.75c-1.4962 1.496-.4365 4.054 1.6794 4.054h59.782c2.116 0 3.176-2.558 1.68-4.054l-4.75-4.75c-.446-.446-1.05-.696-1.68-.696h-50.282c-.6299 0-1.234.25-1.6794.696z" fill="#fff" opacity=".3"/><path d="m37.304 171.7-9.5 9.5c-1.4962 1.496-.4365 4.054 1.6794 4.054h169.03c2.116 0 3.176-2.558 1.68-4.054l-9.5-9.5c-.446-.446-1.05-.696-1.68-.696h-150.03c-.6299 0-1.234.25-1.6794.696z" fill="#1E2021" opacity=".09"/><defs><linearGradient id="d" x1="160.77" x2="64.627" y1="191.77" y2="28.262" gradientUnits="userSpaceOnUse"><stop stop-color="#0669BC" offset="0"/><stop stop-color="#40E6E8" offset="1"/></linearGradient><linearGradient id="c" x1="161.55" x2="63.807" y1="193.14" y2="26.916" gradientUnits="userSpaceOnUse"><stop stop-color="#45494D" offset="0"/><stop stop-color="#5C6166" offset=".9946"/></linearGradient><linearGradient id="b" x1="2.0619e-7" x2="228" y1="204.25" y2="204.25" gradientUnits="userSpaceOnUse"><stop stop-color="#CAD2D9" offset="0"/><stop stop-color="#A1AAB3" offset=".013997"/><stop stop-color="#A1AAB3" offset=".98568"/><stop stop-color="#8A9299" offset="1"/></linearGradient><linearGradient id="a" x1="160.56" x2="19.65" y1="332.6" y2="151.97" gradientUnits="userSpaceOnUse"><stop stop-color="#B8C2CC" offset=".0053764"/><stop stop-color="#CAD2D9" offset="1"/></linearGradient></defs></svg>
