<?xml version="1.0" encoding="UTF-8"?>
<svg fill="none" version="1.1" viewBox="0 0 228 228" xmlns="http://www.w3.org/2000/svg"><path d="m62.084 23.512c0-5.2533 4.2586-9.5119 9.5118-9.5119h85.143c5.254 0 9.512 4.2586 9.512 9.5119v180.98c0 5.253-4.258 9.512-9.512 9.512h-85.143c-5.2532 0-9.5118-4.259-9.5118-9.512v-180.98z" fill="url(#h)"/><path d="m114.17 14h-42.572c-5.2532 0-9.5118 4.2586-9.5118 9.5119v180.98c0 5.253 4.2586 9.512 9.5118 9.512h42.572v-200z" fill="url(#g)" opacity=".25"/><path d="m114.17 14h42.572c5.253 0 9.512 4.2586 9.512 9.5119v180.98c0 5.253-4.259 9.512-9.512 9.512h-42.572v-200z" fill="url(#f)" opacity=".25"/><path d="m159.7 20.25h-91.059c-1.3183 0-2.3869 1.0687-2.3869 2.3869v182.73c0 1.318 1.0686 2.387 2.3869 2.387h91.059c1.318 0 2.387-1.069 2.387-2.387v-182.73c0-1.3182-1.069-2.3869-2.387-2.3869z" fill="url(#e)"/><path d="m67.437 22.624c0-.6558.5317-1.1875 1.1875-1.1875h91.083c.656 0 1.188.5317 1.188 1.1875v182.75c0 .655-.532 1.187-1.188 1.187h-91.083c-.6558 0-1.1875-.532-1.1875-1.187v-182.75z" stroke="url(#d)" stroke-width="2.375"/><path d="m60 57.75c0-1.1506.9327-2.0833 2.0833-2.0833v14.583c-1.1506 0-2.0833-.9327-2.0833-2.0833v-10.417z" fill="url(#c)"/><path d="m60 76.5c0-1.1506.9327-2.0833 2.0833-2.0833v14.583c-1.1506 0-2.0833-.9327-2.0833-2.0833v-10.417z" fill="url(#b)"/><path d="m166.25 53.584c1.15 0 2.083.9327 2.083 2.0833v20.833c0 1.1506-.933 2.0833-2.083 2.0833v-25z" fill="url(#a)"/><path d="m71.595 14c-5.2532 0-9.5118 4.2586-9.5118 9.5119v1.978c.0487-5.2114 4.2885-9.421 9.5114-9.421h85.143c5.253 0 9.512 4.2586 9.512 9.5118v.9193-2.9881c0-5.2533-4.258-9.5119-9.512-9.5119h-85.143z" clip-rule="evenodd" fill="#8A9299" fill-rule="evenodd"/><path d="m71.595 214c-5.2532 0-9.5118-4.259-9.5118-9.512v-2.004c.0487 5.211 4.2885 9.421 9.5114 9.421h85.143c5.253 0 9.512-4.259 9.512-9.512v-.893 2.988c0 5.253-4.258 9.512-9.512 9.512h-85.143z" clip-rule="evenodd" fill="#1E2021" fill-rule="evenodd"/><defs><linearGradient id="h" x1="143.13" x2="-21.311" y1="249.85" y2="144.66" gradientUnits="userSpaceOnUse"><stop stop-color="#2E3133" offset="0"/><stop stop-color="#5C6166" offset=".9946"/></linearGradient><linearGradient id="g" x1="59.309" x2="77.424" y1="114" y2="114" gradientUnits="userSpaceOnUse"><stop stop-opacity=".6" offset="0"/><stop stop-opacity="0" offset=".9949"/></linearGradient><linearGradient id="f" x1="166.39" x2="148.79" y1="114" y2="114" gradientUnits="userSpaceOnUse"><stop stop-opacity=".6" offset="0"/><stop stop-opacity="0" offset=".9949"/></linearGradient><linearGradient id="e" x1="140.38" x2="-10.051" y1="239.28" y2="144.84" gradientUnits="userSpaceOnUse"><stop stop-color="#0669BC" offset="0"/><stop stop-color="#40E6E8" offset="1"/></linearGradient><linearGradient id="d" x1="95.532" x2="192.76" y1="20.25" y2="166.38" gradientUnits="userSpaceOnUse"><stop stop-color="#173A73" stop-opacity=".1" offset="0"/><stop stop-color="#173A73" stop-opacity=".25" offset="1"/></linearGradient><linearGradient id="c" x1="61.621" x2="57.125" y1="72.864" y2="72.075" gradientUnits="userSpaceOnUse"><stop stop-color="#2E3133" offset="0"/><stop stop-color="#5C6166" offset=".9946"/></linearGradient><linearGradient id="b" x1="61.621" x2="57.125" y1="91.614" y2="90.825" gradientUnits="userSpaceOnUse"><stop stop-color="#2E3133" offset="0"/><stop stop-color="#5C6166" offset=".9946"/></linearGradient><linearGradient id="a" x1="167.87" x2="163.28" y1="83.065" y2="82.595" gradientUnits="userSpaceOnUse"><stop stop-color="#2E3133" offset="0"/><stop stop-color="#5C6166" offset=".9946"/></linearGradient></defs></svg>
