<?xml version="1.0" encoding="UTF-8"?>
<svg fill="none" version="1.1" viewBox="0 0 228 228" xmlns="http://www.w3.org/2000/svg"><mask x="0" y="0" width="228" height="228" style="mask-type:alpha" maskUnits="userSpaceOnUse"><g clip-path="url(#h)"><g clip-path="url(#g)"><path d="M7 221V7H221V221H7Z" stroke="#f44" stroke-opacity=".2" stroke-width="14"/><g fill="#8000FF" fill-opacity=".1" style="mix-blend-mode:multiply"><circle cx="114" cy="114" r="114"/><rect x="14" y="14" width="100" height="100" rx="9.5"/><rect x="14" y="114" width="100" height="100" rx="9.5"/><rect y="28" width="228" height="171" rx="9.5"/><rect transform="rotate(90 199 0)" x="199" width="228" height="171" rx="9.5"/><rect y="57" width="228" height="114" rx="9.5"/><rect transform="rotate(90 171 0)" x="171" width="228" height="114" rx="9.5"/><rect x="114" y="14" width="100" height="100" rx="9.5"/><rect x="114" y="114" width="100" height="100" rx="9.5"/></g></g></g></mask><g clip-path="url(#f)"><path d="m213.75 33.25c0-5.225-3.206-9.5-7.125-9.5h-185.25c-3.9188 0-7.125 4.275-7.125 9.5h199.5z" fill="#B8C2CC"/><path d="m66.5 193.95h7.3848v.798h80.23v-.798h7.385v8.883c0 .708-.527 1.415-1.23 1.415h-92.54c-.7909 0-1.2303-.707-1.2303-1.415v-8.883z" clip-rule="evenodd" fill="url(#e)" fill-rule="evenodd"/><path d="m66.881 193.32 1.7582-1.187c2.022-1.366 4.7472-2.138 7.6483-2.138h75.428c2.901 0 5.626.772 7.648 2.138l1.758 1.187c.791.534.264 1.425-.879 1.425h-92.571c-1.055 0-1.5825-.891-.7912-1.425z" fill="url(#d)"/><path d="m128.16 194.75h-28.411v-28.5h28.5l-.089 28.5z" fill="url(#c)"/><path d="m208.31 171h-188.62c-2.9925 0-5.4409-2.466-5.4409-5.481v-131.54c0-3.0145 2.4484-5.4808 5.4409-5.4808h188.62c2.993 0 5.441 2.4663 5.441 5.4808v131.54c0 3.015-2.448 5.481-5.441 5.481z" fill="url(#b)"/><path d="m208.31 168.62h-188.62c-1.6645 0-3.0659-1.387-3.0659-3.106v-131.54c0-1.7192 1.4014-3.1058 3.0659-3.1058h188.62c1.665 0 3.066 1.3866 3.066 3.1058v131.54c0 1.719-1.401 3.106-3.066 3.106z" stroke="url(#a)" stroke-miterlimit="10" stroke-width="4.75"/></g><defs><linearGradient id="e" x1="66.462" x2="161.45" y1="199.49" y2="199.49" gradientUnits="userSpaceOnUse"><stop stop-color="#2E3133" offset="0"/><stop stop-color="#45494D" offset=".03"/><stop stop-color="#45494D" offset=".97"/><stop stop-color="#2E3133" offset="1"/></linearGradient><linearGradient id="d" x1="66.491" x2="161.51" y1="192.38" y2="192.38" gradientUnits="userSpaceOnUse"><stop stop-color="#CAD2D9" offset=".0053764"/><stop stop-color="#B8C2CC" offset="1"/></linearGradient><linearGradient id="c" x1="114" x2="114" y1="194.75" y2="166.25" gradientUnits="userSpaceOnUse"><stop stop-color="#A1AAB3" offset="0"/><stop stop-color="#737A80" offset=".9946"/></linearGradient><linearGradient id="b" x1="168.57" x2="58.231" y1="194.96" y2="5.2371" gradientUnits="userSpaceOnUse"><stop stop-color="#0669BC" offset="0"/><stop stop-color="#40E6E8" offset="1"/></linearGradient><linearGradient id="a" x1="169.48" x2="57.304" y1="196.54" y2="3.6665" gradientUnits="userSpaceOnUse"><stop stop-color="#45494D" offset="0"/><stop stop-color="#5C6166" offset=".9946"/></linearGradient><clipPath id="h"><rect width="228" height="228" fill="#fff"/></clipPath><clipPath id="g"><rect width="228" height="228" fill="#fff"/></clipPath><clipPath id="f"><rect width="228" height="228" fill="#fff"/></clipPath></defs></svg>
