<?xml version="1.0" encoding="UTF-8"?>
<svg width="101" height="101" viewBox="0 0 101 101" fill="none" x="1725" y="960"
    xmlns="http://www.w3.org/2000/svg">
    <path
        d="M88.0268 46.9697L72.4116 19.8124C71.8244 18.771 70.9753 17.9011 69.9485 17.2887C68.9217 16.6764 67.7528 16.3429 66.5574 16.3212H35.3211C34.1257 16.3423 32.9565 16.6756 31.9296 17.288C30.9026 17.9004 30.0537 18.7706 29.4669 19.8124L13.8458 46.8985C13.252 47.9318 12.9395 49.1028 12.9395 50.2946C12.9395 51.4865 13.252 52.6575 13.8458 53.6908L29.461 81.0025C30.0419 82.0591 30.8864 82.9473 31.9122 83.5809C32.938 84.2145 34.1104 84.5719 35.3152 84.6184H66.5515C67.7561 84.577 68.9294 84.2237 69.9566 83.593C70.9838 82.9624 71.8297 82.0759 72.4116 81.0203L88.0268 53.863C88.6249 52.8128 88.9395 51.625 88.9395 50.4164C88.9395 49.2078 88.6249 48.02 88.0268 46.9697Z"
        fill="#4285F4" />
    <path opacity="0.07"
        d="M63.6958 42.4752L42.2145 44.4524L38.0584 48.6085L41.6208 52.1709L38.0881 58.3576L64.3311 84.6006H66.5517C67.7563 84.5592 68.9296 84.206 69.9568 83.5753C70.984 82.9446 71.8299 82.0581 72.4118 81.0026L83.2949 62.0744L63.6958 42.4752Z"
        fill="black" />
    <path
        d="M63.2263 42.3089H38.622C38.5254 42.3057 38.4292 42.3219 38.3389 42.3565C38.2487 42.3911 38.1663 42.4434 38.0965 42.5104C38.0268 42.5773 37.9712 42.6575 37.933 42.7463C37.8947 42.8351 37.8747 42.9306 37.8739 43.0273V48.1156C37.8739 48.3061 37.9496 48.4888 38.0844 48.6236C38.2191 48.7583 38.4018 48.834 38.5923 48.834H63.2263C63.4164 48.8324 63.5982 48.7562 63.7326 48.6219C63.867 48.4875 63.9432 48.3056 63.9448 48.1156V43.0273C63.9432 42.8372 63.867 42.6554 63.7326 42.521C63.5982 42.3866 63.4164 42.3104 63.2263 42.3089ZM59.4205 47.0587C59.1293 47.0587 58.8446 46.9724 58.6025 46.8106C58.3603 46.6488 58.1716 46.4188 58.0601 46.1498C57.9487 45.8807 57.9195 45.5846 57.9763 45.299C58.0332 45.0134 58.1734 44.751 58.3793 44.5451C58.5853 44.3392 58.8476 44.1989 59.1332 44.1421C59.4189 44.0853 59.7149 44.1144 59.984 44.2259C60.253 44.3373 60.483 44.5261 60.6448 44.7682C60.8066 45.0104 60.893 45.295 60.893 45.5863C60.893 45.7796 60.8549 45.9711 60.7809 46.1498C60.7069 46.3284 60.5984 46.4907 60.4617 46.6275C60.325 46.7642 60.1626 46.8726 59.984 46.9466C59.8053 47.0206 59.6139 47.0587 59.4205 47.0587Z"
        fill="white" />
    <path
        d="M63.2263 52.0878H38.622C38.5228 52.0845 38.4241 52.1016 38.3318 52.138C38.2396 52.1744 38.1558 52.2294 38.0856 52.2996C38.0155 52.3697 37.9605 52.4535 37.9241 52.5458C37.8877 52.638 37.8706 52.7368 37.8739 52.8359V57.9242C37.8754 58.1143 37.9516 58.2961 38.086 58.4305C38.2204 58.5649 38.4022 58.6411 38.5923 58.6426H63.2263C63.4163 58.6411 63.5982 58.5649 63.7326 58.4305C63.867 58.2961 63.9432 58.1143 63.9447 57.9242V52.8062C63.9432 52.6162 63.867 52.4343 63.7326 52.2999C63.5982 52.1655 63.4163 52.0894 63.2263 52.0878ZM59.4205 56.8377C59.1292 56.8377 58.8445 56.7513 58.6024 56.5895C58.3603 56.4277 58.1715 56.1978 58.0601 55.9287C57.9486 55.6596 57.9195 55.3636 57.9763 55.078C58.0331 54.7923 58.1733 54.53 58.3793 54.324C58.5852 54.1181 58.8476 53.9779 59.1332 53.921C59.4188 53.8642 59.7149 53.8934 59.9839 54.0048C60.253 54.1163 60.483 54.305 60.6448 54.5472C60.8066 54.7893 60.8929 55.074 60.8929 55.3652C60.8929 55.5586 60.8548 55.7501 60.7808 55.9287C60.7068 56.1073 60.5984 56.2697 60.4616 56.4064C60.3249 56.5431 60.1626 56.6516 59.9839 56.7256C59.8053 56.7996 59.6138 56.8377 59.4205 56.8377Z"
        fill="white" />
</svg>