<?xml version="1.0" encoding="UTF-8"?>
<svg width="32" height="32" viewBox="0 0 32 32" fill="none" x="2677" y="960"
    xmlns="http://www.w3.org/2000/svg">
    <path
        d="M3 6.5C3 4.567 4.567 3 6.5 3H25.5C27.433 3 29 4.567 29 6.5V25.5C29 27.433 27.433 29 25.5 29H6.5C4.567 29 3 27.433 3 25.5V6.5Z"
        fill="url(#blpaint0_linear_252_55678)" />
    <path
        d="M3 6.5C3 4.567 4.567 3 6.5 3H25.5C27.433 3 29 4.567 29 6.5V25.5C29 27.433 27.433 29 25.5 29H6.5C4.567 29 3 27.433 3 25.5V6.5Z"
        fill="url(#blpaint1_radial_252_55678)" fill-opacity="0.2" />
    <path fill-rule="evenodd" clip-rule="evenodd"
        d="M25.5 4H6.5C5.11929 4 4 5.11929 4 6.5V25.5C4 26.8807 5.11929 28 6.5 28H25.5C26.8807 28 28 26.8807 28 25.5V6.5C28 5.11929 26.8807 4 25.5 4ZM6.5 3C4.567 3 3 4.567 3 6.5V25.5C3 27.433 4.567 29 6.5 29H25.5C27.433 29 29 27.433 29 25.5V6.5C29 4.567 27.433 3 25.5 3H6.5Z"
        fill="url(#blpaint2_linear_252_55678)" />
    <path
        d="M11.4469 12.2549C11.1066 12.456 10.7096 12.5714 10.2857 12.5714C9.02335 12.5714 8 11.5481 8 10.2857C8 9.02335 9.02335 8 10.2857 8C11.5481 8 12.5714 9.02335 12.5714 10.2857C12.5714 10.7096 12.4561 11.1065 12.255 11.4468L14.8389 14.0307C15.1792 13.8297 15.5761 13.7143 16 13.7143C16.4239 13.7143 16.8208 13.8297 17.1611 14.0307L19.745 11.4468C19.544 11.1065 19.4286 10.7096 19.4286 10.2857C19.4286 9.02335 20.4519 8 21.7143 8C22.9767 8 24 9.02335 24 10.2857C24 11.5481 22.9767 12.5714 21.7143 12.5714C21.2904 12.5714 20.8934 12.456 20.5531 12.2549L17.9692 14.8388C18.1703 15.1791 18.2857 15.5761 18.2857 16C18.2857 16.4239 18.1703 16.8208 17.9693 17.1611L20.5532 19.745C20.8935 19.544 21.2904 19.4286 21.7143 19.4286C22.9767 19.4286 24 20.4519 24 21.7143C24 22.9767 22.9767 24 21.7143 24C20.4519 24 19.4286 22.9767 19.4286 21.7143C19.4286 21.2904 19.544 20.8934 19.7451 20.5531L17.1612 17.9692C16.8209 18.1703 16.4239 18.2857 16 18.2857C15.5761 18.2857 15.1791 18.1703 14.8388 17.9692L12.2549 20.5531C12.456 20.8934 12.5714 21.2904 12.5714 21.7143C12.5714 22.9767 11.5481 24 10.2857 24C9.02335 24 8 22.9767 8 21.7143C8 20.4519 9.02335 19.4286 10.2857 19.4286C10.7096 19.4286 11.1065 19.544 11.4468 19.745L14.0307 17.1611C13.8297 16.8208 13.7143 16.4239 13.7143 16C13.7143 15.5761 13.8297 15.1791 14.0308 14.8388L11.4469 12.2549Z"
        fill="#242424" />
    <defs>
        <linearGradient id="blpaint0_linear_252_55678" x1="10.2222" y1="3" x2="13.5111" y2="29.3111"
            gradientUnits="userSpaceOnUse">
            <stop stop-color="white" />
            <stop offset="1" stop-color="#EBEBEB" />
        </linearGradient>
        <radialGradient id="blpaint1_radial_252_55678" cx="0" cy="0" r="1"
            gradientUnits="userSpaceOnUse"
            gradientTransform="translate(11.3056 9.77083) rotate(56.3099) scale(24.7381 21.408)">
            <stop offset="0.177083" stop-color="white" />
            <stop offset="1" stop-color="#B8B8B8" />
        </radialGradient>
        <linearGradient id="blpaint2_linear_252_55678" x1="11.3958" y1="3" x2="14.8966" y2="29.2555"
            gradientUnits="userSpaceOnUse">
            <stop stop-color="#BBBBBB" />
            <stop offset="1" stop-color="#888888" />
        </linearGradient>
    </defs>
</svg>