<?xml version="1.0" encoding="UTF-8"?>
<svg fill="none" version="1.1" viewBox="0 0 24 24" xmlns="http://www.w3.org/2000/svg">
<g stroke-width=".75">
<path d="m10.127713 1.1679789c.0147-.010515.0294-.020955.04425-.031313-.1059.047085-.2103755.098453-.3132005.1541025l-6.00003 3.246098c-1.45323.786225-2.35872 2.3056128-2.35872 3.9579078v7.0111498c0 1.6524.905655 3.1719 2.3590875 3.95805l1.4540925.786525h1.43682l6.0008245-3.333825-2.171474-1.195725c-1.4368505-.79125-2.3293505-2.3016-2.3293505-3.94185v-2.2541998c.235125-.45915.7143-1.25835.75-1.2744s2.0148755-.5067 3.0000005-.75v-6.3325203z" fill="url(#f)"/>
<path d="m10.127713 1.1679789c.0147-.010515.0294-.020955.04425-.031313-.1059.047085-.2103755.098453-.3132005.1541025l-6.00003 3.246098c-1.45323.786225-2.35872 2.3056128-2.35872 3.9579078v7.0111498c0 1.6524.905655 3.1719 2.3590875 3.95805l1.4540925.786525h1.43682l6.0008245-3.333825-2.171474-1.195725c-1.4368505-.79125-2.3293505-2.3016-2.3293505-3.94185v-2.2541998c.235125-.45915.7143-1.25835.75-1.2744s2.0148755-.5067 3.0000005-.75v-6.3325203z" fill="url(#e)"/>
<path d="m15.749788 8.7862242v3.0701248c0 1.6524-.905626 3.171975-2.359125 3.958125l-5.9999635 3.245325c-1.207964.6534-2.640262.71595-3.891172.18765.1156575.07725.235515.14955.3593475.216525l5.9999625 3.2454c1.3359005.72255 2.9460005.72255 4.2818255 0l5.999999-3.2454c1.4535-.78615 2.359125-2.30565 2.359125-3.95805v-1.89825l-4.5-3.8571748z" fill="url(#d)"/>
<path d="m15.749788 8.7862242v3.0701248c0 1.6524-.905626 3.171975-2.359125 3.958125l-5.9999635 3.245325c-1.207964.6534-2.640262.71595-3.891172.18765.1156575.07725.235515.14955.3593475.216525l5.9999625 3.2454c1.3359005.72255 2.9460005.72255 4.2818255 0l5.999999-3.2454c1.4535-.78615 2.359125-2.30565 2.359125-3.95805v-1.89825l-4.5-3.8571748z" fill="url(#c)"/>
<path d="m20.141262 4.5369189-5.999999-3.2460975c-1.23315-.6671588-2.70015-.7185255-3.9693-.1541025-1.1961755.835785-1.9219505 2.209275-1.9219505 3.688395v4.7021103l1.7205-.8694c1.2761995-.64485 2.7828005-.644775 4.0589995 0l6 3.0318748c1.4853.750525 2.4327 2.257875 2.469375 3.916275.00075-.0333.0011-.0666.0011-.10005v-7.0111498c0-1.652243-.905475-3.1716378-2.35875-3.9578553z" fill="url(#b)"/>
<path d="m20.141262 4.5369189-5.999999-3.2460975c-1.23315-.6671588-2.70015-.7185255-3.9693-.1541025-1.1961755.835785-1.9219505 2.209275-1.9219505 3.688395v4.7021103l1.7205-.8694c1.2761995-.64485 2.7828005-.644775 4.0589995 0l6 3.0318748c1.4853.750525 2.4327 2.257875 2.469375 3.916275.00075-.0333.0011-.0666.0011-.10005v-7.0111498c0-1.652243-.905475-3.1716378-2.35875-3.9578553z" fill="url(#a)"/>
</g>
<defs>
<radialGradient id="f" cx="0" cy="0" r="1" gradientTransform="matrix(-8.5386248,20.325494,-25.456705,-10.694218,10.737013,5.5677114)" gradientUnits="userSpaceOnUse">
<stop stop-color="#AE7FE2" offset=".0598494"/>
<stop stop-color="#0078D4" offset="1"/>
</radialGradient>
<linearGradient id="e" x1="13.2917" x2="11.0955" y1="24.578899" y2="19.3382" gradientTransform="matrix(.75 0 0 .75 1.25e-5 .0004989)" gradientUnits="userSpaceOnUse">
<stop stop-color="#114A8B" offset="0"/>
<stop stop-color="#0078D4" stop-opacity="0" offset="1"/>
</linearGradient>
<radialGradient id="d" cx="0" cy="0" r="1" gradientTransform="matrix(14.418284,-4.8866597,3.7551579,11.079743,6.4343075,18.780349)" gradientUnits="userSpaceOnUse">
<stop stop-color="#D59DFF" offset=".110651"/>
<stop stop-color="#5E438F" offset="1"/>
</radialGradient>
<linearGradient id="c" x1="27.426201" x2="23.7682" y1="16.2694" y2="21.4561" gradientTransform="matrix(.75 0 0 .75 1.25e-5 .0004989)" gradientUnits="userSpaceOnUse">
<stop stop-color="#493474" offset="0"/>
<stop stop-color="#8C66BA" stop-opacity="0" offset="1"/>
</linearGradient>
<radialGradient id="b" cx="0" cy="0" r="1" gradientTransform="matrix(-17.269491,-6.0967975,6.0489845,-17.134058,22.941387,12.293074)" gradientUnits="userSpaceOnUse">
<stop stop-color="#50E6FF" offset=".0960063"/>
<stop stop-color="#436DCD" offset="1"/>
</radialGradient>
<linearGradient id="a" x1="11" x2="15.9242" y1="1.7180901" y2="1.7180901" gradientTransform="matrix(.75 0 0 .75 1.25e-5 .0004989)" gradientUnits="userSpaceOnUse">
<stop stop-color="#2D3F80" offset="0"/>
<stop stop-color="#436DCD" stop-opacity="0" offset="1"/>
</linearGradient>
</defs>
</svg>
