<svg xmlns="http://www.w3.org/2000/svg" xmlns:xlink="http://www.w3.org/1999/xlink" width="1466.667" height="1466.667" viewBox="0 0 1466.667 1466.667"><defs><linearGradient id="j"><stop offset="0" stop-color="#d0f575"/><stop offset=".087" stop-color="#bce760"/><stop offset=".33" stop-color="#7db330"/><stop offset=".562" stop-color="#649d24"/><stop offset="1" stop-color="#27601f" stop-opacity="0"/></linearGradient><linearGradient id="i"><stop offset="0" stop-color="#27601f"/><stop offset="1" stop-color="#bdf13f"/></linearGradient><linearGradient id="m"><stop offset="0" stop-color="#d0f575"/><stop offset=".087" stop-color="#bce760"/><stop offset=".33" stop-color="#7db330"/><stop offset=".562" stop-color="#649d24"/><stop offset="1" stop-color="#27601f"/></linearGradient><linearGradient id="a"><stop offset="0" stop-color="#fff" stop-opacity=".502"/><stop offset="1" stop-color="#fff" stop-opacity="0"/></linearGradient><linearGradient xlink:href="#a" id="ax" x1="239.188" x2="238.307" y1="36.096" y2="189.271" gradientTransform="matrix(1.0371 0 0 1.00187 1.135 7.645)" gradientUnits="userSpaceOnUse"/><linearGradient id="k"><stop offset=".004" stop-color="#d8eeed"/><stop offset=".173" stop-color="#98d8d7"/><stop offset=".224" stop-color="#8ed3d3"/><stop offset=".309" stop-color="#74c6ca"/><stop offset=".418" stop-color="#49b1ba"/><stop offset=".448" stop-color="#3caab5"/><stop offset=".56" stop-color="#2e81a4"/><stop offset=".684" stop-color="#215b94"/><stop offset=".783" stop-color="#19448b"/><stop offset=".845" stop-color="#163b87"/><stop offset="1" stop-color="#0b317d"/></linearGradient><linearGradient id="l"><stop offset=".004" stop-color="#d8eeed"/><stop offset=".173" stop-color="#98d8d7"/><stop offset=".224" stop-color="#8ed3d3"/><stop offset=".309" stop-color="#74c6ca"/><stop offset=".418" stop-color="#49b1ba"/><stop offset=".448" stop-color="#3caab5"/><stop offset=".56" stop-color="#2e81a4"/><stop offset=".684" stop-color="#215b94"/><stop offset=".783" stop-color="#19448b"/><stop offset=".845" stop-color="#163b87"/><stop offset="1" stop-color="#152469"/></linearGradient><linearGradient id="w" x1="230.576" x2="225.406" y1="-169.541" y2="-187.729" gradientTransform="matrix(16.17832 0 0 -16.0782 -3049.528 -1975.344)" gradientUnits="userSpaceOnUse"><stop offset="0" stop-color="#98d8d7"/><stop offset="1" stop-color="#152469"/></linearGradient><linearGradient xlink:href="#b" id="y" x1="200.45" x2="207.315" y1="-178.688" y2="-178.688" gradientTransform="matrix(16.17832 0 0 -16.0782 -3049.528 -1975.344)" gradientUnits="userSpaceOnUse"/><linearGradient id="b"><stop offset="0" stop-color="#def3f1"/><stop offset="1" stop-color="#5085bc"/></linearGradient><linearGradient xlink:href="#b" id="z" x1="223.903" x2="230.89" y1="-179.954" y2="-179.954" gradientTransform="matrix(16.17832 0 0 -16.0782 -3049.528 -1975.344)" gradientUnits="userSpaceOnUse"/><linearGradient id="A" x1="206.641" x2="230.795" y1="-167.061" y2="-167.061" gradientTransform="matrix(16.17832 0 0 -16.0782 -3049.528 -1975.344)" gradientUnits="userSpaceOnUse"><stop offset="0" stop-color="#094992"/><stop offset=".668" stop-color="#8bcde2"/><stop offset="1" stop-color="#e6f6f9"/></linearGradient><linearGradient id="B" x1="207.226" x2="230.318" y1="-167.477" y2="-167.477" gradientTransform="matrix(16.17832 0 0 -16.0782 -3049.528 -1975.344)" gradientUnits="userSpaceOnUse"><stop offset=".006" stop-color="#bbc7e1"/><stop offset=".225" stop-color="#7090c3"/><stop offset=".545" stop-color="#c8eaef"/><stop offset="1" stop-color="#fff"/></linearGradient><linearGradient id="C" x1="206.696" x2="230.795" y1="-166.776" y2="-166.776" gradientTransform="matrix(16.17832 0 0 -16.0782 -3049.528 -1975.344)" gradientUnits="userSpaceOnUse"><stop offset=".006" stop-color="#7090c3"/><stop offset=".545" stop-color="#c1e7ed"/><stop offset="1" stop-color="#fff"/></linearGradient><linearGradient id="G" x1="252.821" x2="252.693" y1="-194.258" y2="-194.736" gradientTransform="matrix(16.17832 0 0 -16.0782 -3049.528 -1975.344)" gradientUnits="userSpaceOnUse"><stop offset="0" stop-color="#de980d"/><stop offset="1" stop-color="#a85d10"/></linearGradient><linearGradient id="H" x1="252.829" x2="258.914" y1="-184.025" y2="-184.025" gradientTransform="matrix(16.17832 0 0 -16.0782 -3049.528 -1975.344)" gradientUnits="userSpaceOnUse"><stop offset="0" stop-color="#deb150"/><stop offset="1" stop-color="#fff8b3"/></linearGradient><linearGradient id="I" x1="258.853" x2="258.853" y1="-173.294" y2="-173.69" gradientTransform="matrix(16.17832 0 0 -16.0782 -3049.528 -1975.344)" gradientUnits="userSpaceOnUse"><stop offset=".006" stop-color="#c67c0c"/><stop offset="1" stop-color="#de980d"/></linearGradient><linearGradient xlink:href="#c" id="J" x1="257.981" x2="258.228" y1="-172.829" y2="-173.24" gradientTransform="matrix(16.17832 0 0 -16.0782 -3049.528 -1975.344)" gradientUnits="userSpaceOnUse"/><linearGradient id="c"><stop offset=".006" stop-color="#fed40f"/><stop offset="1" stop-color="#a85d10"/></linearGradient><linearGradient xlink:href="#c" id="K" x1="258.626" x2="258.473" y1="-173.145" y2="-173.327" gradientTransform="matrix(16.17832 0 0 -16.0782 -3049.528 -1975.344)" gradientUnits="userSpaceOnUse"/><linearGradient id="L" x1="233.971" x2="257.971" y1="-173.117" y2="-173.117" gradientTransform="matrix(16.17832 0 0 -16.0782 -3049.528 -1975.344)" gradientUnits="userSpaceOnUse"><stop offset="0" stop-color="#fff8fb"/><stop offset="1" stop-color="#fec236"/></linearGradient><linearGradient id="M" x1="255.342" x2="254.807" y1="-183.53" y2="-183.377" gradientTransform="matrix(16.17832 0 0 -16.0782 -3049.528 -1975.344)" gradientUnits="userSpaceOnUse"><stop offset="0" stop-color="#b37e00"/><stop offset="1" stop-color="#ff9e00"/></linearGradient><linearGradient id="N" x1="252.55" x2="252.283" y1="-193.978" y2="-194.577" gradientTransform="matrix(16.17832 0 0 -16.0782 -3049.528 -1975.344)" gradientUnits="userSpaceOnUse"><stop offset=".006" stop-color="#ffd100"/><stop offset="1" stop-color="#a8710a"/></linearGradient><linearGradient id="O" x1="227.626" x2="252.086" y1="-194.564" y2="-194.564" gradientTransform="matrix(16.17832 0 0 -16.0782 -3049.528 -1975.344)" gradientUnits="userSpaceOnUse"><stop offset="0" stop-color="#de980d"/><stop offset=".4" stop-color="#fdda10"/><stop offset="1" stop-color="#de980d"/></linearGradient><linearGradient id="P" x1="227.456" x2="227.063" y1="-192.882" y2="-192.445" gradientTransform="matrix(16.17832 0 0 -16.0782 -3049.528 -1975.344)" gradientUnits="userSpaceOnUse"><stop offset="0" stop-color="#de980d"/><stop offset=".1" stop-color="#de980d"/><stop offset=".7" stop-color="#fdda10"/><stop offset="1" stop-color="#de980d"/></linearGradient><linearGradient id="Q" x1="227.468" x2="227.745" y1="-192.15" y2="-192.65" gradientTransform="matrix(16.17832 0 0 -16.0782 -3049.528 -1975.344)" gradientUnits="userSpaceOnUse"><stop offset="0" stop-color="#de980d"/><stop offset=".4" stop-color="#febf0f"/><stop offset=".8" stop-color="#fed40f"/><stop offset="1" stop-color="#de980d"/></linearGradient><linearGradient id="S" x1="230.946" x2="230.383" y1="-181.772" y2="-181.61" gradientTransform="matrix(16.17832 0 0 -16.0782 -3049.528 -1975.344)" gradientUnits="userSpaceOnUse"><stop offset=".006" stop-color="#ffefbb"/><stop offset="1" stop-color="#ffbf00"/></linearGradient><linearGradient id="T" x1="232.795" x2="258.867" y1="-173.376" y2="-173.376" gradientTransform="matrix(16.17832 0 0 -16.0782 -3049.528 -1975.344)" gradientUnits="userSpaceOnUse"><stop offset=".006" stop-color="#fca859"/><stop offset=".213" stop-color="#fdc30f"/><stop offset="1" stop-color="#b51c00"/></linearGradient><linearGradient id="U" x1="233.006" x2="258.914" y1="-173.716" y2="-173.716" gradientTransform="matrix(16.17832 0 0 -16.0782 -3049.528 -1975.344)" gradientUnits="userSpaceOnUse"><stop offset=".006" stop-color="#fff6d8"/><stop offset=".525" stop-color="#fdda10"/><stop offset="1" stop-color="#f9bd0c"/></linearGradient><linearGradient id="V" x1="252.125" x2="251.763" y1="-194.017" y2="-193.704" gradientTransform="matrix(16.17832 0 0 -16.0782 -3049.528 -1975.344)" gradientUnits="userSpaceOnUse"><stop offset="0" stop-color="#eab949"/><stop offset=".072" stop-color="#edc25a"/><stop offset=".278" stop-color="#f3d883"/><stop offset=".478" stop-color="#f8e9a4"/><stop offset=".67" stop-color="#fcf5bc"/><stop offset=".848" stop-color="#fefcca"/><stop offset="1" stop-color="#ffffcf"/></linearGradient><linearGradient xlink:href="#d" id="X" x1="213.862" x2="213.982" y1="-142.182" y2="-142.182" gradientTransform="matrix(16.17832 0 0 -16.0782 -3049.528 -1975.344)" gradientUnits="userSpaceOnUse"/><linearGradient id="d"><stop offset="0" stop-color="#fd7e36"/><stop offset="1" stop-color="#bd6f4f"/></linearGradient><linearGradient xlink:href="#e" id="Y" x1="213.921" x2="238.016" y1="-141.493" y2="-141.493" gradientTransform="matrix(16.17832 0 0 -16.0782 -3049.528 -1975.344)" gradientUnits="userSpaceOnUse"/><linearGradient id="e"><stop offset="0" stop-color="#fc2b21"/><stop offset=".236" stop-color="#ff590a"/><stop offset=".248" stop-color="#fb570b"/><stop offset=".327" stop-color="#e74c0e"/><stop offset=".417" stop-color="#d84511"/><stop offset=".525" stop-color="#d04013"/><stop offset=".697" stop-color="#cd3f13"/><stop offset=".796" stop-color="#d04213"/><stop offset=".869" stop-color="#d84b14"/><stop offset=".933" stop-color="#e65b16"/><stop offset=".993" stop-color="#f97219"/><stop offset="1" stop-color="#fc7519"/></linearGradient><linearGradient xlink:href="#d" id="Z" x1="207.718" x2="214.489" y1="-153.405" y2="-153.405" gradientTransform="matrix(16.17832 0 0 -16.0782 -3049.528 -1975.344)" gradientUnits="userSpaceOnUse"/><linearGradient xlink:href="#f" id="aa" x1="239.424" x2="215.336" y1="-144.728" y2="-139.359" gradientTransform="matrix(16.17832 0 0 -16.0782 -3049.528 -1975.344)" gradientUnits="userSpaceOnUse"/><linearGradient id="f"><stop offset="0" stop-color="#fe560d"/><stop offset="1" stop-color="#8c1501"/></linearGradient><linearGradient xlink:href="#f" id="ab" x1="225.955" x2="225.681" y1="-144.433" y2="-136.954" gradientTransform="matrix(16.17832 0 0 -16.0782 -3049.528 -1975.344)" gradientUnits="userSpaceOnUse"/><linearGradient id="ac" x1="231.084" x2="238.115" y1="-154.559" y2="-154.559" gradientTransform="matrix(16.17832 0 0 -16.0782 -3049.528 -1975.344)" gradientUnits="userSpaceOnUse"><stop offset="0" stop-color="#fd7e36"/><stop offset="1" stop-color="#fc895b"/></linearGradient><linearGradient id="ad" x1="207.735" x2="231.804" y1="-163.009" y2="-163.009" gradientTransform="matrix(16.17832 0 0 -16.0782 -3049.528 -1975.344)" gradientUnits="userSpaceOnUse"><stop offset="0" stop-color="#fd9b20"/><stop offset=".25" stop-color="#fd9b20"/><stop offset=".337" stop-color="#fdb830"/><stop offset=".429" stop-color="#fed23e"/><stop offset=".485" stop-color="#fedb43"/><stop offset=".75" stop-color="#fe8411"/><stop offset="1" stop-color="#fe560d"/></linearGradient><linearGradient xlink:href="#d" id="ae" x1="213.862" x2="213.983" y1="-142.182" y2="-142.182" gradientTransform="matrix(16.17832 0 0 -16.0782 -3049.528 -1975.344)" gradientUnits="userSpaceOnUse"/><linearGradient xlink:href="#e" id="af" x1="213.92" x2="238.016" y1="-141.493" y2="-141.493" gradientTransform="matrix(16.17832 0 0 -16.0782 -3049.528 -1975.344)" gradientUnits="userSpaceOnUse"/><linearGradient xlink:href="#g" id="ah" x1="241.248" x2="265.393" y1="-147.935" y2="-147.935" gradientTransform="matrix(16.17832 0 0 -16.0782 -3049.528 -1975.344)" gradientUnits="userSpaceOnUse"/><linearGradient id="g"><stop offset="0" stop-color="#d3ed89"/><stop offset="1" stop-color="#5f821c"/></linearGradient><linearGradient id="ai" x1="238.196" x2="237.623" y1="-156.675" y2="-156.511" gradientTransform="matrix(16.17832 0 0 -16.0782 -3049.528 -1975.344)" gradientUnits="userSpaceOnUse"><stop offset=".282" stop-color="#d3ed89"/><stop offset=".405" stop-color="#d3ed89"/><stop offset="1" stop-color="#5f821c"/></linearGradient><linearGradient id="aj" x1="241.273" x2="240.721" y1="-145.81" y2="-145.771" gradientTransform="matrix(16.17832 0 0 -16.0782 -3049.528 -1975.344)" gradientUnits="userSpaceOnUse"><stop offset="0" stop-color="#7aa922"/><stop offset=".2" stop-color="#d3ed89"/><stop offset=".525" stop-color="#d3ed89"/><stop offset="1" stop-color="#7aa922"/></linearGradient><linearGradient id="ak" x1="259.502" x2="266.219" y1="-158.343" y2="-158.343" gradientTransform="matrix(16.17832 0 0 -16.0782 -3049.528 -1975.344)" gradientUnits="userSpaceOnUse"><stop offset=".006" stop-color="#7aa922"/><stop offset=".169" stop-color="#1d4a20"/><stop offset=".382" stop-color="#26551b"/><stop offset="1" stop-color="#7aa922"/></linearGradient><linearGradient id="al" x1="259.539" x2="258.996" y1="-168.946" y2="-168.909" gradientTransform="matrix(16.17832 0 0 -16.0782 -3049.528 -1975.344)" gradientUnits="userSpaceOnUse"><stop offset="0" stop-color="#7aa922"/><stop offset="1" stop-color="#d3ed89"/></linearGradient><linearGradient id="am" x1="259.782" x2="259.439" y1="-168.996" y2="-169.378" gradientTransform="matrix(16.17832 0 0 -16.0782 -3049.528 -1975.344)" gradientUnits="userSpaceOnUse"><stop offset="0" stop-color="#5f821c"/><stop offset="1" stop-color="#26551b"/></linearGradient><linearGradient id="an" x1="234.824" x2="259.277" y1="-169.67" y2="-169.67" gradientTransform="matrix(16.17832 0 0 -16.0782 -3049.528 -1975.344)" gradientUnits="userSpaceOnUse"><stop offset="0" stop-color="#7aa922"/><stop offset=".4" stop-color="#d3ed89"/><stop offset="1" stop-color="#7aa922"/></linearGradient><linearGradient id="ao" x1="234.675" x2="234.288" y1="-167.797" y2="-167.368" gradientTransform="matrix(16.17832 0 0 -16.0782 -3049.528 -1975.344)" gradientUnits="userSpaceOnUse"><stop offset="0" stop-color="#1d3a19"/><stop offset=".1" stop-color="#26551b"/><stop offset=".65" stop-color="#7aa922"/><stop offset="1" stop-color="#d3ed89"/></linearGradient><linearGradient id="ap" x1="234.661" x2="234.942" y1="-167.104" y2="-167.611" gradientTransform="matrix(16.17832 0 0 -16.0782 -3049.528 -1975.344)" gradientUnits="userSpaceOnUse"><stop offset="0" stop-color="#5f821c"/><stop offset=".405" stop-color="#7aa922"/><stop offset=".8" stop-color="#5f821c"/><stop offset="1" stop-color="#5f821c"/></linearGradient><linearGradient xlink:href="#h" id="aq" x1="265.943" x2="266.023" y1="-147.652" y2="-147.38" gradientTransform="matrix(16.17832 0 0 -16.0782 -3049.528 -1975.344)" gradientUnits="userSpaceOnUse"/><linearGradient id="h"><stop offset="0" stop-color="#5b7f30"/><stop offset="1" stop-color="#d3ed89"/></linearGradient><linearGradient id="ar" x1="265.448" x2="240.864" y1="-151.081" y2="-144.031" gradientTransform="matrix(16.17832 0 0 -16.0782 -3049.528 -1975.344)" gradientUnits="userSpaceOnUse"><stop offset="0" stop-color="#1d3419"/><stop offset=".228" stop-color="#26551b"/><stop offset="1" stop-color="#7aa922"/></linearGradient><linearGradient id="as" x1="262.679" x2="262.11" y1="-158.141" y2="-157.978" gradientTransform="matrix(16.17832 0 0 -16.0782 -3049.528 -1975.344)" gradientUnits="userSpaceOnUse"><stop offset="0" stop-color="#5f821c"/><stop offset="1" stop-color="#75c146"/></linearGradient><linearGradient xlink:href="#g" id="at" x1="265.25" x2="266.354" y1="-147.547" y2="-147.547" gradientTransform="matrix(16.17832 0 0 -16.0782 -3049.528 -1975.344)" gradientUnits="userSpaceOnUse"/><linearGradient id="au" x1="265.343" x2="240.831" y1="-151.339" y2="-144.31" gradientTransform="matrix(16.17832 0 0 -16.0782 -3049.528 -1975.344)" gradientUnits="userSpaceOnUse"><stop offset="0" stop-color="#93bf81"/><stop offset=".228" stop-color="#26551b"/><stop offset="1" stop-color="#bde256"/></linearGradient><linearGradient xlink:href="#h" id="av" x1="265.945" x2="266.026" y1="-147.654" y2="-147.381" gradientTransform="matrix(16.17832 0 0 -16.0782 -3049.528 -1975.344)" gradientUnits="userSpaceOnUse"/><linearGradient xlink:href="#g" id="aw" x1="265.25" x2="266.356" y1="-147.548" y2="-147.548" gradientTransform="matrix(16.17832 0 0 -16.0782 -3049.528 -1975.344)" gradientUnits="userSpaceOnUse"/><linearGradient xlink:href="#i" id="ay" x1="656.6" x2="645.357" y1="720.753" y2="1004.304" gradientTransform="matrix(1.00408 0 0 1.0066 -399.64 -562.673)" gradientUnits="userSpaceOnUse"/><linearGradient xlink:href="#j" id="az" x1="287.754" x2="303.782" y1="467.406" y2="12.402" gradientUnits="userSpaceOnUse"/><radialGradient id="s" cx="232.407" cy="-168.505" r="33.058" gradientTransform="matrix(16.17832 0 0 -16.0782 -3049.528 -1975.344)" gradientUnits="userSpaceOnUse"><stop offset=".001" stop-color="#d1e7ee"/><stop offset=".098" stop-color="#cde4ec"/><stop offset=".203" stop-color="#c0dce8"/><stop offset=".298" stop-color="#add0e1"/><stop offset=".65" stop-color="#3982b1"/><stop offset=".72" stop-color="#3474aa"/><stop offset=".899" stop-color="#285699"/><stop offset="1" stop-color="#244b93"/></radialGradient><radialGradient xlink:href="#k" id="t" cx="232.389" cy="-168.276" r="33.26" gradientTransform="matrix(16.17832 0 0 -16.0782 -3049.528 -1975.344)" gradientUnits="userSpaceOnUse"/><radialGradient xlink:href="#l" id="u" cx="232.386" cy="-168.443" r="33.178" gradientTransform="matrix(16.17832 0 0 -16.0782 -3049.528 -1975.344)" gradientUnits="userSpaceOnUse"/><radialGradient xlink:href="#k" id="v" cx="232.41" cy="-168.416" r="33.192" gradientTransform="matrix(16.17832 0 0 -16.0782 -3049.528 -1975.344)" gradientUnits="userSpaceOnUse"/><radialGradient xlink:href="#l" id="x" cx="232.418" cy="-168.404" r="33.31" gradientTransform="matrix(16.17832 0 0 -16.0782 -3049.528 -1975.344)" gradientUnits="userSpaceOnUse"/><radialGradient id="D" cx="206.623" cy="-167.599" r=".082" gradientTransform="matrix(16.17832 0 0 -16.0782 -3049.528 -1975.344)" gradientUnits="userSpaceOnUse"><stop offset="0" stop-color="#7e9ec4"/><stop offset="1" stop-color="#0a50a1"/></radialGradient><radialGradient id="E" cx="190.719" cy="-188.167" r="40.777" gradientTransform="matrix(16.17832 0 0 -16.0782 -3049.528 -1975.344)" gradientUnits="userSpaceOnUse"><stop offset=".004" stop-color="#d8eeed"/><stop offset=".173" stop-color="#98d8d7"/><stop offset=".224" stop-color="#8ed3d3"/><stop offset=".309" stop-color="#74c6ca"/><stop offset=".418" stop-color="#49b1ba"/><stop offset=".448" stop-color="#3caab5"/><stop offset=".499" stop-color="#369fb5"/><stop offset=".631" stop-color="#2a88b4"/><stop offset=".713" stop-color="#257fb4"/><stop offset="1" stop-color="#4161ab"/></radialGradient><radialGradient id="F" cx="232.379" cy="-169.231" r="30.777" gradientTransform="matrix(16.17832 0 0 -16.0782 -3049.528 -1975.344)" gradientUnits="userSpaceOnUse"><stop offset="0" stop-color="#fcf5b0"/><stop offset=".166" stop-color="#f7eda0"/><stop offset=".285" stop-color="#f3e591"/><stop offset=".65" stop-color="#fcd118"/><stop offset=".802" stop-color="#f7a50c"/><stop offset=".929" stop-color="#f38603"/><stop offset="1" stop-color="#f27b00"/></radialGradient><radialGradient id="R" cx="233.66" cy="-170.85" r=".302" gradientTransform="matrix(16.17832 0 0 -16.0782 -3049.528 -1975.344)" gradientUnits="userSpaceOnUse"><stop offset="0" stop-color="#feeb71"/><stop offset="1" stop-color="#de980d"/></radialGradient><radialGradient id="W" cx="231.44" cy="-164.997" r="29.215" gradientTransform="matrix(16.17832 0 0 -16.0782 -3049.528 -1975.344)" gradientUnits="userSpaceOnUse"><stop offset=".004" stop-color="#efd916"/><stop offset=".105" stop-color="#efd516"/><stop offset=".216" stop-color="#edc715"/><stop offset=".331" stop-color="#ebb213"/><stop offset=".449" stop-color="#e89312"/><stop offset=".567" stop-color="#e36d0f"/><stop offset=".65" stop-color="#e04d0d"/><stop offset=".785" stop-color="#ce2907"/><stop offset=".922" stop-color="#bf0b02"/><stop offset="1" stop-color="#b90000"/></radialGradient><radialGradient id="ag" cx="232.245" cy="-168.24" r="33.43" gradientTransform="matrix(16.17832 0 0 -16.0782 -3049.528 -1975.344)" gradientUnits="userSpaceOnUse"><stop offset=".005" stop-color="#d1e787"/><stop offset=".123" stop-color="#cee583"/><stop offset=".247" stop-color="#c4de76"/><stop offset=".375" stop-color="#b3d361"/><stop offset=".505" stop-color="#9cc443"/><stop offset=".636" stop-color="#7fb01d"/><stop offset=".649" stop-color="#7bae19"/><stop offset=".779" stop-color="#578d19"/><stop offset=".922" stop-color="#366e1a"/><stop offset="1" stop-color="#29621a"/></radialGradient><radialGradient xlink:href="#m" id="n" cx="290.085" cy="137.795" r="82.154" fx="290.085" fy="137.795" gradientTransform="matrix(2.2476 .05715 -.01557 .5415 -428.64 57.895)" gradientUnits="userSpaceOnUse"/><filter id="r" width="1.44" height="1.527" x="-.22" y="-.264" color-interpolation-filters="sRGB"><feGaussianBlur stdDeviation="3.832"/></filter><filter id="q" width="1.433" height="1.539" x="-.216" y="-.269" color-interpolation-filters="sRGB"><feGaussianBlur stdDeviation="3.987"/></filter><filter id="p" width="1.433" height="1.538" x="-.217" y="-.269" color-interpolation-filters="sRGB"><feGaussianBlur stdDeviation="3.966"/></filter><filter id="o" width="1.441" height="1.526" x="-.221" y="-.263" color-interpolation-filters="sRGB"><feGaussianBlur stdDeviation="3.838"/></filter><filter id="aA" width="1.418" height="1.168" x="-.209" y="-.084" color-interpolation-filters="sRGB"><feGaussianBlur stdDeviation="10.866"/></filter></defs><ellipse cx="220.661" cy="123.078" fill="url(#n)" rx="28.7" ry="28.395" transform="matrix(24.61438 0 0 24.40012 -4704.906 -2270.987)"/><path d="M-181.43 78.02c-1.49.038-3.064.192-4.676.46a46.187 46.187 0 0 0-5.328 1.232 64.693 64.693 0 0 0-6.069 2.115l-.015.003a.259.259 0 0 0-.146.166l-8.38 28.391c-.046.15.037.305.133.387l.56.416s.01.005.019.014a.487.487 0 0 0 .326.078l.018-.005c3.138-1.178 5.936-2.024 8.554-2.589 2.552-.547 4.85-.808 7.026-.797 1.82.012 3.53.2 5.233.57a25.34 25.34 0 0 1 4.563 1.471c2.152.937 4.125 2.115 5.603 3.035l.014.008v.004c.046.023.183.086.314.029 0 0 .37-.212.48-.278l.039-.025c.075-.051.177-.12.207-.25l.005-.029.004.007 8.34-27.648.287-.948a.464.464 0 0 0 .008-.078.326.326 0 0 0-.128-.266l-.01-.001v-.002c-3.551-2.329-7.564-4.577-12.852-5.26a27.007 27.007 0 0 0-4.13-.209z" filter="url(#o)" opacity=".3" transform="matrix(12.1612 0 0 12.3851 2688.074 -302.168)"/><path d="M-160.595 86.43c-.097.006-.197.043-.347.134l-.001.004h-.004l-.001.005c-.038.026-.135.09-.246.174-.225.171-.363.31-.401.404h-.001a.102.102 0 0 1-.008.025v-.007.012l-8.39 28.132c-.144.422.242.653.286.676 2.153 1.398 4.205 2.5 6.274 3.361 1.213.51 2.452.94 3.69 1.284 1.338.375 2.714.666 4.095.86 1.48.203 3.006.308 4.536.304a36.698 36.698 0 0 0 5.008-.378 42.974 42.974 0 0 0 5.511-1.182 53.939 53.939 0 0 0 6.058-2.118c.057-.036.194-.119.262-.257l8.195-27.682-.003-.006v-.002a.468.468 0 0 0 .013-.12c0-.229-.146-.367-.148-.37 0 .003-.686-.526-.686-.526l-.001-.006c-.046-.047-.166-.124-.46-.082a73.013 73.013 0 0 1-6.039 1.708c-1.84.428-3.623.75-5.304.955-3.168.387-6.035.387-8.762 0a26.627 26.627 0 0 1-6.94-1.972c-1.834-.794-3.702-1.824-5.878-3.245l-.007-.003h.003a.787.787 0 0 0-.303-.082z" filter="url(#p)" opacity=".3" transform="matrix(12.1612 0 0 12.3851 2688.074 -302.168)"/><path d="m-151.01 52.169-.144.1c-.288.209-.46.37-.507.48l-.001.003-.001.001c0 .004-.03.096-.03.096 0 .005-8.416 28.197-8.416 28.197a.58.58 0 0 0-.033.186c0 .308.286.467.291.468h.001c.668.433 1.356.85 2.048 1.233 3.23 1.95 6.422 3.246 9.759 3.959 1.933.42 3.942.639 5.974.657 2.195.022 4.494-.194 6.826-.635 3.46-.531 6.978-1.576 10.448-3.096 0-.003.01-.006.01-.006a.689.689 0 0 0 .281-.26c0-.006 8.559-28.455 8.559-28.455a.475.475 0 0 0 .024-.146c0-.244-.214-.449-.421-.626-.115-.107-.273-.242-.384-.288-.232-.107-.47-.073-.54-.03-.002 0-.006.005-.006.005v.001a64.242 64.242 0 0 1-6.053 2.09 44.78 44.78 0 0 1-5.321 1.194 33.345 33.345 0 0 1-4.686.413 27.225 27.225 0 0 1-4.136-.25c-2.392-.335-4.683-1.001-6.996-2.038-2.297-1.028-4.358-2.31-5.898-3.312-.263-.116-.38-.108-.647.059z" filter="url(#q)" opacity=".3" transform="matrix(12.1612 0 0 12.3851 2688.074 -302.168)"/><path d="M-178.252 44.28c-2.904.61-6.076 1.6-9.428 2.943-.03.012-.124.048-.156.17l-.435 1.45-8.07 27.032a.288.288 0 0 0-.012.095c0 .131.058.294.124.342.012.01.029.016.038.021l.001.003.056.041.497.377.015.008a.746.746 0 0 0 .045.031c.102.041.128.041.154.039h.01c0-.003.004-.003.004-.003v-.001l.015-.005c.074-.005.246-.08.247-.083 7.35-2.822 13.23-3.848 18.5-3.223 2.249.266 4.424.842 6.652 1.757 1.773.73 3.605 1.686 5.757 3.006l.03.014h.007l.026.013h.004l.007.005.008.005h-.003s.17.082.311.045l.53-.232.024-.016c.07-.05.18-.125.21-.26l5.309-17.749 2.852-9.537.19-.63.002-.013.138-.463c.004-.014.005-.03.008-.048v-.038c0-.108-.045-.2-.125-.253-1.686-1.106-3.024-1.904-4.338-2.584l-.089-.045c-3.794-1.958-7.446-2.908-11.491-2.99-2.37-.05-4.937.21-7.625.777z" filter="url(#r)" opacity=".3" transform="matrix(12.1612 0 0 12.3851 2688.074 -302.168)"/><path fill="url(#s)" d="M294.758 720.214c202.746-82.995 300.884-38.716 388.765 20.58L582.02 1087.488c-88.204-58.942-184.11-107.482-387.665-23.843l99.205-342.932z"/><path fill="url(#t)" d="M201.83 1073.838c.663.08 1.828-.547 1.828-.547a37.216 37.216 0 0 0 2.62 1.673s-2.297.53-4.449-1.126z"/><path fill="#152469" d="M578.492 1091.395s1.327 1.27 2.913.884l-6.067 3.602c-1.942.868-3.996-.53-3.996-.53z"/><path fill="url(#u)" d="M203.787 1073.34s-1.213.675-1.877.579l-6.698-5.113-.113-.129a6.31 6.27 0 0 0 2.443.064z"/><path fill="#152469" d="M581.938 1086.588c.68.402 1.392 1.012 2.055 2.38-.356 1.832-1.812 2.716-2.766 3.36-1.23.257-2.961-.837-2.961-.837 1.003-.82 2.62-1.993 3.672-4.903z"/><path fill="#172e65" d="M195.212 1068.805c-1.294-1.093-2.168-3.023-1.634-4.743l1.181-.53c-.47 2.588 1.343 4.405 2.734 5.273.016 0-.954.418-2.281 0z"/><path fill="url(#v)" d="M203.366 1073.034c193.655-75.165 280.37-34.198 368.607 22.14-52.838-33.813-107.133-60.695-182.12-61.242-50.217-.257-109.526 12.364-183.769 41.032 0 0-1.472-.595-2.718-1.93z"/><path fill="#094b8f" d="M578.444 1091.668c-88.22-59.007-179.612-104.01-380.79-22.783-1.342-.82-3.494-2.861-2.944-5.354 204.203-86.356 299.121-35.918 387.326 23.057-.923 3.15-2.589 4.309-3.592 5.08z"/><path fill="#094b8f" d="m578.573 1091.668-7.167 3.666c-88.155-56.338-177.411-95.36-367.62-21.995l-6.309-4.534c201.226-81.243 292.827-36.144 381.096 22.863z"/><path fill="url(#w)" d="m581.89 1086.668 101.633-345.89a10.16 10.097 0 0 1 2.297 1.946l-101.826 346.42c-.583-1.559-2.104-2.475-2.104-2.475z"/><path fill="url(#x)" d="m684.17 738.399.162.032c1.294.916 1.812 2.685 1.488 4.293l-.065.209c-.582-.595-1.165-1.238-2.265-1.978z"/><path fill="#063367" d="m194.759 1063.531-1.181.547 98.817-343.687 1.181.29z" opacity=".66"/><path fill="url(#y)" d="m292.396 720.391-4.692 16.464-94.126 327.224c-.517 1.704.34 3.65 1.634 4.743l6.698 5.097h.016a6.665 6.624 0 0 0 2.411.996l100.144-344.91-.227-.273-10.677-9.035zm-97.459 343.077v-.064l1.392-.499c-.486.177-.906.354-1.392.563zm2.557 5.338a7.636 7.589 0 0 1-2.007-1.898c.583.804 1.36 1.464 2.007 1.833z" opacity=".42"/><path fill="url(#z)" d="m685.416 739.894-1.926 1.141-8.429 8.249c.033 0 .033 0 .033.064-13.703 46.514-90.615 307.512-102.263 346.598.728.209 1.617.273 2.475-.08l6.067-3.602h-.065c.906-.675 2.265-1.527 2.67-3.264v.129l98.46-334.925 3.366-11.496c.097-.627 0-1.19-.097-1.769-.049-.37-.162-.659-.291-1.045z" opacity=".42"/><path fill="url(#A)" d="m683.49 740.939-8.429 8.36c-29.25-19.31-109.834-69.023-200.837-61.643-73.87 5.98-138.907 29.584-169.76 42.334l-10.904-9.293.777-2.396c203.604-83.703 301.774-39.199 389.898 20.114l-.065.032h.145z"/><path fill="url(#B)" d="M303.04 728.736c203.637-83.687 294.576-28.378 373.59 19.036l-1.552 1.528c-81.345-50.084-167.85-101.47-370.565-19.23z" opacity=".33"/><path fill="url(#C)" d="M294.466 717.995c203.605-83.687 297.682-40.694 389.866 20.436l-.793 2.363c-96.811-62.27-184.886-103.688-387.6-21.48z" opacity=".33"/><path fill="url(#D)" d="m293.577 720.68-1.181-.289c.436-1.415 1.488-1.978 1.812-2.058l.145-.048c0-.016-.194.691-.776 2.396z"/><path fill="url(#E)" d="M578.687 1091.604c-88.204-58.942-179.612-103.961-380.773-22.782-1.343-.788-3.51-2.798-2.977-5.322 204.236-86.404 299.138-35.903 387.342 23.024-.906 3.2-2.573 4.277-3.592 5.08z" opacity=".5"/><path fill="url(#F)" d="M736.7 774.317c88.14 58.927 178.286 102.145 385.45 31.755l-96.699 334.282c-203.329 83.574-300.965 36.256-389.007-23.073z"/><path fill="url(#G)" d="M1042.617 1152.22a8.235 8.184 0 0 1-3.3 3.247c-.163 0-.276.08-.276.08s-1.682.161-3.187-.98a11.487 11.416 0 0 0 5.129-6.512s2.33 1.945 1.634 4.164z"/><path fill="url(#H)" d="M1042.617 1152.22c.356-1.898-1.796-3.667-1.796-3.667l96.407-333.88s1.553 1.367 2.022 2.445z"/><path fill="url(#I)" d="M1139.217 817.278s-.29-1.029-2.022-2.395c.777-3.248.194-3.972.194-3.972l.243.161c0-.016 2.475 2.315 1.585 6.206z"/><path fill="url(#J)" d="M1129.591 809.191s-2.62-3.184-8.073-2.251c.275-1.206.728-2.669 2.476-3.36 3.268-.499 4.82.305 5.533 1.045a1.828 1.817 0 0 1 .517.675 6.795 6.753 0 0 1-.453 3.891z"/><path fill="url(#K)" d="m1129.527 804.64 8.105 6.416c.404 2.122-.437 4.309-.437 4.309l-7.976-6.35c0-.017.777-2.46.308-4.374z"/><path fill="#b37e00" d="m1040.626 1149.727-8.429-7.236 96.957-334.056 8.137 6.495-96.244 333.96z" opacity=".66"/><path fill="url(#L)" d="M1121.858 807.278c-204.186 69.2-297.665 28.072-385.772-30.935.178-.659.582-2.154-.356-3.682 88.123 58.975 185.598 99.155 388.28 30.935-1.586 1.045-1.748 2.476-2.152 3.682z"/><path fill="#d9a200" d="m621.236 1121.268 99.043-340.793 6.779-4.566-98.17 340.118-7.652 6.045z"/><path fill="url(#M)" d="m1024.448 1140.627 97.07-333.783c.162 0 .34-.29.583-.306 5.064-.482 7.49 2.138 7.49 2.138l-96.714 333.35c0 .016-4.06-3.184-8.429-1.399z" opacity=".66"/><path fill="#a85d10" d="M1039.332 1155.467c-199.398 84.683-327.255 32.574-415.362-26.353l.922-.836c88.042 58.943 223.714 108.062 410.945 25.87 1.521 1.27 3.495 1.319 3.495 1.319z"/><path fill="url(#N)" d="m1032.796 1141.913 8.251 6.978s-1.1 3.891-5.533 5.772l-8.38-6.833c4.417-1.881 5.662-5.917 5.662-5.917z" opacity=".66"/><path fill="url(#O)" d="M1024.61 1140.177c-.776 5.16 4.19 8.344 4.19 8.344-211.305 75.97-301.855 30.597-395.721-25.612 1.504-1.19 2.346-2.074 3.252-5.676.177.064 1.375-.145 1.585 0 90.76 55.518 195.644 101.518 386.694 22.944z"/><path fill="#c67c0c" d="m624.924 1128.729 8.154-5.837c80.746 50.02 193.833 104.75 394.573 24.68l8.251 6.93c-186.52 82.192-322.92 33.12-410.978-25.773z"/><path fill="#de980d" d="m625.62 1128.97-.938.659s-5.29-2.926-3.446-8.345c.453 5.306 4.384 7.686 4.384 7.686z"/><path fill="url(#P)" d="m621.236 1121.269 7.652-6.238c-.42 5.563 5 7.637 5 7.637l-8.397 6.383a8.122 8.071 0 0 1-4.255-7.782z"/><path fill="url(#Q)" d="M628.338 1115.272c2.735-1.045 5.258.177 8.17 1.849-.97 3.585-1.65 4.84-3.138 5.884-1.86-1.029-5.485-3.167-5.032-7.733z"/><path fill="#de980d" d="m728.385 773.047-1.489 2.894-6.81 4.855c.484-2.267 6.082-6.286 7.813-7.46.243-.193.486-.29.486-.29z"/><path fill="url(#R)" d="M736.005 776.295a9.513 9.454 0 0 0-9.108-.354c.242-.755 1.084-2.685 1.084-2.685 3.284-2.042 4.74-2.042 7.75-.595a4.384 4.357 0 0 1 .274 3.634z"/><path fill="url(#S)" d="M637.253 1117.7c-2.896-1.689-6.197-2.959-8.995-1.85l98.784-339.94a9.383 9.325 0 0 1 9.044.433z"/><path fill="url(#T)" d="M721.995 778.208c30.156 25.999 161.103 132.388 415.637 32.848l-8.105-6.415c-.696-.74-2.25-1.56-5.517-1.045-202.682 68.22-300.157 28.04-388.28-30.935v.08c-2.96-1.495-4.433-1.495-7.685.596-4.077 2.797-4.077 2.765-6.05 4.871z" opacity=".33"/><path fill="url(#U)" d="M1137.632 811.056c-254.534 99.54-385.497-6.85-415.637-32.848a7.2 7.155 0 0 0-1.699 2.187v.08l-.097.258-.032.064h.032l-.049.16c26.29 22.864 157.82 136.794 419.148 33.78-.29-2.282-1.666-3.681-1.666-3.681z" opacity=".33"/><path fill="url(#V)" d="M1027.668 1147.605s-3.753-2.267-3.042-7.428a8.736 8.682 0 0 1 8.3 1.849s-.825 3.682-5.258 5.579z"/><path fill="url(#W)" d="M700.429 678.298c-53.049-35.516-110.142-68.718-191.244-69.313-53.485-.418-117.196 14.712-198.071 47.897l100.192-345.07c203.426-83.607 301.176-36.208 389.3 23.024z"/><path fill="#bc1b00" d="m700.315 678.201 100.257-343.35c1.1.692 1.553 1.27 2.103 1.946L702.483 680.645c-.566-1.447-2.168-2.444-2.168-2.444zM320.74 666.899c32.097-13.072 61.752-22.767 89.304-29.44 6.714-1.64 12.651-3.022 19.737-4.389 6.472-1.318 12.895-2.556 19.14-3.489 9.787-1.43 19.316-2.685 28.667-3.425 7.895-.627 15.612-1.06 23.168-1.125 7.296-.064 14.495 0 21.484.37 6.18.353 12.247.836 18.25 1.527 5.063.563 9.998 1.222 14.916 2.042 10.306 1.753 20.304 3.94 29.946 6.64 38.99 10.966 73.611 29.649 105.45 50.695-.259.145-1.019-.21-1.31-.37-.307-.145-.453-.145-.76-.321-43.019-27.092-89.192-50.727-146.252-57.689-58.323-7.09-126.434 2.894-218.1 38.99 0 0-2.055.948-2.929 1.045-.711.209-.55-.354-.711-1.061z"/><path fill="#bc1b00" d="M696.87 683.25s1.31.916 2.847.595l-6.278 2.814c-1.714.45-3.753-.58-3.753-.58z"/><path fill="#b81a00" d="M320.772 666.947s.42.691.68 1.11c-.55.08-.696.224-2.2-.451-.227-.064-.486-.306-.761-.53l-6.52-5.05-.615-.482c.874-.048 1.52.338 1.974.29z"/><path fill="#e82e00" d="M700.428 678.266c.68.434 1.521.691 2.12 2.106-.437 1.897-1.99 2.83-2.848 3.457-1.569.434-3.057-.724-3.057-.724.987-.723 2.766-1.961 3.785-4.84z"/><path fill="#f83603" d="m801.17 332.488.114.032c1.294.9 1.763 2.573 1.375 4.245l-.08.145c-.518-.611-.907-1.254-2.023-2.09z"/><path fill="#e32e00" d="M311.486 661.753c-.987-.707-1.91-3.65-1.36-5.386l1.295-.402c-.518 2.492 1.02 5.387 2.41 6.19.017 0-.954.563-2.345-.402z"/><path fill="url(#X)" d="m411.339 311.876-.955-.241c.388-1.527 1.44-1.994 1.828-2.106l.13-.032a10.16 10.097 0 0 0-1.003 2.38z"/><path fill="#e82e00" d="M697.063 683.314c-94.82-65.374-210.949-106.405-383.426-21.239l7.054 4.952c188.494-76.532 286.728-35.179 369.464 19.037z"/><path fill="#e82e00" d="M696.87 683.25c-54.295-35.211-105.03-64.41-185.501-66.692-58.728 1.173-103.849 8.634-197.554 45.597-1.391-.755-3.155-2.717-2.702-5.257 81.2-34.343 145.621-49.215 199.09-48.685 81.054.788 137.177 34.52 190.225 69.972-.906 3.152-2.637 4.325-3.559 5.065z"/><path fill="#e32e00" d="m410.384 311.603.922.273-99.966 344.861c-.227-.16-1.23-.386-1.23-.386z"/><path fill="url(#Y)" d="M800.605 334.852c-88.188-59.296-186.779-105.168-389.25-22.976.42-1.752.857-2.347.857-2.347 203.459-83.607 300.868-36.337 388.96 22.96z" opacity=".66"/><path fill="#fe8411" d="M788.956 346.219c-71.832-46.353-166.782-104.412-369.254-22.236.453-1.72.971-2.62.971-2.62 203.426-83.591 299.315-19.906 369.011 22.348z" opacity=".33"/><path fill="url(#Z)" d="M414.655 314.16c-.566.224-2.524-.049-2.524-.049L311.017 662.124l7.474 4.984a2.864 2.846 0 0 0 .76.53c1.279.563 1.538.563 1.942.483l99.06-345.633.307-1.03z" opacity=".36"/><path fill="url(#aa)" d="m789.458 343.984.114.129.016-.225z" opacity=".5"/><path fill="url(#ab)" d="M791.917 336.074c-33.44-22.268-89.11-58.412-170.535-64.072-86.376-6.03-195.823 37.655-206.727 42.157l5.89 7.284-.308 1.029c.307-.065.598-.241.89-.354 201.678-86.195 325.896-8.36 368.331 21.866l.146-.096 6.342-5.161z" opacity=".5"/><path fill="#fff4c5" d="M414.655 314.16c10.92-4.503 120.35-48.187 206.726-42.158 81.426 5.66 137.095 41.82 170.536 64.072 1.375.916 2.718 1.8 3.996 2.653l6.26-5c-.274-.419-.452-.901-.905-1.19-86.166-58.01-181.375-104.46-375.806-28.314-4.352 1.752-8.704 3.424-13.137 5.273z" opacity=".5"/><path fill="url(#ac)" d="m801.171 332.617-.566 2.235-4.692 3.875-6.325 5.16-.016.226c-21 71.58-86.635 295.051-100.549 341.63.162.064.275.096.453.225l.21.112s2.04 1.03 3.754.579l6.277-2.814c-.016.033-.065 0-.178.033.065-.033.113 0 .146-.033.793-.643 2.33-1.56 2.766-3.215l.016-.113c0-.048.049-.048.049-.112l96.067-329.732 2.378-8.12.081-.337 1.602-5.403c.323-1.157.113-3.489-1.473-4.196z" opacity=".6"/><path fill="url(#ad)" d="M697.08 683.074c-54.262-35.212-105.03-64.426-185.452-66.725-58.76 1.19-103.865 8.634-197.57 45.598-1.44-.724-3.154-2.685-2.701-5.21 81.199-34.375 145.62-49.247 199.122-48.7 81.021.836 137.16 34.487 190.193 69.972-.922 3.135-2.654 4.341-3.592 5.065z" opacity=".5"/><path fill="none" d="M411.338 310.01c-.372.322-.744.805-.954 1.593l-5.145 17.557-95.112 327.191c-.55 1.753.372 4.679 1.359 5.386.097.065.161.065.258.113l.21.193-.954.064 101.115-347.996s1.973.273 2.523.048z"/><path fill="#f83603" d="m801.17 332.488.114.065c1.294.868 1.763 2.54 1.375 4.212l-.08.145c-.518-.611-.907-1.222-2.023-2.09z"/><path fill="url(#ae)" d="m411.339 311.876-.939-.241a2.96 2.942 0 0 1 1.812-2.106l.146-.032c0-.017-.485.707-1.02 2.38z"/><path fill="url(#af)" d="M800.605 334.852c-88.14-59.296-186.779-105.135-389.266-22.96.436-1.704.873-2.347.873-2.347 203.459-83.607 300.868-36.337 388.96 22.96z" opacity=".66"/><path fill="url(#ag)" d="M1242.192 393.377c-203.15 83.43-300.755 36.513-388.7-22.365L753.267 716.388c87.881 59.216 194.076 107.772 388.846 21.175z"/><path fill="url(#ah)" d="M1241.772 393.634c-203.135 83.413-300.367 36.481-388.312-22.333a6.277 6.238 0 0 0 0-3.714c87.945 58.846 187.587 106.245 390.61 22.783-1.667.949-1.797 2.106-2.298 3.264z"/><path fill="#8cac42" d="m845.208 370.272-99.221 342.337-7.637 6.045v-.772l99.562-342.449z"/><path fill="url(#ai)" d="M753.478 716.516c-3.042-1.752-5.323-5.225-8.073-4.132l99.432-341.935a8.575 8.521 0 0 1 9.011.852z"/><path fill="#5f821c" d="m846.098 368.085-1.003 2.428-7.248 5.193c.647-2.347 6.229-6.222 7.847-7.444.34-.145.404-.177.404-.177z"/><path fill="url(#aj)" d="M853.508 371.012a9.27 9.213 0 0 0-8.72-.483c.21-.755.89-2.267.89-2.267 3.284-2.025 4.643-2.106 7.766-.675a4.61 4.582 0 0 1 .064 3.425z"/><path fill="url(#ak)" d="M1257.449 401.77 1156.43 745.745l-7.652-6.608 100.467-343.832z" opacity=".81"/><path fill="#476e32" d="M1158.404 748.27c.243-1.993-1.812-3.57-1.812-3.57l100.71-343.252s1.634 1.414 2.039 2.411z"/><path fill="#1d3419" d="M1155.04 751.454c-54.28 24.519-105.597 37.173-153.29 41.272-82.38 9.213-149.019-8.521-203.394-35.098a405.715 405.715 0 0 1-57.288-31.964l.939-.691c17.213 11.432 35.9 22.686 56.349 32.655 55.297 25.226 124.298 41.883 203.394 35.115 45.024-5.113 94.804-18.346 149.795-42.527 1.553 1.157 3.494 1.238 3.494 1.238z"/><path fill="url(#al)" d="M1144.055 745.055s-3.835-3.44-3.187-8.457a9.383 9.325 0 0 1 8.671 1.881s-1.051 4.679-5.484 6.576z"/><path fill="url(#am)" d="m1149.54 738.479 7.182 6.383s-1.084 3.955-5.452 5.853l-7.523-6.351a10.645 10.58 0 0 0 5.792-5.885z"/><path fill="url(#an)" d="M1142.113 736.421c-.712 5.049 3.042 8.763 3.042 8.763-203.038 83.462-307.647 34.407-395.625-24.841 1.553-1.061 1.764-1.061 2.783-4.679 87.913 59.2 220.802 100.666 389.8 20.757z"/><path fill="#26551b" d="m742.007 725.31 7.571-5c87.962 56.29 191.859 104.943 394.767 23.892l7.28 6.335c-194.77 85.408-319.343 37.897-409.618-25.226z"/><path fill="#5f821c" d="M1158.404 748.27c-.938 1.85-2.75 2.926-3.365 3.184-.13.08-.21.08-.21.08s-1.343.257-3.268-1.013c4.044-2.106 5.16-6.528 5.16-6.528s2.298 2.026 1.683 4.277z"/><path fill="#26551b" d="m742.314 725.23-.89.708s-4.902-2.685-3.057-8.056c.453 5.355 3.947 7.348 3.947 7.348z"/><path fill="url(#ao)" d="m738.351 717.883 7.329-5.74a8.09 8.04 0 0 0 4.32 7.798l-7.41 5.708a8.17 8.12 0 0 1-4.239-7.766z"/><path fill="url(#ap)" d="M745.502 712.143c2.524-.82 4.74 1.833 7.782 4.245-1.02 3.537-1.845 2.91-3.398 3.987a8.38 8.329 0 0 1-4.384-8.232z"/><path fill="url(#aq)" d="M1258.112 398.216c.097 1.27-.858 3.409-.858 3.409l-7.797-6.239s1.132-2.556.566-4.485c2.62 1.093 7.652 6.56 8.089 7.315z" opacity=".72"/><path fill="url(#ar)" d="M1257.95 397.895c-1.52-2.042-3.85-3.86-5.679-5.515-3.43-3.12-7.7-2.444-8.703-1.85l-.05.113c-202.6 83.125-302.146 35.726-390.043-23.072.195.434.21.868.26 1.286-.05-.418-.065-.852-.26-1.286-3.106-1.415-4.481-1.35-7.765.675a46.432 46.144 0 0 0-6.423 5.354c33.797 28.298 177.492 140.186 418.663 24.295zm-404.442-26.883-.048.064c0-.064-.016-.064-.049-.08l.097.016c.21-.466.21-.9.243-1.35a4.271 4.245 0 0 1-.243 1.35z" opacity=".33"/><path fill="url(#as)" d="m1141.175 737.209 100.435-343.672c5.484-1.013 8.105 2.09 8.105 2.09l-100.176 342.82c0 .032-4.11-3.039-8.364-1.238z" opacity=".72"/><path fill="url(#at)" d="M1241.772 393.634a4.724 4.695 0 0 1 1.78-3.103c1.019-.595 5.274-1.27 8.703 1.849 3.43 3.07 8.704 6.64 7.086 11.48-.42-.997-1.957-2.251-1.957-2.251l-7.669-5.998s-2.475-2.942-7.943-1.977z" opacity=".6"/><path fill="url(#au)" d="M839.271 373.616c-.517.627-1.019 1.174-1.262 1.72l-.08.097-.356 1.174c30.593 25.725 175.648 144.109 421.979 24.937a7.361 7.316 0 0 0-1.586-3.666c-241.186 115.908-384.882 4.02-418.695-24.262z" opacity=".3"/><path fill="url(#av)" d="M1258.112 398.232c.097 1.254-.858 3.377-.858 3.377l-7.781-6.239s1.132-2.54.614-4.486c2.557 1.126 7.588 6.609 8.025 7.348z" opacity=".72"/><path fill="url(#aw)" d="M1241.772 393.634a4.643 4.614 0 0 1 1.812-3.103c1.003-.595 5.274-1.27 8.671 1.88 3.43 3.056 8.72 6.593 7.103 11.465a8.59 8.538 0 0 0-1.974-2.251l-7.669-6.03c.016.016-2.475-2.926-7.943-1.961z" opacity=".6"/><path fill="url(#ax)" d="M50.088 188.005c17.608-58.18 56.69-103.353 110.918-128.208 97.891-44.867 211.93-9.11 266.917 83.691 6.74 11.374 18.236 38.693 20.217 48.043l1.214 5.73H47.287z" transform="matrix(3.41537 0 0 3.39656 -124.815 -97.847)"/><path fill="url(#ay)" d="M242.028 460.305c-53.428-2.189-104.744-25.363-142.46-63.14-33.836-33.89-55.056-77.318-61.874-126.628-1.539-11.13-1.53-40.05.015-51.505 5.603-41.53 21.375-78.92 46.684-110.674 6.938-8.705 22.514-24.335 31.099-31.207 33.119-26.512 70.312-42.367 113.692-47.585 9.51-1.144 35.033-.96 45.26.327 79.891 10.05 145.68 59.978 175.442 133.143 27.879 68.538 19.221 144.24-23.583 206.202-12.597 18.236-32.287 37.966-51.023 51.126-28.445 19.981-60.895 32.946-94.808 37.88-8.367 1.218-26.713 2.576-31.716 2.348-1.345-.061-4.373-.19-6.728-.287zm17.587-12.403c29.63-1.777 54.82-8.782 81.004-21.493 11.749-5.704 17.309-8.848 27.297-15.67 36.992-25.26 63.56-62.177 77.891-105.853 23.32-71.07 4.174-147.392-48.828-201.716-33.867-34.711-74.8-55.592-125.59-61.804-9.954-1.218-37.29-.877-47.4.48-10.82 1.453-20.916 3.613-29.767 6.17-45.476 13.13-83.628 38.856-110.753 75.623-18.476 25.042-31.962 56.336-37.025 86.357-2.78 16.482-3.037 38.124-1.542 53.026 4.73 47.181 25.854 92.077 59.677 125.47 36.387 35.923 84.25 57.196 136.226 59.326 2.355.096 5.458.303 6.804.365 1.346.063 6.288.062 12.006-.28z" transform="matrix(3.41537 0 0 3.39656 -124.815 -97.847)"/><path fill="url(#az)" d="M177.762 88.689 83.166 398.552s-23.8-34.26-29.864-59.123c-6.064-24.861 81.407-212.538 124.46-250.74z" filter="url(#aA)" transform="matrix(2.53226 0 0 3.1286 -31.045 -39.133)"/></svg>