<svg xmlns="http://www.w3.org/2000/svg" version="2.0" viewBox="0 0 256 256"><path fill="url(#a)" d="M128 256C57.308 256 0 198.692 0 128 0 57.308 57.307 0 128 0c70.692 0 128 57.307 128 128 0 70.692-57.308 128-128 128Z"/><path fill="url(#b)" fill-rule="evenodd" d="M256 128c0 70.692-57.308 128-128 128C57.308 256 0 198.692 0 128 0 57.308 57.308 0 128 0c70.692 0 128 57.308 128 128Zm-35.625-53.333c29.455 51.018 11.975 116.253-39.042 145.708C130.315 249.83 65.08 232.35 35.625 181.333 6.17 130.315 23.65 65.08 74.667 35.625 125.685 6.17 190.92 23.65 220.375 74.667Z" clip-rule="evenodd"/><g filter="url(#c)"><path fill="url(#d)" d="M96.274 76.075v103.818c0 5.181 5.461 8.1 10.047 5.216l73.536-50.689c5.292-3.656 5.313-9.44 0-12.872L106.321 70.86c-4.697-3.164-10.047.155-10.047 5.215Z"/></g><defs><linearGradient id="b" x1="63.9895" x2="192.011" y1="17.1303" y2="238.87" gradientUnits="userSpaceOnUse"><stop stop-color="#FD924B"/><stop offset="0.5" stop-color="#CC7384"/><stop offset="1" stop-color="#8B62C0"/></linearGradient><linearGradient id="d" x1="93.4575" x2="145.115" y1="73.6036" y2="162.718" gradientUnits="userSpaceOnUse"><stop stop-color="#fff"/><stop offset="1" stop-color="#E0E0E0"/></linearGradient><radialGradient id="a" cx="0" cy="0" r="1" gradientTransform="rotate(-35 115.598 -89.855) scale(195.086 207.286)" gradientUnits="userSpaceOnUse"><stop stop-color="#494B48"/><stop offset="1" stop-color="#222526"/></radialGradient><filter id="c" width="119.559" height="148.624" x="80.2743" y="61.622" color-interpolation-filters="sRGB" filterUnits="userSpaceOnUse"><feFlood flood-opacity="0" result="BackgroundImageFix"/><feColorMatrix in="SourceAlpha" result="hardAlpha" values="0 0 0 0 0 0 0 0 0 0 0 0 0 0 0 0 0 0 127 0"/><feOffset dy="8"/><feGaussianBlur stdDeviation="8"/><feComposite in2="hardAlpha" operator="out"/><feColorMatrix values="0 0 0 0 0 0 0 0 0 0 0 0 0 0 0 0 0 0 0.25 0"/><feBlend in2="BackgroundImageFix" result="effect1_dropShadow_502_3"/><feBlend in="SourceGraphic" in2="effect1_dropShadow_502_3" result="shape"/></filter></defs></svg>