<?xml version="1.0" encoding="UTF-8"?>
<svg width="20" height="20" viewBox="0 0 20 20" fill="none" x="3210" y="960"
    xmlns="http://www.w3.org/2000/svg">
    <path fill-rule="evenodd" clip-rule="evenodd"
        d="M4.93359 9.5618H16.2095C16.2095 9.5618 16.2095 7.94303 16.2095 7.76644C15.5192 5.02612 13.0698 3 10.1538 3C7.97152 3 6.05151 4.13557 4.93359 5.85528C4.93359 7.04888 4.93359 9.5618 4.93359 9.5618Z"
        fill="#117865" />
    <path fill-rule="evenodd" clip-rule="evenodd"
        d="M7.62689 6.60955L7.62669 6.61025C6.86331 6.13103 5.96375 5.85376 5.00011 5.85376C4.97865 5.85376 4.95757 5.85515 4.9362 5.85541C2.20432 5.89027 0 8.14684 0 10.9269C0 12.0055 0.332714 13.0047 0.898339 13.8267H11.8255V9.1612L7.62689 6.60955Z"
        fill="#0078D4" />
    <path fill-rule="evenodd" clip-rule="evenodd"
        d="M16.2108 7.76673C16.12 7.7606 16.0288 7.75635 15.9366 7.75635C15.3644 7.75635 14.8201 7.87695 14.3262 8.09357L11.8242 9.16135V13.8342H19.5132C19.8231 13.2522 19.9992 12.5862 19.9992 11.8783C19.9992 9.69537 18.3265 7.90996 16.2108 7.76673Z"
        fill="#1490DF" />
    <path fill-rule="evenodd" clip-rule="evenodd"
        d="M15.9668 11.6779L14.9293 11.0473L12.5511 9.60202L11.8256 9.16113L9.91174 9.97827L6.24696 11.543L4.60103 12.2458L0.898438 13.8266C1.80213 15.14 3.30177 16 5.00021 16H15.9379C17.484 16 18.8281 15.1236 19.5146 13.834L15.9668 11.6779Z"
        fill="#28A8EA" />
</svg>