<?xml version="1.0" encoding="UTF-8"?>
<svg width="32" height="32" viewBox="0 0 32 32" fill="none" x="2645" y="960"
    xmlns="http://www.w3.org/2000/svg">
    <path
        d="M20 16L14.2421 13.6316L9 16V26.8335C9.00007 27.1429 9.123 27.4395 9.34175 27.6583C9.56051 27.877 9.85718 28 10.1665 28H28.8335C29.1429 27.9999 29.4395 27.877 29.6583 27.6583C29.877 27.4395 29.9999 27.1429 30 26.8335V22L20 16Z"
        fill="#185C37" />
    <path
        d="M20.0001 4H10.1666C9.85721 4.00007 9.56054 4.12299 9.3418 4.34174C9.12305 4.56048 9.00013 4.85715 9.00006 5.1665V10L20.0001 16L25.0001 18.3684L30.0001 16V10L20.0001 4Z"
        fill="#21A366" />
    <path
        d="M28.8335 4H20V10H30V5.16652C29.9999 4.85717 29.877 4.5605 29.6583 4.34175C29.4395 4.123 29.1429 4.00008 28.8335 4Z"
        fill="#33C481" />
    <path d="M20.0001 10H9.00006V16H20.0001V10Z" fill="#107C41" />
    <path d="M30.0001 16H20.0001V22H30.0001V16Z" fill="#107C41" />
    <path opacity="0.5"
        d="M17 11V22.8301C16.9979 23.1397 16.8739 23.4361 16.655 23.655C16.4361 23.8739 16.1397 23.9979 15.8301 24H9V10H16C16.265 10.0008 16.5188 10.1065 16.7062 10.2938C16.8935 10.4812 16.9992 10.735 17 11Z"
        fill="black" />
    <path
        d="M14.8331 9.00024H3.16715C2.52285 9.00024 2.00055 9.52255 2.00055 10.1668V21.8328C2.00055 22.4771 2.52285 22.9994 3.16715 22.9994H14.8331C15.4774 22.9994 15.9997 22.4771 15.9997 21.8328V10.1668C15.9997 9.52255 15.4774 9.00024 14.8331 9.00024Z"
        fill="#107C41" />
    <path
        d="M5.0918 20.375L7.92304 15.9878L5.32977 11.625H7.41659L8.83221 14.4135C8.96235 14.678 9.05184 14.8753 9.10069 15.0054H9.11898C9.21251 14.7939 9.31014 14.5885 9.41186 14.3891L10.9251 11.625H12.8411L10.1807 15.9634L12.9082 20.375H10.8702L9.23498 17.3119C9.15792 17.1817 9.09258 17.0449 9.03972 16.9031H9.01532C8.96757 17.042 8.9041 17.1751 8.82616 17.2997L7.14198 20.375H5.0918Z"
        fill="white" />
</svg>