<svg xmlns="http://www.w3.org/2000/svg" version="2.0" viewBox="0 0 256 256"><path fill="url(#a)" d="M128 256C57.308 256 0 198.692 0 128 0 57.308 57.307 0 128 0c70.692 0 128 57.307 128 128 0 70.692-57.308 128-128 128Z"/><path fill="url(#b)" d="M176 128c0 26.51-21.49 48-48 48s-48-21.49-48-48 21.49-48 48-48 48 21.49 48 48Zm-32 0c0-8.837-7.163-16-16-16s-16 7.163-16 16 7.163 16 16 16 16-7.163 16-16Z"/><path fill="url(#c)" d="M53.96 23.65C74.876 8.765 100.436 0 128.001 0c27.766 0 53.495 8.897 74.495 23.982L183.621 37.2c-16.171-9.906-35.211-15.614-55.619-15.614-58.898 0-106.41 47.513-106.41 106.41 0 58.898 47.514 106.412 106.411 106.412s106.41-47.513 106.41-106.41c0-18.871-4.883-36.572-13.45-51.918l-25.562 17.9-12.381-17.682 43.21-30.256c18.572 22.22 29.768 50.806 29.768 81.956 0 70.564-57.431 128.003-127.996 128.003S0 198.561 0 127.996c0-43 21.328-81.123 53.96-104.346Z"/><defs><radialGradient id="a" cx="0" cy="0" r="1" gradientTransform="rotate(-35 115.598 -89.855) scale(195.086 207.286)" gradientUnits="userSpaceOnUse"><stop stop-color="#494B48"/><stop offset="1" stop-color="#222526"/></radialGradient><radialGradient id="b" cx="0" cy="0" r="1" gradientTransform="rotate(-35 189.964 -118.05) scale(97.6903 100.822)" gradientUnits="userSpaceOnUse"><stop stop-color="#fff"/><stop offset="0.191306" stop-color="#FCFCFC"/><stop offset="1" stop-color="#CECECE"/></radialGradient><radialGradient id="c" cx="0" cy="0" r="1" gradientTransform="matrix(-240.44324 168.36017 -139.17947 -198.76888 60.2 32.564)" gradientUnits="userSpaceOnUse"><stop stop-color="#FC904D"/><stop offset="0.233047" stop-color="#F78F52"/><stop offset="1" stop-color="#8862C2"/></radialGradient></defs></svg>