<svg xmlns="http://www.w3.org/2000/svg" viewBox="0 0 24 24"><path d="M13.893 13.002l4.917-2.962A6.876 6.876 0 0 0 6.273 8.18z" fill="#0364b8"/><path d="M9.39 8.815a5.473 5.473 0 0 0-2.89-.82c-.024 0-.047.002-.07.003a5.498 5.498 0 0 0-4.442 8.642l7.094-1.137 4.926-3.921z" fill="#0078d4"/><path d="M18.825 10.062c-.1-.007-.2-.012-.302-.012a4.453 4.453 0 0 0-1.771.366l-2.753 1.158 3.038 3.86 5.42 1.206a4.469 4.469 0 0 0-3.632-6.578z" fill="#1490df"/><path d="M14.008 11.586l-12.02 5.058A5.492 5.492 0 0 0 6.5 19h12.031a4.468 4.468 0 0 0 3.935-2.348z" fill="#28a8ea"/></svg>