<?xml version="1.0" encoding="UTF-8"?>
<svg width="24" height="24" viewBox="0 0 24 24" fill="none" x="2958" y="960"
    xmlns="http://www.w3.org/2000/svg">
    <path
        d="M20.0986 3H8.90157C8.40357 3 7.99957 3.404 7.99957 3.901V5L14.9996 6.5L20.9996 5V3.901C20.9996 3.404 20.5966 3 20.0986 3Z"
        fill="#0364B8" />
    <path fill-rule="evenodd" clip-rule="evenodd"
        d="M21.7502 11.3728C21.8952 11.4448 21.9972 11.5908 21.9972 11.7638C21.9972 11.9238 21.9072 12.0578 21.7802 12.1348V12.3118L14.6192 16.3908C14.5882 16.4108 14.5562 16.4298 14.5232 16.4458C14.3912 16.5118 14.2412 16.5488 14.0832 16.5488C13.9252 16.5488 13.7762 16.5118 13.6432 16.4458C13.6102 16.4298 13.5782 16.4108 13.5472 16.3908L6.40521 12.2938V11.9128H6.51421V11.4248L13.6572 7.36281C13.6882 7.34281 13.7202 7.32481 13.7532 7.30881C13.8862 7.24281 14.0352 7.20581 14.1932 7.20581C14.3512 7.20581 14.5002 7.24281 14.6332 7.30881C14.6662 7.32481 14.6982 7.34281 14.7292 7.36281L21.7492 11.3688L21.7502 11.3728ZM14.1932 11.8238V11.9308H14.5702L14.1932 11.8238Z"
        fill="#0A2767" />
    <path d="M8 5H15L21 10V17H15L8 10V5Z" fill="#28A8EA" />
    <path d="M15 10H21V5H15V10Z" fill="#50D9FF" />
    <path d="M8 19H15V10H8V19Z" fill="#176EBE" />
    <path opacity="0.5"
        d="M13.9852 17.4999L6.30823 12.1459L6.71723 11.4269C6.71723 11.4269 13.7682 15.4719 13.8952 15.5419C13.9272 15.5569 14.0232 15.5669 14.0932 15.5319C14.1982 15.4729 21.4672 11.3589 21.4672 11.3589L21.6502 12.2119L13.9852 17.4999Z"
        fill="#0A2767" />
    <path
        d="M21.6249 20.8414C21.8459 20.6914 21.9999 20.4514 21.9999 20.1664V11.7644C21.9999 11.9264 21.9109 12.0684 21.7779 12.1444L21.7689 12.1504C21.7679 12.1504 21.7669 12.1504 21.7669 12.1514L14.5879 16.2164C14.5569 16.2354 14.4429 16.2894 14.4429 16.2894C14.3089 16.3554 14.1549 16.3924 13.9949 16.3924C13.9559 16.3924 13.9189 16.3824 13.8799 16.3774L15.5789 19.7164L21.6249 20.8414Z"
        fill="#1490DF" />
    <path opacity="0.1"
        d="M14.7834 16.0933L14.5314 16.2373C14.5004 16.2573 14.3884 16.3113 14.3884 16.3113C14.2554 16.3763 14.1034 16.4143 13.9454 16.4143C13.8014 16.4143 13.6564 16.3763 13.5314 16.3193V16.3393L17.0004 19.4993L21.5354 20.9173C21.7544 20.7673 21.9114 20.6413 21.9934 20.3233V20.2603L14.7834 16.0933Z"
        fill="black" />
    <path
        d="M6.86582 20.982L20.9788 21C21.3348 20.994 21.4228 20.986 21.6318 20.846L13.7248 16.288C13.6908 16.271 13.6578 16.253 13.6258 16.233L6.24582 12.142C6.24482 12.142 6.24482 12.141 6.24382 12.141L6.23982 12.139L5.99982 12V20.156C5.99982 20.616 6.38982 20.982 6.86582 20.982Z"
        fill="#28A8EA" />
    <path opacity="0.5"
        d="M13.7448 19C14.3818 19 14.9998 18.389 14.9998 17.839V8C14.9998 7.45 14.5278 7 13.9508 7H7.80582V10.428V10.833L6.24482 11.68L6.23682 11.687C6.09782 11.766 6.00382 11.885 6.00382 12.05C6.00382 12.071 5.99982 12.087 5.99982 12.062H6.01682V19H13.7448Z"
        fill="black" />
    <path
        d="M13 18H3C2.45 18 2 17.55 2 17V7C2 6.45 2.45 6 3 6H13C13.55 6 14 6.45 14 7V17C14 17.55 13.55 18 13 18Z"
        fill="#0078D4" />
    <path fill-rule="evenodd" clip-rule="evenodd"
        d="M6.06688 8.62909C5.50588 8.96709 5.08088 9.43609 4.79388 10.0361C4.50588 10.6361 4.36188 11.3211 4.36188 12.0911C4.36188 12.8201 4.50788 13.4721 4.80088 14.0451C5.09388 14.6191 5.51288 15.0681 6.05688 15.3921C6.60088 15.7161 7.23888 15.8791 7.97088 15.8791C8.71388 15.8791 9.36188 15.7141 9.91488 15.3841C10.4669 15.0551 10.8929 14.5911 11.1909 13.9931C11.4889 13.3951 11.6379 12.7051 11.6379 11.9241C11.6379 11.1811 11.4929 10.5221 11.2039 9.94709C10.9149 9.37109 10.5009 8.92309 9.96388 8.60209C9.42688 8.28209 8.80288 8.12109 8.09188 8.12109C7.30288 8.12109 6.62888 8.29009 6.06688 8.62909ZM6.86788 14.2651C6.55388 14.0401 6.31488 13.7311 6.15088 13.3391C5.98688 12.9471 5.90488 12.5031 5.90488 12.0081C5.90488 11.5131 5.98888 11.0671 6.15588 10.6711C6.32388 10.2761 6.56788 9.96409 6.88888 9.73709C7.20888 9.51109 7.59088 9.39809 8.03388 9.39809C8.51488 9.39809 8.90988 9.52009 9.21888 9.76409C9.52788 10.0081 9.75188 10.3291 9.89088 10.7261C10.0309 11.1241 10.0999 11.5601 10.0999 12.0341C10.0999 12.5081 10.0259 12.9391 9.87788 13.3261C9.72988 13.7131 9.49788 14.0231 9.18188 14.2551C8.86688 14.4861 8.46788 14.6021 7.98688 14.6021C7.55488 14.6021 7.18188 14.4901 6.86788 14.2651Z"
        fill="white" />
</svg>