<svg width="" height="" viewBox="0 0 72 72" fill="none" xmlns="http://www.w3.org/2000/svg">
    <path d="M65.25 54.5H6.75C5.5 54.5 4.5 53.5 4.5 52.25V8C4.5 6.35 5.85 5 7.5 5H64.5C66.15 5 67.5 6.35 67.5 8V52.25C67.5 53.5 66.5 54.5 65.25 54.5Z" fill="url(#paint0_linear_14437_1646)"/>
    <path d="M69 54.5H3C1.35 54.5 0 53.15 0 51.5V50H72V51.5C72 53.15 70.65 54.5 69 54.5Z" fill="#184F85"/>
    <path opacity="0.02" d="M43.65 11.25H16.35C12.15 11.25 8.75 14.65 8.75 18.85V54.5H51.25V18.85C51.25 14.65 47.85 11.25 43.65 11.25Z" fill="black"/>
    <path opacity="0.02" d="M43.65 11.5H16.35C12.55 11.5 9.5 14.55 9.5 18.35V54.5H50.5V18.35C50.5 14.55 47.45 11.5 43.65 11.5Z" fill="black"/>
    <path opacity="0.02" d="M43.65 11.75H16.35C13 11.75 10.25 14.5 10.25 17.85V54.5H49.75V17.85C49.75 14.5 47 11.75 43.65 11.75Z" fill="black"/>
    <path opacity="0.02" d="M43.65 12.5H16.35C13.4 12.5 11 14.9 11 17.85V54.5H49V17.85C49 14.9 46.6 12.5 43.65 12.5Z" fill="black"/>
    <path opacity="0.02" d="M43.65 13.25H16.35C13.8 13.25 11.75 15.3 11.75 17.85V54.5H48.25V17.85C48.25 15.3 46.2 13.25 43.65 13.25Z" fill="black"/>
    <path opacity="0.02" d="M43.65 14H16.35C14.25 14 12.5 15.75 12.5 17.85V54.5H47.5V17.85C47.5 15.75 45.75 14 43.65 14Z" fill="black"/>
    <path opacity="0.02" d="M43.65 14.75H16.35C14.65 14.75 13.25 16.15 13.25 17.85V54.5H46.75V17.85C46.75 16.15 45.35 14.75 43.65 14.75Z" fill="black"/>
    <path opacity="0.05" d="M43.65 13H16.35C14.8 13 13.5 14.3 13.5 15.85V54.5H46.5V15.85C46.5 14.3 45.2 13 43.65 13Z" fill="black"/>
    <path opacity="0.1" d="M43.65 13H16.35C14.9 13 13.75 14.15 13.75 15.6V54.5H46.25V15.6C46.25 14.15 45.1 13 43.65 13Z" fill="black"/>
    <path d="M46 61V65.65C46 66.95 45 68 43.7 68H16.3C15.05 68 14 66.95 14 65.65V61L30 51.65L46 61Z" fill="#184F85"/>
    <path d="M14 21V15.35C14 14.05 15 13 16.3 13H43.75C45 13 46.05 14.05 46.05 15.35V21L30 30.5L14 21Z" fill="#50E6FF"/>
    <path d="M46 37L30 40.15L14 37V20H46V37Z" fill="#35C1F1"/>
    <path d="M46 52.1L30 56L14 52.1V36.5H46V52.1Z" fill="#1B9DE2"/>
    <path d="M46 51H14V61H46V51Z" fill="#006CBF"/>
    <path d="M24 17.5C24.5523 17.5 25 17.0523 25 16.5C25 15.9477 24.5523 15.5 24 15.5C23.4477 15.5 23 15.9477 23 16.5C23 17.0523 23.4477 17.5 24 17.5Z" fill="#0C63AD"/>
    <path d="M35 17.5H28C27.45 17.5 27 17.05 27 16.55C27 16 27.45 15.55 28 15.55H35C35.55 15.55 35.95 16 35.95 16.55C35.95 17.05 35.5 17.5 35 17.5Z" fill="#0C63AD"/>
    <defs>
    <linearGradient id="paint0_linear_14437_1646" x1="54.0617" y1="61.3081" x2="17.8379" y2="-1.43325" gradientUnits="userSpaceOnUse">
    <stop stop-color="#0C63AD"/>
    <stop offset="1" stop-color="#1B9DE2"/>
    </linearGradient>
    </defs>
    </svg>
    