<svg width="" height="" viewBox="0 0 20 20" fill="none" xmlns="http://www.w3.org/2000/svg">
<g clip-path="url(#clip0_5805_75914)">
<g filter="url(#filter0_d_5805_75914)">
<g clip-path="url(#clip1_5805_75914)">
<path d="M18.1561 19H1.84374C1.37687 19 1 18.6231 1 18.1562V1.84375C1 1.37688 1.37687 1 1.84374 1H18.1561C18.623 1 18.9999 1.37688 18.9999 1.84375V18.1562C18.9999 18.6231 18.623 19 18.1561 19Z" fill="url(#paint0_linear_5805_75914)"/>
<path d="M12.8125 7.1875C13.7445 7.1875 14.5 6.43198 14.5 5.5C14.5 4.56802 13.7445 3.8125 12.8125 3.8125C11.8805 3.8125 11.125 4.56802 11.125 5.5C11.125 6.43198 11.8805 7.1875 12.8125 7.1875Z" fill="#F2F2F2"/>
<path d="M18.9999 15.0625V18.145C18.9999 18.3813 18.9043 18.595 18.7468 18.7469C18.5949 18.9044 18.3812 19 18.1449 19L7.46875 17.0313V14.2188L11.5975 10.09C12.2668 9.42067 13.3525 9.42067 14.0218 10.09L18.9999 15.0625Z" fill="#436DCD"/>
<path d="M1 12.25V18.145C1 18.6119 1.38812 19 1.85499 19H18.1393C18.3755 19 18.5893 18.9044 18.7411 18.7469L7.83995 7.84004C7.17058 7.17067 6.08497 7.17067 5.4156 7.84004L1 12.25Z" fill="url(#paint1_linear_5805_75914)"/>
</g>
</g>
</g>
<defs>
<filter id="filter0_d_5805_75914" x="0.55" y="0.7" width="18.9" height="18.9" filterUnits="userSpaceOnUse" color-interpolation-filters="sRGB">
<feFlood flood-opacity="0" result="BackgroundImageFix"/>
<feColorMatrix in="SourceAlpha" type="matrix" values="0 0 0 0 0 0 0 0 0 0 0 0 0 0 0 0 0 0 127 0" result="hardAlpha"/>
<feOffset dy="0.15"/>
<feGaussianBlur stdDeviation="0.225"/>
<feColorMatrix type="matrix" values="0 0 0 0 0 0 0 0 0 0 0 0 0 0 0 0 0 0 0.11 0"/>
<feBlend mode="normal" in2="BackgroundImageFix" result="effect1_dropShadow_5805_75914"/>
<feBlend mode="normal" in="SourceGraphic" in2="effect1_dropShadow_5805_75914" result="shape"/>
</filter>
<linearGradient id="paint0_linear_5805_75914" x1="15.9927" y1="20.3798" x2="4.00709" y2="-0.379683" gradientUnits="userSpaceOnUse">
<stop stop-color="#AE7FE2"/>
<stop offset="0.2054" stop-color="#8B8CE4"/>
<stop offset="0.6592" stop-color="#31ACE9"/>
<stop offset="0.7051" stop-color="#28AFEA"/>
</linearGradient>
<linearGradient id="paint1_linear_5805_75914" x1="12.189" y1="22.5698" x2="4.08627" y2="8.53551" gradientUnits="userSpaceOnUse">
<stop offset="0.2956" stop-color="#173A73"/>
<stop offset="1" stop-color="#114A8B"/>
</linearGradient>
<clipPath id="clip0_5805_75914">
<rect width="20" height="20" fill="white"/>
</clipPath>
<clipPath id="clip1_5805_75914">
<rect x="1" y="1" width="18" height="18" rx="2" fill="white"/>
</clipPath>
</defs>
</svg>
