<?xml version="1.0" encoding="UTF-8"?>
<svg fill="none" version="1.1" viewBox="0 0 24 24" xmlns="http://www.w3.org/2000/svg">
<g clip-path="url(#e)">
<g filter="url(#d)">
<path d="m23.2438 3.9259c6e-4-.20471-.0795-.40149-.2231-.54834-.1437-.14684-.3396-.23205-.5457-.2374-3.6294-.07571-4.9134-.69778-6.7023-1.8969-1.2194-.833432-2.6707-1.2677643-4.1509-1.24215567-1.4802-.02602013-2.93149.40834967-4.15072 1.24215567-1.79099 1.19912-3.07504 1.82324-6.704437 1.8969-.205927.00536-.401501.0906-.544833.2375-.1433321.1469-.22294676.34372-.2217977333.54824v5.19144c.0011710233.81257.0805159333 1.62316.2369927333 2.42076.976905 5.0666 4.977285 8.9218 10.978895 12.3554.1252.0716.2676.1084.4122.1064.0854-6e-4.1702-.0144.2514-.0409.0531-.0163.1043-.0382.1525-.0655 6.0016-3.4336 10.002-7.2888 10.9789-12.3554.0247-.1269.0453-.2517.0659-.3786.1128-.6764.1707-1.36067.1732-2.04626l-.0062-5.18734z" fill="url(#b)"/>
</g>
<g fill="url(#a)" filter="url(#c)">
<path d="m5.83099 11.7912c0-.1105.02-.2134.05999-.3088.03999-.0953.09748-.1807.17246-.256s.15997-.133.25495-.1732c.09497-.0402.19995-.0627.31493-.0678.21495 0 .40241.0804.56237.241l2.63193 2.2892 6.14948-6.01205c.16-.16065.3499-.24098.5699-.24098.11 0 .2124.02008.3074.06025.095.04016.18.1004.255.18073.075.08032.1324.16567.1724.25603.04.09037.0625.19328.0675.30875 0 .22089.0925.59915-.0675.75979l-6.8918 6.74338c-.075.0753-.16.133-.255.1732-.0949.0401-.19741.0627-.30738.0677-.21496 0-.57391.0929-.73387-.0677l-3.20277-3.2447c-.15497-.1556-.05999-.4829-.05999-.7088z"/>
<path d="m6.75207 10.6493h.01128c.34978 0 .6574.137.90044.3811l2.13471 2.1438 5.7826-5.8073c.2456-.24666.5565-.38106.9075-.38106.169 0 .3353.0312.4934.09803.1614.06824.3012.16921.4187.29502.1062.11383.1948.24254.2586.38675.0681.15392.1008.31669.1078.48009l5e-4.01117v.01117c0 .3505-.1329.66172-.3785.90833l-6.6902 6.7116c0 1e-4 1e-4 0 0 0-.1169.1174-.2534.2109-.4071.2759-.1503.0636-.30827.0973-.46975.1046l-.01177 6e-4h-.01178c-.34958 0-.65704-.1368-.90002-.3806l-3.0427-3.0486c-.2467-.2478-.3714-.5614-.3714-.9083 0-.1689.03089-.3351.09717-.4932.06452-.1538.15722-.2905.27423-.408s.25333-.2109.40712-.2759c.15312-.0647.31428-.0975.47791-.1047l.01126-5e-4m2.51207 4.8742c.15199.1526.33011.229.53436.229.10449-.0048.2019-.0263.2921-.0644.0903-.0382.171-.0931.2423-.1646l6.6901-6.71163c.152-.15264.228-.33391.228-.5438-.0048-.10971-.0261-.2075-.0641-.29336s-.0926-.16696-.1639-.24328c-.0712-.07632-.152-.13356-.2422-.17173-.0903-.03816-.1877-.05724-.2922-.05724-.2089 0-.3894.07633-.5414.22897l-6.1487 6.17497-2.5008-2.5115c-.15199-.1526-.33011-.229-.53435-.229-.10925.0048-.209.0263-.29924.0644-.09025.0382-.171.0931-.24224.1646-.07125.0716-.12588.1527-.16387.2433-.038.0906-.057.1884-.057.2934 0 .2146.07362.3959.22087.5438l3.04227 3.0481z" clip-rule="evenodd" fill-rule="evenodd"/>
</g>
</g>
<defs>
<filter id="d" x="-.602933" y="-.602933" width="24.0989" height="24.6029" color-interpolation-filters="sRGB" filterUnits="userSpaceOnUse">
<feFlood flood-opacity="0" result="BackgroundImageFix"/>
<feBlend in="SourceGraphic" in2="BackgroundImageFix" result="shape"/>
<feColorMatrix in="SourceAlpha" result="hardAlpha" values="0 0 0 0 0 0 0 0 0 0 0 0 0 0 0 0 0 0 127 0"/>
<feOffset dx="0.246011" dy="-0.246011"/>
<feGaussianBlur stdDeviation="0.123005"/>
<feComposite in2="hardAlpha" k2="-1" k3="1" operator="arithmetic"/>
<feColorMatrix values="0 0 0 0 0 0 0 0 0 0 0 0 0 0 0 0 0 0 0.1 0"/>
<feBlend in2="shape" result="effect1_innerShadow_6220_141713"/>
<feColorMatrix in="SourceAlpha" result="hardAlpha" values="0 0 0 0 0 0 0 0 0 0 0 0 0 0 0 0 0 0 127 0"/>
<feOffset dx="-0.602933" dy="-0.602933"/>
<feGaussianBlur stdDeviation="0.602933"/>
<feComposite in2="hardAlpha" k2="-1" k3="1" operator="arithmetic"/>
<feColorMatrix values="0 0 0 0 0 0 0 0 0 0 0 0 0 0 0 0 0 0 0.15 0"/>
<feBlend in2="effect1_innerShadow_6220_141713" result="effect2_innerShadow_6220_141713"/>
</filter>
<filter id="c" x="4.86935" y="6.98584" width="12.8982" height="9.89829" color-interpolation-filters="sRGB" filterUnits="userSpaceOnUse">
<feFlood flood-opacity="0" result="BackgroundImageFix"/>
<feBlend in="SourceGraphic" in2="BackgroundImageFix" result="shape"/>
<feColorMatrix in="SourceAlpha" result="hardAlpha" values="0 0 0 0 0 0 0 0 0 0 0 0 0 0 0 0 0 0 127 0"/>
<feOffset dx="-0.615027" dy="0.615027"/>
<feGaussianBlur stdDeviation="0.615027"/>
<feComposite in2="hardAlpha" k2="-1" k3="1" operator="arithmetic"/>
<feColorMatrix values="0 0 0 0 0 0 0 0 0 0 0 0 0 0 0 0 0 0 0.25 0"/>
<feBlend in2="shape" result="effect1_innerShadow_6220_141713"/>
</filter>
<linearGradient id="b" x1="6.8125" x2="14.0625" y1=".8125" y2="24" gradientUnits="userSpaceOnUse">
<stop stop-color="#0084EA" offset="0"/>
<stop stop-color="#007AD8" offset="1"/>
</linearGradient>
<linearGradient id="a" x1="62.9254" x2="74.6971" y1="6.98584" y2="18.8223" gradientUnits="userSpaceOnUse">
<stop stop-color="#fff" offset="0"/>
<stop stop-color="#E7E7E8" offset="1"/>
</linearGradient>
<clipPath id="e">
<rect width="24" height="24" fill="#fff"/>
</clipPath>
</defs>
</svg>

