<?xml version="1.0" encoding="UTF-8"?>
<svg width="20" height="20" viewBox="0 0 20 20" fill="none" x="3270" y="960"
    xmlns="http://www.w3.org/2000/svg">
    <path
        d="M10 11C12.2091 11 14 9.20914 14 7C14 4.79086 12.2091 3 10 3C7.79086 3 6 4.79086 6 7C6 9.20914 7.79086 11 10 11Z"
        fill="#424242" />
    <path
        d="M13.5 14C15.433 14 17 12.433 17 10.5C17 8.567 15.433 7 13.5 7C11.567 7 10 8.567 10 10.5C10 12.433 11.567 14 13.5 14Z"
        fill="#1A9BA1" />
    <path
        d="M10 17C11.6569 17 13 15.6569 13 14C13 12.3431 11.6569 11 10 11C8.34315 11 7 12.3431 7 14C7 15.6569 8.34315 17 10 17Z"
        fill="#37C6D0" />
    <path opacity="0.5" fill-rule="evenodd" clip-rule="evenodd"
        d="M7.17068 15H10.25C11.2165 15 12 14.2165 12 13.25V7.75C12 7.33579 11.6642 7 11.25 7H6.74998C6.414 7 6.12962 7.22092 6.03418 7.52543C6.29146 9.48626 7.96894 11 9.99998 11C8.34312 11 6.99998 12.3431 6.99998 14C6.99998 14.3506 7.06013 14.6872 7.17068 15ZM9.99998 11L10.0354 10.9998L10.0355 11.0002L9.99998 11Z"
        fill="black" />
    <path
        d="M10.2 6H3.8C3.35817 6 3 6.35817 3 6.8V13.2C3 13.6418 3.35817 14 3.8 14H10.2C10.6418 14 11 13.6418 11 13.2V6.8C11 6.35817 10.6418 6 10.2 6Z"
        fill="#038387" />
    <path
        d="M5.78878 9.90874C5.60311 9.78139 5.46034 9.63058 5.36114 9.45631C5.26194 9.28204 5.21167 9.07626 5.21167 8.83764C5.21167 8.51993 5.30417 8.25249 5.48916 8.03666C5.67349 7.82017 5.91881 7.65997 6.22513 7.55608C6.53144 7.45218 6.86658 7.3999 7.23121 7.3999C7.79022 7.3999 8.23193 7.46224 8.55702 7.58557V8.52194C8.38409 8.4147 8.18367 8.33293 7.95712 8.27662C7.73057 8.22032 7.49664 8.19217 7.25601 8.19217C6.96645 8.19217 6.72582 8.24311 6.53546 8.34499C6.34511 8.44687 6.24993 8.59098 6.24993 8.77799C6.24993 8.89529 6.29014 8.99717 6.37058 9.08498C6.45168 9.17211 6.56026 9.25053 6.697 9.31823C6.83374 9.38593 7.0375 9.47575 7.30896 9.58768C7.35521 9.60444 7.3847 9.61583 7.3961 9.62321C7.71649 9.75391 7.97388 9.88059 8.16759 10.0033C8.36197 10.1259 8.51345 10.2794 8.62337 10.4624C8.7333 10.646 8.78826 10.8773 8.78826 11.1555C8.78826 11.4966 8.7018 11.7748 8.52886 11.9893C8.35593 12.2051 8.12402 12.3599 7.83446 12.4558C7.5449 12.5516 7.21512 12.5999 6.8458 12.5999C6.5301 12.5999 6.23183 12.5751 5.95031 12.5262C5.66813 12.4772 5.42549 12.4069 5.22239 12.3157V11.327C5.4208 11.4745 5.66679 11.5911 5.95903 11.6776C6.2506 11.7641 6.52072 11.8076 6.76872 11.8076C7.0938 11.8076 7.33845 11.7554 7.50334 11.6515C7.66823 11.5476 7.75067 11.4008 7.75067 11.2111C7.75067 11.0831 7.70443 10.9705 7.61193 10.8746C7.51943 10.7788 7.39208 10.6903 7.22987 10.6078C7.06699 10.5267 6.82703 10.4188 6.50932 10.2854C6.2144 10.1614 5.97444 10.0361 5.78878 9.90874Z"
        fill="white" />
</svg>