<?xml version="1.0" encoding="UTF-8"?>
<svg width="20" height="20" viewBox="0 0 20 20" fill="none" x="3290" y="960"
    xmlns="http://www.w3.org/2000/svg">
    <g clip-path="url(#ccclip0_2538_128205)">
        <path
            d="M12.5 2.77773C12.5 3.85148 10.2625 4.72273 7.5 4.72273C4.7375 4.72273 2.5 3.85148 2.5 2.77773C2.5 1.70398 4.73875 0.833984 7.5 0.833984C10.2613 0.833984 12.5 1.70523 12.5 2.77773Z"
            fill="#FEE087" />
        <path
            d="M12.2161 10.222L11.5624 10.8757C11.5274 10.912 11.5274 10.9695 11.5624 11.0045L12.3749 11.817C12.4549 11.6795 12.4999 11.537 12.4999 11.3907V9.93945L12.2161 10.222Z"
            fill="white" />
        <path
            d="M7.1175 12.8352L6.5275 12.2465L7.1175 11.6565L7.77125 11.004L7.835 10.9402L8.42375 10.3515L9.5875 9.18773L10.3837 8.39148L10.9725 7.80149L11.5625 8.39148L12.2162 9.04523L12.5 9.32898V2.77773C12.5 1.70398 10.2625 0.833984 7.5 0.833984C4.7375 0.833984 2.5 1.70523 2.5 2.77773V11.3902C2.5 12.4627 4.73875 13.334 7.5 13.334C7.53875 13.334 7.575 13.3315 7.61375 13.3315L7.1175 12.8352Z"
            fill="white" />
        <path d="M14.1663 0.833984V2.50023H17.5V5.83398H19.1663V0.833984H14.1663Z" fill="#4A9F49" />
        <path d="M5.83374 19.166V17.4998H2.49999V14.166H0.83374V19.166H5.83374Z" fill="#4A9F49" />
        <path
            d="M15.875 10.6123L17 9.48727C16.385 9.32477 15.7038 9.47727 15.2213 9.95977C14.6138 10.5673 14.5238 11.4923 14.9413 12.1998L13.2613 13.8798L10.975 11.5935C10.615 11.2323 10.615 10.6473 10.975 10.286L11.6288 9.63227L10.975 8.97852L10.1788 9.77477L9.01502 10.9385C9.19502 11.1185 9.19502 11.411 9.01502 11.5923C8.83377 11.7735 8.54252 11.7735 8.36127 11.5923L7.70752 12.2448L9.01502 13.5523L9.66752 12.8998C9.48752 12.7185 9.48752 12.426 9.66752 12.246C9.84877 12.0673 10.1413 12.0673 10.3213 12.246L12.6075 14.5323L9.66752 17.4735L10.3213 18.126L13.2613 15.186L16.2013 18.126L16.855 17.4735L13.915 14.5323L15.5938 12.8523C16.3025 13.271 17.2263 13.181 17.8338 12.5723C18.3163 12.091 18.4688 11.4085 18.3063 10.7935L17.1813 11.9198L15.875 10.6123Z"
            fill="#AD60CC" />
        <path
            d="M12.2161 10.222L11.5624 10.8757C11.5274 10.912 11.5274 10.9695 11.5624 11.0045L12.3749 11.817C12.4549 11.6795 12.4999 11.537 12.4999 11.3907V9.93945L12.2161 10.222Z"
            fill="#FCD100" />
        <path
            d="M7.1175 12.8348L6.5275 12.2461L7.1175 11.6561L7.77125 11.0036L7.835 10.9398L8.42375 10.3511L9.5875 9.18734L10.3837 8.39109L10.9725 7.80109L11.5625 8.39109L12.2162 9.04484L12.5 9.32859V2.77734H2.5V11.3898C2.5 12.4623 4.73875 13.3336 7.5 13.3336C7.53875 13.3336 7.575 13.3311 7.61375 13.3311L7.1175 12.8348Z"
            fill="#FCD100" />
        <path opacity="0.4"
            d="M7.1175 12.8348L6.5275 12.2461L7.1175 11.6561L7.5 11.2748V2.77734H2.5V11.3898C2.5 12.4623 4.73875 13.3336 7.5 13.3336V13.2186L7.1175 12.8361V12.8348Z"
            fill="white" />
        <path
            d="M12.5 2.77773C12.5 3.85148 10.2625 4.72273 7.5 4.72273C4.7375 4.72273 2.5 3.85148 2.5 2.77773C2.5 1.70398 4.73875 0.833984 7.5 0.833984C10.2613 0.833984 12.5 1.70523 12.5 2.77773Z"
            fill="#F0AA51" />
    </g>
    <defs>
        <clipPath id="ccclip0_2538_128205">
            <rect width="20" height="20" fill="white" />
        </clipPath>
    </defs>
</svg>