<?xml version="1.0" encoding="UTF-8"?>
<svg width="32" height="32" viewBox="0 0 32 32" fill="none" x="2517" y="960"
    xmlns="http://www.w3.org/2000/svg">
    <path
        d="M16.9532 9.13812C10.6598 9.13812 5.55762 7.36034 5.55762 5.01367V26.987C5.55762 29.2448 10.571 31.0759 16.7932 31.1115H16.9532C23.2465 31.1115 28.3487 29.3337 28.3487 26.987V5.01367C28.3487 7.30701 23.2465 9.13812 16.9532 9.13812Z"
        fill="url(#akpaint0_linear_6957_96219)" />
    <path
        d="M28.3487 5.01311C28.3487 7.30645 23.2465 9.13756 16.9532 9.13756C10.6598 9.13756 5.55762 7.35978 5.55762 5.01311C5.55762 2.66645 10.6598 0.888672 16.9532 0.888672C23.2465 0.888672 28.3487 2.66645 28.3487 5.01311Z"
        fill="#E8E8E8" />
    <path
        d="M25.7004 4.67583C25.7004 6.13361 21.7715 7.30695 16.9537 7.30695C12.1359 7.30695 8.20703 6.13361 8.20703 4.67583C8.20703 3.21806 12.1359 2.0625 16.9537 2.0625C21.7715 2.0625 25.7004 3.23583 25.7004 4.67583Z"
        fill="#50E6FF" />
    <path
        d="M16.9536 5.33345C14.6075 5.27353 12.2684 5.61627 10.0381 6.34679C12.2705 7.06373 14.6103 7.38854 16.9536 7.30679C19.3017 7.37557 21.6433 7.02644 23.8692 6.27568C21.6325 5.57895 19.2952 5.26049 16.9536 5.33345Z"
        fill="#198AB3" />
    <path
        d="M23.8868 20.2664V14.2219H22.2868V21.5641H26.6601V20.2664H23.8868ZM11.1935 17.2975C10.8631 17.1646 10.5568 16.9784 10.2868 16.7464C10.2151 16.6706 10.1593 16.5812 10.1226 16.4835C10.086 16.3858 10.0693 16.2817 10.0735 16.1775C10.068 16.0731 10.0897 15.9691 10.1365 15.8756C10.1832 15.7822 10.2534 15.7024 10.3401 15.6441C10.5588 15.4929 10.8212 15.4179 11.0868 15.4308C11.72 15.4024 12.3449 15.5836 12.8646 15.9464V14.4175C12.2966 14.2061 11.6924 14.1095 11.0868 14.133C10.3893 14.0959 9.7017 14.3104 9.14903 14.7375C8.90813 14.9232 8.71482 15.1635 8.585 15.4386C8.45518 15.7137 8.39259 16.0157 8.40236 16.3197C8.40236 17.2264 8.97125 17.9375 10.1801 18.4708C10.5728 18.6374 10.943 18.8524 11.2824 19.1108C11.3655 19.1806 11.4324 19.2676 11.4784 19.3658C11.5245 19.4641 11.5486 19.5712 11.549 19.6797C11.5491 19.7876 11.5233 19.8939 11.4738 19.9898C11.4243 20.0857 11.3526 20.1683 11.2646 20.2308C11.0226 20.3725 10.7446 20.4405 10.4646 20.4264C9.74953 20.4205 9.06093 20.1551 8.5268 19.6797V21.333C9.11389 21.6358 9.76888 21.7827 10.429 21.7597C11.1742 21.8039 11.9127 21.5974 12.5268 21.173C12.7437 20.9676 12.9097 20.7144 13.0115 20.4336C13.1134 20.1527 13.1483 19.852 13.1135 19.5553C13.122 19.1001 12.964 18.6576 12.669 18.3108C12.2537 17.8733 11.7509 17.5281 11.1935 17.2975ZM20.509 20.1241C20.9126 19.448 21.1161 18.6713 21.0957 17.8841C21.0555 17.2178 20.8542 16.5711 20.509 15.9997C20.2315 15.4445 19.7993 14.9815 19.2646 14.6664C18.7227 14.3592 18.1097 14.1998 17.4868 14.2041C16.8154 14.1894 16.1523 14.3552 15.5668 14.6841C15.018 14.9904 14.5678 15.4468 14.269 15.9997C13.9543 16.6283 13.7958 17.3235 13.8068 18.0264C13.8105 18.6439 13.9565 19.2522 14.2335 19.8041C14.5048 20.3533 14.9313 20.8107 15.4601 21.1197C15.9971 21.4472 16.6094 21.6309 17.2379 21.653L18.7668 23.4308H20.9179L18.7312 21.4753C19.4676 21.2544 20.0991 20.7745 20.509 20.1241ZM18.7312 19.6797C18.5694 19.8807 18.3632 20.0415 18.1287 20.1494C17.8943 20.2574 17.6381 20.3096 17.3801 20.3019C17.1203 20.3103 16.8621 20.2566 16.6272 20.1453C16.3922 20.034 16.1872 19.8683 16.029 19.6619C15.6532 19.1485 15.4707 18.519 15.5135 17.8841C15.4722 17.2495 15.6546 16.6205 16.029 16.1064C16.1963 15.9001 16.4078 15.734 16.6477 15.6201C16.8877 15.5063 17.1501 15.4477 17.4157 15.4486C17.6753 15.4374 17.9335 15.4918 18.1666 15.6068C18.3996 15.7217 18.5999 15.8935 18.749 16.1064C19.0993 16.6305 19.2679 17.255 19.229 17.8841C19.2911 18.5236 19.1137 19.1634 18.7312 19.6797Z"
        fill="url(#akpaint1_radial_6957_96219)" />
    <defs>
        <linearGradient id="akpaint0_linear_6957_96219" x1="5.55762" y1="18.0626" x2="28.3487"
            y2="18.0626" gradientUnits="userSpaceOnUse">
            <stop stop-color="#005BA1" />
            <stop offset="0.07" stop-color="#0060A9" />
            <stop offset="0.36" stop-color="#0071C8" />
            <stop offset="0.52" stop-color="#0078D4" />
            <stop offset="0.64" stop-color="#0074CD" />
            <stop offset="0.82" stop-color="#006ABB" />
            <stop offset="1" stop-color="#005BA1" />
        </linearGradient>
        <radialGradient id="akpaint1_radial_6957_96219" cx="0" cy="0" r="1"
            gradientUnits="userSpaceOnUse"
            gradientTransform="translate(17.5935 18.7908) scale(12.5689 12.5689)">
            <stop stop-color="#F2F2F2" />
            <stop offset="0.58" stop-color="#EEEEEE" />
            <stop offset="1" stop-color="#E6E6E6" />
        </radialGradient>
    </defs>
</svg>