<?xml version="1.0" encoding="UTF-8"?>
<svg width="77" height="77" viewBox="0 0 77 77" fill="none" x="2018" y="960"
    xmlns="http://www.w3.org/2000/svg">
    <path
        d="M3.0809 24.6985H74.8587V64.7252C74.8587 65.3634 74.6051 65.9756 74.1538 66.4269C73.7024 66.8783 73.0903 67.1318 72.452 67.1318H5.48757C4.84928 67.1318 4.23714 66.8783 3.7858 66.4269C3.33446 65.9756 3.0809 65.3634 3.0809 64.7252V24.6985V24.6985Z"
        fill="url(#cepaint0_linear_17333_18217)" />
    <path
        d="M5.48757 9.41406H72.452C73.0903 9.41406 73.7024 9.66762 74.1538 10.119C74.6051 10.5703 74.8587 11.1824 74.8587 11.8207V24.6985H3.0809V11.7785C3.09197 11.1476 3.35041 10.5462 3.80055 10.104C4.2507 9.66172 4.85653 9.41397 5.48757 9.41406V9.41406Z"
        fill="#37C2B1" />
    <path
        d="M12.8342 29.3429H65.0631C65.3581 29.3538 65.6373 29.4787 65.842 29.6913C66.0468 29.9039 66.1611 30.1877 66.1609 30.4829V36.394C66.1611 36.6891 66.0468 36.9729 65.842 37.1855C65.6373 37.3981 65.3581 37.523 65.0631 37.534H12.8342C12.5392 37.523 12.26 37.3981 12.0553 37.1855C11.8505 36.9729 11.7362 36.6891 11.7364 36.394V30.4829C11.7362 30.1877 11.8505 29.9039 12.0553 29.6913C12.26 29.4787 12.5392 29.3538 12.8342 29.3429V29.3429Z"
        fill="white" />
    <path
        d="M12.8765 41.123H65.1054C65.4003 41.1339 65.6796 41.2588 65.8843 41.4715C66.0891 41.6841 66.2034 41.9678 66.2031 42.263V48.2163C66.2034 48.5115 66.0891 48.7952 65.8843 49.0079C65.6796 49.2205 65.4003 49.3454 65.1054 49.3563H12.8765C12.5815 49.3454 12.3023 49.2205 12.0975 49.0079C11.8928 48.7952 11.7785 48.5115 11.7787 48.2163V42.4741C11.748 42.3112 11.7531 42.1437 11.7938 41.983C11.8345 41.8224 11.9097 41.6725 12.0142 41.5439C12.1187 41.4153 12.25 41.311 12.3989 41.2383C12.5478 41.1656 12.7108 41.1263 12.8765 41.123Z"
        fill="#37C2B1" />
    <path
        d="M12.8764 53.0295H65.1053C65.4003 53.0404 65.6795 53.1653 65.8843 53.3779C66.089 53.5906 66.2033 53.8743 66.2031 54.1695V60.1228C66.2033 60.418 66.089 60.7017 65.8843 60.9144C65.6795 61.127 65.4003 61.2519 65.1053 61.2628H12.8764C12.5815 61.2519 12.3023 61.127 12.0975 60.9144C11.8928 60.7017 11.7785 60.418 11.7787 60.1228V54.1695C11.7785 53.8743 11.8928 53.5906 12.0975 53.3779C12.3023 53.1653 12.5815 53.0404 12.8764 53.0295V53.0295Z"
        fill="#258277" />
    <defs>
        <linearGradient id="cepaint0_linear_17333_18217" x1="38.9698" y1="67.0896" x2="38.9698"
            y2="24.6985" gradientUnits="userSpaceOnUse">
            <stop stop-color="#B3B3B3" />
            <stop offset="0.26" stop-color="#C1C1C1" />
            <stop offset="1" stop-color="#E6E6E6" />
        </linearGradient>
    </defs>
</svg>