<?xml version="1.0" encoding="UTF-8"?>
<svg width="20" height="20" viewBox="0 0 20 20" fill="none" x="3330" y="960"
    xmlns="http://www.w3.org/2000/svg">
    <path fill-rule="evenodd" clip-rule="evenodd"
        d="M14.1824 19.8119C14.4974 19.9346 14.8566 19.9267 15.1745 19.7737L19.2922 17.7924C19.7248 17.5842 20 17.1463 20 16.6659V3.23109C20 2.75068 19.7249 2.31278 19.2922 2.10458L15.1745 0.123176C14.7572 -0.0776006 14.2689 -0.0284228 13.9027 0.237814C13.8504 0.275847 13.8006 0.318311 13.7538 0.365108L5.87101 7.55672L2.43744 4.95035C2.11781 4.70773 1.67073 4.72761 1.37387 4.99764L0.272606 5.9994C-0.0905104 6.32971 -0.0909266 6.90097 0.271707 7.23182L3.24942 9.94844L0.271707 12.6651C-0.0909266 12.9959 -0.0905104 13.5672 0.272606 13.8975L1.37387 14.8992C1.67073 15.1693 2.11781 15.1892 2.43744 14.9465L5.87101 12.3402L13.7538 19.5318C13.8785 19.6565 14.0249 19.7505 14.1824 19.8119ZM15.003 5.40821L9.02182 9.94844L15.003 14.4887V5.40821Z"
        fill="#0078D4" />
</svg>