<svg width="20" height="20" viewBox="0 0 20 20" fill="none" xmlns="http://www.w3.org/2000/svg">
<g clip-path="url(#clip0_26_4630)">
<mask id="mask0_26_4630" style="mask-type:alpha" maskUnits="userSpaceOnUse" x="0" y="0" width="20" height="20">
<path d="M3.66667 16.9168L0.33334 14.4168C0.229457 14.3396 0.145171 14.239 0.0872735 14.1232C0.0293757 14.0074 -0.000515822 13.8796 6.73522e-06 13.7502V6.25016C-0.000515822 6.1207 0.0293757 5.99293 0.0872735 5.87713C0.145171 5.76133 0.229457 5.66076 0.33334 5.5835L3.66667 3.0835C3.56279 3.16076 3.4785 3.26133 3.42061 3.37713C3.36271 3.49293 3.33282 3.6207 3.33334 3.75016V16.2502C3.33282 16.3796 3.36271 16.5074 3.42061 16.6232C3.4785 16.739 3.56279 16.8396 3.66667 16.9168Z" fill="white"/>
<path d="M19.6292 3.47084C19.4918 3.38067 19.331 3.33286 19.1667 3.33334C19.0602 3.33246 18.9546 3.35262 18.8559 3.39266C18.7572 3.4327 18.6674 3.49184 18.5917 3.56667L18.5334 3.625L14.9917 7.02084L11.8834 10L8.20419 13.5292L4.80002 16.7917L4.74169 16.85C4.66592 16.9248 4.57613 16.984 4.47746 17.024C4.37878 17.0641 4.27317 17.0842 4.16669 17.0833C3.98644 17.083 3.81109 17.0247 3.66667 16.9168L0.33334 14.4168C0.502765 14.5439 0.714233 14.6016 0.924745 14.5783C1.13526 14.5551 1.32903 14.4526 1.46669 14.2917L5.16669 9.99584L8.20419 6.47084L13.525 0.29167C13.6023 0.200129 13.6986 0.126591 13.8073 0.0762083C13.916 0.0258255 14.0344 -0.000183538 14.1542 3.59922e-06C14.3185 -0.000477774 14.4793 0.0473363 14.6167 0.137504L19.6292 3.47084Z" fill="white"/>
<path d="M19.6292 16.5292L14.6292 19.8625C14.4591 19.9738 14.2546 20.0198 14.0532 19.9923C13.8519 19.9647 13.6673 19.8654 13.5334 19.7125L8.20419 13.5292L5.16669 9.99584L1.46669 5.70419C1.32785 5.54482 1.1339 5.44381 0.923729 5.4214C0.713554 5.399 0.502661 5.45698 0.33334 5.5835L3.66667 3.0835C3.81109 2.97563 3.98644 2.91705 4.16669 2.91669C4.27317 2.91582 4.37878 2.93598 4.47746 2.97602C4.57613 3.01606 4.66592 3.07519 4.74169 3.15003L4.80002 3.20836L8.20419 6.47084L11.8834 10L14.9959 12.9834L18.5334 16.375L18.5917 16.4334C18.6674 16.5082 18.7572 16.5673 18.8559 16.6074C18.9546 16.6474 19.0602 16.6676 19.1667 16.6667C19.331 16.6672 19.4918 16.6194 19.6292 16.5292Z" fill="white"/>
<path d="M20 4.1667V15.8334C20.0001 15.9709 19.9664 16.1063 19.9017 16.2277C19.837 16.3491 19.7434 16.4526 19.6292 16.5292L14.6292 19.8625C14.7434 19.786 14.837 19.6824 14.9017 19.561C14.9664 19.4397 15.0001 19.3042 15 19.1667L14.9959 12.9834L14.9917 7.02084L14.9875 0.833366C14.9881 0.695742 14.9546 0.560111 14.8899 0.438656C14.8251 0.317202 14.7313 0.2137 14.6167 0.137504L19.6292 3.47084C19.7431 3.5477 19.8365 3.65134 19.9011 3.77265C19.9658 3.89395 19.9997 4.02925 20 4.1667Z" fill="white"/>
</mask>
<g mask="url(#mask0_26_4630)">
<path d="M3.66667 16.9168L0.33334 14.4168C0.229457 14.3396 0.145171 14.239 0.0872735 14.1232C0.0293757 14.0074 -0.000515822 13.8796 6.73523e-06 13.7502V6.25016C-0.000515822 6.1207 0.0293757 5.99292 0.0872735 5.87713C0.145171 5.76133 0.229457 5.66076 0.33334 5.5835L3.66667 3.0835C3.56279 3.16076 3.4785 3.26133 3.42061 3.37713C3.36271 3.49293 3.33282 3.6207 3.33334 3.75016V16.2502C3.33282 16.3796 3.36271 16.5074 3.42061 16.6232C3.4785 16.739 3.56279 16.8396 3.66667 16.9168Z" fill="#5E438F"/>
<g filter="url(#filter0_dd_26_4630)">
<path d="M19.6288 3.47084C19.4915 3.38067 19.3307 3.33286 19.1663 3.33334C19.0599 3.33246 18.9542 3.35262 18.8556 3.39266C18.7569 3.4327 18.6671 3.49184 18.5913 3.56667L18.533 3.625L14.9913 7.02084L11.883 10L8.20384 13.5292L4.79967 16.7917L4.74134 16.85C4.66558 16.9248 4.57578 16.984 4.47711 17.024C4.37844 17.0641 4.27283 17.0842 4.16634 17.0833C3.98609 17.083 3.81076 17.0245 3.66634 16.9167L0.333008 14.4167C0.502432 14.5438 0.713887 14.6016 0.924399 14.5783C1.13491 14.5551 1.32869 14.4526 1.46634 14.2917L3.33301 12.125L5.16634 9.99584L8.20384 6.47084L13.5247 0.29167C13.6019 0.200129 13.6983 0.126591 13.807 0.0762083C13.9157 0.0258255 14.034 -0.000183537 14.1538 3.59922e-06C14.3182 -0.000477774 14.479 0.0473363 14.6163 0.137504L19.6288 3.47084Z" fill="url(#paint0_linear_26_4630)"/>
</g>
<g filter="url(#filter1_dd_26_4630)">
<path d="M19.6288 16.5292L14.6288 19.8625C14.4588 19.9738 14.2542 20.0198 14.0529 19.9923C13.8516 19.9647 13.6669 19.8654 13.533 19.7125L8.20384 13.5292L5.16634 9.99587L3.33301 7.87087L1.46634 5.7042C1.3275 5.54483 1.13356 5.44382 0.923384 5.42141C0.713208 5.399 0.502329 5.45685 0.333008 5.58337L3.66634 3.08337C3.81076 2.9755 3.98609 2.91706 4.16634 2.9167C4.27283 2.91582 4.37844 2.93598 4.47711 2.97602C4.57578 3.01607 4.66558 3.0752 4.74134 3.15003L4.79967 3.20837L8.20384 6.47087L11.883 10L14.9955 12.9834L18.533 16.375L18.5913 16.4334C18.6671 16.5082 18.7569 16.5673 18.8556 16.6074C18.9542 16.6474 19.0599 16.6676 19.1663 16.6667C19.3307 16.6672 19.4915 16.6194 19.6288 16.5292Z" fill="url(#paint1_linear_26_4630)"/>
</g>
<g filter="url(#filter2_dd_26_4630)">
<path d="M19.9995 4.16669V15.8334C19.9997 15.9709 19.9659 16.1063 19.9012 16.2277C19.8366 16.3491 19.743 16.4526 19.6287 16.5292L14.6287 19.8625C14.743 19.786 14.8366 19.6824 14.9012 19.561C14.9659 19.4397 14.9997 19.3042 14.9995 19.1667L14.9954 12.9834L14.9912 7.02086L14.987 0.833361C14.9877 0.695737 14.9542 0.560106 14.8894 0.438651C14.8247 0.317197 14.7308 0.213724 14.6162 0.137527L19.6287 3.47086C19.7427 3.54772 19.8361 3.65134 19.9007 3.77264C19.9653 3.89394 19.9993 4.02924 19.9995 4.16669Z" fill="url(#paint2_linear_26_4630)"/>
</g>
</g>
</g>
<defs>
<filter id="filter0_dd_26_4630" x="-7.66699" y="-6" width="35.2959" height="33.0834" filterUnits="userSpaceOnUse" color-interpolation-filters="sRGB">
<feFlood flood-opacity="0" result="BackgroundImageFix"/>
<feColorMatrix in="SourceAlpha" type="matrix" values="0 0 0 0 0 0 0 0 0 0 0 0 0 0 0 0 0 0 127 0" result="hardAlpha"/>
<feOffset dy="0.38"/>
<feGaussianBlur stdDeviation="0.38"/>
<feColorMatrix type="matrix" values="0 0 0 0 0 0 0 0 0 0 0 0 0 0 0 0 0 0 0.24 0"/>
<feBlend mode="normal" in2="BackgroundImageFix" result="effect1_dropShadow_26_4630"/>
<feColorMatrix in="SourceAlpha" type="matrix" values="0 0 0 0 0 0 0 0 0 0 0 0 0 0 0 0 0 0 127 0" result="hardAlpha"/>
<feOffset dy="2"/>
<feGaussianBlur stdDeviation="4"/>
<feColorMatrix type="matrix" values="0 0 0 0 0 0 0 0 0 0 0 0 0 0 0 0 0 0 0.22 0"/>
<feBlend mode="normal" in2="effect1_dropShadow_26_4630" result="effect2_dropShadow_26_4630"/>
<feBlend mode="normal" in="SourceGraphic" in2="effect2_dropShadow_26_4630" result="shape"/>
</filter>
<filter id="filter1_dd_26_4630" x="-7.66699" y="-3.08333" width="35.2959" height="33.0834" filterUnits="userSpaceOnUse" color-interpolation-filters="sRGB">
<feFlood flood-opacity="0" result="BackgroundImageFix"/>
<feColorMatrix in="SourceAlpha" type="matrix" values="0 0 0 0 0 0 0 0 0 0 0 0 0 0 0 0 0 0 127 0" result="hardAlpha"/>
<feOffset dy="0.38"/>
<feGaussianBlur stdDeviation="0.38"/>
<feColorMatrix type="matrix" values="0 0 0 0 0 0 0 0 0 0 0 0 0 0 0 0 0 0 0.24 0"/>
<feBlend mode="normal" in2="BackgroundImageFix" result="effect1_dropShadow_26_4630"/>
<feColorMatrix in="SourceAlpha" type="matrix" values="0 0 0 0 0 0 0 0 0 0 0 0 0 0 0 0 0 0 127 0" result="hardAlpha"/>
<feOffset dy="2"/>
<feGaussianBlur stdDeviation="4"/>
<feColorMatrix type="matrix" values="0 0 0 0 0 0 0 0 0 0 0 0 0 0 0 0 0 0 0.22 0"/>
<feBlend mode="normal" in2="effect1_dropShadow_26_4630" result="effect2_dropShadow_26_4630"/>
<feBlend mode="normal" in="SourceGraphic" in2="effect2_dropShadow_26_4630" result="shape"/>
</filter>
<filter id="filter2_dd_26_4630" x="-9.38379" y="-23.8625" width="53.3838" height="67.725" filterUnits="userSpaceOnUse" color-interpolation-filters="sRGB">
<feFlood flood-opacity="0" result="BackgroundImageFix"/>
<feColorMatrix in="SourceAlpha" type="matrix" values="0 0 0 0 0 0 0 0 0 0 0 0 0 0 0 0 0 0 127 0" result="hardAlpha"/>
<feOffset/>
<feGaussianBlur stdDeviation="0.2"/>
<feColorMatrix type="matrix" values="0 0 0 0 0 0 0 0 0 0 0 0 0 0 0 0 0 0 0.24 0"/>
<feBlend mode="normal" in2="BackgroundImageFix" result="effect1_dropShadow_26_4630"/>
<feColorMatrix in="SourceAlpha" type="matrix" values="0 0 0 0 0 0 0 0 0 0 0 0 0 0 0 0 0 0 127 0" result="hardAlpha"/>
<feOffset/>
<feGaussianBlur stdDeviation="12"/>
<feColorMatrix type="matrix" values="0 0 0 0 0 0 0 0 0 0 0 0 0 0 0 0 0 0 0.3 0"/>
<feBlend mode="normal" in2="effect1_dropShadow_26_4630" result="effect2_dropShadow_26_4630"/>
<feBlend mode="normal" in="SourceGraphic" in2="effect2_dropShadow_26_4630" result="shape"/>
</filter>
<linearGradient id="paint0_linear_26_4630" x1="16.2497" y1="1.01737e-06" x2="1.39883" y2="14.9473" gradientUnits="userSpaceOnUse">
<stop stop-color="#7252AA"/>
<stop offset="1" stop-color="#7252AA"/>
</linearGradient>
<linearGradient id="paint1_linear_26_4630" x1="1.87465" y1="3.64584" x2="15.833" y2="19.2708" gradientUnits="userSpaceOnUse">
<stop stop-color="#AE7FE2"/>
<stop offset="1" stop-color="#9A70D4"/>
</linearGradient>
<linearGradient id="paint2_linear_26_4630" x1="17.2486" y1="-0.264665" x2="17.2486" y2="19.8458" gradientUnits="userSpaceOnUse">
<stop stop-color="#D59DFF"/>
<stop offset="1" stop-color="#C18EF1"/>
</linearGradient>
<clipPath id="clip0_26_4630">
<rect width="20" height="20" fill="white"/>
</clipPath>
</defs>
</svg>
