<svg width="96" height="96" viewBox="0 0 96 96" fill="none" xmlns="http://www.w3.org/2000/svg">
<path fill-rule="evenodd" clip-rule="evenodd" d="M74.9989 36.2491C74.9996 36.1661 75 36.0831 75 36C75 21.0883 62.9117 9 48 9C33.0883 9 21 21.0883 21 36C21 36.0831 21.0004 36.1661 21.0011 36.2491C27.5057 37.3407 32.8271 41.921 34.9758 48H61.0242C63.1729 41.921 68.4943 37.3407 74.9989 36.2491Z" fill="url(#paint0_linear_10809_242682)"/>
<mask id="mask0_10809_242682" style="mask-type:alpha" maskUnits="userSpaceOnUse" x="21" y="9" width="54" height="39">
<path fill-rule="evenodd" clip-rule="evenodd" d="M74.9989 36.2491C74.9996 36.1661 75 36.0831 75 36C75 21.0883 62.9117 9 48 9C33.0883 9 21 21.0883 21 36C21 36.0831 21.0004 36.1661 21.0011 36.2491C27.5057 37.3407 32.8271 41.921 34.9758 48H61.0242C63.1729 41.921 68.4943 37.3407 74.9989 36.2491Z" fill="url(#paint1_linear_10809_242682)"/>
</mask>
<g mask="url(#mask0_10809_242682)">
<g filter="url(#filter0_dd_10809_242682)">
<path fill-rule="evenodd" clip-rule="evenodd" d="M18 72C8.05887 72 0 63.9411 0 54C0 44.0589 8.05887 36 18 36C25.8373 36 32.5047 41.0088 34.9758 48H61.0242C63.4953 41.0088 70.1627 36 78 36C87.9411 36 96 44.0589 96 54C96 63.9411 87.9411 72 78 72H18Z" fill="#A1AAB3"/>
<path fill-rule="evenodd" clip-rule="evenodd" d="M18 72C8.05887 72 0 63.9411 0 54C0 44.0589 8.05887 36 18 36C25.8373 36 32.5047 41.0088 34.9758 48H61.0242C63.4953 41.0088 70.1627 36 78 36C87.9411 36 96 44.0589 96 54C96 63.9411 87.9411 72 78 72H18Z" fill="url(#paint2_linear_10809_242682)"/>
</g>
</g>
<path fill-rule="evenodd" clip-rule="evenodd" d="M18 72C8.05887 72 0 63.9411 0 54C0 44.0589 8.05887 36 18 36C25.8373 36 32.5047 41.0088 34.9758 48H61.0242C63.4953 41.0088 70.1627 36 78 36C87.9411 36 96 44.0589 96 54C96 63.9411 87.9411 72 78 72H18Z" fill="url(#paint3_linear_10809_242682)"/>
<mask id="mask1_10809_242682" style="mask-type:alpha" maskUnits="userSpaceOnUse" x="0" y="9" width="96" height="63">
<path fill-rule="evenodd" clip-rule="evenodd" d="M75 36C75 36.0831 74.9996 36.1661 74.9989 36.2491C75.9749 36.0853 76.9775 36 78 36C87.9411 36 96 44.0589 96 54C96 63.9411 87.9411 72 78 72H18C8.05887 72 0 63.9411 0 54C0 44.0589 8.05887 36 18 36C19.0225 36 20.0251 36.0853 21.0011 36.2491C21.0004 36.1661 21 36.0831 21 36C21 21.0883 33.0883 9 48 9C62.9117 9 75 21.0883 75 36Z" fill="#A1AAB3"/>
<path fill-rule="evenodd" clip-rule="evenodd" d="M75 36C75 36.0831 74.9996 36.1661 74.9989 36.2491C75.9749 36.0853 76.9775 36 78 36C87.9411 36 96 44.0589 96 54C96 63.9411 87.9411 72 78 72H18C8.05887 72 0 63.9411 0 54C0 44.0589 8.05887 36 18 36C19.0225 36 20.0251 36.0853 21.0011 36.2491C21.0004 36.1661 21 36.0831 21 36C21 21.0883 33.0883 9 48 9C62.9117 9 75 21.0883 75 36Z" fill="url(#paint4_linear_10809_242682)"/>
</mask>
<g mask="url(#mask1_10809_242682)">
<g filter="url(#filter1_dd_10809_242682)">
<path fill-rule="evenodd" clip-rule="evenodd" d="M52.2426 31.7574C49.8995 29.4142 46.1005 29.4142 43.7574 31.7574L28.7574 46.7574C26.4142 49.1005 26.4142 52.8995 28.7574 55.2426C31.1005 57.5858 34.8995 57.5858 37.2426 55.2426L42 50.4853L42 84C42 87.3137 44.6863 90 48 90C51.3137 90 54 87.3137 54 84L54 50.4853L58.7574 55.2426C61.1005 57.5858 64.8995 57.5858 67.2426 55.2426C69.5858 52.8995 69.5858 49.1005 67.2426 46.7574L52.2426 31.7574Z" fill="url(#paint5_linear_10809_242682)"/>
</g>
</g>
<path fill-rule="evenodd" clip-rule="evenodd" d="M52.2426 31.7574C49.8995 29.4142 46.1005 29.4142 43.7574 31.7574L28.7574 46.7574C26.4142 49.1005 26.4142 52.8995 28.7574 55.2426C31.1005 57.5858 34.8995 57.5858 37.2426 55.2426L42 50.4853L42 84C42 87.3137 44.6863 90 48 90C51.3137 90 54 87.3137 54 84L54 50.4853L58.7574 55.2426C61.1005 57.5858 64.8995 57.5858 67.2426 55.2426C69.5858 52.8995 69.5858 49.1005 67.2426 46.7574L52.2426 31.7574Z" fill="url(#paint6_linear_10809_242682)"/>
<defs>
<filter id="filter0_dd_10809_242682" x="-4" y="30.02" width="104" height="44" filterUnits="userSpaceOnUse" color-interpolation-filters="sRGB">
<feFlood flood-opacity="0" result="BackgroundImageFix"/>
<feColorMatrix in="SourceAlpha" type="matrix" values="0 0 0 0 0 0 0 0 0 0 0 0 0 0 0 0 0 0 127 0" result="hardAlpha"/>
<feOffset dy="-1.98"/>
<feGaussianBlur stdDeviation="2"/>
<feColorMatrix type="matrix" values="0 0 0 0 0 0 0 0 0 0 0 0 0 0 0 0 0 0 0.15 0"/>
<feBlend mode="normal" in2="BackgroundImageFix" result="effect1_dropShadow_10809_242682"/>
<feColorMatrix in="SourceAlpha" type="matrix" values="0 0 0 0 0 0 0 0 0 0 0 0 0 0 0 0 0 0 127 0" result="hardAlpha"/>
<feOffset dy="-0.42"/>
<feGaussianBlur stdDeviation="0.3"/>
<feColorMatrix type="matrix" values="0 0 0 0 0 0 0 0 0 0 0 0 0 0 0 0 0 0 0.15 0"/>
<feBlend mode="normal" in2="effect1_dropShadow_10809_242682" result="effect2_dropShadow_10809_242682"/>
<feBlend mode="normal" in="SourceGraphic" in2="effect2_dropShadow_10809_242682" result="shape"/>
</filter>
<filter id="filter1_dd_10809_242682" x="21" y="22.02" width="54" height="72" filterUnits="userSpaceOnUse" color-interpolation-filters="sRGB">
<feFlood flood-opacity="0" result="BackgroundImageFix"/>
<feColorMatrix in="SourceAlpha" type="matrix" values="0 0 0 0 0 0 0 0 0 0 0 0 0 0 0 0 0 0 127 0" result="hardAlpha"/>
<feOffset dy="-1.98"/>
<feGaussianBlur stdDeviation="3"/>
<feColorMatrix type="matrix" values="0 0 0 0 0 0 0 0 0 0 0 0 0 0 0 0 0 0 0.25 0"/>
<feBlend mode="normal" in2="BackgroundImageFix" result="effect1_dropShadow_10809_242682"/>
<feColorMatrix in="SourceAlpha" type="matrix" values="0 0 0 0 0 0 0 0 0 0 0 0 0 0 0 0 0 0 127 0" result="hardAlpha"/>
<feOffset dy="-0.42"/>
<feGaussianBlur stdDeviation="0.3"/>
<feColorMatrix type="matrix" values="0 0 0 0 0 0 0 0 0 0 0 0 0 0 0 0 0 0 0.15 0"/>
<feBlend mode="normal" in2="effect1_dropShadow_10809_242682" result="effect2_dropShadow_10809_242682"/>
<feBlend mode="normal" in="SourceGraphic" in2="effect2_dropShadow_10809_242682" result="shape"/>
</filter>
<linearGradient id="paint0_linear_10809_242682" x1="36" y1="12" x2="48" y2="51" gradientUnits="userSpaceOnUse">
<stop stop-color="#24CDB9"/>
<stop offset="1" stop-color="#008575"/>
</linearGradient>
<linearGradient id="paint1_linear_10809_242682" x1="36" y1="9" x2="48" y2="48" gradientUnits="userSpaceOnUse">
<stop stop-color="#CAD2D9"/>
<stop offset="1" stop-color="#A1AAB3"/>
</linearGradient>
<linearGradient id="paint2_linear_10809_242682" x1="26.6667" y1="36" x2="32.806" y2="74.4274" gradientUnits="userSpaceOnUse">
<stop stop-color="#ECF6FF"/>
<stop offset="1" stop-color="#A1AAB3"/>
</linearGradient>
<linearGradient id="paint3_linear_10809_242682" x1="26.6667" y1="38.7692" x2="32.806" y2="77.1967" gradientUnits="userSpaceOnUse">
<stop stop-color="#24CDB9"/>
<stop offset="1" stop-color="#008575"/>
</linearGradient>
<linearGradient id="paint4_linear_10809_242682" x1="26.6667" y1="36" x2="32.806" y2="74.4275" gradientUnits="userSpaceOnUse">
<stop stop-color="#ECF6FF"/>
<stop offset="1" stop-color="#A1AAB3"/>
</linearGradient>
<linearGradient id="paint5_linear_10809_242682" x1="34.0547" y1="30" x2="59.8487" y2="84.3798" gradientUnits="userSpaceOnUse">
<stop stop-color="#28AFEA"/>
<stop offset="0.458333" stop-color="#1493DF"/>
<stop offset="1" stop-color="#0669BC"/>
</linearGradient>
<linearGradient id="paint6_linear_10809_242682" x1="38.6667" y1="34.6154" x2="67.8362" y2="82.5426" gradientUnits="userSpaceOnUse">
<stop stop-color="#ECF6FF"/>
<stop offset="1" stop-color="#A1AAB3"/>
</linearGradient>
</defs>
</svg>
