<svg width="87" height="88" viewBox="0 0 87 88" fill="none" xmlns="http://www.w3.org/2000/svg">
<g clip-path="url(#clip0_10735_509739)">
<path d="M2.3925 36.6666H59.8125V82.5H2.3925C1.75797 82.5 1.14943 82.3536 0.700745 82.0932C0.252064 81.8327 0 81.4794 0 81.1111L0 38.0555C0 37.6872 0.252064 37.3339 0.700745 37.0734C1.14943 36.813 1.75797 36.6666 2.3925 36.6666Z" fill="url(#paint0_linear_10735_509739)"/>
<path d="M0 80.6666H59.8125V82.5C59.8125 82.9862 59.6215 83.4525 59.2816 83.7963C58.9417 84.1401 58.4807 84.3333 58 84.3333H1.8125C1.3318 84.3333 0.870779 84.1401 0.530869 83.7963C0.19096 83.4525 0 82.9862 0 82.5V80.6666Z" fill="url(#paint1_linear_10735_509739)"/>
<mask id="mask0_10735_509739" style="mask-type:alpha" maskUnits="userSpaceOnUse" x="0" y="36" width="60" height="48">
<rect y="36.25" width="59.8125" height="47.125" rx="1.8125" fill="#D9D9D9"/>
</mask>
<g mask="url(#mask0_10735_509739)">
<g filter="url(#filter0_dd_10735_509739)">
<rect x="19.9375" y="3.625" width="67.0625" height="54.375" rx="3.625" fill="#D9D9D9"/>
</g>
</g>
<path fill-rule="evenodd" clip-rule="evenodd" d="M19.9375 12.8333H87.0001V4.93099C87.0001 4.59566 86.8763 4.27407 86.6558 4.03695C86.4353 3.79984 86.1363 3.66663 85.8244 3.66663H21.1133C20.8015 3.66663 20.5025 3.79984 20.282 4.03695C20.0615 4.27407 19.9376 4.59566 19.9376 4.93099L19.9375 12.8333ZM19.9375 12.8333H87.0001V57.4023C87.0001 57.7376 86.8763 58.0592 86.6558 58.2963C86.4353 58.5335 86.1363 58.6667 85.8244 58.6667H21.1133C20.8015 58.6667 20.5025 58.5335 20.282 58.2963C20.0615 58.0592 19.9376 57.7376 19.9376 57.4023L19.9375 12.8333Z" fill="url(#paint2_linear_10735_509739)"/>
<path fill-rule="evenodd" clip-rule="evenodd" d="M19.9375 12.8333H87.0001V4.93099C87.0001 4.59566 86.8763 4.27407 86.6558 4.03695C86.4353 3.79984 86.1363 3.66663 85.8244 3.66663H21.1133C20.8015 3.66663 20.5025 3.79984 20.282 4.03695C20.0615 4.27407 19.9376 4.59566 19.9376 4.93099L19.9375 12.8333ZM19.9375 12.8333H87.0001V57.4023C87.0001 57.7376 86.8763 58.0592 86.6558 58.2963C86.4353 58.5335 86.1363 58.6667 85.8244 58.6667H21.1133C20.8015 58.6667 20.5025 58.5335 20.282 58.2963C20.0615 58.0592 19.9376 57.7376 19.9376 57.4023L19.9375 12.8333Z" fill="url(#paint3_linear_10735_509739)"/>
<path d="M19.9375 55.0001H87C87 55.9725 86.6181 56.9052 85.9383 57.5928C85.2584 58.2804 84.3364 58.6667 83.375 58.6667H23.5625C22.6011 58.6667 21.6791 58.2804 20.9992 57.5928C20.3194 56.9052 19.9375 55.9725 19.9375 55.0001Z" fill="url(#paint4_linear_10735_509739)"/>
<g filter="url(#filter1_dd_10735_509739)">
<path fill-rule="evenodd" clip-rule="evenodd" d="M63.9872 22.7577C63.9923 21.309 63.419 19.9182 62.3946 18.8938C61.3702 17.8694 59.9794 17.2961 58.5307 17.3012L39.2385 17.3689C36.2355 17.3794 33.8096 19.8224 33.8201 22.8254C33.8306 25.8285 36.2736 28.2544 39.2766 28.2438L45.2942 28.2227L17.4987 56.0182C15.3752 58.1417 15.3752 61.5845 17.4987 63.708C19.6222 65.8315 23.065 65.8315 25.1885 63.708L53.0663 35.8302L53.0446 42.0117C53.034 45.0148 55.4599 47.4578 58.463 47.4683C61.466 47.4788 63.909 45.0529 63.9195 42.0499L63.9872 22.7577Z" fill="url(#paint5_linear_10735_509739)"/>
</g>
</g>
<defs>
<filter id="filter0_dd_10735_509739" x="17.9375" y="2.625" width="71.0625" height="58.375" filterUnits="userSpaceOnUse" color-interpolation-filters="sRGB">
<feFlood flood-opacity="0" result="BackgroundImageFix"/>
<feColorMatrix in="SourceAlpha" type="matrix" values="0 0 0 0 0 0 0 0 0 0 0 0 0 0 0 0 0 0 127 0" result="hardAlpha"/>
<feOffset dy="1"/>
<feGaussianBlur stdDeviation="1"/>
<feColorMatrix type="matrix" values="0 0 0 0 0 0 0 0 0 0 0 0 0 0 0 0 0 0 0.32 0"/>
<feBlend mode="normal" in2="BackgroundImageFix" result="effect1_dropShadow_10735_509739"/>
<feColorMatrix in="SourceAlpha" type="matrix" values="0 0 0 0 0 0 0 0 0 0 0 0 0 0 0 0 0 0 127 0" result="hardAlpha"/>
<feOffset dy="0.2"/>
<feGaussianBlur stdDeviation="0.1"/>
<feColorMatrix type="matrix" values="0 0 0 0 0 0 0 0 0 0 0 0 0 0 0 0 0 0 0.24 0"/>
<feBlend mode="normal" in2="effect1_dropShadow_10735_509739" result="effect2_dropShadow_10735_509739"/>
<feBlend mode="normal" in="SourceGraphic" in2="effect2_dropShadow_10735_509739" result="shape"/>
</filter>
<filter id="filter1_dd_10735_509739" x="13.9062" y="16.3011" width="52.0811" height="51.9995" filterUnits="userSpaceOnUse" color-interpolation-filters="sRGB">
<feFlood flood-opacity="0" result="BackgroundImageFix"/>
<feColorMatrix in="SourceAlpha" type="matrix" values="0 0 0 0 0 0 0 0 0 0 0 0 0 0 0 0 0 0 127 0" result="hardAlpha"/>
<feOffset dy="1"/>
<feGaussianBlur stdDeviation="1"/>
<feColorMatrix type="matrix" values="0 0 0 0 0 0 0 0 0 0 0 0 0 0 0 0 0 0 0.32 0"/>
<feBlend mode="normal" in2="BackgroundImageFix" result="effect1_dropShadow_10735_509739"/>
<feColorMatrix in="SourceAlpha" type="matrix" values="0 0 0 0 0 0 0 0 0 0 0 0 0 0 0 0 0 0 127 0" result="hardAlpha"/>
<feOffset dy="0.2"/>
<feGaussianBlur stdDeviation="0.1"/>
<feColorMatrix type="matrix" values="0 0 0 0 0 0 0 0 0 0 0 0 0 0 0 0 0 0 0.24 0"/>
<feBlend mode="normal" in2="effect1_dropShadow_10735_509739" result="effect2_dropShadow_10735_509739"/>
<feBlend mode="normal" in="SourceGraphic" in2="effect2_dropShadow_10735_509739" result="shape"/>
</filter>
<linearGradient id="paint0_linear_10735_509739" x1="46.4058" y1="87.5913" x2="15.5951" y2="32.5254" gradientUnits="userSpaceOnUse">
<stop stop-color="#2E3133"/>
<stop offset="1" stop-color="#737A80"/>
</linearGradient>
<linearGradient id="paint1_linear_10735_509739" x1="37.7006" y1="98.9519" x2="16.0934" y2="70.557" gradientUnits="userSpaceOnUse">
<stop stop-color="#8A9299"/>
<stop offset="0.99441" stop-color="#A1AAB3"/>
</linearGradient>
<linearGradient id="paint2_linear_10735_509739" x1="69.5308" y1="-3.49638" x2="24.5076" y2="71.0301" gradientUnits="userSpaceOnUse">
<stop stop-color="#5750E2"/>
<stop offset="1" stop-color="#2764E7"/>
</linearGradient>
<linearGradient id="paint3_linear_10735_509739" x1="69.5308" y1="-3.49638" x2="24.5076" y2="71.0301" gradientUnits="userSpaceOnUse">
<stop stop-color="#2764E7"/>
<stop offset="1" stop-color="#29C3FF"/>
</linearGradient>
<linearGradient id="paint4_linear_10735_509739" x1="58.1875" y1="73.2853" x2="38.6623" y2="39.8509" gradientUnits="userSpaceOnUse">
<stop stop-color="#4894FE"/>
<stop offset="0.99441" stop-color="#3BD5FF"/>
</linearGradient>
<linearGradient id="paint5_linear_10735_509739" x1="52.9504" y1="16.3761" x2="43.5597" y2="72.3543" gradientUnits="userSpaceOnUse">
<stop stop-color="white"/>
<stop offset="1" stop-color="#DDE6EE"/>
</linearGradient>
<clipPath id="clip0_10735_509739">
<rect width="87" height="88" fill="white"/>
</clipPath>
</defs>
</svg>
