<svg viewBox="0 0 16 16" fill="none" xmlns="http://www.w3.org/2000/svg">
<path d="M16 8C16 12.4183 12.4183 16 8 16C3.58172 16 0 12.4183 0 8C0 3.58172 3.58172 0 8 0C12.4183 0 16 3.58172 16 8Z" fill="url(#paint0_linear)"/>
<path opacity="0.08" fill-rule="evenodd" clip-rule="evenodd" d="M4.46231 7.53801C5.03057 6.15335 6.39189 5.17969 7.97944 5.17969C9.42963 5.17969 10.691 5.99221 11.3316 7.18809H9.88725C9.61111 7.18809 9.38725 7.41194 9.38725 7.68809C9.38725 7.96423 9.61111 8.18809 9.88725 8.18809H12.2872C12.5634 8.18809 12.7872 7.96423 12.7872 7.68809V5.28809C12.7872 5.01194 12.5634 4.78809 12.2872 4.78809C12.0111 4.78809 11.7872 5.01194 11.7872 5.28809V6.05704C10.91 4.91577 9.53105 4.17969 7.97944 4.17969C5.97233 4.17969 4.2541 5.41144 3.53719 7.15835C3.43235 7.41381 3.55445 7.7059 3.80992 7.81074C4.06538 7.91558 4.35747 7.79348 4.46231 7.53801ZM12.4671 10.6862C12.5653 10.4281 12.4356 10.1393 12.1776 10.0411C11.9195 9.94292 11.6306 10.0725 11.5324 10.3306C10.9874 11.7631 9.60151 12.7797 7.97944 12.7797C6.54569 12.7797 5.29646 11.9855 4.64929 10.8117H6.1125C6.38864 10.8117 6.6125 10.5879 6.6125 10.3117C6.6125 10.0356 6.38864 9.81172 6.1125 9.81172H3.7125C3.57989 9.81172 3.45271 9.8644 3.35895 9.95817C3.26518 10.0519 3.2125 10.1791 3.2125 10.3117V12.7117C3.2125 12.9879 3.43636 13.2117 3.7125 13.2117C3.98864 13.2117 4.2125 12.9879 4.2125 12.7117V11.9548C5.09132 13.066 6.45169 13.7797 7.97944 13.7797C10.0302 13.7797 11.7793 12.4939 12.4671 10.6862Z" fill="black"/>
<path opacity="0.08" fill-rule="evenodd" clip-rule="evenodd" d="M4.46231 7.03801C5.03057 5.65335 6.39189 4.67969 7.97944 4.67969C9.42963 4.67969 10.691 5.49221 11.3316 6.68809H9.88725C9.61111 6.68809 9.38725 6.91194 9.38725 7.18809C9.38725 7.46423 9.61111 7.68809 9.88725 7.68809H12.2872C12.5634 7.68809 12.7872 7.46423 12.7872 7.18809V4.78809C12.7872 4.51194 12.5634 4.28809 12.2872 4.28809C12.0111 4.28809 11.7872 4.51194 11.7872 4.78809V5.55704C10.91 4.41577 9.53105 3.67969 7.97944 3.67969C5.97233 3.67969 4.2541 4.91144 3.53719 6.65835C3.43235 6.91381 3.55445 7.2059 3.80992 7.31074C4.06538 7.41558 4.35747 7.29348 4.46231 7.03801ZM12.4671 10.1862C12.5653 9.92815 12.4356 9.63932 12.1776 9.54112C11.9195 9.44292 11.6306 9.57255 11.5324 9.83064C10.9874 11.2631 9.60151 12.2797 7.97944 12.2797C6.54569 12.2797 5.29646 11.4855 4.64929 10.3117H6.1125C6.38864 10.3117 6.6125 10.0879 6.6125 9.81172C6.6125 9.53558 6.38864 9.31172 6.1125 9.31172H3.7125C3.57989 9.31172 3.45271 9.3644 3.35895 9.45817C3.26518 9.55193 3.2125 9.67911 3.2125 9.81172V12.2117C3.2125 12.4879 3.43636 12.7117 3.7125 12.7117C3.98864 12.7117 4.2125 12.4879 4.2125 12.2117V11.4548C5.09132 12.566 6.45169 13.2797 7.97944 13.2797C10.0302 13.2797 11.7793 11.9939 12.4671 10.1862Z" fill="black"/>
<path fill-rule="evenodd" clip-rule="evenodd" d="M4.46231 6.53801C5.03057 5.15335 6.39189 4.17969 7.97944 4.17969C9.42963 4.17969 10.691 4.99221 11.3316 6.18809H9.88725C9.61111 6.18809 9.38725 6.41194 9.38725 6.68809C9.38725 6.96423 9.61111 7.18809 9.88725 7.18809H12.2872C12.5634 7.18809 12.7872 6.96423 12.7872 6.68809V4.28809C12.7872 4.01194 12.5634 3.78809 12.2872 3.78809C12.0111 3.78809 11.7872 4.01194 11.7872 4.28809V5.05704C10.91 3.91577 9.53105 3.17969 7.97944 3.17969C5.97233 3.17969 4.2541 4.41144 3.53719 6.15835C3.43235 6.41381 3.55445 6.7059 3.80992 6.81074C4.06538 6.91558 4.35747 6.79348 4.46231 6.53801ZM12.4671 9.68624C12.5653 9.42815 12.4356 9.13932 12.1776 9.04112C11.9195 8.94292 11.6306 9.07255 11.5324 9.33064C10.9874 10.7631 9.60151 11.7797 7.97944 11.7797C6.54569 11.7797 5.29646 10.9855 4.64929 9.81172H6.1125C6.38864 9.81172 6.6125 9.58786 6.6125 9.31172C6.6125 9.03558 6.38864 8.81172 6.1125 8.81172H3.7125C3.57989 8.81172 3.45271 8.8644 3.35895 8.95817C3.26518 9.05193 3.2125 9.17911 3.2125 9.31172V11.7117C3.2125 11.9879 3.43636 12.2117 3.7125 12.2117C3.98864 12.2117 4.2125 11.9879 4.2125 11.7117V10.9548C5.09132 12.066 6.45169 12.7797 7.97944 12.7797C10.0302 12.7797 11.7793 11.4939 12.4671 9.68624Z" fill="url(#paint1_linear)"/>
<defs>
<linearGradient id="paint0_linear" x1="12.0007" y1="14.9293" x2="3.99933" y2="1.07067" gradientUnits="userSpaceOnUse">
<stop stop-color="#0078D4"/>
<stop offset="1" stop-color="#1B9DE2"/>
</linearGradient>
<linearGradient id="paint1_linear" x1="5.54934" y1="12.1373" x2="10.3001" y2="3.73725" gradientUnits="userSpaceOnUse">
<stop stop-color="#E7EFF4"/>
<stop offset="1" stop-color="white"/>
</linearGradient>
</defs>
</svg>
