<?xml version="1.0" encoding="UTF-8"?>
<svg width="24" height="24" viewBox="0 0 24 24" fill="none" x="3006" y="960"
    xmlns="http://www.w3.org/2000/svg">
    <g clip-path="url(#cjclip0_15155_3853)">
        <path
            d="M23.4984 6.22343C23.2224 5.19081 22.4091 4.37768 21.3765 4.10169C19.505 3.6001 11.9999 3.6001 11.9999 3.6001C11.9999 3.6001 4.49498 3.6001 2.62334 4.10169C1.59071 4.37768 0.777578 5.19081 0.501593 6.22343C0 8.09507 0 12.0001 0 12.0001C0 12.0001 0 15.9052 0.501593 17.7769C0.777578 18.8095 1.59091 19.6226 2.62353 19.8986C4.49517 20.4002 12.0001 20.4002 12.0001 20.4002C12.0001 20.4002 19.505 20.4002 21.3767 19.8986C22.4093 19.6226 23.2224 18.8093 23.4986 17.7769C24.0002 15.9052 24.0002 12.0001 24.0002 12.0001C24.0002 12.0001 24 8.09507 23.4984 6.22343Z"
            fill="#FF0000" />
        <path d="M9.59961 15.6003L15.8347 12.0004L9.59961 8.40039V15.6003Z" fill="white" />
    </g>
    <defs>
        <clipPath id="cjclip0_15155_3853">
            <rect width="24" height="24" fill="white" />
        </clipPath>
    </defs>
</svg>