<?xml version="1.0" encoding="UTF-8"?>
<svg fill="none" version="1.1" viewBox="0 0 228 228" xmlns="http://www.w3.org/2000/svg"><g clip-path="url(#clip0_3649_22921)"><path d="m211.97 111.11-39.989-40.938c-1.247-1.2624-2.85-1.9838-4.632-1.9838h-106.79c-1.6922 0-3.3844.7214-4.6313 1.9838l-39.9 40.938h195.94z" fill="url(#paint0_linear_3649_22921)"/><path d="m211.97 111.11-39.989-40.938c-1.247-1.2624-2.85-1.9838-4.632-1.9838h-106.79c-1.6922 0-3.3844.7214-4.6313 1.9838l-39.9 40.938h195.94z" fill="url(#paint1_linear_3649_22921)" opacity=".5"/><path d="m16.031 111.11 39.989-40.938c1.2469-1.2624 2.85-1.9838 4.6313-1.9838h106.79c1.692 0 3.384.7214 4.631 1.9838l39.989 40.938h-196.03z" fill="url(#paint2_linear_3649_22921)" opacity=".5"/><path d="m207.58 171h-187.07c-3.4875 0-6.2595-2.77-6.2595-6.255v-49.24c0-3.485 2.772-6.255 6.2595-6.255h186.98c3.487 0 6.259 2.77 6.259 6.255v49.24c.089 3.395-2.772 6.255-6.17 6.255z" fill="url(#paint3_linear_3649_22921)"/><mask id="mask0_3649_22921" x="14" y="109" width="200" height="62" style="mask-type:alpha" maskUnits="userSpaceOnUse"><path d="m207.58 171h-187.07c-3.4875 0-6.2595-2.77-6.2595-6.255v-49.24c0-3.485 2.772-6.255 6.2595-6.255h186.98c3.487 0 6.259 2.77 6.259 6.255v49.24c.089 3.395-2.772 6.255-6.17 6.255z" fill="url(#paint3_linear_3649_22921)"/></mask><g mask="url(#mask0_3649_22921)"><path d="m14.25 128.25h35.625c6.5584 0 11.875 5.317 11.875 11.875s-5.3166 11.875-11.875 11.875h-35.625v-23.75z" fill="url(#paint5_linear_3649_22921)"/><path d="m14.25 127.89h-.3563v24.462h35.981c6.7551 0 12.231-5.476 12.231-12.231s-5.4762-12.231-12.231-12.231h-35.625z" stroke="url(#paint6_linear_3649_22921)" stroke-opacity=".4" stroke-width=".7125"/><path d="m99.75 140.12c0-6.558 5.317-11.875 11.875-11.875h102.12v23.75h-102.12c-6.558 0-11.875-5.317-11.875-11.875z" fill="url(#paint7_linear_3649_22921)"/><path d="m214.11 128.25v-.356h-102.48c-6.755 0-12.231 5.476-12.231 12.231s5.4763 12.231 12.231 12.231h102.48v-24.106z" stroke="url(#paint8_linear_3649_22921)" stroke-opacity=".4" stroke-width=".7125"/></g><path d="m109.25 140.12c0-1.312 1.063-2.375 2.375-2.375h90.25c1.312 0 2.375 1.063 2.375 2.375s-1.063 2.375-2.375 2.375h-90.25c-1.312 0-2.375-1.063-2.375-2.375z" fill="url(#paint9_linear_3649_22921)"/><path d="m111.62 137.39c-1.508 0-2.731 1.223-2.731 2.731s1.223 2.731 2.731 2.731h90.25c1.508 0 2.731-1.223 2.731-2.731s-1.223-2.731-2.731-2.731h-90.25z" stroke="url(#paint10_linear_3649_22921)" stroke-opacity=".2" stroke-width=".7125"/><path d="m207.52 110.04c3.028 0 5.432 2.382 5.432 5.381v49.4c0 2.999-2.404 5.381-5.432 5.381h-187.03c-3.0282 0-5.4328-2.382-5.4328-5.381v-49.4c0-2.999 2.4046-5.381 5.4328-5.381h187.03zm0-.794h-187.03c-3.4735 0-6.2344 2.735-6.2344 6.175v49.4c0 3.44 2.7609 6.175 6.2344 6.175h187.03c3.473 0 6.234-2.735 6.234-6.175v-49.4c0-3.44-2.761-6.175-6.234-6.175z" fill="url(#paint11_linear_3649_22921)"/><path d="m53.437 143.69c1.9689-1.967 1.9707-5.157.004-7.126s-5.1571-1.971-7.126-.004c-1.9689 1.966-1.9707 5.157-.004 7.126 1.9666 1.969 5.1571 1.97 7.126.004z" opacity=".15" stroke="#0f0" stroke-miterlimit="10" stroke-width="5.9612"/><path d="m53.437 143.69c1.9689-1.967 1.9707-5.157.004-7.126s-5.1571-1.971-7.126-.004c-1.9689 1.966-1.9707 5.157-.004 7.126 1.9666 1.969 5.1571 1.97 7.126.004z" opacity=".3" stroke="#0f0" stroke-miterlimit="10" stroke-width="2.9806"/><path d="m53.437 143.69c1.9689-1.967 1.9707-5.157.004-7.126s-5.1571-1.971-7.126-.004c-1.9689 1.966-1.9707 5.157-.004 7.126 1.9666 1.969 5.1571 1.97 7.126.004z" fill="#00B300"/><path d="m49.1 143.42c2.7427-.447 4.5924-2.998 4.1459-5.741-.1275-.574-.3189-1.148-.574-1.658-1.0205-.702-2.2962-1.021-3.6356-.83-2.7427.447-4.5924 2.998-4.146 5.741.1276.574.319 1.148.5741 1.658 1.0205.702 2.2962 1.021 3.6356.83z" fill="url(#paint12_radial_3649_22921)"/><path d="m53.437 143.69c1.9689-1.967 1.9707-5.157.004-7.126s-5.1571-1.971-7.126-.004c-1.9689 1.966-1.9707 5.157-.004 7.126 1.9666 1.969 5.1571 1.97 7.126.004z" stroke="#0f0" stroke-miterlimit="10" stroke-width="1.0199"/></g><rect x="99.75" y="19" width="114" height="71.25" rx="35.625" fill="url(#paint13_linear_3649_22921)"/><circle cx="133" cy="54.625" r="19" fill="url(#paint14_linear_3649_22921)" opacity=".3"/><g filter="url(#filter0_dd_3649_22921)"><path d="m135.38 57h7.125c.63 0 1.234-.2501 1.679-.6955.446-.4454.696-1.0496.696-1.6795s-.25-1.2341-.696-1.6795c-.445-.4454-1.049-.6955-1.679-.6955h-7.125v-7.125c0-.6299-.25-1.2341-.696-1.6795-.445-.4454-1.049-.6955-1.679-.6955s-1.234.2501-1.679.6955c-.446.4454-.696 1.0496-.696 1.6795v7.125h-7.125c-.63 0-1.234.2501-1.679.6955-.446.4454-.696 1.0496-.696 1.6795s.25 1.2341.696 1.6795c.445.4454 1.049.6955 1.679.6955h7.125v7.125c0 .6299.25 1.2341.696 1.6795.445.4454 1.049.6955 1.679.6955s1.234-.2501 1.679-.6955c.446-.4454.696-1.0496.696-1.6795v-7.125z" fill="url(#paint15_linear_3649_22921)"/></g><g filter="url(#filter1_di_3649_22921)"><circle cx="174.56" cy="65.312" r="8.3125" fill="url(#paint16_linear_3649_22921)"/></g><g filter="url(#filter2_i_3649_22921)"><circle cx="150.81" cy="27.312" r="3.5625" fill="url(#paint17_linear_3649_22921)"/></g><g filter="url(#filter3_i_3649_22921)"><circle cx="162.69" cy="27.312" r="3.5625" fill="url(#paint18_linear_3649_22921)"/></g><path d="m182.85 65.906c.014-.1961.021-.3941.021-.5937 0-4.5909-3.722-8.3125-8.313-8.3125-4.59 0-8.312 3.7216-8.312 8.3125 0 .1996.007.3976.021.5937.304-4.3137 3.9-7.7187 8.291-7.7187 4.392 0 7.988 3.405 8.292 7.7187z" clip-rule="evenodd" fill="#fff" fill-rule="evenodd" opacity=".15"/><g filter="url(#filter4_di_3649_22921)"><circle cx="184.06" cy="43.938" r="8.3125" fill="url(#paint19_linear_3649_22921)"/></g><path d="m192.35 44.531c.014-.1961.021-.3941.021-.5937 0-4.5909-3.722-8.3125-8.313-8.3125-4.59 0-8.312 3.7216-8.312 8.3125 0 .1996.007.3976.021.5937.304-4.3137 3.9-7.7187 8.291-7.7187 4.392 0 7.988 3.405 8.292 7.7187z" clip-rule="evenodd" fill="#fff" fill-rule="evenodd" opacity=".15"/><defs><filter id="filter0_dd_3649_22921" x="118.12" y="39.75" width="29.75" height="29.75" color-interpolation-filters="sRGB" filterUnits="userSpaceOnUse"><feFlood flood-opacity="0" result="BackgroundImageFix"/><feColorMatrix in="SourceAlpha" result="hardAlpha" values="0 0 0 0 0 0 0 0 0 0 0 0 0 0 0 0 0 0 127 0"/><feOffset/><feGaussianBlur stdDeviation="0.5"/><feColorMatrix values="0 0 0 0 0 0 0 0 0 0 0 0 0 0 0 0 0 0 0.1 0"/><feBlend in2="BackgroundImageFix" result="effect1_dropShadow_3649_22921"/><feColorMatrix in="SourceAlpha" result="hardAlpha" values="0 0 0 0 0 0 0 0 0 0 0 0 0 0 0 0 0 0 127 0"/><feOffset/><feGaussianBlur stdDeviation="1.5"/><feColorMatrix values="0 0 0 0 0 0 0 0 0 0 0 0 0 0 0 0 0 0 0.2 0"/><feBlend in2="effect1_dropShadow_3649_22921" result="effect2_dropShadow_3649_22921"/><feBlend in="SourceGraphic" in2="effect2_dropShadow_3649_22921" result="shape"/></filter><filter id="filter1_di_3649_22921" x="164.47" y="54.625" width="21.375" height="22.562" color-interpolation-filters="sRGB" filterUnits="userSpaceOnUse"><feFlood flood-opacity="0" result="BackgroundImageFix"/><feColorMatrix in="SourceAlpha" result="hardAlpha" values="0 0 0 0 0 0 0 0 0 0 0 0 0 0 0 0 0 0 127 0"/><feOffset dx="0.59375" dy="1.1875"/><feGaussianBlur stdDeviation="1.1875"/><feColorMatrix values="0 0 0 0 0 0 0 0 0 0 0 0 0 0 0 0 0 0 0.15 0"/><feBlend in2="BackgroundImageFix" result="effect1_dropShadow_3649_22921"/><feBlend in="SourceGraphic" in2="effect1_dropShadow_3649_22921" result="shape"/><feColorMatrix in="SourceAlpha" result="hardAlpha" values="0 0 0 0 0 0 0 0 0 0 0 0 0 0 0 0 0 0 127 0"/><feOffset dx="-0.59375" dy="-2.375"/><feGaussianBlur stdDeviation="2.375"/><feComposite in2="hardAlpha" k2="-1" k3="1" operator="arithmetic"/><feColorMatrix values="0 0 0 0 0 0 0 0 0 0 0 0 0 0 0 0 0 0 0.25 0"/><feBlend in2="shape" result="effect2_innerShadow_3649_22921"/></filter><filter id="filter2_i_3649_22921" x="146.66" y="21.375" width="7.7188" height="9.5" color-interpolation-filters="sRGB" filterUnits="userSpaceOnUse"><feFlood flood-opacity="0" result="BackgroundImageFix"/><feBlend in="SourceGraphic" in2="BackgroundImageFix" result="shape"/><feColorMatrix in="SourceAlpha" result="hardAlpha" values="0 0 0 0 0 0 0 0 0 0 0 0 0 0 0 0 0 0 127 0"/><feOffset dx="-0.59375" dy="-2.375"/><feGaussianBlur stdDeviation="2.375"/><feComposite in2="hardAlpha" k2="-1" k3="1" operator="arithmetic"/><feColorMatrix values="0 0 0 0 0 0 0 0 0 0 0 0 0 0 0 0 0 0 0.25 0"/><feBlend in2="shape" result="effect1_innerShadow_3649_22921"/></filter><filter id="filter3_i_3649_22921" x="158.53" y="21.375" width="7.7188" height="9.5" color-interpolation-filters="sRGB" filterUnits="userSpaceOnUse"><feFlood flood-opacity="0" result="BackgroundImageFix"/><feBlend in="SourceGraphic" in2="BackgroundImageFix" result="shape"/><feColorMatrix in="SourceAlpha" result="hardAlpha" values="0 0 0 0 0 0 0 0 0 0 0 0 0 0 0 0 0 0 127 0"/><feOffset dx="-0.59375" dy="-2.375"/><feGaussianBlur stdDeviation="2.375"/><feComposite in2="hardAlpha" k2="-1" k3="1" operator="arithmetic"/><feColorMatrix values="0 0 0 0 0 0 0 0 0 0 0 0 0 0 0 0 0 0 0.25 0"/><feBlend in2="shape" result="effect1_innerShadow_3649_22921"/></filter><filter id="filter4_di_3649_22921" x="173.97" y="33.25" width="21.375" height="22.562" color-interpolation-filters="sRGB" filterUnits="userSpaceOnUse"><feFlood flood-opacity="0" result="BackgroundImageFix"/><feColorMatrix in="SourceAlpha" result="hardAlpha" values="0 0 0 0 0 0 0 0 0 0 0 0 0 0 0 0 0 0 127 0"/><feOffset dx="0.59375" dy="1.1875"/><feGaussianBlur stdDeviation="1.1875"/><feColorMatrix values="0 0 0 0 0 0 0 0 0 0 0 0 0 0 0 0 0 0 0.15 0"/><feBlend in2="BackgroundImageFix" result="effect1_dropShadow_3649_22921"/><feBlend in="SourceGraphic" in2="effect1_dropShadow_3649_22921" result="shape"/><feColorMatrix in="SourceAlpha" result="hardAlpha" values="0 0 0 0 0 0 0 0 0 0 0 0 0 0 0 0 0 0 127 0"/><feOffset dx="-0.59375" dy="-2.375"/><feGaussianBlur stdDeviation="2.375"/><feComposite in2="hardAlpha" k2="-1" k3="1" operator="arithmetic"/><feColorMatrix values="0 0 0 0 0 0 0 0 0 0 0 0 0 0 0 0 0 0 0.25 0"/><feBlend in2="shape" result="effect2_innerShadow_3649_22921"/></filter><linearGradient id="paint0_linear_3649_22921" x1="152.41" x2="-31.46" y1="276.8" y2="126.15" gradientUnits="userSpaceOnUse"><stop stop-color="#B8C2CC" offset=".0053764"/><stop stop-color="#CAD2D9" offset="1"/></linearGradient><linearGradient id="paint1_linear_3649_22921" x1="158.21" x2="165.55" y1="67.724" y2="60.968" gradientUnits="userSpaceOnUse"><stop stop-color="#fff" stop-opacity="0" offset="0"/><stop stop-color="#DCDCDC" stop-opacity=".1418" offset=".2836"/><stop stop-color="#838383" stop-opacity=".4546" offset=".9093"/><stop stop-color="#767676" stop-opacity=".5" offset="1"/></linearGradient><linearGradient id="paint2_linear_3649_22921" x1="69.789" x2="62.454" y1="67.724" y2="60.968" gradientUnits="userSpaceOnUse"><stop stop-color="#fff" stop-opacity="0" offset="0"/><stop stop-color="#DCDCDC" stop-opacity=".1418" offset=".2836"/><stop stop-color="#838383" stop-opacity=".4546" offset=".9093"/><stop stop-color="#767676" stop-opacity=".5" offset="1"/></linearGradient><linearGradient id="paint3_linear_3649_22921" x1="153.11" x2="-81.046" y1="409.37" y2="273.6" gradientUnits="userSpaceOnUse"><stop stop-color="#B8C2CC" offset=".0053764"/><stop stop-color="#CAD2D9" offset="1"/></linearGradient><linearGradient id="paint5_linear_3649_22921" x1="48.647" x2="26.323" y1="159.16" y2="121.7" gradientUnits="userSpaceOnUse"><stop stop-color="#45494D" offset="0"/><stop stop-color="#5C6166" offset="1"/></linearGradient><linearGradient id="paint6_linear_3649_22921" x1="38" x2="38" y1="128.25" y2="152" gradientUnits="userSpaceOnUse"><stop offset="0"/><stop stop-color="#fff" offset="1"/></linearGradient><linearGradient id="paint7_linear_3649_22921" x1="182.3" x2="170.43" y1="159.16" y2="111.35" gradientUnits="userSpaceOnUse"><stop stop-color="#45494D" offset="0"/><stop stop-color="#5C6166" offset="1"/></linearGradient><linearGradient id="paint8_linear_3649_22921" x1="156.75" x2="156.75" y1="128.25" y2="152" gradientUnits="userSpaceOnUse"><stop offset="0"/><stop stop-color="#fff" offset="1"/></linearGradient><linearGradient id="paint9_linear_3649_22921" x1="156.75" x2="156.75" y1="137.75" y2="142.5" gradientUnits="userSpaceOnUse"><stop stop-color="#1E2021" offset="0"/><stop stop-color="#45494D" offset="1"/></linearGradient><linearGradient id="paint10_linear_3649_22921" x1="156.75" x2="156.75" y1="137.75" y2="142.5" gradientUnits="userSpaceOnUse"><stop offset="0"/><stop stop-color="#fff" offset="1"/></linearGradient><linearGradient id="paint11_linear_3649_22921" x1="114" x2="114" y1="171" y2="109.25" gradientUnits="userSpaceOnUse"><stop stop-color="#A1AAB3" offset="0"/><stop stop-color="#B8C2CC" offset=".3698"/><stop stop-color="#CAD2D9" offset=".7464"/><stop stop-color="#EDF7FF" offset="1"/></linearGradient><radialGradient id="paint12_radial_3649_22921" cx="0" cy="0" r="1" gradientTransform="translate(48.67 140.76) rotate(242.34) scale(6.7152 6.0424)" gradientUnits="userSpaceOnUse"><stop stop-color="#BDFFBD" offset="0"/><stop stop-color="#0f0" offset="1"/></radialGradient><linearGradient id="paint13_linear_3649_22921" x1="176.94" x2="118.16" y1="102.12" y2="24.99" gradientUnits="userSpaceOnUse"><stop stop-color="#A1AAB3" offset="0"/><stop stop-color="#CAD2D9" offset="1"/></linearGradient><linearGradient id="paint14_linear_3649_22921" x1="121.39" x2="138.28" y1="39.847" y2="73.625" gradientUnits="userSpaceOnUse"><stop stop-color="#5C6166" offset="0"/><stop stop-color="#fff" offset="1"/></linearGradient><linearGradient id="paint15_linear_3649_22921" x1="138.32" x2="113.33" y1="73.662" y2="52.691" gradientUnits="userSpaceOnUse"><stop stop-color="#222426" offset="0"/><stop stop-color="#5C6166" offset="1"/></linearGradient><linearGradient id="paint16_linear_3649_22921" x1="176.94" x2="163.23" y1="73.625" y2="64.004" gradientUnits="userSpaceOnUse"><stop stop-color="#323538" offset="0"/><stop stop-color="#5C6166" offset="1"/></linearGradient><linearGradient id="paint17_linear_3649_22921" x1="151.83" x2="145.96" y1="30.875" y2="26.752" gradientUnits="userSpaceOnUse"><stop stop-color="#323538" offset="0"/><stop stop-color="#5C6166" offset="1"/></linearGradient><linearGradient id="paint18_linear_3649_22921" x1="163.7" x2="157.83" y1="30.875" y2="26.752" gradientUnits="userSpaceOnUse"><stop stop-color="#323538" offset="0"/><stop stop-color="#5C6166" offset="1"/></linearGradient><linearGradient id="paint19_linear_3649_22921" x1="186.44" x2="172.73" y1="52.25" y2="42.629" gradientUnits="userSpaceOnUse"><stop stop-color="#323538" offset="0"/><stop stop-color="#5C6166" offset="1"/></linearGradient><clipPath id="clip0_3649_22921"><rect width="228" height="228" fill="#fff"/></clipPath></defs></svg>
