<?xml version="1.0" encoding="utf-8"?>
<!-- Generator: Adobe Illustrator 25.0.1, SVG Export Plug-In . SVG Version: 6.00 Build 0)  -->
<svg version="1.1" id="Layer_1" xmlns="http://www.w3.org/2000/svg" xmlns:xlink="http://www.w3.org/1999/xlink" x="0px" y="0px"
	 width="36px" height="36px" viewBox="0 0 36 36" style="enable-background:new 0 0 36 36;" xml:space="preserve">
<style type="text/css">
	.st0{fill:#00005B;}
	.st1{fill:#9999FF;}
</style>
<g id="Layer_2_1_">
	<g id="Surfaces">
		<g id="Photo_Surface">
			<g id="Outline_no_shadow">
				<path class="st0" d="M6.375,0.5h23.25c3.516-0.005,6.37,2.841,6.375,6.357v22.286c-0.005,3.516-2.859,6.362-6.375,6.357H6.375
					C2.859,35.505,0.005,32.659,0,29.143V6.857C0.005,3.341,2.859,0.495,6.375,0.5z"/>
			</g>
		</g>
	</g>
	<g id="Outlined_Mnemonics_Logos">
		<g id="Ae">
			<path class="st1" d="M14.776,21.53H9.161l-1.142,3.521c-0.032,0.133-0.155,0.225-0.292,0.218H4.883
				c-0.162,0-0.219-0.089-0.17-0.267L9.574,11.06c0.049-0.145,0.097-0.311,0.146-0.497c0.06-0.323,0.089-0.651,0.089-0.979
				c-0.012-0.082,0.046-0.158,0.128-0.17c0.014-0.002,0.028-0.002,0.042,0h3.865c0.113,0,0.178,0.04,0.194,0.121l5.522,15.501
				c0.049,0.162,0,0.243-0.146,0.242h-3.16c-0.112,0.013-0.216-0.06-0.243-0.17L14.776,21.53z M10.052,18.46h3.84
				c-0.097-0.323-0.227-0.67-0.357-1.075c-0.13-0.404-0.268-0.836-0.413-1.297l-0.438-1.382c-0.146-0.461-0.28-0.905-0.401-1.333
				c-0.122-0.428-0.231-0.82-0.328-1.176h-0.024c-0.137,0.655-0.307,1.302-0.51,1.939c-0.227,0.727-0.458,1.47-0.693,2.23
				C10.493,17.127,10.279,17.814,10.052,18.46z"/>
			<path class="st1" d="M28.501,20.128h-4.789c0.062,0.46,0.222,0.901,0.47,1.293c0.272,0.404,0.657,0.72,1.106,0.909
				c0.613,0.249,1.272,0.364,1.932,0.339c0.526,0.002,1.05-0.042,1.568-0.133c0.489-0.087,0.966-0.229,1.422-0.424
				c0.081-0.064,0.122-0.024,0.122,0.121v2.303c0.004,0.063-0.009,0.125-0.036,0.182c-0.028,0.044-0.065,0.081-0.109,0.109
				c-0.503,0.237-1.034,0.412-1.58,0.521c-0.705,0.132-1.422,0.193-2.139,0.182c-0.991,0.031-1.977-0.151-2.893-0.533
				c-0.735-0.323-1.384-0.812-1.896-1.43c-0.478-0.581-0.833-1.253-1.045-1.975c-0.21-0.712-0.316-1.451-0.316-2.194
				c-0.002-0.811,0.125-1.617,0.377-2.387c0.243-0.752,0.626-1.451,1.13-2.06c0.498-0.602,1.119-1.09,1.823-1.43
				c0.792-0.356,1.656-0.526,2.524-0.498c0.806-0.028,1.608,0.122,2.349,0.437c0.624,0.282,1.17,0.71,1.592,1.248
				c0.398,0.512,0.703,1.091,0.899,1.709c0.191,0.595,0.29,1.217,0.292,1.842c0,0.356-0.012,0.679-0.036,0.97
				c-0.024,0.291-0.045,0.501-0.061,0.63c-0.013,0.111-0.107,0.194-0.219,0.194c-0.097,0-0.263,0.012-0.498,0.036
				c-0.235,0.024-0.527,0.04-0.875,0.048C29.266,20.145,28.89,20.128,28.501,20.128z M23.721,17.798h3.184
				c0.389,0,0.677-0.004,0.863-0.012c0.118,0,0.237-0.012,0.352-0.036v-0.145c-0.005-0.19-0.038-0.377-0.097-0.557
				c-0.271-0.851-1.077-1.416-1.969-1.382c-0.835-0.051-1.621,0.396-2.005,1.139C23.883,17.114,23.772,17.45,23.721,17.798z"/>
		</g>
	</g>
</g>
</svg>
