<svg id="Layer_1" data-name="Layer 1" xmlns="http://www.w3.org/2000/svg" viewBox="0 0 36 36"><defs><style>.cls-1{fill:#300;}.cls-2{fill:#ff9a00;}</style></defs><title>Artboard 1</title><g id="Surfaces"><g id="Drawing_Surface" data-name="Drawing Surface"><g id="Outline_no_shadow" data-name="Outline no shadow"><path class="cls-1" d="M6.375.5h23.25A6.36593,6.36593,0,0,1,36,6.85684V29.14316A6.36593,6.36593,0,0,1,29.625,35.5H6.375A6.36593,6.36593,0,0,1,0,29.14316V6.85684A6.36593,6.36593,0,0,1,6.375.5Z"/></g></g></g><g id="Outlined_Mnemonics_Logos" data-name="Outlined Mnemonics Logos"><g id="Ai"><path class="cls-2" d="M17.445,21.50422H11.86641l-1.135,3.51587a.284.284,0,0,1-.28982.21673H7.616q-.24171,0-.169-.26489l4.83-13.87079q.07251-.21669.145-.49367a5.14285,5.14285,0,0,0,.09659-.97525.14943.14943,0,0,1,.169-.1686h3.8398q.16875,0,.19321.12044L22.20264,24.996q.07239.241-.14495.24083H18.91816a.22321.22321,0,0,1-.24148-.16856ZM12.73579,18.47h3.8157l-1.90781-6.237Z"/><path class="cls-2" d="M25.46257,12.01625a1.75432,1.75432,0,0,1-1.32825-.52978,1.90193,1.90193,0,0,1-.5072-1.37263,1.76431,1.76431,0,0,1,.54339-1.33652,1.86916,1.86916,0,0,1,1.34033-.51773,1.79836,1.79836,0,0,1,1.3645.51773,1.856,1.856,0,0,1,.495,1.33652,1.8776,1.8776,0,0,1-.51921,1.37263A1.856,1.856,0,0,1,25.46257,12.01625ZM23.79617,24.996V13.48518c0-.14446.06416-.21673.19321-.21673h2.97048q.193,0,.19322.21673V24.996q0,.241-.19322.24083H24.01355Q23.79625,25.23682,23.79617,24.996Z"/></g></g></svg>