<svg id="Layer_1" data-name="Layer 1" xmlns="http://www.w3.org/2000/svg" viewBox="0 0 36 36"><defs><style>.cls-1{fill:#49021f;}.cls-2{fill:#f36;}</style></defs><title>Artboard 1</title><g id="Layer_2" data-name="Layer 2"><g id="Surfaces"><g id="Publishing_Surface" data-name="Publishing Surface"><g id="Outline_no_shadow" data-name="Outline no shadow"><path class="cls-1" d="M6.375.5h23.25A6.36593,6.36593,0,0,1,36,6.85684V29.14316A6.36593,6.36593,0,0,1,29.625,35.5H6.375A6.36593,6.36593,0,0,1,0,29.14316V6.85684A6.36593,6.36593,0,0,1,6.375.5Z"/></g></g></g><g id="Outlined_Mnemonics_Logos" data-name="Outlined Mnemonics Logos"><g id="Id"><path class="cls-2" d="M13.07373,9.65629V24.996q0,.241-.21731.24083H9.9342q-.19347,0-.19314-.24083V9.65629q0-.19248.21731-.19267h2.92215a.17046.17046,0,0,1,.19321.19267Z"/><path class="cls-2" d="M21.71946,25.47765a7.50057,7.50057,0,0,1-3.22405-.67429,5.12064,5.12064,0,0,1-2.258-2.03486,6.49244,6.49244,0,0,1-.82112-3.40748,6.27415,6.27415,0,0,1,.82112-3.15465,6.02016,6.02016,0,0,1,2.39085-2.3118,7.73544,7.73544,0,0,1,3.79152-.86691q.12053,0,.31392.01205.193.01238.45886.03611v-4.744c0-.11214.04834-.16857.145-.16857h3.04285a.12779.12779,0,0,1,.14494.14446v14.232q0,.40977.03618.891.03626.482.06043.86691a.24884.24884,0,0,1-.14495.24083,12.00548,12.00548,0,0,1-2.43911.72241A13.13242,13.13242,0,0,1,21.71946,25.47765Zm1.47312-2.98609V15.91741a2.4016,2.4016,0,0,0-.39844-.07226,4.82971,4.82971,0,0,0-.49512-.02407,3.73806,3.73806,0,0,0-1.6905.38529,3.09775,3.09775,0,0,0-1.76294,3.01015,4.23564,4.23564,0,0,0,.25357,1.5412,2.92878,2.92878,0,0,0,.67624,1.05957,2.57645,2.57645,0,0,0,1.01426.602,3.98415,3.98415,0,0,0,1.24373.19263q.33793,0,.6279-.02407A2.59176,2.59176,0,0,0,23.19258,22.49156Z"/></g></g></g></svg>