<svg id="Layer_1" data-name="Layer 1" xmlns="http://www.w3.org/2000/svg" viewBox="0 0 36 36"><defs><style>.cls-1{fill:#001e36;}.cls-2{fill:#31a8ff;}</style></defs><title>Artboard 1</title><g id="Layer_2" data-name="Layer 2"><g id="Surfaces"><g id="Photo_Surface" data-name="Photo Surface"><g id="Outline_no_shadow" data-name="Outline no shadow"><path class="cls-1" d="M6.375.5h23.25A6.36593,6.36593,0,0,1,36,6.85684V29.14316A6.36593,6.36593,0,0,1,29.625,35.5H6.375A6.36593,6.36593,0,0,1,0,29.14316V6.85684A6.36593,6.36593,0,0,1,6.375.5Z"/></g></g></g><g id="Outlined_Mnemonics_Logos" data-name="Outlined Mnemonics Logos"><g id="Lr"><path class="cls-2" d="M18.906,25.23682H9.3909q-.24159,0-.24148-.26489V9.68035a.19206.19206,0,0,1,.21738-.21673h2.94631a.14929.14929,0,0,1,.16905.1686V22.2026h6.931q.21731,0,.169.21673l-.43469,2.60076a.22977.22977,0,0,1-.0966.18062A.32282.32282,0,0,1,18.906,25.23682Z"/><path class="cls-2" d="M21.2967,13.26845H23.929a.32833.32833,0,0,1,.31392.24083,1.162,1.162,0,0,1,.12078.33712,3.88221,3.88221,0,0,1,.07243.46961q.02385.25284.02417.5418a5.63885,5.63885,0,0,1,1.606-1.28832,4.532,4.532,0,0,1,2.2339-.54183.19163.19163,0,0,1,.21731.21673v2.91382q0,.16877-.24148.16857a6.11253,6.11253,0,0,0-2.83762.50572,2.55322,2.55322,0,0,0-.809.55385v7.63376q0,.21675-.19321.21673H21.514a.21284.21284,0,0,1-.24148-.24083V16.71209q0-.52945-.01208-1.11979-.01242-.58981-.03626-1.16795a7.61308,7.61308,0,0,0-.09653-.9873.13866.13866,0,0,1,.16905-.1686Z"/></g></g></g></svg>