<svg id="Layer_1" data-name="Layer 1" xmlns="http://www.w3.org/2000/svg" viewBox="0 0 36 36"><defs><style>.cls-1{fill:#00005b;}.cls-2{fill:#99f;}</style></defs><title>Artboard 1</title><g id="Layer_2" data-name="Layer 2"><g id="Surfaces"><g id="Video_Audio_Surface" data-name="Video Audio Surface"><g id="Outline_no_shadow" data-name="Outline no shadow"><path class="cls-1" d="M6.375.5h23.25A6.36593,6.36593,0,0,1,36,6.85684V29.14316A6.36593,6.36593,0,0,1,29.625,35.5H6.375A6.36593,6.36593,0,0,1,0,29.14316V6.85684A6.36593,6.36593,0,0,1,6.375.5Z"/></g></g></g><g id="Outlined_Mnemonics_Logos" data-name="Outlined Mnemonics Logos"><g id="Pr"><path class="cls-2" d="M8.55625,25.04416V9.65629c0-.11215.04834-.16857.14495-.16857.2573,0,.49223-.00376.84658-.01205q.531-.01183,1.14712-.02407.6159-.01188,1.30415-.0241.68818-.01183,1.36443-.01205a9.0941,9.0941,0,0,1,3.09118.45755,5.366,5.366,0,0,1,2.01658,1.22814A4.70956,4.70956,0,0,1,19.57,12.79887a5.617,5.617,0,0,1,.33816,1.93853,5.33855,5.33855,0,0,1-.89355,3.17872,5.0473,5.0473,0,0,1-2.415,1.81813,9.64551,9.64551,0,0,1-3.381.5054q-.53151,0-.74868-.01205-.2173-.01189-.652-.01206v4.80455a.192.192,0,0,1-.21738.21673H8.72529C8.6125,25.23682,8.55625,25.17284,8.55625,25.04416Zm3.26167-12.66671v5.0189q.31354.02426.57957.02406h.797a5.67842,5.67842,0,0,0,1.72675-.27486,2.60439,2.60439,0,0,0,1.23164-.79468,2.30686,2.30686,0,0,0,.47095-1.5412,2.43007,2.43007,0,0,0-.35025-1.32449,2.2507,2.2507,0,0,0-1.05051-.85486,4.48723,4.48723,0,0,0-1.76294-.301q-.57963,0-1.02634.012-.44715.01242-.61582.03611Z"/><path class="cls-2" d="M21.99177,13.2377H24.6241a.32832.32832,0,0,1,.31391.24083,1.54558,1.54558,0,0,1,.08994.36787,3.88026,3.88026,0,0,1,.07244.46961q.02383.25284.02417.5418a5.63885,5.63885,0,0,1,1.606-1.28832,4.72381,4.72381,0,0,1,2.27715-.585.1916.1916,0,0,1,.21731.21673v2.91382q0,.16877-.24148.16857a6.25864,6.25864,0,0,0-1.62507.15152,5.9536,5.9536,0,0,0-1.25581.39734,2.356,2.356,0,0,0-.77139.55385V25.0201q0,.21675-.19321.21673H22.17825a.21284.21284,0,0,1-.24148-.24083V16.71209q0-.52945-.01209-1.11979-.0124-.58981-.03625-1.16795a8.792,8.792,0,0,0-.0657-1.01805.13866.13866,0,0,1,.169-.1686Z"/></g></g></g></svg>