<svg id="Layer_1" data-name="Layer 1" xmlns="http://www.w3.org/2000/svg" viewBox="0 0 36 36"><defs><style>.cls-1{fill:#001e36;}.cls-2{fill:#31a8ff;}</style></defs><title>Artboard 1</title><g id="Layer_2" data-name="Layer 2"><g id="Surfaces"><g id="Photo_Surface" data-name="Photo Surface"><g id="Outline_no_shadow" data-name="Outline no shadow"><path class="cls-1" d="M6.375.5h23.25A6.36593,6.36593,0,0,1,36,6.85684V29.14316A6.36593,6.36593,0,0,1,29.625,35.5H6.375A6.36593,6.36593,0,0,1,0,29.14316V6.85684A6.36593,6.36593,0,0,1,6.375.5Z"/></g></g></g><g id="Outlined_Mnemonics_Logos" data-name="Outlined Mnemonics Logos"><g id="Ps"><path class="cls-2" d="M8.10625,25.04416V9.65629c0-.11215.04834-.16857.145-.16857.2573,0,.49223-.00376.84658-.01205q.531-.01183,1.14712-.02407.6159-.01188,1.30415-.0241.68819-.01183,1.36443-.01205a9.0941,9.0941,0,0,1,3.09118.45755,5.366,5.366,0,0,1,2.01658,1.22814A4.70956,4.70956,0,0,1,19.12,12.79887a5.617,5.617,0,0,1,.33816,1.93853,5.33855,5.33855,0,0,1-.89355,3.17872,5.0473,5.0473,0,0,1-2.415,1.81813,9.64551,9.64551,0,0,1-3.381.5054q-.53151,0-.74868-.01205-.21731-.01189-.652-.01206v4.80455a.192.192,0,0,1-.21738.21673H8.27529C8.1625,25.23682,8.10625,25.17284,8.10625,25.04416Zm3.26167-12.66671v5.0189q.31354.02426.57957.02406h.797a5.67842,5.67842,0,0,0,1.72675-.27486,2.60439,2.60439,0,0,0,1.23164-.79468,2.30686,2.30686,0,0,0,.471-1.5412,2.43007,2.43007,0,0,0-.35025-1.32449,2.2507,2.2507,0,0,0-1.05051-.85486,4.48723,4.48723,0,0,0-1.76294-.301q-.57963,0-1.02634.012-.44715.01242-.61582.03611Z"/><path class="cls-2" d="M28.79567,16.48378a5.65728,5.65728,0,0,0-1.43694-.50572,7.65207,7.65207,0,0,0-1.67841-.19266,3.13151,3.13151,0,0,0-.90564.10838.814.814,0,0,0-.47095.301.7568.7568,0,0,0-.1207.40939.63837.63837,0,0,0,.14487.38528,1.643,1.643,0,0,0,.50713.39734,10.13008,10.13008,0,0,0,1.0626.49367A10.54339,10.54339,0,0,1,28.204,18.97616a3.5016,3.5016,0,0,1,1.18338,1.24018,3.29888,3.29888,0,0,1,.35017,1.54122,3.45435,3.45435,0,0,1-.57957,1.9867,3.81046,3.81046,0,0,1-1.67849,1.33648,6.77554,6.77554,0,0,1-2.71684.48165,9.85279,9.85279,0,0,1-2.04068-.19266,6.52457,6.52457,0,0,1-1.53354-.48162.31174.31174,0,0,1-.169-.289V21.99836a.1413.1413,0,0,1,.06042-.13245.11743.11743,0,0,1,.13279.01205,6.46243,6.46243,0,0,0,1.85955.73446,7.68893,7.68893,0,0,0,1.76294.22878,2.71488,2.71488,0,0,0,1.24373-.21673.68062.68062,0,0,0,.39851-.62611.79625.79625,0,0,0-.36225-.602,5.98735,5.98735,0,0,0-1.4732-.69838,8.887,8.887,0,0,1-2.13728-1.08364,3.67872,3.67872,0,0,1-1.135-1.26428,3.313,3.313,0,0,1-.35017-1.52914,3.44481,3.44481,0,0,1,.50713-1.80609,3.68222,3.68222,0,0,1,1.5698-1.37262,5.93454,5.93454,0,0,1,2.6565-.52979,11.79274,11.79274,0,0,1,1.85955.13245,4.88535,4.88535,0,0,1,1.2946.34917.22.22,0,0,1,.14487.13245.66362.66362,0,0,1,.02417.18061v2.4322a.1617.1617,0,0,1-.07244.14449A.234.234,0,0,1,28.79567,16.48378Z"/></g></g></g></svg>