<svg id="Layer_1" data-name="Layer 1" xmlns="http://www.w3.org/2000/svg" viewBox="0 0 36 36"><defs><style>.cls-1{fill:#000b1d;}.cls-2{fill:#fff;}</style></defs><title>Artboard 1</title><g id="Layer_2" data-name="Layer 2"><g id="Surfaces"><g id="Utility_Surface" data-name="Utility Surface"><g id="Outline_no_shadow" data-name="Outline no shadow"><path class="cls-1" d="M6.375.5h23.25A6.36593,6.36593,0,0,1,36,6.85684V29.14316A6.36593,6.36593,0,0,1,29.625,35.5H6.375A6.36593,6.36593,0,0,1,0,29.14316V6.85684A6.36593,6.36593,0,0,1,6.375.5Z"/></g></g></g><g id="Outlined_Mnemonics_Logos" data-name="Outlined Mnemonics Logos"><g id="St"><path class="cls-2" d="M13.385,25.47765a12.06928,12.06928,0,0,1-2.45127-.22878,8.05073,8.05073,0,0,1-1.84746-.59.41052.41052,0,0,1-.19321-.40939V21.38383a.14126.14126,0,0,1,.06042-.13245.16055.16055,0,0,1,.157.012,8.22859,8.22859,0,0,0,2.14936.93917,8.32991,8.32991,0,0,0,2.2218.313,3.49064,3.49064,0,0,0,1.96817-.4214,1.24963,1.24963,0,0,0,.59172-1.04752,1.41141,1.41141,0,0,0-.19321-.7345,2.08884,2.08884,0,0,0-.67617-.63813,7.91342,7.91342,0,0,0-1.32832-.65022l-1.20747-.50568A8.97558,8.97558,0,0,1,10.33,17.18165a3.84541,3.84541,0,0,1-1.14712-1.52917,4.86483,4.86483,0,0,1-.31392-1.75791,4.3222,4.3222,0,0,1,2.584-4.03361,7.3491,7.3491,0,0,1,3.1878-.61406,15.1749,15.1749,0,0,1,2.16145.14449,5.13086,5.13086,0,0,1,1.606.45756.33329.33329,0,0,1,.16905.31305v2.72116a.16621.16621,0,0,1-.06035.10838c-.04035.04025-.09287.03612-.157-.01205a6.74416,6.74416,0,0,0-1.6905-.60205,9.13443,9.13443,0,0,0-2.00449-.21673,4.97364,4.97364,0,0,0-1.1833.12043,2.91534,2.91534,0,0,0-.78494.301,1.1599,1.1599,0,0,0-.44678.45756,1.20878,1.20878,0,0,0-.14488.5659,1.142,1.142,0,0,0,.21738.6863,2.37977,2.37977,0,0,0,.72444.60205,15.44983,15.44983,0,0,0,1.40076.71039l.89355.33713a9.73523,9.73523,0,0,1,2.48745,1.38468,4.22851,4.22851,0,0,1,1.25574,1.58935,4.67242,4.67242,0,0,1,.36225,1.8422,4.19416,4.19416,0,0,1-.7607,2.49242,4.86049,4.86049,0,0,1-2.11311,1.64957A8.07266,8.07266,0,0,1,13.385,25.47765Z"/><path class="cls-2" d="M27.5851,22.85279v1.97464a.399.399,0,0,1-.0483.2109.2264.2264,0,0,1-.14491.10215q-.23775.07428-.47946.13454t-.48653.10629q-.28693.05092-.57736.07506-.29012.0241-.58184.02127a4.43262,4.43262,0,0,1-1.40091-.2047,2.90636,2.90636,0,0,1-1.06238-.61408,2.50717,2.50717,0,0,1-.67025-1.06542,4.85273,4.85273,0,0,1-.2233-1.55944V16.03063H20.45155a.18415.18415,0,0,1-.145-.05418.238.238,0,0,1-.04821-.16255l.00913-1.1855.00914-1.1855a.183.183,0,0,1,.05432-.14441.23976.23976,0,0,1,.163-.04826h1.45832c.008-.13639.01244-.27932.018-.43332s.01209-.319.02418-.49965.02612-.36123.04222-.54184.03423-.36122.05438-.54183q.03-.27091.05714-.49066t.05147-.3883a.41875.41875,0,0,1,.07251-.13245.25707.25707,0,0,1,.12071-.08428l1.43694-.18061,1.43693-.18061a.15832.15832,0,0,1,.12078,0,.07834.07834,0,0,1,.03614.04826.3115.3115,0,0,1,.01213.09624q-.02435.27714-.04245.6534t-.03.85168c-.00813.3172-.01167.62476-.01517.92724s-.007.59988-.0149.89674h2.11516a.12731.12731,0,0,1,.10867.04817.23889.23889,0,0,1,.0362.14449l-.00913,1.20959L27.575,15.86207a.14829.14829,0,0,1-.1207.16857H25.325v5.18463a3.77937,3.77937,0,0,0,.05231.70151,1.06057,1.06057,0,0,0,.19129.46641.82966.82966,0,0,0,.39523.262,1.97535,1.97535,0,0,0,.63111.0872q.10866,0,.21119-.00292t.19933-.00913q.09652-.00594.19312-.015t.19331-.02115a.15414.15414,0,0,1,.13279.012.11026.11026,0,0,1,.04523.05724A.278.278,0,0,1,27.5851,22.85279Z"/></g></g></g></svg>