<svg id="Layer_1" data-name="Layer 1" xmlns="http://www.w3.org/2000/svg" viewBox="0 0 36 36"><defs><style>.cls-1{fill:#470137;}.cls-2{fill:#ff61f6;}</style></defs><title>Artboard 1</title><g id="Layer_2" data-name="Layer 2"><g id="Surfaces"><g id="UI_UX_Surface" data-name="UI UX Surface"><g id="Outline_no_shadow" data-name="Outline no shadow"><path class="cls-1" d="M6.375.5h23.25A6.36593,6.36593,0,0,1,36,6.85684V29.14316A6.36593,6.36593,0,0,1,29.625,35.5H6.375A6.36593,6.36593,0,0,1,0,29.14316V6.85684A6.36593,6.36593,0,0,1,6.375.5Z"/></g></g></g><g id="Outlined_Mnemonics_Logos" data-name="Outlined Mnemonics Logos"><g id="Xd"><path class="cls-2" d="M18.92505,9.70445l-4.49194,7.39293L19.239,24.94786a.24648.24648,0,0,1,.02417.18058c-.01626.05645-.07244.02089-.169.03671H15.66482c-.24155,0-.4106-.00849-.5072-.16916q-.4834-.93912-.966-1.86626-.4834-.9268-1.02634-1.8904-.54339-.96284-1.07469-1.95058h-.02417q-.4834.96343-1.00225,1.92651-.51954.96345-1.02634,1.91447-.50713.95156-1.03843,1.89036c-.06452.1445-.17739.1594-.33815.1594H5.35276c-.06416,0-.10041.02534-.10869-.039a.24135.24135,0,0,1,.03625-.16857l4.66092-7.63376L5.401,9.68035q-.07241-.09591-.02417-.15651a.17612.17612,0,0,1,.14494-.06022H8.92691a.50563.50563,0,0,1,.21738.03615.437.437,0,0,1,.14487.13245q.43473.96339.966,1.92648.531.96343,1.07469,1.90241.54337.93917,1.00224,1.90242h.02417q.48275-.98717.97808-1.92648.49472-.93918,1.01425-1.8904.5191-.951,1.00225-1.89036a.37036.37036,0,0,1,.0966-.15651.35125.35125,0,0,1,.19321-.03616h3.16363a.138.138,0,0,1,.12077.24083Z"/><path class="cls-2" d="M25.85581,25.47765a7.50064,7.50064,0,0,1-3.22405-.67429,5.12064,5.12064,0,0,1-2.258-2.03486,6.49253,6.49253,0,0,1-.82112-3.40748,6.27425,6.27425,0,0,1,.82112-3.15465,6.02023,6.02023,0,0,1,2.39085-2.3118,7.73548,7.73548,0,0,1,3.79153-.86691q.12053,0,.31392.01205.193.01238.45886.03611v-4.744c0-.11214.04834-.16857.14494-.16857h3.04285a.12779.12779,0,0,1,.145.14446v14.232q0,.40977.03618.891.03626.482.06043.86691a.24884.24884,0,0,1-.14495.24083,12.00548,12.00548,0,0,1-2.43911.72241A13.13253,13.13253,0,0,1,25.85581,25.47765Zm1.47312-2.98609V15.91741a2.40167,2.40167,0,0,0-.39843-.07226,4.82985,4.82985,0,0,0-.49512-.02407,3.738,3.738,0,0,0-1.6905.38529,3.09775,3.09775,0,0,0-1.76294,3.01015,4.23563,4.23563,0,0,0,.25356,1.5412,2.9288,2.9288,0,0,0,.67625,1.05957,2.57654,2.57654,0,0,0,1.01426.602,3.98409,3.98409,0,0,0,1.24372.19263q.33795,0,.6279-.02407A2.59176,2.59176,0,0,0,27.32893,22.49156Z"/></g></g></g></svg>