<?xml version="1.0" encoding="UTF-8"?>
<svg width="64" height="64" viewBox="0 0 64 64" fill="none" x="2165" y="960"
    xmlns="http://www.w3.org/2000/svg">
    <path
        d="M18.5941 56.0837H54.2399C54.5779 56.0837 54.8545 55.8071 54.8545 55.4691V19.2087H44.4066C43.3901 19.2087 42.5628 18.3814 42.5628 17.3649V6.91699H18.5941C18.2561 6.91699 17.9795 7.19355 17.9795 7.53158V55.4691C17.9795 55.8071 18.2561 56.0837 18.5941 56.0837Z"
        fill="white" />
    <path
        d="M53.9855 17.9796L43.792 7.78613V17.365C43.792 17.7031 44.0686 17.9796 44.4066 17.9796H53.9855Z"
        fill="white" />
    <path opacity="0.67" fill-rule="evenodd" clip-rule="evenodd"
        d="M55.5425 17.7997L43.9711 6.2271C43.6247 5.88282 43.1566 5.68894 42.6682 5.6875H18.5938C17.5772 5.6875 16.75 6.51473 16.75 7.53125V55.4688C16.75 56.4853 17.5772 57.3125 18.5938 57.3125H54.2396C55.2561 57.3125 56.0833 56.4853 56.0833 55.4688V19.1026C56.0833 18.611 55.8916 18.1476 55.5425 17.7997ZM43.792 7.78613L53.9855 17.9796H44.4066C44.0674 17.9789 43.7927 17.7042 43.792 17.365V7.78613ZM18.5941 56.0837H54.2399C54.5779 56.0837 54.8545 55.8071 54.8545 55.4691V19.2087H44.4066C43.3901 19.2087 42.5628 18.3814 42.5628 17.3649V6.91699H18.5941C18.2561 6.91699 17.9795 7.19355 17.9795 7.53158V55.4691C17.9802 55.8082 18.2549 56.083 18.5941 56.0837Z"
        fill="#605E5C" />
    <path
        d="M35.0853 36.1401L38.7715 30.5523L37.7455 29.8754L34.0593 35.4632L35.0853 36.1401ZM41.5133 30.6264L45.6998 36.8964L46.7221 36.2139L42.5355 29.9439L41.5133 30.6264Z"
        fill="#C8C6C4" />
    <path fill-rule="evenodd" clip-rule="evenodd"
        d="M33.4532 41.3331C34.9045 41.3331 36.0811 40.1565 36.0811 38.7051C36.0811 37.2537 34.9045 36.0771 33.4532 36.0771C32.0018 36.0771 30.8252 37.2537 30.8252 38.7051C30.8252 40.1565 32.0018 41.3331 33.4532 41.3331Z"
        stroke="#C8C6C4" stroke-width="1.22917" />
    <path fill-rule="evenodd" clip-rule="evenodd"
        d="M47.711 41.3331C49.1623 41.3331 50.3389 40.1565 50.3389 38.7051C50.3389 37.2537 49.1623 36.0771 47.711 36.0771C46.2596 36.0771 45.083 37.2537 45.083 38.7051C45.083 40.1565 46.2596 41.3331 47.711 41.3331Z"
        stroke="#C8C6C4" stroke-width="1.22917" />
    <path fill-rule="evenodd" clip-rule="evenodd"
        d="M40.25 30.6104C41.7014 30.6104 42.878 29.4338 42.878 27.9825C42.878 26.5311 41.7014 25.3545 40.25 25.3545C38.7986 25.3545 37.6221 26.5311 37.6221 27.9825C37.6221 29.4338 38.7986 30.6104 40.25 30.6104Z"
        stroke="#C8C6C4" stroke-width="1.22917" />
    <path fill-rule="evenodd" clip-rule="evenodd"
        d="M22.2806 45.0215H50.5514C50.8909 45.0215 51.166 45.2966 51.166 45.6361C51.166 45.9755 50.8909 46.2507 50.5514 46.2507H22.2806C21.9412 46.2507 21.666 45.9755 21.666 45.6361C21.666 45.2966 21.9412 45.0215 22.2806 45.0215ZM22.2806 48.709H50.5514C50.8909 48.709 51.166 48.9841 51.166 49.3236C51.166 49.663 50.8909 49.9382 50.5514 49.9382H22.2806C21.9412 49.9382 21.666 49.663 21.666 49.3236C21.666 48.9841 21.9412 48.709 22.2806 48.709Z"
        fill="#C8C6C4" />
    <path
        d="M9.37533 47.4792H31.5003C32.858 47.4792 33.9587 46.3785 33.9587 45.0208V22.8958C33.9587 21.5381 32.858 20.4375 31.5003 20.4375H9.37533C8.01763 20.4375 6.91699 21.5381 6.91699 22.8958V45.0208C6.91699 46.3785 8.01763 47.4792 9.37533 47.4792Z"
        fill="#F2C80F" />
    <path
        d="M14.9063 25.3545C13.888 25.3545 13.0625 26.18 13.0625 27.1982V40.7191C13.0625 41.7374 13.888 42.5628 14.9063 42.5628C15.9245 42.5628 16.75 41.7374 16.75 40.7191V27.1982C16.75 26.18 15.9245 25.3545 14.9063 25.3545ZM19.8229 29.042C18.8046 29.042 17.9792 29.8675 17.9792 30.8857V40.7191C17.9792 41.7374 18.8046 42.5628 19.8229 42.5628C20.8412 42.5628 21.6667 41.7374 21.6667 40.7191V30.8857C21.6667 29.8675 20.8412 29.042 19.8229 29.042ZM24.7396 32.7295C23.7213 32.7295 22.8958 33.555 22.8958 34.5732V40.7191C22.8958 41.7374 23.7213 42.5628 24.7396 42.5628C25.7579 42.5628 26.5833 41.7374 26.5833 40.7191V34.5732C26.5833 33.555 25.7579 32.7295 24.7396 32.7295Z"
        fill="#333333" />
</svg>