<?xml version="1.0" encoding="UTF-8"?>
<svg width="32" height="32" viewBox="0 0 32 32" fill="none" x="2773" y="960"
    xmlns="http://www.w3.org/2000/svg">
    <path
        d="M10.4531 29H29.4531C29.7281 29 29.9531 28.775 29.9531 28.5V9H25.4531C24.6261 9 23.9531 8.327 23.9531 7.5V3H10.4531C10.1781 3 9.95312 3.225 9.95312 3.5V28.5C9.95312 28.775 10.1781 29 10.4531 29Z"
        fill="white" />
    <path
        d="M29.2461 8.00003L24.9531 3.70703V7.50003C24.9531 7.77503 25.1781 8.00003 25.4531 8.00003H29.2461Z"
        fill="white" />
    <path opacity="0.67" fill-rule="evenodd" clip-rule="evenodd"
        d="M30.5131 7.854L25.0991 2.439C24.8173 2.15891 24.4365 2.00117 24.0391 2H10.4531C9.62612 2 8.95312 2.673 8.95312 3.5V28.5C8.95312 29.327 9.62612 30 10.4531 30H29.4531C30.2801 30 30.9531 29.327 30.9531 28.5V8.914C30.9531 8.514 30.7971 8.137 30.5131 7.854ZM24.9531 3.707L29.2461 8H25.4531C25.1772 7.99945 24.9537 7.77591 24.9531 7.5V3.707ZM10.4531 29H29.4531C29.7281 29 29.9531 28.775 29.9531 28.5V9H25.4531C24.6261 9 23.9531 8.327 23.9531 7.5V3H10.4531C10.1781 3 9.95312 3.225 9.95312 3.5V28.5C9.95368 28.7759 10.1772 28.9995 10.4531 29Z"
        fill="#605E5C" />
    <path fill-rule="evenodd" clip-rule="evenodd"
        d="M12.4531 22H27.4531C27.7293 22 27.9531 22.2239 27.9531 22.5C27.9531 22.7761 27.7293 23 27.4531 23H12.4531C12.177 23 11.9531 22.7761 11.9531 22.5C11.9531 22.2239 12.177 22 12.4531 22ZM12.4531 24H27.4531C27.7293 24 27.9531 24.2239 27.9531 24.5C27.9531 24.7761 27.7293 25 27.4531 25H12.4531C12.177 25 11.9531 24.7761 11.9531 24.5C11.9531 24.2239 12.177 24 12.4531 24Z"
        fill="#C8C6C4" />
    <path
        d="M16.7844 18.5284L20.0574 15.6334L19.3949 14.8844L16.1219 17.7794L16.7844 18.5284ZM21.1933 15.5235L23.9313 18.2615L24.6384 17.5544L21.9004 14.8164L21.1933 15.5235Z"
        fill="#C8C6C4" />
    <path fill-rule="evenodd" clip-rule="evenodd"
        d="M24.9531 20.5C25.7816 20.5 26.4531 19.8284 26.4531 19C26.4531 18.1716 25.7816 17.5 24.9531 17.5C24.1247 17.5 23.4531 18.1716 23.4531 19C23.4531 19.8284 24.1247 20.5 24.9531 20.5Z"
        stroke="#C8C6C4" />
    <path fill-rule="evenodd" clip-rule="evenodd"
        d="M20.9531 15.5C21.7816 15.5 22.4531 14.8284 22.4531 14C22.4531 13.1716 21.7816 12.5 20.9531 12.5C20.1247 12.5 19.4531 13.1716 19.4531 14C19.4531 14.8284 20.1247 15.5 20.9531 15.5Z"
        stroke="#C8C6C4" />
    <path
        d="M4.45312 25H15.4531C16.2816 25 16.9531 24.3284 16.9531 23.5V12.5C16.9531 11.6716 16.2816 11 15.4531 11H4.45312C3.6247 11 2.95312 11.6716 2.95312 12.5V23.5C2.95313 24.3284 3.6247 25 4.45312 25Z"
        fill="#F2C80F" />
    <path
        d="M7.95313 14C7.95313 13.4477 7.50541 13 6.95313 13C6.40084 13 5.95312 13.4477 5.95312 14V22C5.95312 22.5523 6.40084 23 6.95312 23C7.50541 23 7.95312 22.5523 7.95312 22L7.95313 14Z"
        fill="#333333" />
    <path
        d="M8.95313 22.0004L8.95312 17C8.95312 16.4477 9.40084 16 9.95313 16C10.5054 16 10.9531 16.4477 10.9531 17V22.0004C10.9531 22.5527 10.5054 23.0004 9.95312 23.0004C9.40084 23.0004 8.95313 22.5527 8.95313 22.0004Z"
        fill="#333333" />
    <path
        d="M11.9531 22.0008L11.9531 20C11.9531 19.4477 12.4008 19 12.9531 19C13.5054 19 13.9531 19.4477 13.9531 20L13.9531 22.0008C13.9531 22.5531 13.5054 23.0008 12.9531 23.0008C12.4008 23.0008 11.9531 22.5531 11.9531 22.0008Z"
        fill="#333333" />
</svg>