<?xml version="1.0" encoding="UTF-8"?>
<svg fill="none" viewBox="0 0 20 20" width="20" height="20" x="3250" y="960"
    xmlns="http://www.w3.org/2000/svg">
    <path fill="#fff" d="M18 7h-2.5c-.827 0-1.5-.673-1.5-1.5V2H6v16h12V7z" />
    <path fill="#fff" d="M18 6v-.293l-3-3V5.5c0 .275.225.5.5.5H18z" />
    <path fill="#605E5C" fill-rule="evenodd"
        d="M18.707 5 15 1.293A1 1 0 0 0 14.293 1H6a1 1 0 0 0-1 1v16a1 1 0 0 0 1 1h12a1 1 0 0 0 1-1V5.707A1 1 0 0 0 18.707 5zM18 5.707V6h-2.5a.501.501 0 0 1-.5-.5V2.707l3 3zM6 2.2v15.6c0 .11.09.2.2.2h11.6a.2.2 0 0 0 .2-.2V7h-2.5A1.5 1.5 0 0 1 14 5.5V2H6.2a.2.2 0 0 0-.2.2z"
        clip-rule="evenodd" opacity=".64" />
    <path fill="#C8C6C4"
        d="M9 16h6.417c.322 0 .583-.224.583-.5s-.26-.5-.583-.5H9v1zm1.017-3.79 2.656-2.56-.347-.36-2.656 2.56.347.36zm3.29-2.338.98 1.6.426-.262-.98-1.599-.426.261z" />
    <path fill="#C8C6C4"
        d="M13.003 10a.997.997 0 1 0 0-1.994.997.997 0 0 0 0 1.994zM15 13a.968.968 0 1 0 0-1.936.968.968 0 0 0 0 1.935z" />
    <path fill="#F2C80F" d="M2 16h8a1 1 0 0 0 1-1V7a1 1 0 0 0-1-1H2a1 1 0 0 0-1 1v8a1 1 0 0 0 1 1z" />
    <path fill="#333" fill-rule="evenodd"
        d="M7.5 14a.5.5 0 0 1-.5-.5v-5a.5.5 0 0 1 1 0v5a.5.5 0 0 1-.5.5zm-2 0a.5.5 0 0 1-.5-.5v-2a.5.5 0 0 1 1 0v2a.5.5 0 0 1-.5.5zM3 13.5a.5.5 0 0 0 1 0v-3a.5.5 0 0 0-1 0v3z"
        clip-rule="evenodd" />
</svg>