<?xml version="1.0" encoding="UTF-8"?>
<svg width="32" height="32" fill="none" viewBox="0 0 32 32" x="2485" y="960"
    xmlns="http://www.w3.org/2000/svg">
    <circle cx="16" cy="16" r="13.5"
        fill="url(#agicon-b94bd293b819bcf6__icon-53dc0730b353717a__icon-f5e294a5__a)" />
    <path
        d="M10.7071 16.7071C10.3166 17.0976 9.68342 17.0976 9.29289 16.7071C8.90237 16.3166 8.90237 15.6834 9.29289 15.2929L15.2929 9.29289C15.6834 8.90237 16.3166 8.90237 16.7071 9.29289L22.7071 15.2929C23.0976 15.6834 23.0976 16.3166 22.7071 16.7071C22.3166 17.0976 21.6834 17.0976 21.2929 16.7071L17 12.4142V22C17 22.5523 16.5523 23 16 23C15.4477 23 15 22.5523 15 22V12.4142L10.7071 16.7071Z"
        fill="url(#agicon-d7227a89fd3d6327__icon-d91a0bb57e9a989c__icon-f5e294a5__b)" />
    <path fill-rule="evenodd" clip-rule="evenodd"
        d="M2 16C2 23.732 8.26801 30 16 30C23.732 30 30 23.732 30 16C30 8.26801 23.732 2 16 2C8.26801 2 2 8.26801 2 16ZM16 28C9.37258 28 4 22.6274 4 16C4 9.37258 9.37258 4 16 4C22.6274 4 28 9.37258 28 16C28 22.6274 22.6274 28 16 28Z"
        fill="url(#agicon-0efc32d0ac7f6b8e__icon-2fe0bbffcbe7ab6e__icon-f5e294a5__c)" />
    <defs>
        <linearGradient id="agicon-b94bd293b819bcf6__icon-53dc0730b353717a__icon-f5e294a5__a"
            x1="29.5" y1="2.5" x2="3.06298" y2="29.5" gradientUnits="userSpaceOnUse">
            <stop stop-color="#DECBFF" />
            <stop offset="1" stop-color="#9DEAFF" />
        </linearGradient>
        <linearGradient id="agicon-d7227a89fd3d6327__icon-d91a0bb57e9a989c__icon-f5e294a5__b"
            x1="30" y1="2" x2="2" y2="30.5395" gradientUnits="userSpaceOnUse">
            <stop stop-color="#0094F0" />
            <stop offset="0.798993" stop-color="#003580" />
        </linearGradient>
        <linearGradient id="agicon-0efc32d0ac7f6b8e__icon-2fe0bbffcbe7ab6e__icon-f5e294a5__c"
            x1="30" y1="2" x2="2" y2="30.5395" gradientUnits="userSpaceOnUse">
            <stop stop-color="#0094F0" />
            <stop offset="0.798993" stop-color="#003580" />
        </linearGradient>
    </defs>
</svg>