<?xml version="1.0" encoding="UTF-8"?>
<svg width="32" height="32" fill="none" viewBox="0 0 32 32" x="2709" y="960"
    xmlns="http://www.w3.org/2000/svg">
    <circle cx="16" cy="16" r="13.5"
        fill="url(#boicon-20578eec96f10cc6__icon-2622f11adf096161__icon-8b2d263e__a)" />
    <path fill-rule="evenodd" clip-rule="evenodd"
        d="M12 11.636H12.5V11.136C12.5 9.203 14.067 7.63599 16 7.63599C17.933 7.63599 19.5 9.203 19.5 11.136V11.636H20C21.3807 11.636 22.5 12.7553 22.5 14.136V20.136C22.5 21.5167 21.3807 22.636 20 22.636H12C10.6193 22.636 9.5 21.5167 9.5 20.136V14.136C9.5 12.7553 10.6193 11.636 12 11.636ZM16 19.1196C17.1046 19.1196 18 18.2242 18 17.1196C18 16.015 17.1046 15.1196 16 15.1196C14.8954 15.1196 14 16.015 14 17.1196C14 18.2242 14.8954 19.1196 16 19.1196ZM14.5 11.136C14.5 10.3076 15.1716 9.63599 16 9.63599C16.8284 9.63599 17.5 10.3076 17.5 11.136V11.636H14.5V11.136Z"
        fill="url(#boicon-9d61c4cc17caa7e5__icon-3b4cad836ced0964__icon-8b2d263e__b)" />
    <path fill-rule="evenodd" clip-rule="evenodd"
        d="M16 2C8.26801 2 2 8.26801 2 16C2 23.732 8.26801 30 16 30C23.732 30 30 23.732 30 16C30 8.26801 23.732 2 16 2ZM4 16C4 9.37258 9.37258 4 16 4C22.6274 4 28 9.37258 28 16C28 22.6274 22.6274 28 16 28C9.37258 28 4 22.6274 4 16Z"
        fill="url(#boicon-b43ce3765bf9775e__icon-ef284cc116a1dcf4__icon-8b2d263e__c)" />
    <defs>
        <linearGradient id="boicon-20578eec96f10cc6__icon-2622f11adf096161__icon-8b2d263e__a"
            x1="29.5" y1="2.5" x2="3.06298" y2="29.5" gradientUnits="userSpaceOnUse">
            <stop stop-color="#DECBFF" />
            <stop offset="1" stop-color="#9DEAFF" />
        </linearGradient>
        <linearGradient id="boicon-9d61c4cc17caa7e5__icon-3b4cad836ced0964__icon-8b2d263e__b"
            x1="30.5" y1="1.63598" x2="2.5" y2="29.636" gradientUnits="userSpaceOnUse">
            <stop stop-color="#0094F0" />
            <stop offset="0.849054" stop-color="#003580" />
        </linearGradient>
        <linearGradient id="boicon-b43ce3765bf9775e__icon-ef284cc116a1dcf4__icon-8b2d263e__c"
            x1="30.5" y1="1.63598" x2="2.5" y2="29.636" gradientUnits="userSpaceOnUse">
            <stop stop-color="#0094F0" />
            <stop offset="0.849054" stop-color="#003580" />
        </linearGradient>
    </defs>
</svg>