<?xml version="1.0" encoding="iso-8859-1"?>
<!-- Generator: Adobe Illustrator 19.0.1, SVG Export Plug-In . SVG Version: 6.00 Build 0)  -->
<!DOCTYPE svg PUBLIC "-//W3C//DTD SVG 1.1//EN" "http://www.w3.org/Graphics/SVG/1.1/DTD/svg11.dtd">
<svg version="1.1" id="mnemonic" xmlns="http://www.w3.org/2000/svg" xmlns:xlink="http://www.w3.org/1999/xlink" x="0px" y="0px"
	 viewBox="0 0 240 234" style="enable-background:new 0 0 240 234;" xml:space="preserve">
<g>
	<radialGradient id="SVGID_1_" cx="3969.2114" cy="3952.7866" r="143.432" gradientUnits="userSpaceOnUse">
		<stop  offset="0" style="stop-color:#1D0F0B;stop-opacity:0.85"/>
		<stop  offset="0.7669" style="stop-color:#1D0F0B"/>
	</radialGradient>
	
		<rect x="3881.501" y="3881.5" style="fill-rule:evenodd;clip-rule:evenodd;fill:url(#SVGID_1_);" width="220.001" height="213.999"/>
</g>
<g>
	<rect x="10" y="10.001" style="fill-rule:evenodd;clip-rule:evenodd;fill:#260000;" width="220.001" height="213.999"/>
</g>
<linearGradient id="SVGID_2_" gradientUnits="userSpaceOnUse" x1="37.6309" y1="116.0002" x2="206.3695" y2="116.0002">
	<stop  offset="0.14" style="stop-color:#FFFFFF"/>
	<stop  offset="1" style="stop-color:#EBEDEB"/>
</linearGradient>
<path style="fill:url(#SVGID_2_);" d="M203.684,140.137c-4.842-5.194-14.995-7.939-29.36-7.939c-7.998,0-17.14,0.839-27.187,2.495
	c-5.81-5.406-11.446-11.88-16.763-19.257c-3.828-5.31-7.298-10.77-10.385-16.32c5.088-15.735,8.633-30.833,8.633-42.312
	c0-8.62-2.756-22.777-15.569-22.777c-3.339,0-6.865,2.067-8.673,5.172c-5.396,9.267-2.949,30.274,6.851,51.726
	c-3.412,10.264-7.275,20.624-12.136,32.327c-4.033,9.71-8.845,19.636-13.937,28.745c-27.795,11.022-45.48,23.51-47.349,33.453
	c-0.627,3.341,0.402,6.535,3.094,9.054c1.604,1.5,5.028,3.469,10.026,3.469c15.98,0,33.769-23.369,47.118-47.314
	c7.419-2.567,15.162-4.947,23.199-7.072c8.661-2.292,17.028-4.136,24.884-5.484c19.334,17.465,36.403,20.092,44.906,20.092
	c10.613,0,13.636-4.393,14.691-7.195C207.254,146.944,205.854,142.465,203.684,140.137z M107.142,40.807
	c1.296-2.227,3.441-3.593,5.757-3.593c4.75,0,7.36,4.201,7.384,11.861c0.026,8.258-2.637,21.806-7.569,37.271
	C103.437,64.675,103.318,47.371,107.142,40.807z M40.949,186.041c1.562-8.31,17.376-19.479,41.64-29.553
	c-13.526,23.1-26.828,37.265-35.16,37.265c-1.632,0-3.173-0.485-4.355-1.593C41.176,190.378,40.523,188.309,40.949,186.041z
	 M143.158,135.384c-7.234,1.317-14.864,3.033-22.73,5.114c-6.923,1.831-13.63,3.854-20.114,6.014
	c3.769-7.071,7.051-14.035,9.633-20.268c3.1-7.483,6.072-15.306,8.703-23.08c2.781,4.798,5.809,9.529,9.131,14.14
	c4.902,6.801,10.076,12.859,15.416,18.05l-0.061,0.011L143.158,135.384z M150.21,137.441c16.281-2.957,30.565-2.422,36.697-1.143
	c6.25,1.304,9.624,5.073,8.549,10.656c-1.094,5.687-7.88,8.411-15.405,6.617C167.992,150.696,158.138,144.245,150.21,137.441z"/>
<g>
	<path style="fill-rule:evenodd;clip-rule:evenodd;fill:#FF3500;" d="M0,0V234h240.001V0H0z M10,10h220.001V224H10V10z"/>
</g>
</svg>
