<?xml version="1.0" encoding="iso-8859-1"?>
<!-- Generator: Adobe Illustrator 19.0.1, SVG Export Plug-In . SVG Version: 6.00 Build 0)  -->
<!DOCTYPE svg PUBLIC "-//W3C//DTD SVG 1.1//EN" "http://www.w3.org/Graphics/SVG/1.1/DTD/svg11.dtd">
<svg version="1.1" id="ae_x5F_cc_x5F_app_x5F_RGB.svg"
	 xmlns="http://www.w3.org/2000/svg" xmlns:xlink="http://www.w3.org/1999/xlink" x="0px" y="0px" viewBox="0 0 240 234"
	 style="enable-background:new 0 0 240 234;" xml:space="preserve">
<rect x="0" y="0" style="fill-rule:evenodd;clip-rule:evenodd;fill:#383B42;" width="240" height="234"/>
<path style="fill-rule:evenodd;clip-rule:evenodd;fill:#00E4BB;" d="M0,0v234h240V0H0z M10,10h220v214H10V10z"/>
<rect x="10" y="10" style="fill-rule:evenodd;clip-rule:evenodd;fill:#002620;" width="220" height="214"/>
<path style="fill-rule:evenodd;clip-rule:evenodd;fill:#00E4BB;" d="M66.59,135l-7.72,28.63c-0.17,0.81-0.49,1.37-1.45,1.37H43.09
	c-0.97,0-1.13-0.32-0.97-1.45l27.69-96.41c0.48-1.77,0.81-3.34,0.97-8.17c0-0.65,0.32-0.97,0.8-0.97h20.45
	c0.64,0,0.97,0.16,1.13,0.97l31.07,104.74c0.16,0.81,0,1.29-0.81,1.29h-16.1c-0.8,0-1.28-0.56-1.44-1.2L97.83,135H66.59z M93.8,119
	c-2.74-10.79-9.18-34.29-11.59-45.72h-0.16C79.96,84.71,74.8,103.87,70.78,119H93.8z M194,149.25c0,1.12,0.16,4.5,0.48,9.98
	c0,0.64-0.06,0.96-0.7,1.12c-8.53,3.22-18.21,6.6-30.12,6.6c-14.65,0-28.66-5.63-28.66-28.17V87.29c0-0.81,0.32-1.29,1.13-1.29
	h15.74c0.81,0,1.13,0.48,1.13,1.29v49.4c0,9.5,4.15,14.65,14.13,14.65c4.02,0,7.45-0.81,9.87-1.77V87.29c0-0.81,0.32-1.29,1.13-1.29
	h14.74c0.97,0,1.13,0.48,1.13,1.29V149.25z"/>
</svg>
