<?xml version="1.0" encoding="iso-8859-1"?>
<!-- Generator: Adobe Illustrator 19.0.1, SVG Export Plug-In . SVG Version: 6.00 Build 0)  -->
<!DOCTYPE svg PUBLIC "-//W3C//DTD SVG 1.1//EN" "http://www.w3.org/Graphics/SVG/1.1/DTD/svg11.dtd">
<svg version="1.1" id="be_x5F_appicon_x5F_RGB" xmlns="http://www.w3.org/2000/svg" xmlns:xlink="http://www.w3.org/1999/xlink"
	 x="0px" y="0px" viewBox="0 0 240 234" style="enable-background:new 0 0 240 234;" xml:space="preserve">
<g>
	<rect x="10" y="10" style="fill-rule:evenodd;clip-rule:evenodd;fill:#001434;" width="220" height="214"/>
</g>
<g>
	<path style="fill-rule:evenodd;clip-rule:evenodd;fill:#5DA5FF;" d="M0,0v233.999h240.001V0H0z M10,10h220.001v213.999H10V10z"/>
</g>
<path style="fill-rule:evenodd;clip-rule:evenodd;fill:#5DA5FF;" d="M68.496,148.009V113.59h10.939c3.623,0,6.917,0.494,9.716,1.317
	c8.07,2.47,12.022,8.149,12.022,15.89c0,12.516-10.28,17.457-23.29,17.457C74.26,148.254,71.46,148.174,68.496,148.009z
	 M68.496,97.87V69.215c2.635-0.165,6.328-0.339,10.28-0.339c11.693,0,18.445,5.105,18.445,15.316c0,7.081-2.8,11.538-6.258,14.502
	c-2.306-0.494-7.74-0.823-12.516-0.823H68.496z M50.78,55.042v107.045c0,0.659,0.329,1.153,1.153,1.317
	c5.27,0.165,14.822,0.329,25.691,0.329c25.362,0.167,41.995-12.516,41.995-33.266c0-15.645-9.058-23.221-15.151-26.185
	c4.282-3.458,10.21-10.375,10.21-22.562c0-10.705-5.435-28.491-35.901-28.491c-10.046,0-22.562,0.329-27.173,0.494
	C50.944,53.889,50.78,54.218,50.78,55.042z M168.682,112.841H148.59c0.988-8.893,5.105-17.287,14.657-17.287
	c10.375,0,13.01,9.881,13.01,15.316c0,0.494-0.165,1.148-0.165,1.807C175.599,112.841,173.787,112.841,168.682,112.841z
	 M148.425,126.565h26.02c8.728,0,14.657-0.379,16.633-0.709c0.823-0.165,1.153-0.494,1.317-1.317
	c0.494-1.812,0.823-5.764,0.823-10.54c0-14.822-7.576-33.102-29.314-33.102c-21.409,0-33.596,19.268-33.596,42.818
	c0,21.738,9.881,41.171,36.231,41.171c8.234,0,14.719-1.153,19.989-3.788c0.659-0.494,0.988-0.988,0.988-1.976v-12.516
	c0-0.823-0.494-0.988-1.153-0.659c-5.27,2.306-10.273,3.179-16.202,3.179C155.013,149.127,148.59,140.069,148.425,126.565z"/>
</svg>
