<?xml version="1.0" encoding="iso-8859-1"?>
<!-- Generator: Adobe Illustrator 19.0.1, SVG Export Plug-In . SVG Version: 6.00 Build 0)  -->
<!DOCTYPE svg PUBLIC "-//W3C//DTD SVG 1.1//EN" "http://www.w3.org/Graphics/SVG/1.1/DTD/svg11.dtd">
<svg version="1.1" id="dw_x5F_cc_x5F_app_x5F_RGB.svg"
	 xmlns="http://www.w3.org/2000/svg" xmlns:xlink="http://www.w3.org/1999/xlink" x="0px" y="0px" viewBox="0 0 240 234"
	 style="enable-background:new 0 0 240 234;" xml:space="preserve">
<g>
	<rect x="10" y="10" style="fill-rule:evenodd;clip-rule:evenodd;fill:#072600;" width="220" height="214"/>
</g>
<g>
	<path style="fill-rule:evenodd;clip-rule:evenodd;fill:#35FA00;" d="M0,0V234h240.001V0H0z M10,10h220.001V224H10V10z"/>
</g>
<path style="fill-rule:evenodd;clip-rule:evenodd;fill:#35FA00;" d="M31.25,55.085c0-0.825,0.165-1.155,1.155-1.32
	C36.2,53.6,47.1,53.27,58.32,53.27c33.495,0,50.16,21.615,50.16,53.295c0,44.055-28.875,57.42-51.15,57.42
	c-8.415,0-20.635-0.165-25.09-0.33c-0.66,0-0.99-0.494-0.99-1.32V55.085z M49.25,147.815c2.805,0.165,5.28,0.33,8.415,0.33
	c18.48,0,32.17-13.035,32.335-41.085c0.165-27.39-14.02-37.95-31.675-37.95c-3.465,0-6.271,0.165-9.075,0.33V147.815z
	 M176.127,163.501c-1.154,0-1.484-0.445-1.649-1.436c-4.95-27.555-9.075-47.035-10.89-60.564h-0.165
	c-2.145,12.209-6.105,32.515-12.705,60.729c-0.33,0.989-0.66,1.271-1.485,1.271h-16.17c-1.155,0-1.485-0.166-1.815-1.156
	L113.592,83.57c-0.165-0.66,0.165-1.32,1.155-1.32h16.17c0.66,0,1.155,0.23,1.32,0.89c6.271,35.475,8.91,53.85,9.9,61.11h0.66
	c1.154-8.58,4.62-26.461,12.045-60.78c0.33-0.99,0.33-1.22,1.319-1.22h16.995c0.825,0,0.99,0.4,1.155,1.225
	c5.775,32.505,9.57,53.025,10.561,61.275h0.494c1.65-10.561,3.795-24.811,10.891-61.44c0.165-0.66,0.33-1.06,1.154-1.06h15.181
	c0.659,0,1.155,0.33,0.825,1.155l-19.636,78.939c-0.165,0.826-0.33,1.156-1.484,1.156H176.127z"/>
</svg>
