<?xml version="1.0" encoding="utf-8"?>
<!-- Generator: Adobe Illustrator 19.0.0, SVG Export Plug-In . SVG Version: 6.00 Build 0)  -->
<!DOCTYPE svg PUBLIC "-//W3C//DTD SVG 1.1//EN" "http://www.w3.org/Graphics/SVG/1.1/DTD/svg11.dtd">
<svg version="1.1" id="fs_x5F_appicon_x5F_RGB" xmlns="http://www.w3.org/2000/svg" xmlns:xlink="http://www.w3.org/1999/xlink"
	 x="0px" y="0px" viewBox="0 0 240.001 233.9995" enable-background="new 0 0 240.001 233.9995" xml:space="preserve">
<g>
	<g>
		<rect x="9.9997" y="10" fill-rule="evenodd" clip-rule="evenodd" fill="#261600" width="220.001" height="213.9995"/>
	</g>
	<g>
		<g>
			<path fill-rule="evenodd" clip-rule="evenodd" fill="#FF9100" d="M0,0v233.9995h240.001V0H0z M10,10h220.001v213.9995H10V10z"/>
		</g>
		<g id="XMLID_3_">
			<path id="XMLID_20_" fill="#FF9100" d="M80.061,161.9441c0,0.9896-0.3297,1.3196-1.1546,1.3196H63.2374
				c-0.8246,0-1.1546-0.33-1.1546-1.3196V54.4046c0-0.8246,0.33-1.1546,1.1546-1.1546h54.9243c0.9896,0,1.1546,0.33,1.3196,1.1546
				l1.6493,13.8548c0.165,0.9896-0.3297,1.3196-1.3196,1.3196h-39.75v31.3381h35.6265c0.8249,0,1.1546,0.165,1.1546,1.1546v13.8548
				c0,0.9896-0.3297,1.1546-1.1546,1.1546H80.061V161.9441z"/>
			<path id="XMLID_18_" fill="#FF9100" d="M159.4866,95.8041c-7.9169,0-10.556,3.9585-10.556,7.2572
				c0,3.6287,1.8145,6.1026,12.3705,11.5456c15.6691,7.5872,20.6171,14.8444,20.6171,25.5654
				c0,15.999-12.2053,24.5758-28.6992,24.5758c-8.7415,0-16.1638-1.8145-20.4522-4.2884c-0.6599-0.33-0.8249-0.8249-0.8249-1.6495
				v-14.6794c0-0.9896,0.4949-1.3196,1.1546-0.8246c6.2676,4.1234,13.5249,5.9377,20.1225,5.9377
				c7.9171,0,11.2159-3.2988,11.2159-7.7519c0-3.6288-2.3092-6.7626-12.3705-12.0406
				c-14.1845-6.7626-20.1224-13.6898-20.1224-25.2355c0-12.8652,10.0613-23.586,27.5447-23.586
				c8.5768,0,14.5147,1.3193,17.8133,2.8039c0.8249,0.4947,0.9896,1.3196,0.9896,1.9792v13.6898
				c0,0.8246-0.4947,1.3196-1.4843,0.9896C172.3518,97.4533,165.9192,95.8041,159.4866,95.8041z"/>
		</g>
	</g>
</g>
</svg>
