<?xml version="1.0" encoding="iso-8859-1"?>
<!-- Generator: Adobe Illustrator 19.0.1, SVG Export Plug-In . SVG Version: 6.00 Build 0)  -->
<!DOCTYPE svg PUBLIC "-//W3C//DTD SVG 1.1//EN" "http://www.w3.org/Graphics/SVG/1.1/DTD/svg11.dtd">
<svg version="1.1" id="mnemonic" xmlns="http://www.w3.org/2000/svg" xmlns:xlink="http://www.w3.org/1999/xlink" x="0px" y="0px"
	 viewBox="0 0 240 234" style="enable-background:new 0 0 240 234;" xml:space="preserve">
<g>
	<rect x="10" y="10" style="fill-rule:evenodd;clip-rule:evenodd;fill:#0A2431;" width="220" height="214.001"/>
</g>
<g>
	<path style="fill-rule:evenodd;clip-rule:evenodd;fill:#ADD5EC;" d="M0,0V234h240.001V0H0z M10,10h220.001V224H10V10z"/>
</g>
<path style="fill-rule:evenodd;clip-rule:evenodd;fill:#ADD5EC;" d="M66.485,163.251c-1.155,0-1.485-0.496-1.485-1.485V54.32
	c0-0.825,0.33-1.32,1.155-1.32h15.854c0.825,0,0.99,0.33,0.99,1.155v92.596h41.25c0.825,0,1.062,0.33,0.895,1.154l-2.475,14.189
	c-0.163,0.826-0.66,1.156-1.483,1.156H66.485z M140.5,98.488c0-1.155,0-4.125-0.495-9.735c0-0.825,0.181-0.99,0.84-1.32
	c6.105-2.475,20.58-6.93,36.75-6.93c0.825,0,1.155,0.165,1.155,0.99v14.52c0,0.825-0.33,0.99-1.155,0.99
	c-6.27-0.33-15.63,0.495-19.095,1.98v63.112c0,0.826-0.33,1.156-1.155,1.156h-15.689c-0.825,0-1.155-0.33-1.155-1.156V98.488z"/>
</svg>
