<?xml version="1.0" encoding="utf-8"?>
<!-- Generator: Adobe Illustrator 19.1.0, SVG Export Plug-In . SVG Version: 6.00 Build 0)  -->
<!DOCTYPE svg PUBLIC "-//W3C//DTD SVG 1.1//EN" "http://www.w3.org/Graphics/SVG/1.1/DTD/svg11.dtd">
<svg version="1.1" id="Layer_1" xmlns="http://www.w3.org/2000/svg" xmlns:xlink="http://www.w3.org/1999/xlink" x="0px" y="0px"
	 viewBox="0 0 240 234" style="enable-background:new 0 0 240 234;" xml:space="preserve">
<style type="text/css">
	.st0{fill-rule:evenodd;clip-rule:evenodd;fill:#001934;}
	.st1{fill:#54B0FF;}
</style>
<rect id="XMLID_14_" x="10" y="10" class="st0" width="220" height="214"/>
<path id="XMLID_1_" class="st1" d="M10,10h220v214H10V10z M0,234h240V0H0V234z"/>
<g id="XMLID_21_">
	<path id="XMLID_36_" class="st1" d="M61.2,59.2c0-0.6,0.2-1.1,1-1.1c6.3-0.3,15.5-0.5,25.1-0.5c27,0,38.8,14.8,38.8,33.8
		c0,24.8-17.9,35.4-39.9,35.4c-3.7,0-5-0.2-7.6-0.2v37.5c0,0.8-0.3,1.1-1.1,1.1H62.4c-0.8,0-1.1-0.3-1.1-1.1V59.2z M78.6,111
		c2.3,0.2,4,0.2,7.9,0.2c11.4,0,22.1-4,22.1-19.5C108.6,79.3,101,73,88,73c-3.9,0-7.6,0.2-9.3,0.3V111z"/>
	<path id="XMLID_34_" class="st1" d="M136.6,104.1c-0.6,0-0.8-0.3-0.8-1.1V89.7c0-0.8,0.2-1,0.8-1h9v-5c0-6,1-11.1,3.2-15.5
		c4-8.2,10.9-11.9,20.6-11.9c2.9,0,5,0.2,6.6,0.8c0.8,0.3,1,0.6,1,1.4v12.9c0,0.8-0.3,1.1-1.1,1c-1.3-0.3-3.1-0.5-4.3-0.5
		c-5.6,0-8.4,4-8.4,11.8v5h12.7c0.8,0,1,0.2,1,0.8v13.4c0,0.8-0.2,1-1,1.1h-12.7v60.1c0,0.6-0.2,1.1-1.1,1.1h-15.3
		c-0.8,0-1.1-0.5-1.1-1.1v-60.1H136.6z"/>
</g>
</svg>
