<?xml version="1.0" encoding="utf-8"?>
<!-- Generator: Adobe Illustrator 19.1.0, SVG Export Plug-In . SVG Version: 6.00 Build 0)  -->
<!DOCTYPE svg PUBLIC "-//W3C//DTD SVG 1.1//EN" "http://www.w3.org/Graphics/SVG/1.1/DTD/svg11.dtd">
<svg version="1.1" id="ae_x5F_cc_x5F_app_x5F_RGB.svg"
	 xmlns="http://www.w3.org/2000/svg" xmlns:xlink="http://www.w3.org/1999/xlink" x="0px" y="0px" viewBox="0 0 240 234"
	 style="enable-background:new 0 0 240 234;" xml:space="preserve">
<style type="text/css">
	.st0{fill-rule:evenodd;clip-rule:evenodd;fill:#9E8CFF;}
	.st1{fill-rule:evenodd;clip-rule:evenodd;fill:#0B004D;}
	.st2{fill:#9E8CFF;}
</style>
<path class="st0" d="M0,0v234h240V0H0z M10,10h220v214H10V10z"/>
<rect x="10" y="10" class="st1" width="220" height="214"/>
<path class="st2" d="M93,47H79v14h14V47z M163,61h-14v14h14V61z M135,61h-14v14h14V61z M107,75V61H93v14H107z M121,89V75h-14v14H121
	z M177,89v14h14V89H177z M163,89h-14v14h14V89z M135,103V89h-14v14H135z M149,117v-14h-14v14H149z M177,131h14v-14h-14V131z
	 M163,131v-14h-14v14H163z M163,145h14v-14h-14V145z M191,159v-14h-14v14H191z M163,145h-14v-14h-14v-14h-14v-14h-14V89H93V75H79V61
	H65V47H49v140h142v-14h-14v-14h-14V145z"/>
</svg>
