<?xml version="1.0" encoding="iso-8859-1"?>
<!-- Generator: Adobe Illustrator 19.0.1, SVG Export Plug-In . SVG Version: 6.00 Build 0)  -->
<!DOCTYPE svg PUBLIC "-//W3C//DTD SVG 1.1//EN" "http://www.w3.org/Graphics/SVG/1.1/DTD/svg11.dtd">
<svg version="1.1" id="psmix_x5F_app_x5F_RGB.svg" xmlns="http://www.w3.org/2000/svg" xmlns:xlink="http://www.w3.org/1999/xlink"
	 x="0px" y="0px" viewBox="0 0 240 235" style="enable-background:new 0 0 240 235;" xml:space="preserve">
<path style="fill-rule:evenodd;clip-rule:evenodd;fill:#001D26;" d="M41.894,7.454c-28.131,0-34.623,16.745-34.623,44.896
	l0.113,136.637c0,28.162,8.779,37.56,36.9,37.56h150.764c28.121,0,37.57-9.398,37.57-37.549V47.177
	c0-28.152-10.5-39.724-38.621-39.724H41.894z"/>
<path style="fill-rule:evenodd;clip-rule:evenodd;fill:#00C8FF;" d="M0,43.05v148.17C0,214.85,18.21,234,41.88,234h155.26
	c23.67,0,42.86-19.15,42.86-42.78V42.78C240,19.15,220.81,0,197.14,0H41.88C18.21,0,0,19.15,0,42.78V43.05z M194.04,10.134
	c19.115-0.03,35.85,15.687,35.85,34.772v142.303c0,19.054-15.475,36.657-34.57,36.657H44.68c-19.095,0-34.57-16.231-34.57-35.286
	L10.09,46.922c0-19.034,15.465-36.758,34.53-36.788H194.04z"/>
<path style="fill:#CAF1FE;" d="M151.675,87.292c-0.672-0.256-1.358-0.472-2.043-0.697c1.129,3.414,2.066,7.947,2.402,11.653
	l-13.06-13.29c-0.86-0.063-1.716-0.13-2.576-0.144l15.799,16.065c0.018,0.576,0.04,1.156,0.04,1.736c0,2.568-0.211,5.091-0.6,7.551
	L126.912,85.12c-0.676,0.13-1.357,0.252-2.02,0.414l26.373,26.715c-0.537,2.617-1.294,5.145-2.235,7.587l-31.173-31.536
	c-0.076,0.031-0.157,0.058-0.228,0.09l-0.031-0.058c-0.488,0.22-0.949,0.486-1.424,0.724l32.15,32.521
	c-0.967,2.24-2.1,4.38-3.381,6.427L109.85,92.378c-0.47,0.337-0.936,0.688-1.397,1.043l35.522,36.065
	c-1.308,1.929-2.745,3.571-4.317,5.284l-35.916-36.245c-0.394,0.418-0.806,0.823-1.187,1.259l35.902,36.42
	c-1.626,1.646-3.363,3.175-5.208,4.569l-34.984-35.152c-0.313,0.508-0.618,1.016-0.914,1.538l34.474,34.635
	c-1.944,1.358-3.995,2.582-6.135,3.634l-31.85-32.121c-0.224,0.607-0.412,1.223-0.614,1.844l30.797,31.055
	c-2.315,1.03-4.725,1.889-7.215,2.541L91.525,123.06c-0.036,0.279-0.099,0.558-0.13,0.837l-0.049-0.004
	c-0.04,0.333-0.081,0.661-0.107,0.994c-0.009,0.112-0.009,0.22-0.018,0.333l23.614,23.994c-2.817,0.603-5.732,0.944-8.71,1.016
	l-14.707-14.716c0.157,1.025,0.672,1.952,0.896,2.964l11.375,11.747c-2.342-0.063-5.204-0.27-7.479-0.67
	c0.313,0.643,0.078,1.928,0.793,2.015c15.483,1.891,31.121-1.83,43.874-15.372C152.656,123.688,154,108.438,154,102.615
	C154,97.155,152.817,91.083,151.675,87.292z"/>
<path style="fill:#00C8FF;" d="M131.52,174.303l-0.439,4.102c1.738,0.193,3.502,0.292,5.249,0.292
	c1.048-0.004,2.082-0.036,3.117-0.103l-0.26-4.124C136.662,174.641,134.069,174.587,131.52,174.303z M115.063,173.71
	c2.503,1.25,5.137,2.28,7.81,3.063l1.129-3.967c-2.445-0.715-4.85-1.66-7.143-2.802L115.063,173.71z M180.141,126.928l4.071-0.288
	c-0.193-2.815-0.627-5.64-1.303-8.379l-3.954,0.994C179.572,121.765,179.971,124.342,180.141,126.928z M104.543,160.865
	l-2.938,2.856c1.93,2.042,4.048,3.922,6.292,5.59l2.414-3.333C108.251,164.458,106.312,162.736,104.543,160.865z M176.469,111.924
	l3.721-1.682c-1.133-2.582-2.499-5.073-4.057-7.421l-3.381,2.307C174.181,107.274,175.43,109.563,176.469,111.924z M162.98,170.481
	c2.315-1.57,4.514-3.36,6.529-5.316l-2.821-2.977c-1.845,1.785-3.851,3.423-5.974,4.862L162.98,170.481z M171.744,156.345
	l3.287,2.451c1.657-2.289,3.117-4.727,4.348-7.254l-3.654-1.83C174.597,152.023,173.263,154.258,171.744,156.345z M178.493,142.48
	l3.919,1.147c0.77-2.703,1.321-5.496,1.621-8.298l0.018-0.22l-4.071-0.243C179.702,137.447,179.205,140.006,178.493,142.48z
	 M167.933,99.089l2.938-2.86c-1.93-2.033-4.053-3.913-6.305-5.581l-2.405,3.333C164.225,95.509,166.169,97.231,167.933,99.089z
	 M147.727,177.303c2.705-0.679,5.369-1.597,7.922-2.739l-1.648-3.778c-2.333,1.043-4.769,1.884-7.25,2.505L147.727,177.303z
	 M140.943,85.65c2.584,0.283,5.105,0.774,7.528,1.48l-0.018,0.054c2.463,0.72,4.863,1.651,7.152,2.788l1.791-3.71
	c-2.499-1.237-5.132-2.262-7.815-3.045l-0.009,0.036c-7.483-17.522-24.568-30.034-44.608-30.034
	c-26.914,0-48.831,22.334-48.831,49.602c0,23.04,15.58,42.366,36.646,47.812c1.039,2.244,2.217,4.43,3.578,6.481l3.386-2.303
	c-1.429-2.145-2.674-4.434-3.704-6.796l-0.04,0.014c-1.03-2.357-1.854-4.812-2.472-7.344l0.036-0.014
	c-0.609-2.51-1.003-5.091-1.173-7.668l-0.063,0.005c-0.148-2.258-0.13-4.547,0.072-6.868c0.027-0.333,0.072-0.666,0.107-0.994
	l0.054,0.005c0.278-2.55,0.766-5.087,1.464-7.533l-0.058-0.018c0.717-2.519,1.648-4.943,2.768-7.245l0.045,0.022
	c1.124-2.316,2.459-4.556,3.963-6.638l-0.049-0.04c1.518-2.105,3.215-4.052,5.06-5.851l0.036,0.045
	c1.845-1.799,3.856-3.441,5.965-4.88l-0.031-0.045c2.123-1.444,4.366-2.707,6.717-3.769l0.027,0.058
	c2.329-1.048,4.765-1.898,7.241-2.514l-0.013-0.054c2.459-0.616,4.984-1.034,7.573-1.205l0.004,0.058
	c2.512-0.171,5.092-0.121,7.662,0.157L140.943,85.65z"/>
</svg>
