<?xml version="1.0" encoding="utf-8"?>
<!-- Generator: Adobe Illustrator 19.0.1, SVG Export Plug-In . SVG Version: 6.00 Build 0)  -->
<!DOCTYPE svg PUBLIC "-//W3C//DTD SVG 1.1//EN" "http://www.w3.org/Graphics/SVG/1.1/DTD/svg11.dtd">
<svg version="1.1" id="psmix_x5F_app_x5F_RGB.svg" xmlns="http://www.w3.org/2000/svg" xmlns:xlink="http://www.w3.org/1999/xlink"
	 x="0px" y="0px" viewBox="0 0 240 235" style="enable-background:new 0 0 240 235;" xml:space="preserve">
<path style="fill-rule:evenodd;clip-rule:evenodd;fill:#001D26;" d="M41.9,7.5C13.8,7.5,7.3,24.2,7.3,52.3L7.4,189
	c0,28.2,8.8,37.6,36.9,37.6H195c28.1,0,37.6-9.4,37.6-37.5V47.2c0-28.2-10.5-39.7-38.6-39.7H41.9z"/>
<path style="fill-rule:evenodd;clip-rule:evenodd;fill:#00C8FF;" d="M0,43v148.2C0,214.9,18.2,234,41.9,234h155.3
	c23.7,0,42.9-19.1,42.9-42.8V42.8C240,19.1,220.8,0,197.1,0H41.9C18.2,0,0,19.1,0,42.8V43z M194,10.1c19.1,0,35.9,15.7,35.9,34.8
	v142.3c0,19.1-15.5,36.7-34.6,36.7H44.7c-19.1,0-34.6-16.2-34.6-35.3l0-141.7c0-19,15.5-36.8,34.5-36.8H194z"/>
<g>
	<path style="fill-rule:evenodd;clip-rule:evenodd;fill:#00C8FF;" d="M89.3,144c0,0.4,0.2,0.6,0.6,0.6h8c0.4,0,0.6-0.2,0.6-0.6
		v-21.4c1.4,0,2.1,0.1,4.2,0.1c12.2,0,22.2-5.9,22.2-19.5c0-10.5-6.5-18.6-21.4-18.6c-5.3,0-10.3,0.1-13.7,0.3
		c-0.4,0-0.5,0.3-0.5,0.6V144z M98.6,93.2c1-0.1,3-0.2,5.2-0.2c7.2,0,11.6,3.5,11.6,10.3c0,8.5-6,10.7-12.4,10.7
		c-2.1,0-3.1,0-4.4-0.1V93.2z M156.4,109.9c0.5,0.2,0.8-0.1,0.8-0.5V102c0-0.4-0.1-0.8-0.5-1.1c-1.8-0.8-5.3-1.5-9.9-1.5
		c-9.4,0-14.8,5.8-14.8,12.7c0,6.2,3.2,9.9,10.8,13.6c5.4,2.8,6.7,4.5,6.7,6.5c0,2.4-1.8,4.2-6,4.2c-3.6,0-7.9-1-11.3-3.2
		c-0.4-0.3-0.6-0.1-0.6,0.4v7.9c0,0.4,0.1,0.7,0.4,0.9c2.3,1.3,6.8,2.3,11.5,2.3c8.9,0,15.5-4.6,15.5-13.2c0-5.8-2.7-9.7-11.1-13.8
		c-5.7-2.9-6.7-4.3-6.7-6.2c0-1.8,1.4-3.9,5.7-3.9C150.2,107.6,154,108.5,156.4,109.9z"/>
	<path style="fill:#CAF1FE;" d="M120,191.5c-3.5,0-6.9-1.3-9.6-3.9l-61-61c-5.3-5.3-5.3-13.9,0-19.1l61-61c5.3-5.3,13.9-5.3,19.1,0
		c0,0,0,0,0,0l61,61c5.3,5.3,5.3,13.9,0,19.1l-61,61C126.9,190.2,123.5,191.5,120,191.5z M120,45.5c-2.7,0-5.4,1-7.5,3.1l-61,61
		c-4.1,4.1-4.1,10.8,0,14.9l61,61c4.1,4.1,10.8,4.1,14.9,0l61-61c4.1-4.1,4.1-10.8,0-14.9l-61-61C125.4,46.5,122.7,45.5,120,45.5z"
		/>
</g>
</svg>
