<?xml version="1.0" encoding="utf-8"?>
<!-- Generator: Adobe Illustrator 19.2.1, SVG Export Plug-In . SVG Version: 6.00 Build 0)  -->
<!DOCTYPE svg PUBLIC "-//W3C//DTD SVG 1.1//EN" "http://www.w3.org/Graphics/SVG/1.1/DTD/svg11.dtd">
<svg version="1.1" id="voice_x5F_app_x5F_RGB.svg" xmlns="http://www.w3.org/2000/svg" xmlns:xlink="http://www.w3.org/1999/xlink"
	 x="0px" y="0px" viewBox="0 0 240 235" style="enable-background:new 0 0 240 235;" xml:space="preserve">
<style type="text/css">
	.st0{clip-path:url(#SVGID_2_);fill-rule:evenodd;clip-rule:evenodd;fill:#262000;}
	.st1{fill-rule:evenodd;clip-rule:evenodd;fill:#FFDA00;}
	.st2{fill:#FEF7CA;}
</style>
<g>
	<defs>
		<path id="SVGID_1_" d="M41.9,7.5C13.8,7.5,7.3,24.2,7.3,52.3L7.4,189c0,28.2,8.8,37.6,36.9,37.6H195c28.1,0,37.6-9.4,37.6-37.5
			V47.2c0-28.2-10.5-39.7-38.6-39.7H41.9z"/>
	</defs>
	<use xlink:href="#SVGID_1_"  style="overflow:visible;fill-rule:evenodd;clip-rule:evenodd;fill:#262000;"/>
	<clipPath id="SVGID_2_">
		<use xlink:href="#SVGID_1_"  style="overflow:visible;"/>
	</clipPath>
	<rect x="9.4" y="9.4" class="st0" width="221.3" height="215.2"/>
</g>
<path class="st1" d="M0,43v148.2C0,214.9,18.2,234,41.9,234h155.3c23.7,0,42.9-19.1,42.9-42.8V42.8C240,19.1,220.8,0,197.1,0H41.9
	C18.2,0,0,19.1,0,42.8V43z M194,10.1c19.1,0,35.9,15.7,35.9,34.8v142.3c0,19.1-15.5,36.7-34.6,36.7H44.7
	c-19.1,0-34.6-16.2-34.6-35.3l0-141.7c0-19,15.5-36.8,34.5-36.8H194z"/>
<path class="st1" d="M166.7,143c0,1.2,0.2,3.9,0.2,4.4c0,9.8-3,15.2-12,16.6v11.7c7-0.2,11.9-1.8,15.9-4.5c4.2-2.8,6.8-6.6,8-11.1
	c1.2-4.5,1.8-10.1,1.8-18.2l-0.2-24.4l-25.5,0V143L166.7,143z M135.4,143c0,1.2,0,3.6,0,4.2c0,10-2.4,15.5-11.4,16.9v11.7
	c8-0.2,12.1-1.7,16.3-4.6c4.2-2.9,6.9-6.6,8.1-11.1c1.2-4.5,0.8-10,0.8-18.1l-0.1-24.4l-25.3,0.1l0,25.4L135.4,143z M73.1,92.1
	c-0.1-1.2,0.2-3.6,0.2-4.1c0-9.8,2.8-15.6,11.8-17V59.3c-8,0.2-11.9,1.8-15.6,4.5c-4.1,3-7.1,6.6-8.3,11.1c-1.2,4.5-2.1,10.8-2.1,19
	v23.6l25.5,0l0-25.4L73.1,92.1z M116.1,92.4l0,25.6H90.8l0-23.7c0-8.2,0.1-14.8,1.3-19.3c1.2-4.5,3.5-8.2,7.6-11.1
	c4.2-2.9,8.6-4.5,16.2-4.7l0.1,11.7c-9,1.3-11.5,7.3-11.5,17.1c0,0.6,0,3,0,4.2L116.1,92.4z"/>
<path class="st2" d="M111,144.6c-7.7-2.4-14-7.8-17.4-14.8c-0.2-0.3-0.3-0.6-0.4-0.9l-4.2,0.7c0.1,0.3,0.2,0.6,0.4,0.9
	c3.8,8.7,11.4,15.4,20.9,18.2c0.3,0.1,0.6,0.2,1,0.2l0.8-4.1C111.7,144.8,111.4,144.7,111,144.6z M108.5,158
	c-13.5-3.6-24.4-13.3-29.1-25.9c-0.1-0.3-0.2-0.6-0.3-0.9l-4.1,0.7c0.1,0.3,0.2,0.6,0.3,0.9c5.1,14.3,17.3,25.3,32.5,29.3
	c0.3,0.1,0.6,0.1,1,0.2l0.8-4.1C109.2,158.1,108.9,158.1,108.5,158z M106.1,171.2c-19.3-4.7-34.6-18.7-40.5-36.8
	c-0.1-0.3-0.2-0.6-0.3-0.9l-4.2,0.7l0.3,0.9c6.2,19.8,22.9,35.2,43.9,40.2l1,0.2l0.8-4.1C106.7,171.3,106.4,171.3,106.1,171.2z
	 M150.6,105.2c-3.9-8.6-11.5-15.2-21-17.9c-0.3-0.1-0.6-0.2-1-0.2l-0.8,4.1c0.3,0.1,0.6,0.2,1,0.3c7.7,2.3,14,7.7,17.5,14.5
	c0.2,0.3,0.3,0.6,0.4,0.9l4.2-0.7C150.9,105.9,150.7,105.5,150.6,105.2z M164.7,102.9c-5.2-14.2-17.4-25.1-32.6-28.9
	c-0.3-0.1-0.6-0.1-1-0.2l-0.8,4.1c0.3,0.1,0.6,0.1,1,0.2c13.5,3.5,24.4,13.1,29.2,25.5c0.1,0.3,0.2,0.6,0.3,0.9l4.1-0.7
	C164.9,103.5,164.9,103.2,164.7,102.9z M178.6,100.5c-6.3-19.7-23.1-34.9-44-39.8l-1-0.2l-0.8,4.1c0.3,0.1,0.6,0.1,1,0.2
	c19.2,4.6,34.6,18.5,40.7,36.4c0.1,0.3,0.2,0.6,0.3,0.9l4.1-0.7C178.8,101.2,178.7,100.9,178.6,100.5z"/>
</svg>
