<?xml version="1.0" encoding="utf-8"?>
<!DOCTYPE svg PUBLIC "-//W3C//DTD SVG 1.1//EN" "http://www.w3.org/Graphics/SVG/1.1/DTD/svg11.dtd">
<svg version="1.1" id="prclip_x5F_app_x5F_RGB" xmlns="http://www.w3.org/2000/svg" xmlns:xlink="http://www.w3.org/1999/xlink"
	 x="0px" y="0px" viewBox="0 0 240 234" enable-background="new 0 0 240 234" xml:space="preserve">
<g>
	<g>
		<defs>
			<path id="SVGID_1_" d="M41.8937,7.4536c-28.1311,0-34.6229,16.7447-34.6229,44.8964l0.1133,136.6368
				c0,28.162,8.7794,37.5597,36.9002,37.5597h150.7642c28.1208,0,37.57-9.3976,37.57-37.5493V47.1772
				c0-28.1517-10.5002-39.7236-38.621-39.7236H41.8937z"/>
		</defs>
		<radialGradient id="SVGID_2_" cx="119.9447" cy="117" r="111.1211" gradientUnits="userSpaceOnUse">
			<stop  offset="0" style="stop-color:#39261A"/>
			<stop  offset="0.7595" style="stop-color:#1D0C04"/>
		</radialGradient>
		<use xlink:href="#SVGID_1_"  overflow="visible" fill-rule="evenodd" clip-rule="evenodd" fill="url(#SVGID_2_)"/>
		<clipPath id="SVGID_3_">
			<use xlink:href="#SVGID_1_"  overflow="visible"/>
		</clipPath>
		<radialGradient id="SVGID_4_" cx="97.5814" cy="81.0798" r="144.263" gradientUnits="userSpaceOnUse">
			<stop  offset="0" style="stop-color:#4B2D4F"/>
			<stop  offset="0.7669" style="stop-color:#180024"/>
		</radialGradient>
		
			<rect x="9.3624" y="9.3808" clip-path="url(#SVGID_3_)" fill-rule="evenodd" clip-rule="evenodd" fill="url(#SVGID_4_)" width="221.2756" height="215.2393"/>
	</g>
	<path fill-rule="evenodd" clip-rule="evenodd" fill="#E788FF" d="M0,43.05v148.17C0,214.85,18.21,234,41.88,234h155.26
		c23.67,0,42.86-19.15,42.86-42.78V42.78C240,19.15,220.81,0,197.14,0H41.88C18.21,0,0,19.15,0,42.78V43.05z M194.0399,10.1342
		c19.1149-0.0302,35.8504,15.6871,35.8504,34.7717v142.3029c0,19.0544-15.4754,36.657-34.5701,36.657H44.6799
		c-19.0947,0-34.5701-16.2315-34.5701-35.2859L10.0896,46.9223c0-19.0342,15.4653-36.7578,34.5297-36.788H194.0399z"/>
	<g>
		<g>
			<path fill="#E4C9E1" d="M141.2043,144.7173c-2.4575,0-4.1196-1.9697-4.1362-4.9014V95.0835c0-2.9399,1.6616-4.915,4.1343-4.915
				c0.9355,0,1.9126,0.2881,2.9043,0.856l40.3564,22.3989c1.7881,1.0298,2.7617,2.4668,2.7617,4.0571s-0.9736,3.0278-2.7432,4.0474
				l-40.3936,22.3369C143.1208,144.4263,142.1423,144.7173,141.2043,144.7173z M141.2023,92.916
				c-1.2065,0-1.3862,1.3579-1.3862,2.1675v44.7246c0.0034,0.6445,0.146,2.1611,1.3882,2.1611c0.4414,0,0.9707-0.1709,1.5298-0.4951
				l40.397-22.3389c0.8477-0.4888,1.3467-1.0962,1.3467-1.6548c0-0.5581-0.499-1.165-1.3672-1.6655l-40.354-22.3975
				C142.1779,93.0864,141.6462,92.916,141.2023,92.916z"/>
		</g>
		<path fill="#E788FF" d="M73.567,178.3497c0,3.2419-2.6281,5.87-5.87,5.87s-5.87-2.6281-5.87-5.87V56.7798
			c0-3.2419,2.6281-5.87,5.87-5.87s5.87,2.6281,5.87,5.87V178.3497z"/>
		<path fill="#E788FF" d="M99.17,164.1119c0,3.2419-2.6281,5.87-5.87,5.87s-5.87-2.6281-5.87-5.87V71.1131
			c0-3.2419,2.6281-5.87,5.87-5.87s5.87,2.6281,5.87,5.87V164.1119z"/>
		<path fill="#E788FF" d="M124.6402,149.8741c0,3.2419-2.6281,5.87-5.87,5.87s-5.87-2.6281-5.87-5.87V85.1773
			c0-3.2419,2.6281-5.87,5.87-5.87s5.87,2.6281,5.87,5.87V149.8741z"/>
	</g>
</g>
</svg>
