<?xml version="1.0" encoding="utf-8"?>
<!-- Generator: Adobe Illustrator 19.0.0, SVG Export Plug-In . SVG Version: 6.00 Build 0)  -->
<!DOCTYPE svg PUBLIC "-//W3C//DTD SVG 1.1//EN" "http://www.w3.org/Graphics/SVG/1.1/DTD/svg11.dtd">
<svg version="1.1" id="psfix_x5F_app_x5F_RGB" xmlns="http://www.w3.org/2000/svg" xmlns:xlink="http://www.w3.org/1999/xlink"
	 x="0px" y="0px" viewBox="16524 280 240 234" enable-background="new 16524 280 240 234" xml:space="preserve">
<g>
	<path fill="#001D26" d="M16565.8945,287.4536c-28.1328,0-34.625,16.7447-34.625,44.8964l0.1133,136.6368
		c0,28.162,8.7812,37.5597,36.9023,37.5597h150.7637c28.1191,0,37.5684-9.3976,37.5684-37.5493v-141.82
		c0-28.1517-10.5-39.7236-38.6211-39.7236C16717.9961,287.4536,16565.8945,287.4536,16565.8945,287.4536z"/>
	<path fill="#00C8FF" d="M16524,323.05v148.17c0,23.63,18.2109,42.78,41.8789,42.78h155.2617c23.668,0,42.8594-19.15,42.8594-42.78
		V322.78c0-23.63-19.1914-42.78-42.8594-42.78h-155.2617c-23.668,0-41.8789,19.15-41.8789,42.78V323.05z M16718.0391,290.1342
		c19.1152-0.0302,35.8516,15.6871,35.8516,34.7717v142.3029c0,19.0544-15.4766,36.657-34.5703,36.657h-150.6406
		c-19.0938,0-34.5703-16.2315-34.5703-35.2859l-0.0195-141.6576c0-19.0342,15.4648-36.7578,34.5293-36.788h149.4199V290.1342z"/>
	<g>
		<g>
			<defs>
				<path id="SVGID_1_" d="M16702.0273,398.2224c-6.9023,44.2776-35.6289,59.5541-57.4531,59.5541
					c-35.6699,0-66.4102-22.8303-66.4102-68.4267c0-30.5905,22.293-63.0246,63.6445-63.0246
					c23.4102,0,29.5625,17.2996,6.1094,40.7302c-22.1445,22.1444-42.959,75.3508-18.3281,75.3508
					C16662.125,442.4062,16695.4062,440.693,16702.0273,398.2224z"/>
			</defs>
			<clipPath id="SVGID_2_">
				<use xlink:href="#SVGID_1_"  overflow="visible"/>
			</clipPath>
			<g clip-path="url(#SVGID_2_)">
				<path fill="#B1F3FF" d="M16553.5547,440.3671c-0.2266,0-0.4512-0.0869-0.6211-0.2598
					c-0.3398-0.3438-0.3379-0.8975,0.0059-1.2373l127.7012-126.2852c0.3438-0.3398,0.8984-0.3369,1.2363,0.0068
					c0.3398,0.3438,0.3379,0.8975-0.0059,1.2373l-127.7012,126.2852C16554,440.2831,16553.7773,440.3671,16553.5547,440.3671z"/>
				<path fill="#B1F3FF" d="M16585.2383,472.415c-0.2266,0-0.4512-0.0869-0.6211-0.2598c-0.3398-0.3438-0.3379-0.8975,0.0059-1.2373
					l127.7012-126.2637c0.3438-0.3389,0.8984-0.3359,1.2363,0.0068c0.3398,0.3438,0.3379,0.8975-0.0059,1.2373l-127.7012,126.2637
					C16585.6836,472.331,16585.4609,472.415,16585.2383,472.415z"/>
				<path fill="#B1F3FF" d="M16527.4648,414.5566c-0.2246,0-0.4492-0.0869-0.6211-0.2598
					c-0.3398-0.3438-0.3359-0.8975,0.0078-1.2373l127.6777-126.2637c0.3457-0.3398,0.8984-0.3359,1.2363,0.0068
					c0.3398,0.3438,0.3379,0.8975-0.0059,1.2373l-127.6777,126.2637C16527.9102,414.4726,16527.6875,414.5566,16527.4648,414.5566z"
					/>
				<path fill="#B1F3FF" d="M16591.7773,478.8671c-0.2266,0-0.4512-0.0869-0.6211-0.2598
					c-0.3398-0.3438-0.3379-0.8975,0.0059-1.2373l127.6777-126.2627c0.3438-0.3398,0.8984-0.3359,1.2383,0.0068
					c0.3398,0.3438,0.3359,0.8975-0.0078,1.2373l-127.6777,126.2627C16592.2227,478.7831,16592,478.8671,16591.7773,478.8671z"/>
				<path fill="#B1F3FF" d="M16533.9844,421.0097c-0.2266,0-0.4531-0.0869-0.623-0.2598c-0.3398-0.3438-0.3379-0.8975,0.0059-1.2373
					l127.6992-126.2636c0.3457-0.3389,0.8984-0.3359,1.2383,0.0068c0.3398,0.3438,0.3359,0.8975-0.0078,1.2373l-127.6992,126.2637
					C16534.4277,420.9257,16534.207,421.0097,16533.9844,421.0097z"/>
				<path fill="#B1F3FF" d="M16598.293,485.3202c-0.2246,0-0.4492-0.0869-0.6211-0.2598c-0.3398-0.3438-0.3359-0.8975,0.0078-1.2373
					l127.6992-126.2637c0.3438-0.3398,0.8984-0.3369,1.2363,0.0068c0.3398,0.3438,0.3379,0.8975-0.0059,1.2373l-127.6992,126.2637
					C16598.7383,485.2363,16598.5156,485.3202,16598.293,485.3202z"/>
				<path fill="#B1F3FF" d="M16540.5,427.4618c-0.2266,0-0.4512-0.0869-0.6211-0.2598c-0.3398-0.3438-0.3379-0.8975,0.0059-1.2373
					l127.6992-126.2636c0.3457-0.3398,0.8984-0.3359,1.2363,0.0068c0.3398,0.3438,0.3379,0.8975-0.0059,1.2373l-127.6992,126.2637
					C16540.9453,427.3779,16540.7227,427.4618,16540.5,427.4618z"/>
				<path fill="#B1F3FF" d="M16604.8105,491.7724c-0.2246,0-0.4512-0.0869-0.623-0.2598c-0.3398-0.3438-0.3359-0.8975,0.0078-1.2373
					l127.6992-126.2637c0.3457-0.3398,0.8984-0.3359,1.2383,0.0068c0.3398,0.3438,0.3359,0.8975-0.0078,1.2373l-127.6992,126.2637
					C16605.2539,491.6884,16605.0332,491.7724,16604.8105,491.7724z"/>
				<path fill="#B1F3FF" d="M16547.0156,433.914c-0.2246,0-0.4492-0.0869-0.6211-0.2598c-0.3398-0.3438-0.3359-0.8975,0.0078-1.2373
					l127.6992-126.2842c0.3438-0.3398,0.8984-0.3359,1.2383,0.0068c0.3398,0.3438,0.3359,0.8975-0.0078,1.2373l-127.6992,126.2842
					C16547.4609,433.83,16547.2383,433.914,16547.0156,433.914z"/>
				<path fill="#B1F3FF" d="M16611.3281,498.2255c-0.2266,0-0.4531-0.0869-0.623-0.2598c-0.3398-0.3438-0.3379-0.8975,0.0059-1.2373
					l127.7012-126.2851c0.3457-0.3398,0.8984-0.3359,1.2363,0.0068c0.3398,0.3438,0.3379,0.8975-0.0059,1.2373l-127.7012,126.2851
					C16611.7715,498.1415,16611.5508,498.2255,16611.3281,498.2255z"/>
				<path fill="#B1F3FF" d="M16617.8652,504.6777c-0.2246,0-0.4512-0.0869-0.623-0.2598c-0.3398-0.3438-0.3359-0.8975,0.0078-1.2373
					l127.6992-126.2851c0.3457-0.3389,0.8984-0.3359,1.2383,0.0068c0.3398,0.3438,0.3359,0.8975-0.0078,1.2373l-127.6992,126.2851
					C16618.3086,504.5937,16618.0879,504.6777,16617.8652,504.6777z"/>
				<path fill="#B1F3FF" d="M16560.0703,446.8193c-0.2246,0-0.4492-0.0869-0.6211-0.2598
					c-0.3398-0.3438-0.3359-0.8975,0.0078-1.2373l127.6992-126.2852c0.3438-0.3398,0.8984-0.3359,1.2383,0.0068
					c0.3398,0.3438,0.3359,0.8975-0.0078,1.2373l-127.6992,126.2852C16560.5156,446.7353,16560.293,446.8193,16560.0703,446.8193z"
					/>
				<path fill="#B1F3FF" d="M16565.668,453.079c-0.2266,0-0.4531-0.0869-0.623-0.2598c-0.3398-0.3438-0.3379-0.8975,0.0059-1.2373
					l127.6992-126.2851c0.3457-0.3398,0.8984-0.3369,1.2383,0.0068c0.3398,0.3438,0.3359,0.8975-0.0078,1.2373l-127.6992,126.2852
					C16566.1113,452.995,16565.8906,453.079,16565.668,453.079z"/>
				<path fill="#B1F3FF" d="M16572.2051,459.5312c-0.2246,0-0.4512-0.0869-0.623-0.2598c-0.3398-0.3438-0.3359-0.8975,0.0078-1.2373
					l127.6797-126.2851c0.3438-0.3398,0.8984-0.3359,1.2363,0.0068c0.3398,0.3438,0.3379,0.8975-0.0059,1.2373l-127.6797,126.2852
					C16572.6484,459.4472,16572.4277,459.5312,16572.2051,459.5312z"/>
				<path fill="#B1F3FF" d="M16578.7227,465.9628c-0.2266,0-0.4531-0.0869-0.623-0.2598c-0.3398-0.3438-0.3379-0.8975,0.0059-1.2373
					l127.7012-126.2637c0.3457-0.3389,0.8984-0.3359,1.2363,0.0068c0.3398,0.3438,0.3379,0.8975-0.0059,1.2373l-127.7012,126.2637
					C16579.166,465.8788,16578.9453,465.9628,16578.7227,465.9628z"/>
			</g>
		</g>
	</g>
	<path fill="#00C8FF" d="M16644.0176,335.5645c-32.0488,0-58.0508,26.003-58.0508,58.0513c0,32.0482,26.002,58.0512,58.0508,58.0512
		s58.0508-26.003,58.0508-58.0512C16702.0684,361.5675,16676.0664,335.5645,16644.0176,335.5645z M16644.0176,441.54
		c-26.459,0-47.9238-21.4645-47.9238-47.9242c0-26.4598,21.4648-47.9243,47.9238-47.9243s47.9238,21.4645,47.9238,47.9243
		C16691.9414,420.0755,16670.4766,441.54,16644.0176,441.54z"/>
	<polygon fill="#CAF1FE" points="16624.7246,389.3284 16624.7246,393.6158 16641.875,393.6158 16641.875,412.909 
		16646.1602,412.909 16646.1602,393.6158 16663.3105,393.6158 16663.3105,389.3284 16646.1602,389.3284 16646.1602,374.3225 
		16641.875,374.3225 16641.875,389.3284 	"/>
</g>
</svg>
