<?xml version="1.0" encoding="utf-8"?>
<!-- Generator: Adobe Illustrator 19.0.0, SVG Export Plug-In . SVG Version: 6.00 Build 0)  -->
<!DOCTYPE svg PUBLIC "-//W3C//DTD SVG 1.1//EN" "http://www.w3.org/Graphics/SVG/1.1/DTD/svg11.dtd">
<svg version="1.1" id="Brush_x5F_app_x5F_RGB" xmlns="http://www.w3.org/2000/svg" xmlns:xlink="http://www.w3.org/1999/xlink"
	 x="0px" y="0px" viewBox="0 0 240 234" enable-background="new 0 0 240 234" xml:space="preserve">
<g>
	<path fill-rule="evenodd" clip-rule="evenodd" fill="#2E0013" d="M41.8937,7.4536c-28.1311,0-34.6229,16.7447-34.6229,44.8964
		l0.1133,136.6368c0,28.162,8.7794,37.5597,36.9002,37.5597h150.7642c28.1208,0,37.57-9.3976,37.57-37.5493V47.1772
		c0-28.1517-10.5002-39.7236-38.621-39.7236H41.8937z"/>
	<g>
		<g>
			<path fill-rule="evenodd" clip-rule="evenodd" fill="#FF3F94" d="M0,43.05v148.17C0,214.85,18.21,234,41.88,234h155.26
				c23.67,0,42.86-19.15,42.86-42.78V42.78C240,19.15,220.81,0,197.14,0H41.88C18.21,0,0,19.15,0,42.78V43.05z M194.0399,10.1342
				c19.1149-0.0302,35.8504,15.6871,35.8504,34.7717v142.3029c0,19.0544-15.4754,36.657-34.5701,36.657H44.6799
				c-19.0947,0-34.5701-16.2315-34.5701-35.2859L10.0896,46.9223c0-19.0342,15.4653-36.7578,34.5297-36.788H194.0399z"/>
		</g>
		<g>
			<path fill="#FECAE0" d="M119.9999,184c-17.4814,0-34.4131-7.0283-50.3252-20.8896
				C57.1205,152.1738,45.1512,136.9561,34.1,117.877c-0.3145-0.542-0.3145-1.2119,0-1.7539
				c11.0513-19.0791,23.0205-34.2979,35.5747-45.2334C85.5863,57.0283,102.5184,50,119.9999,50
				c17.4731,0,34.4028,7.0283,50.3179,20.8887c12.5625,10.9424,24.5342,26.1611,35.583,45.2344c0.3135,0.542,0.3135,1.2119,0,1.7539
				c-11.0488,19.0732-23.0205,34.292-35.583,45.2334C154.4027,176.9717,137.473,184,119.9999,184z M37.639,117
				c17.063,29.1836,45.0635,63.5,82.3608,63.5s65.2983-34.3164,82.3618-63.5c-17.0625-29.1836-45.0635-63.5-82.3618-63.5
				C82.702,53.5,54.7015,87.8164,37.639,117z"/>
			<g>
				<path fill="#FF3F94" d="M91.9478,150.1644c7.5714,6.4061,17.3576,10.2758,28.0522,10.2758c1.9536,0,3.873-0.1417,5.7584-0.3914
					l-19.7587-34.2231L91.9478,150.1644z"/>
				<path fill="#FF3F94" d="M105.2761,76.0739c-11.5429,4.156-20.8147,13.0577-25.4703,24.3522h39.5301L105.2761,76.0739z"/>
				<path fill="#FF3F94" d="M77.2292,109.2761c-0.4473,2.5004-0.6937,5.0705-0.6937,7.6996c0,9.9884,3.3776,19.183,9.0416,26.5231
					l19.7584-34.2227H77.2292z"/>
				<path fill="#FF3F94" d="M148.0522,83.787C140.4808,77.3809,130.6946,73.5112,120,73.5112c-1.9536,0-3.873,0.1417-5.7584,0.3914
					l19.7587,34.2231L148.0522,83.787z"/>
				<path fill="#FF3F94" d="M162.7708,124.6753c0.4473-2.5005,0.6937-5.0706,0.6937-7.6996c0-9.9884-3.3776-19.183-9.0416-26.5231
					l-19.7585,34.2227H162.7708z"/>
				<path fill="#FF3F94" d="M134.7239,157.8774c11.5428-4.156,20.8147-13.0576,25.4703-24.3522h-39.5301L134.7239,157.8774z"/>
			</g>
		</g>
	</g>
</g>
</svg>
