<?xml version="1.0" encoding="utf-8"?>
<!-- Generator: Adobe Illustrator 22.1.0, SVG Export Plug-In . SVG Version: 6.00 Build 0)  -->
<svg version="1.1" id="pr_x5F_cc_x5F_app_x5F_RGB.svg"
	 xmlns="http://www.w3.org/2000/svg" xmlns:xlink="http://www.w3.org/1999/xlink" x="0px" y="0px" viewBox="0 0 240 234"
	 style="enable-background:new 0 0 240 234;" xml:space="preserve">
<style type="text/css">
	.st0{fill:#BF80FF;}
	.st1{fill:#260D40;}
	.st2{fill:#ECD9FF;}
</style>
<g>
	<path class="st0" d="M197.5,234h-155C19,234,0,215,0,191.5v-149C0,19,19,0,42.5,0h155C221,0,240,19,240,42.5v149
		C240,215,221,234,197.5,234z"/>
	<path class="st1" d="M193.7,224H46.3C26.3,224,10,207.7,10,187.7V46.3C10,26.3,26.3,10,46.3,10h147.3c20.1,0,36.3,16.3,36.3,36.3
		v141.3C230,207.7,213.7,224,193.7,224z"/>
	<g>
		<path class="st2" d="M67.2,162.8c0,0.8-0.3,1.1-1.1,1.1H51.4c-1,0-1.3-0.3-1.3-1.3V59.9c0-0.8,0.3-1.4,1-1.4
			C58.9,58.2,66.2,58,78,58c22.8,0,36.5,10.1,36.5,29.9c0,16.3-10.8,25.3-19.9,28.7c4.6,8,20.2,36.3,25.3,45.9
			c0.5,0.8,0.5,1.4-0.6,1.4h-16.6c-1.1,0-1.6-0.3-1.9-0.8c-3.7-6.4-15.1-28.4-22.5-41.7H67.2V162.8z M76.9,106
			c11.6,0,20.1-4.6,20.1-16.6c0-11.6-7.6-16.9-19.4-16.9c-4.1,0-8.1,0.2-10.4,0.3V106H76.9z"/>
		<path class="st2" d="M189.9,147.8c0,1.1,0.2,4.5,0.5,9.9c0,0.6-0.2,1-0.8,1.1c-8.4,3.2-17.7,6.5-29.5,6.5
			c-14.5,0-28.4-5.6-28.4-27.9V87.3c0-0.8,0.3-1.3,1.1-1.3H148c0.8,0,1.1,0.5,1.1,1.3v48.1c0,9.4,3.7,14.5,13.5,14.5
			c4,0,7.5-0.8,9.9-1.8V87.3c0-0.8,0.3-1.3,1.1-1.3h15.1c1,0,1.1,0.5,1.1,1.3V147.8z"/>
	</g>
</g>
</svg>
