<?xml version="1.0" encoding="iso-8859-1"?>
<!-- Generator: Adobe Illustrator 19.0.1, SVG Export Plug-In . SVG Version: 6.00 Build 0)  -->
<!DOCTYPE svg PUBLIC "-//W3C//DTD SVG 1.1//EN" "http://www.w3.org/Graphics/SVG/1.1/DTD/svg11.dtd">
<svg version="1.1" id="sketch_x5F_app_x5F_RGB.svg" xmlns="http://www.w3.org/2000/svg" xmlns:xlink="http://www.w3.org/1999/xlink"
	 x="0px" y="0px" viewBox="0 0 240 235" style="enable-background:new 0 0 240 235;" xml:space="preserve">
<path style="fill-rule:evenodd;clip-rule:evenodd;fill:#001D26;" d="M41.894,7.454c-28.131,0-34.623,16.745-34.623,44.896
	l0.113,136.637c0,28.162,8.779,37.56,36.9,37.56h150.764c28.121,0,37.57-9.398,37.57-37.549V47.177
	c0-28.152-10.5-39.724-38.621-39.724H41.894z"/>
<path style="fill-rule:evenodd;clip-rule:evenodd;fill:#00C8FF;" d="M0,43.05v148.17C0,214.85,18.21,234,41.88,234h155.26
	c23.67,0,42.86-19.15,42.86-42.78V42.78C240,19.15,220.81,0,197.14,0H41.88C18.21,0,0,19.15,0,42.78V43.05z M194.04,10.134
	c19.115-0.03,35.85,15.687,35.85,34.772v142.303c0,19.054-15.475,36.657-34.57,36.657H44.68c-19.095,0-34.57-16.231-34.57-35.286
	L10.09,46.922c0-19.034,15.465-36.758,34.53-36.788H194.04z"/>
<path style="fill:#00C8FF;" d="M128.436,138.858c-9.928,3.602-8.437,14.819-17.071,14.819c-5.597,0-8.811-6.635-14.833-3.346
	l21.67,37.362l25.267-46.457C143.469,141.236,135.925,136.141,128.436,138.858z"/>
<path style="fill:#CAF1FE;" d="M166.702,56.161c-0.097-0.187-0.419-0.766-0.522-0.935c-9.612-16.033-57.863-3.398-89.511,12.772
	c-0.451,0.23-0.816,0.407-1.185,0.669l-0.01,0.006c-1.659,1.181-2.739,3.104-2.739,5.276c0,3.591,2.951,6.502,6.592,6.502
	c1.231,0,2.384-0.335,3.372-0.915c18.931-9.992,51.401-23.516,69.748-20.7c-24.993,11.282-52.165,31.025-67.998,48.473
	c-0.5,0.653-0.8,1.463-0.8,2.346c0,2.154,1.772,3.902,3.956,3.902c0.685,0,1.33-0.173,1.892-0.476
	c15.833-8.358,44.74-20.142,58.701-15.085c-20.972,10.855-41.737,25.709-55.212,40.117c-0.206,0.232-0.331,0.532-0.331,0.863
	c0,0.717,0.591,1.3,1.318,1.3c0.333,0,0.635-0.121,0.867-0.318c14.503-12.868,39.905-29.286,59.82-39.371l0.137-0.081
	c0.915-0.409,1.554-1.314,1.554-2.37c0-0.52-0.145-0.973-0.411-1.379l-0.01-0.03c-5.095-8.739-31.168-7.012-53.005,3.972
	c15.235-13.665,42.594-27.778,61.424-37.696c0.062-0.03,0.222-0.117,0.24-0.127l0,0C166.938,61.54,167.964,58.584,166.702,56.161z"
	/>
</svg>
