<?xml version="1.0" encoding="iso-8859-1"?>
<!-- Generator: Adobe Illustrator 19.1.0, SVG Export Plug-In . SVG Version: 6.00 Build 0)  -->
<!DOCTYPE svg PUBLIC "-//W3C//DTD SVG 1.1//EN" "http://www.w3.org/Graphics/SVG/1.1/DTD/svg11.dtd">
<svg version="1.1" id="draw_x5F_app_x5F_RGB.svg" xmlns="http://www.w3.org/2000/svg" xmlns:xlink="http://www.w3.org/1999/xlink"
	 x="0px" y="0px" viewBox="0 0 240 235" style="enable-background:new 0 0 240 235;" xml:space="preserve">
<path style="fill-rule:evenodd;clip-rule:evenodd;fill:#261300;" d="M42.91,8.8787c-27.765,0-34.1723,16.5268-34.1723,44.3121
	l0.1119,134.8586c0,27.7955,8.6651,37.0709,36.42,37.0709h148.8022c27.7548,0,37.081-9.2753,37.081-37.0607V48.0853
	c0-27.7854-10.3636-39.2066-38.1184-39.2066H42.91z"/>
<path style="fill-rule:evenodd;clip-rule:evenodd;fill:#FF7C00;" d="M0.0005,43.0495v148.17c0,23.63,18.21,42.78,41.88,42.78h155.26
	c23.67,0,42.86-19.15,42.86-42.78v-148.44c0-23.63-19.19-42.78-42.86-42.78h-155.26c-23.67,0-41.88,19.15-41.88,42.78V43.0495z
	 M194.0404,10.1338c19.1149-0.0302,35.8504,15.6871,35.8504,34.7717v142.3029c0,19.0544-15.4754,36.657-34.5701,36.657H44.6804
	c-19.0947,0-34.5701-16.2315-34.5701-35.2859L10.0901,46.9218c0-19.0342,15.4653-36.7578,34.5297-36.788H194.0404z"/>
<path style="fill-rule:evenodd;clip-rule:evenodd;fill:#FF7C00;" d="M135.7745,62h-21.5098c0,10-15.2824,28.7226-20.3173,32.9826
	L121.6221,147H122v-35.2421c-3-1.1225-5.0639-4.0625-5.0639-7.5149c0-4.4175,3.5505-7.9999,7.968-7.9999
	c4.4175,0,8.2354,3.5825,8.2354,7.9999c0,3.4525-2.1395,6.3924-5.1395,7.5149V147h0.622l27.4973-51.8849
	C150.0769,91.6151,135.7745,74,135.7745,62z"/>
<path style="fill-rule:evenodd;clip-rule:evenodd;fill:#FEE4CA;" d="M190.514,61.8033c-0.9925-0.5525-2.2425-0.1975-2.795,0.8
	l-62.777,113.0891L65.07,67.6158c-2.255-3.8275-4.4225-6.065-8.0574-6.07c-4.6425-0.0075-8.4049,3.8-8.4049,8.4849
	c0,2.3,0.5525,3.3825,2.3275,5.865c1.7775,2.4825,72.2494,105.2192,72.2494,105.2192l0.03,0.0425l0.01,0.0125
	c0.1725,0.2525,0.3975,0.4725,0.68,0.63c0.315,0.1775,0.66,0.26,0.9975,0.26c0.72,0,1.42-0.38,1.7975-1.0575L191.309,64.6083
	C191.8615,63.6133,191.504,62.3583,190.514,61.8033z"/>
</svg>
