<?xml version="1.0" encoding="utf-8"?>
<!-- Generator: Adobe Illustrator 18.1.1, SVG Export Plug-In . SVG Version: 6.00 Build 0)  -->
<!DOCTYPE svg PUBLIC "-//W3C//DTD SVG 1.1//EN" "http://www.w3.org/Graphics/SVG/1.1/DTD/svg11.dtd">
<svg version="1.1" id="mnemonic" xmlns="http://www.w3.org/2000/svg" xmlns:xlink="http://www.w3.org/1999/xlink" x="0px" y="0px"
	 viewBox="0 0 240 234" enable-background="new 0 0 240 234" xml:space="preserve">
<g>
	<defs>
		<path id="SVGID_1_" d="M42.7,8.6C14.9,8.6,8.5,25.2,8.5,53l0.1,135.2c0,27.9,8.7,37.2,36.5,37.2h149.2c27.8,0,37.2-9.3,37.2-37.2
			V47.9c0-27.9-10.4-39.3-38.2-39.3H42.7z"/>
	</defs>
	<clipPath id="SVGID_2_">
		<use xlink:href="#SVGID_1_"  overflow="visible"/>
	</clipPath>
	<radialGradient id="SVGID_3_" cx="97.5811" cy="81.0802" r="144.263" gradientUnits="userSpaceOnUse">
		<stop  offset="0" style="stop-color:#28254A;stop-opacity:0.8833"/>
		<stop  offset="0.9833" style="stop-color:#03042B"/>
	</radialGradient>
	
		<rect x="9.4" y="9.4" clip-path="url(#SVGID_2_)" fill-rule="evenodd" clip-rule="evenodd" fill="url(#SVGID_3_)" width="221.3" height="215.2"/>
</g>
<path fill-rule="evenodd" clip-rule="evenodd" fill="#AAA0FF" d="M0,43.1v148.2C0,214.9,18.2,234,41.9,234h155.3
	c23.7,0,42.9-19.2,42.9-42.8V42.8C240,19.2,220.8,0,197.1,0H41.9C18.2,0,0,19.2,0,42.8V43.1z M194,10.1c19.1,0,35.9,15.7,35.9,34.8
	v142.3c0,19.1-15.5,36.7-34.6,36.7H44.7c-19.1,0-34.6-16.2-34.6-35.3l0-141.7c0-19,15.5-36.8,34.5-36.8H194z"/>
<polygon fill="#AAA0FF" points="135.7,55.4 65.4,125.7 56.5,161.6 92.3,152.6 162.6,82.3 "/>
<path fill="#DDD8FF" d="M140.7,179.6c-0.7,0-1.4,0-2.2-0.1c-4-0.5-6.9-3.4-8.3-8c-0.1-0.4-0.2-0.7-0.3-1.1
	c-9.6,5.1-21.3,8.7-33.1,8.7H60.5c-1.1,0-2-0.9-2-2s0.9-2,2-2h36.3c12,0,23.5-3.8,32.6-8.8c-0.5-9,3-20,8.5-24.7
	c3.4-2.9,7.3-3.4,11.2-1.6c3.2,1.5,4.5,4.5,3.7,8.2c-1.4,6.1-8.7,13.9-19.1,20.2c0.1,0.7,0.3,1.4,0.5,2c1,3.2,2.6,4.9,5,5.2
	c8.9,1.1,16.8-7.3,21.5-12.2c2.9-3.1,4.2-4.5,5.9-4.2c0.8,0.1,1.4,0.6,1.8,1.3c0.8,1.5,0,3.2-1.4,6.2c-1.1,2.4-3.2,6.9-2.3,8.3
	c0.3,0.5,1.2,0.7,2.5,0.7c0,0,0,0,0,0c2.7,0,10.9-6.1,11.6-8.2c0.3-1.1,1.4-1.6,2.5-1.3c1.1,0.3,1.6,1.4,1.3,2.5
	c-1.2,4-11,11-15.4,11c0,0,0,0,0,0c-2.8,0-4.8-0.9-5.9-2.6c-1.6-2.6-0.6-6.1,0.8-9.4C157.1,172.7,149.7,179.6,140.7,179.6z
	 M144.5,142.8c-1.4,0-2.8,0.6-4.1,1.7c-4.1,3.5-7,12-7.2,19.3c8.7-5.6,14.5-12.1,15.5-16.6c0.5-2.4-0.5-3.2-1.5-3.7
	C146.3,143.1,145.4,142.8,144.5,142.8z"/>
</svg>
