<svg xmlns="http://www.w3.org/2000/svg" viewBox="-0.5 -0.5 889 864"><g pointer-events="none"><path fill="#21a366" d="M551.5 53H263.97C244.11 53 228 69.11 228 88.99v152.85l323.5 188.88L713.25 499 875 430.72V241.84L551.5 53"/><path fill="#107c41" d="M228 430h323V242H228v188"/><path fill="#33c481" d="M839.11 53H552v188h323V88.81C875 69.03 858.93 53 839.11 53"/><path fill="#185c37" d="M551.5 431H228v341.11c0 9.52 3.79 18.65 10.54 25.38 6.74 6.73 15.89 10.51 25.43 10.51h575.06c9.54 0 18.69-3.78 25.43-10.51 6.75-6.73 10.54-15.86 10.54-25.38V619.5L551.5 431"/><path fill="#107c41" d="M552 619h323V431H552v188"/><path fill-opacity=".1" d="M461.14 188H228v512h233.14c19.78-.06 35.8-16.12 35.86-35.94V223.94c-.06-19.82-16.08-35.88-35.86-35.94"/><path fill-opacity=".2" d="M434.14 215H228v512h206.14c19.78-.05 35.8-16.11 35.86-35.94V250.94c-.06-19.83-16.08-35.89-35.86-35.94"/><path fill-opacity=".2" d="M434.14 215H228v458h206.14c19.77-.05 35.78-16.09 35.86-35.91V250.91c-.08-19.82-16.09-35.86-35.86-35.91"/><path fill-opacity=".2" d="M407.16 215H228v458h179.16c19.76-.06 35.76-16.1 35.84-35.91V250.91c-.08-19.81-16.08-35.85-35.84-35.91"/><path fill="#107c41" d="M48.9 215h359.2c9.52 0 18.65 3.78 25.38 10.52 6.74 6.73 10.52 15.86 10.52 25.38v359.2c0 9.52-3.78 18.65-10.52 25.38-6.73 6.74-15.86 10.52-25.38 10.52H48.9c-9.52 0-18.65-3.78-25.38-10.52C16.78 628.75 13 619.62 13 610.1V250.9c0-9.52 3.78-18.65 10.52-25.38C30.25 218.78 39.38 215 48.9 215"/><path fill="#fff" d="M108 565l87.29-134.88L115.33 296h64.34l43.65 85.73q6.02 12.19 8.29 18.18h.55q4.34-9.73 9.04-18.93L287.86 296h59.07l-82.01 133.37L349 565h-62.83l-50.42-94.18c-2.38-3.99-4.4-8.2-6.02-12.56h-.75c-1.48 4.27-3.43 8.36-5.83 12.19L171.21 565H108"/></g></svg>