<?xml version="1.0" encoding="UTF-8"?>
<svg width="24" height="24" viewBox="0 0 24 24" fill="none" x="2982" y="960"
    xmlns="http://www.w3.org/2000/svg">
    <path
        d="M21.0343 10.001H16.8733L15.7123 10.94V15.597C15.7123 17.326 17.1133 18.728 18.8423 18.728C20.5723 18.728 21.9733 17.326 21.9733 15.597V10.94C21.9733 10.422 21.5533 10.001 21.0343 10.001Z"
        fill="#5059C9" />
    <path
        d="M22 7C22 8.104 21.105 9 20 9C18.895 9 18 8.104 18 7C18 5.896 18.895 5 20 5C21.105 5 22 5.896 22 7Z"
        fill="#5059C9" />
    <path
        d="M9.8921 10.0044H17.0961C17.5921 10.0044 17.9941 10.4064 17.9941 10.9024V16.5944C17.9941 19.0304 16.0201 21.0044 13.5841 21.0044H13.4041C10.9681 21.0044 8.9941 19.0304 8.9941 16.5944V10.9024C8.9941 10.4064 9.3961 10.0044 9.8921 10.0044Z"
        fill="#7B83EB" />
    <path
        d="M16.9066 5.99977C16.9066 7.60477 15.6056 8.90677 13.9996 8.90677C12.3946 8.90677 11.0936 7.60477 11.0936 5.99977C11.0936 4.39477 12.3946 3.09277 13.9996 3.09277C15.6056 3.09277 16.9066 4.39477 16.9066 5.99977Z"
        fill="#7B83EB" />
    <path opacity="0.5" fill-rule="evenodd" clip-rule="evenodd"
        d="M15.0001 8.68149V8.00049C15.0001 7.45049 14.5281 7.00049 13.9511 7.00049H11.2711C11.6881 8.09449 12.7391 8.87549 13.9801 8.87549C14.3401 8.87549 14.6821 8.80149 15.0001 8.68149ZM8.9941 10.9025C8.9941 10.4065 9.3961 10.0045 9.8921 10.0045H15.0001V17.8395C15.0001 18.3895 14.3821 19.0005 13.7451 19.0005H9.7151C9.2621 18.3075 8.9941 17.4835 8.9941 16.5945V10.9025Z"
        fill="black" />
    <path
        d="M3 18C2.45 18 2 17.55 2 17V7C2 6.45 2.45 6 3 6H13C13.55 6 14 6.45 14 7V17C14 17.55 13.55 18 13 18H3Z"
        fill="#4B53BC" />
    <path d="M11.0001 9.99982H8.83511V15.8198H7.41211V9.99982H5.23511V8.56982H11.0001V9.99982Z"
        fill="white" />
</svg>