<svg xmlns="http://www.w3.org/2000/svg" viewBox="-0.5 -0.5 845 576"><g pointer-events="none"><path fill="#0364b8" d="M317.96 162.64v-.03L498.95 271l107.84-45.38v.02c21.91-9.47 45.53-14.34 69.4-14.32 3.99 0 7.92.19 11.81.44C661.52 108.48 576.61 30.54 471.43 12.97 366.25-4.59 260.61 41.53 202 130.6c.92-.03 1.85-.08 2.77-.08 39.99-.05 79.19 11.07 113.19 32.12"/><path fill="#0078d4" d="M317.97 162.14v.03c-34.01-21.08-73.24-32.23-113.24-32.17-.93 0-1.8.07-2.72.07-79.81.98-152.53 46.02-189.01 117.04-36.48 71.02-30.74 156.4 14.92 221.89l159.6-67.22 70.96-29.87 158-66.55L499 270.62 317.97 162.14"/><path fill="#1490df" d="M688.41 211.44c-3.92-.26-7.87-.44-11.86-.44-23.91-.02-47.57 4.85-69.52 14.32v-.03L499 270.65l31.34 18.7L633 350.71l44.82 26.78L831 469c28.29-52.37 27.96-115.49-.87-167.57-28.83-52.07-82.22-85.97-141.72-89.99"/><path fill="#28a8ea" d="M676.95 378.09l-44.73-26.83-102.62-61.49L498.36 271l-82.55 34.77-158.11 66.59-70.98 29.88L27 469.52c40.28 57.97 106.36 92.51 176.9 92.48h471.84c64.44.01 123.69-35.39 154.26-92.16l-153.05-91.75"/></g></svg>