<svg xmlns="http://www.w3.org/2000/svg" viewBox="-0.5 -0.5 890 877"><g pointer-events="none"><path fill="#ca64ea" d="M263.97 66h575.06C858.89 66 875 82.09 875 101.94v683.12c0 9.53-3.79 18.67-10.54 25.41-6.74 6.74-15.89 10.53-25.43 10.53H263.97c-19.86 0-35.97-16.09-35.97-35.94V101.94C228 82.09 244.11 66 263.97 66"/><path fill="#ca64ea" d="M875 101.94C875 82.09 858.89 66 839.03 66H263.97C244.11 66 228 82.09 228 101.94v683.12c0 19.85 16.11 35.94 35.97 35.94h422.3L875 254.75V101.94"/><path fill="#ae4bd5" d="M875 255H687v188.82L781 530l94-86.18V255"/><path fill="#9332bf" d="M875 444H687v188.55L781 724l94-91.45V444"/><path fill="#7719aa" d="M687.18 633.26H876v152.82c0 19.84-16.11 35.92-35.99 35.92H687.18V633.26"/><path fill-opacity=".1" d="M461.14 201H228v512h233.14c19.78-.06 35.8-16.12 35.86-35.94V236.94c-.06-19.82-16.08-35.88-35.86-35.94"/><path fill-opacity=".2" d="M434.14 228H228v512h206.14c19.78-.05 35.8-16.11 35.86-35.94V263.94c-.06-19.83-16.08-35.89-35.86-35.94"/><path fill-opacity=".3" d="M434.14 228H228v458h206.14c19.77-.05 35.78-16.09 35.86-35.91V263.91c-.08-19.82-16.09-35.86-35.86-35.91"/><path fill-opacity=".2" d="M407.16 228H228v458h179.16c19.76-.06 35.76-16.1 35.84-35.91V263.91c-.08-19.81-16.08-35.85-35.84-35.91"/><path fill="#7719aa" d="M48.9 228h359.2c9.52 0 18.65 3.78 25.38 10.52 6.74 6.73 10.52 15.86 10.52 25.38v359.2c0 9.52-3.78 18.65-10.52 25.38-6.73 6.74-15.86 10.52-25.38 10.52H48.9c-9.52 0-18.65-3.78-25.38-10.52C16.78 641.75 13 632.62 13 623.1V263.9c0-9.52 3.78-18.65 10.52-25.38C30.25 231.78 39.38 228 48.9 228"/><path fill="#fff" d="M120 309h57.25l98.3 181.09q7.68 11.7 11.53 18.83h.73c-1.38-11.84-1.92-23.76-1.64-35.67V309H335v269h-53.6L178.89 399.68c-3.94-5.89-7.43-12.07-10.43-18.48h-.9c1.18 13.02 1.67 26.09 1.46 39.17V578H120V309"/></g></svg>