<svg xmlns="http://www.w3.org/2000/svg" viewBox="-0.5 -0.5 890 864"><g pointer-events="none"><path fill="#0364b8" d="M783.16 53H319.84C298.94 53 282 69.87 282 90.67v42.83L543.15 214 821 133.5V90.67c0-9.99-3.99-19.57-11.08-26.64C802.82 56.97 793.2 53 783.16 53"/><path fill="#0a2767" d="M865.55 468.5c3.96-12.41 7.12-25.06 9.45-37.87-.01-6.42-3.44-12.34-8.99-15.54l-.33-.23-.13-.04-292.18-166.39c-1.25-.81-2.55-1.55-3.88-2.22-11.33-5.63-24.65-5.63-35.98 0-1.33.67-2.63 1.41-3.88 2.22L237.45 414.82l-.13.04-.33.23c-5.55 3.2-8.98 9.12-8.99 15.54 2.34 12.81 5.49 25.46 9.45 37.87L547.23 695l318.32-226.5"/><path fill="#28a8ea" d="M660.24 134H471.47L417 214.75l54.47 80.75L660.24 457H822V295.5L660.24 134"/><path fill="#0078d4" d="M282 295h188V134H282v161"/><path fill="#50d9ff" d="M660 295h161V134H660v161"/><path fill="#0364b8" d="M659.63 457.68L470.84 296H282v161.68l188.84 161.68L763 667 659.63 457.68"/><path fill="#0078d4" d="M471 457h188V296H471v161"/><path fill="#064a8c" d="M282 619h188V458H282v161"/><path fill="#0078d4" d="M660 619h161V458H660v161"/><path fill="#0a2767" fill-opacity=".5" d="M557.01 680L239 448.24l13.36-23.42s289.67 164.91 294.12 167.4c3.67 1.46 7.77 1.34 11.35-.34C561.97 589.56 852.64 424 852.64 424L866 447.42 557.01 680"/><path fill="#1490df" d="M867 446.58l-.34.18-.11.08-292.16 166.57c-11.82 7.61-26.73 8.53-39.39 2.44l101.75 136.53 222.54 48.51v.11c10.51-7.61 16.72-19.8 16.71-32.78V431c0 6.43-3.43 12.37-9 15.58"/><path fill-opacity=".05" d="M876 768.25v-19.9L606.85 595l-32.46 18.52c-11.81 7.61-26.73 8.54-39.39 2.45l101.75 136.46 222.54 48.45v.12c10.5-7.6 16.72-19.79 16.71-32.75"/><path fill-opacity=".1" d="M875 778.66L579.68 611l-5.27 2.98c-11.81 7.61-26.74 8.53-39.41 2.45l101.86 136.12 222.77 48.34v.11c7.55-5.47 12.98-13.36 15.37-22.34"/><path fill="#28a8ea" d="M237.45 446.87v-.26h-.31l-.76-.53c-5.26-3.2-8.44-8.93-8.38-15.08v336.62c-.01 10.72 4.25 21 11.84 28.57 7.58 7.58 17.88 11.83 28.61 11.81h565.86c3.36-.04 6.71-.49 9.96-1.36 1.69-.29 3.32-.83 4.85-1.62a3.57 3.57 0 0 0 1.64-.53c2.19-.9 4.26-2.08 6.17-3.5.5-.27.82-.27 1.07-.79L237.45 446.87"/><path fill-opacity=".1" d="M497 664.06V223.94c-.06-19.82-16.08-35.88-35.86-35.94H282.63v200.91l-45.22 25.8-.1.05-.33.21c-5.54 3.21-8.96 9.14-8.98 15.56v.11-.11V700h233.14c19.78-.06 35.8-16.12 35.86-35.94"/><path fill-opacity=".2" d="M470 691.06V250.94c-.06-19.83-16.08-35.89-35.86-35.94H282.62V388.98l-45.21 25.8-.09.05-.34.21c-5.55 3.2-8.98 9.14-8.98 15.56v.11-.11V727h206.14c19.78-.05 35.8-16.11 35.86-35.94"/><path fill-opacity=".2" d="M470 637.09V250.91c-.08-19.82-16.09-35.86-35.86-35.91H282.62v173.95l-45.21 25.78-.09.05-.34.23c-5.55 3.19-8.98 9.11-8.98 15.52v.14-.14V673h206.14c19.77-.05 35.78-16.09 35.86-35.91"/><path fill-opacity=".2" d="M443 637.09V250.91c-.08-19.81-16.08-35.85-35.84-35.91H282.59v173.95l-45.17 25.78-.11.05-.34.23c-5.55 3.19-8.97 9.11-8.97 15.52v.14-.14V673h179.16c19.76-.06 35.76-16.1 35.84-35.91"/><path fill="#0078d4" d="M48.9 215h359.2c9.52 0 18.65 3.78 25.38 10.52 6.74 6.73 10.52 15.86 10.52 25.38v359.2c0 9.52-3.78 18.65-10.52 25.38-6.73 6.74-15.86 10.52-25.38 10.52H48.9c-9.52 0-18.65-3.78-25.38-10.52C16.78 628.75 13 619.62 13 610.1V250.9c0-9.52 3.78-18.65 10.52-25.38C30.25 218.78 39.38 215 48.9 215"/><path fill="#fff" d="M117 362.39c9.56-20.31 24.99-37.3 44.3-48.8 21.39-12.21 45.75-18.3 70.39-17.59 22.83-.5 45.36 5.27 65.12 16.68 18.58 11.05 33.55 27.25 43.09 46.62 10.38 21.34 15.56 44.84 15.1 68.56.51 24.8-4.82 49.37-15.56 71.75-9.74 20.07-25.17 36.85-44.38 48.25-20.53 11.77-43.9 17.7-67.57 17.14-23.32.55-46.34-5.28-66.57-16.87-18.74-11.06-33.89-27.27-43.64-46.69-10.45-21.05-15.69-44.29-15.28-67.77-.46-24.58 4.67-48.95 15-71.28m47.21 114.54c5.09 12.84 13.73 23.98 24.92 32.12a65.1084 65.1084 0 0 0 38.91 11.7c14.81.57 29.39-3.67 41.57-12.08 11.05-8.14 19.46-19.34 24.19-32.2 5.31-14.33 7.92-29.51 7.72-44.79.17-15.42-2.28-30.75-7.27-45.35-4.4-13.14-12.51-24.74-23.37-33.38-11.86-8.83-26.41-13.31-41.19-12.7-14.2-.35-28.15 3.78-39.85 11.81-11.39 8.16-20.22 19.38-25.45 32.36-11.58 29.74-11.64 62.72-.18 92.51"/></g></svg>