<svg xmlns="http://www.w3.org/2000/svg" viewBox="-0.5 -0.5 889 864"><g pointer-events="none"><path fill="#ed6c47" d="M497.29 53C289.17 53.6 120.6 222.17 120 430.29L598 531 497.29 53"/><path fill="#ff8f6b" d="M498 53c207.97.6 376.42 169.35 377 377.68L686.5 559 498 430.68V53"/><path fill="#d35230" d="M497.5 808c208.24-.62 376.9-169.05 377.5-377H120c.6 207.95 169.26 376.38 377.5 377"/><path fill-opacity=".1" d="M462.03 188H209.67C81.78 338.63 92.77 562.6 234.78 700h227.25c19.84-.04 35.91-16.1 35.97-35.94V223.94c-.06-19.84-16.13-35.9-35.97-35.94"/><path fill-opacity=".2" d="M435.09 215H189.25c-115.33 163.73-81.57 389.26 76.64 512h169.2c19.81-.06 35.85-16.12 35.91-35.94V250.94c-.06-19.82-16.1-35.88-35.91-35.94"/><path fill-opacity=".2" d="M435.05 215H189.04c-98.42 139.51-89.91 327.92 20.68 458h225.33c19.82-.06 35.87-16.09 35.95-35.91V250.91c-.08-19.82-16.13-35.85-35.95-35.91"/><path fill-opacity=".2" d="M408.08 215H189.06C90.62 354.5 99.12 542.91 209.7 673h198.38c19.81-.07 35.84-16.1 35.92-35.91V250.91c-.08-19.81-16.11-35.84-35.92-35.91"/><path fill="#c43e1c" d="M48.9 215h359.2c9.52 0 18.65 3.78 25.38 10.52 6.74 6.73 10.52 15.86 10.52 25.38v359.2c0 9.52-3.78 18.65-10.52 25.38-6.73 6.74-15.86 10.52-25.38 10.52H48.9c-9.52 0-18.65-3.78-25.38-10.52C16.78 628.75 13 619.62 13 610.1V250.9c0-9.52 3.78-18.65 10.52-25.38C30.25 218.78 39.38 215 48.9 215"/><path fill="#f9f7f7" d="M227.87 296c26.57-1.78 52.91 5.89 74.34 21.65 17.81 15.84 27.32 38.97 25.79 62.71.3 15.21-4.16 30.14-12.75 42.72-8.76 13.89-21.35 24.97-36.28 31.9-17.05 7.9-35.69 11.8-54.49 11.4h-51.59V565H120V296h107.87m-54.98 125.97h45.54c14.43 1.06 28.74-3.19 40.24-11.94 9.31-5.98 14.55-16.6 13.61-27.6q0-44.63-52.15-44.63h-47.24v84.17"/></g></svg>