<svg xmlns="http://www.w3.org/2000/svg" viewBox="-0.5 -0.5 890 889"><g pointer-events="none"><path fill="#036c70" d="M161 269c0 141.38 114.62 256 256 256s256-114.62 256-256S558.38 13 417 13 161 127.62 161 269"/><path fill="#1a9ba1" d="M438 495c0 120.95 98.05 219 219 219s219-98.05 219-219-98.05-219-219-219-219 98.05-219 219"/><path fill="#37c6d0" d="M269 700c0 96.65 78.35 175 175 175s175-78.35 175-175-78.35-175-175-175-175 78.35-175 175"/><path fill-opacity=".1" d="M462.05 201H170c-20.94 76.98-4.81 159.33 43.63 222.73 48.45 63.39 123.68 100.61 203.49 100.65 7.47 0 14.85-.36 22.17-.97l.16 1.02c-94.94 2.51-170.6 80.17-170.59 175.1q0 6.81.49 13.47h192.7c19.83-.05 35.89-16.11 35.95-35.94V236.94c-.06-19.83-16.12-35.89-35.95-35.94"/><path fill-opacity=".2" d="M435.05 228H164c-11.78 74.01 9.46 149.47 58.14 206.49 48.68 57.01 119.91 89.87 194.92 89.91 7.46 0 14.86-.31 22.17-.92l.15 1.02c-52.77 1.42-102.1 26.51-134.3 68.31-32.19 41.8-43.84 95.86-31.7 147.19h161.67c19.83-.07 35.89-16.12 35.95-35.94V263.94c-.06-19.82-16.12-35.87-35.95-35.94"/><path fill-opacity=".2" d="M435.05 228H164c-11.81 74 9.43 149.45 58.11 206.47 48.68 57.01 119.93 89.87 194.95 89.9 7.46 0 14.86-.36 22.17-1.01l.15 1.06C349.6 526.79 276.13 596.55 269.21 686h165.84c19.82-.07 35.87-16.1 35.95-35.91V263.91c-.08-19.81-16.13-35.84-35.95-35.91"/><path fill-opacity=".2" d="M408.05 228H164c-11.81 74 9.42 149.45 58.1 206.46 48.67 57.01 119.9 89.87 194.91 89.91 7.5 0 14.89-.36 22.2-1.01l.14 1.06C349.58 526.79 276.12 596.55 269.2 686h138.85c19.82-.06 35.87-16.1 35.95-35.91V263.91c-.08-19.81-16.13-35.85-35.95-35.91"/><path fill="#03787c" d="M48.9 228h359.2c9.52 0 18.65 3.78 25.38 10.52 6.74 6.73 10.52 15.86 10.52 25.38v359.2c0 9.52-3.78 18.65-10.52 25.38-6.73 6.74-15.86 10.52-25.38 10.52H48.9c-9.52 0-18.65-3.78-25.38-10.52C16.78 641.75 13 632.62 13 623.1V263.9c0-9.52 3.78-18.65 10.52-25.38C30.25 231.78 39.38 228 48.9 228"/><path fill="#fff" d="M165.84 438.79a71.356 71.356 0 0 1-22.13-23.4c-5.34-9.81-8-20.85-7.71-32.01-.47-15.11 4.63-29.86 14.32-41.45 10.19-11.61 23.36-20.21 38.09-24.86 16.79-5.53 34.38-8.25 52.06-8.07 23.24-.85 46.45 2.4 68.56 9.6v48.45c-9.61-5.84-20.08-10.12-31.02-12.7-11.87-2.92-24.04-4.38-36.26-4.35-12.89-.47-25.69 2.24-37.28 7.88-8.95 3.86-14.75 12.66-14.78 22.41-.06 5.9 2.18 11.59 6.25 15.87 4.84 5.01 10.56 9.09 16.87 12.05q10.62 5.27 31.66 13.99c1.55.48 3.07 1.08 4.53 1.8 13.84 5.41 27.19 12 39.9 19.69 9.63 5.94 17.71 14.08 23.57 23.75 6.05 10.95 9 23.33 8.53 35.83.68 15.52-4.07 30.79-13.43 43.18-9.34 11.39-21.83 19.78-35.91 24.13-16.54 5.17-33.8 7.68-51.13 7.42-15.53.06-31.04-1.21-46.35-3.82-12.95-2.05-25.59-5.7-37.64-10.87v-51.16c11.53 8.24 24.43 14.38 38.09 18.16 13.57 4.22 27.68 6.47 41.9 6.69 13.17.84 26.31-1.95 38-8.07 8.12-4.66 13.03-13.39 12.78-22.75.06-6.54-2.52-12.82-7.16-17.43-5.78-5.66-12.46-10.31-19.77-13.78q-12.6-6.35-37.26-16.67c-13.04-5.25-25.53-11.79-37.28-19.51"/></g></svg>