<svg xmlns="http://www.w3.org/2000/svg" viewBox="-0.5 -0.5 889 864"><g pointer-events="none"><path fill="#7b83eb" d="M345 160.5c0 69.31 56.19 125.5 125.5 125.5S596 229.81 596 160.5 539.81 35 470.5 35 345 91.19 345 160.5"/><path fill-opacity=".1" d="M462.01 188H348q.27 1.26.57 2.52l.06.21c.18.76.38 1.53.57 2.3C366.42 258.3 432.03 298.42 498 284v-60.04c-.06-19.84-16.14-35.9-35.99-35.96"/><path fill-opacity=".2" d="M434.27 215H357c20.7 43.37 64.69 71.01 113 71v-35.5c-.06-19.58-16.02-35.44-35.73-35.5"/><path fill="#5059c9" d="M660 201c0 51.91 42.09 94 94 94s94-42.09 94-94-42.09-94-94-94-94 42.09-94 94M834.65 323H623.19c-4.56 0-8.93 1.82-12.16 5.05-3.22 3.23-5.03 7.61-5.03 12.18v218.69C604.8 624.14 649.29 681.3 712.69 696c39.68 8.35 81.01-1.68 112.5-27.29C856.68 643.1 874.98 604.64 875 564V363.43c0-22.33-18.07-40.43-40.35-40.43"/><path fill="#7b83eb" d="M686 363.45v256.19c.05 97.6-65.42 183.06-159.59 208.34-94.18 25.27-193.58-15.94-242.32-100.47-5.17-8.63-9.66-17.65-13.44-26.97-3.55-8.79-6.53-17.8-8.93-26.97-4.43-17.64-6.68-35.75-6.72-53.93V363.45c-.01-10.74 4.24-21.04 11.83-28.63 7.58-7.59 17.87-11.84 28.6-11.82h350.19c10.71-.01 20.99 4.25 28.57 11.84 7.57 7.58 11.82 17.88 11.81 28.61"/><path fill-opacity=".2" d="M434.27 215H357c20.7 43.37 64.69 71.01 113 71v-35.5c-.06-19.58-16.02-35.44-35.73-35.5"/><path fill-opacity=".1" d="M497 323v341.18c-.01 16.73-11.66 31.18-27.98 34.73-2.52.77-5.15 1.14-7.79 1.09H270.58c-3.5-8.78-6.46-17.77-8.85-26.92-4.44-17.61-6.7-35.71-6.73-53.87V363.38c-.01-10.72 4.24-21 11.81-28.58 7.57-7.57 17.83-11.82 28.53-11.8H497"/><path fill-opacity=".2" d="M470 323v368.17c.04 2.65-.32 5.29-1.07 7.83-3.55 16.33-17.98 27.99-34.66 28H284.03c-5.18-8.62-9.67-17.63-13.44-26.95-3.52-8.77-6.48-17.76-8.86-26.9-4.44-17.62-6.7-35.72-6.73-53.9V363.4c-.01-10.72 4.23-21.01 11.8-28.59 7.56-7.58 17.82-11.83 28.51-11.81H470"/><path fill-opacity=".2" d="M470 323v314.19c-.1 19.74-16.04 35.72-35.73 35.81H261.73c-4.44-17.6-6.7-35.68-6.73-53.83V363.39c-.02-10.71 4.22-20.99 11.79-28.57 7.56-7.58 17.82-11.83 28.52-11.82H470"/><path fill-opacity=".2" d="M295.29 323c-10.69-.02-20.95 4.24-28.51 11.81-7.56 7.58-11.8 17.86-11.78 28.58v255.78c.03 18.15 2.29 36.23 6.71 53.83h145.57c19.68-.08 35.62-16.06 35.72-35.81V323H295.29"/><path fill="#4b53bc" d="M48.9 215h359.2c9.52 0 18.65 3.78 25.38 10.52 6.74 6.73 10.52 15.86 10.52 25.38v359.2c0 9.52-3.78 18.65-10.52 25.38-6.73 6.74-15.86 10.52-25.38 10.52H48.9c-9.52 0-18.65-3.78-25.38-10.52C16.78 628.75 13 619.62 13 610.1V250.9c0-9.52 3.78-18.65 10.52-25.38C30.25 218.78 39.38 215 48.9 215"/><path fill="#fff" d="M335 349.05h-80.36V565h-52.81V349.05H121V296h214v53.05"/></g></svg>