<svg xmlns="http://www.w3.org/2000/svg" viewBox="-0.5 -0.5 877 871"><g pointer-events="none"><path fill="#28a8ea" d="M323.97 265.52c-3.38-3.6-4.01-9-1.55-13.29.48-.81 1.05-1.56 1.71-2.23L554.01 19.58c4.32-4.31 10.22-6.68 16.33-6.56 6.11.12 11.91 2.72 16.06 7.2C653.86 93.21 702.47 181.59 728 277.68L588.85 435l-206.92-64.86c-10.57-39.06-30.45-74.96-57.96-104.62"/><path fill="#0078d4" d="M838.33 272.5c-1.39-5.91-5.12-10.99-10.33-14.1-5.21-3.11-11.45-3.98-17.31-2.4L382 370.51c11.42 42.7 11.46 87.65.09 130.36L525.07 679l203.49-84.98 82.03 22.04c5.85 1.57 12.1.72 17.3-2.38 5.21-3.1 8.94-8.18 10.35-14.08 24.98-107.6 25.01-219.49.09-327.1"/><path fill="#0358a7" d="M382.52 501c-10.41 38.92-30.1 74.73-57.39 104.38-4.22 4.42-4.15 11.41.17 15.73l229.79 229.34c4.32 4.3 10.21 6.67 16.31 6.56 6.1-.12 11.89-2.7 16.05-7.17 67.3-72.48 115.89-160.28 141.55-255.78L382.52 501"/><path fill-opacity=".1" d="M498 668.06V227.94c-.06-19.82-16.13-35.88-35.98-35.94h-80.79l-57.08 57.09c-.66.68-1.24 1.43-1.72 2.25-2.49 4.29-1.86 9.7 1.54 13.31 27.55 29.64 47.47 65.52 58.04 104.55h.09-.12c11.41 42.69 11.43 87.61.07 130.31-2.97 11.1-6.71 21.98-11.19 32.56a249.6617 249.6617 0 0 1-46.27 71.83c-4.25 4.41-4.18 11.4.16 15.72L409.38 704h52.64c19.85-.06 35.92-16.12 35.98-35.94"/><path fill-opacity=".2" d="M471 695.11V254.94c-.06-19.82-16.13-35.88-35.97-35.94H354.3l-30.15 30.16c-.66.67-1.24 1.43-1.71 2.25-2.49 4.29-1.87 9.7 1.53 13.31 27.53 29.62 47.45 65.48 58.02 104.5h.09l-.12.05c11.42 42.68 11.46 87.61.09 130.31-2.98 11.09-6.72 21.97-11.19 32.56-11.18 26.42-26.83 50.71-46.26 71.83-4.26 4.41-4.18 11.4.16 15.72L436.35 731c19.31-.76 34.58-16.59 34.65-35.89"/><path fill-opacity=".2" d="M471 641.09V254.91c-.08-19.82-16.14-35.85-35.97-35.91H354.3l-30.15 30.14c-.66.67-1.23 1.43-1.71 2.24-2.5 4.29-1.88 9.71 1.53 13.33 27.54 29.61 47.45 65.46 58.02 104.47l.09.04h-.12c11.42 42.67 11.45 87.58.09 130.26-2.97 11.1-6.71 21.98-11.19 32.56a249.9282 249.9282 0 0 1-46.26 71.82c-4.24 4.41-4.17 11.39.16 15.71L382.35 677h52.68c19.83-.06 35.89-16.09 35.97-35.91"/><path fill-opacity=".2" d="M444 641.09V254.91c-.08-19.81-16.14-35.85-35.97-35.91h-53.75l-30.13 30.14c-.66.67-1.23 1.43-1.71 2.24-2.5 4.29-1.88 9.71 1.52 13.33 27.54 29.61 47.45 65.46 58.02 104.47l.1.04h-.13c11.42 42.67 11.45 87.58.08 130.26-2.96 11.1-6.7 21.98-11.18 32.56a249.9282 249.9282 0 0 1-46.26 71.82c-4.24 4.41-4.16 11.39.17 15.71L382.33 677h25.7c19.83-.06 35.89-16.1 35.97-35.91"/><path fill="#0078d4" d="M48.9 219h359.2c9.52 0 18.65 3.78 25.38 10.52 6.74 6.73 10.52 15.86 10.52 25.38v359.2c0 9.52-3.78 18.65-10.52 25.38-6.73 6.74-15.86 10.52-25.38 10.52H48.9c-9.52 0-18.65-3.78-25.38-10.52C16.78 632.75 13 623.62 13 614.1V254.9c0-9.52 3.78-18.65 10.52-25.38C30.25 222.78 39.38 219 48.9 219"/><path fill="#fff" d="M223.38 414.81c2.52 5.17 4.53 10.58 6.01 16.14h.57c1.34-5.45 3.29-10.74 5.8-15.76l54.39-102.49c4.15-7.82 12.27-12.7 21.11-12.7 8.54 0 16.43 4.55 20.71 11.94 4.27 7.38 4.28 16.49.03 23.89l-75.23 131.03c-2.09 3.62-3.19 7.73-3.19 11.92v66.31c-.01 13.21-10.72 23.91-23.92 23.91h-4.86c-13.21-.01-23.9-10.71-23.9-23.91v-65.53c-.01-4.09-1.05-8.11-3.04-11.68L124 335.59c-4.14-7.41-4.05-16.46.24-23.78 4.3-7.32 12.15-11.81 20.64-11.81h4.7c8.95.01 17.14 5 21.24 12.94l52.56 101.87"/></g></svg>