<?xml version="1.0" encoding="UTF-8"?>
<svg width="1725" height="240" viewBox="0 0 1725 240" fill="none" y="720"
    xmlns="http://www.w3.org/2000/svg">
    <g clip-path="url(#axclip0_12474_62137)">
        <rect width="1725" height="240" fill="#3DD5F9" />
        <g opacity="0.5" clip-path="url(#axclip1_12474_62137)">
            <path
                d="M1278.7 344.097C1269.01 343.645 1259.69 338.617 1254.14 329.953C1244.85 315.588 1246.01 292.523 1260.49 283.283L1443.14 167.236L1494.83 325.762C1498.33 336.643 1492.42 348.28 1481.54 351.779C1479.3 352.56 1476.98 352.9 1474.7 352.85L1278.7 344.097Z"
                fill="url(#axpaint0_linear_12474_62137)" />
            <path
                d="M1275.8 108.174L1239.1 -100.963C1238.52 -104.601 1238.99 -108.46 1240.59 -112.097C1245.17 -122.555 1257.43 -127.347 1267.88 -122.767C1270.5 -121.622 1274.22 -120.533 1276.1 -118.628L1415.11 40.3449L1396.4 55.857L1275.8 108.174Z"
                fill="url(#axpaint1_linear_12474_62137)" />
            <path
                d="M1258.42 335.347C1256.78 333.818 1255.41 331.998 1254.09 330.065C1244.8 315.7 1249.04 296.423 1263.41 287.134L1612.37 62.6502C1615.43 60.6048 1617.95 57.6426 1619.54 54.005C1622.97 46.1613 1621.19 37.2497 1615.5 31.3708L1476.15 -106.746C1473.52 -109.391 1470.41 -111.566 1466.88 -113.11C1463.36 -114.653 1459.65 -115.464 1455.97 -115.722L1259.97 -124.475C1262.64 -124.388 1265.39 -123.862 1268 -122.716C1270.62 -121.571 1272.76 -119.958 1274.63 -118.052L1379.02 3.67152C1386.49 12.9051 1389.23 25.2138 1384.2 36.6952C1381.07 43.8568 1375.61 49.1912 1368.99 52.2513L1125.49 164.004C1115.13 168.811 1110.58 181.046 1115.39 191.415C1116.33 193.59 1117.65 195.524 1119.24 197.166L1258.58 335.283"
                fill="url(#axpaint2_linear_12474_62137)" />
            <path
                d="M1274.97 -117.902L1379.36 3.82186C1385.46 11.2358 1388.22 20.7091 1386.54 30.131L1620.83 51.0503C1622.7 44.009 1620.93 36.5967 1616 31.4571L1476.66 -106.66C1474.02 -109.304 1470.91 -111.48 1467.39 -113.023C1463.86 -114.567 1460.15 -115.378 1456.47 -115.635L1260.47 -124.388C1263.14 -124.302 1265.89 -123.775 1268.51 -122.63C1271.12 -121.485 1273.26 -119.871 1275.14 -117.966L1274.97 -117.902Z"
                fill="url(#axpaint3_linear_12474_62137)" />
        </g>
    </g>
    <defs>
        <linearGradient id="axpaint0_linear_12474_62137" x1="1329.52" y1="210.417" x2="1409.67"
            y2="372.33" gradientUnits="userSpaceOnUse">
            <stop stop-color="#292941" />
            <stop offset="0.22" stop-color="#114A85" />
            <stop offset="0.44" stop-color="#0A5BA0" />
            <stop offset="0.65" stop-color="#0669B6" />
        </linearGradient>
        <linearGradient id="axpaint1_linear_12474_62137" x1="1303.67" y1="-133.646" x2="1349.18"
            y2="93.4364" gradientUnits="userSpaceOnUse">
            <stop offset="0.22" stop-color="#114A85" />
            <stop offset="0.85" stop-color="#0669B6" />
        </linearGradient>
        <linearGradient id="axpaint2_linear_12474_62137" x1="1268.53" y1="339.778" x2="1466.88"
            y2="-113.11" gradientUnits="userSpaceOnUse">
            <stop offset="0.1" stop-color="#288CD9" />
            <stop offset="0.75" stop-color="#3CC5EE" />
        </linearGradient>
        <linearGradient id="axpaint3_linear_12474_62137" x1="1452.67" y1="-116.22" x2="1429.49"
            y2="36.6143" gradientUnits="userSpaceOnUse">
            <stop stop-color="#A1ECFF" stop-opacity="0.9" />
            <stop offset="0.92" stop-color="#A1ECFF" stop-opacity="0" />
        </linearGradient>
        <clipPath id="axclip0_12474_62137">
            <rect width="1725" height="240" fill="white" />
        </clipPath>
        <clipPath id="axclip1_12474_62137">
            <rect width="595.769" height="595.769" fill="white"
                transform="translate(1209.01 -280.385) rotate(23.6518)" />
        </clipPath>
    </defs>
</svg>