<?xml version="1.0" encoding="UTF-8"?>
<svg width="1725" height="240" viewBox="0 0 1725 240" fill="none" y="480"
    xmlns="http://www.w3.org/2000/svg">
    <g clip-path="url(#auclip0_12474_62052)">
        <rect width="1725" height="240" fill="#6FBC43" />
        <g opacity="0.5" clip-path="url(#auclip1_12474_62052)">
            <path
                d="M1193.06 320.88C1182.85 316.41 1178.97 303.845 1184.87 294.387C1271.68 155.741 1446.8 101.589 1596.34 167.082L1626.59 180.332C1647.25 189.38 1667.78 183.683 1676.84 162.982L1682.13 155.604L1619.15 299.401C1609.22 322.073 1582.85 332.408 1560.23 322.498L1543.26 315.065C1480.29 287.489 1406.68 304.3 1361.67 356.545L1348.6 371.672C1342.11 379.112 1331.65 381.58 1322.67 377.648L1193.3 320.988L1193.06 320.88Z"
                fill="url(#aupaint0_linear_12474_62052)" />
            <path
                d="M1193.06 320.88C1182.85 316.41 1178.97 303.845 1184.87 294.387C1271.68 155.741 1446.8 101.589 1596.34 167.082L1626.59 180.332C1647.25 189.38 1667.78 183.683 1676.84 162.982L1682.13 155.604L1619.15 299.401C1609.22 322.073 1582.85 332.408 1560.23 322.498L1543.26 315.065C1480.29 287.489 1406.68 304.3 1361.67 356.545L1348.6 371.672C1342.11 379.112 1331.65 381.58 1322.67 377.648L1193.3 320.988L1193.06 320.88Z"
                fill="url(#aupaint1_linear_12474_62052)" />
            <path
                d="M1143.12 103.25C1131.81 98.2948 1126.63 85.0139 1131.6 73.6777L1185.56 -49.5417C1190.53 -60.8779 1203.8 -66.0799 1215.11 -61.1249L1584.04 100.454C1595.36 105.409 1600.53 118.69 1595.57 130.026L1541.6 253.245C1536.64 264.581 1523.37 269.783 1512.05 264.828L1143.12 103.25Z"
                fill="url(#aupaint2_linear_12474_62052)" />
            <path
                d="M1143.12 103.25C1131.81 98.2948 1126.63 85.0139 1131.6 73.6777L1185.56 -49.5417C1190.53 -60.8779 1203.8 -66.0799 1215.11 -61.1249L1584.04 100.454C1595.36 105.409 1600.53 118.69 1595.57 130.026L1541.6 253.245C1536.64 264.581 1523.37 269.783 1512.05 264.828L1143.12 103.25Z"
                fill="url(#aupaint3_radial_12474_62052)" />
            <path
                d="M1409.17 -171.894C1398.84 -176.418 1386.79 -170.677 1383.79 -159.804C1339.57 0.726923 1419.7 169.163 1571.94 235.841L1597.4 246.99C1618.06 256.038 1627.44 280.121 1618.38 300.822L1681.95 155.669C1691.88 132.997 1681.6 106.612 1658.97 96.7018L1642 89.2692C1579.03 61.6931 1541.47 -3.80664 1549.35 -72.3169L1551.6 -92.1839C1552.67 -101.994 1547.39 -111.356 1538.41 -115.287L1409.29 -171.84L1409.17 -171.894Z"
                fill="url(#aupaint4_linear_12474_62052)" />
            <path opacity="0.4"
                d="M1659.01 96.5755L1642.04 89.1428C1612.9 76.3781 1589.24 55.4419 1573.04 29.8445L1501.26 193.726C1522.6 210.267 1546.23 224.581 1572.06 235.891L1597.51 247.04C1618.17 256.089 1627.56 280.171 1618.49 300.872L1682.06 155.72C1691.99 133.047 1681.71 106.663 1659.08 96.7525L1659.01 96.5755Z"
                fill="url(#aupaint5_linear_12474_62052)" />
            <g opacity="0.7">
                <path
                    d="M1410.14 -171.467C1399.81 -175.991 1387.77 -170.25 1384.76 -159.377C1340.55 1.15417 1420.67 169.59 1572.91 236.268L1598.37 247.417C1619.03 256.465 1628.42 280.548 1619.35 301.249L1682.92 156.096C1692.85 133.424 1682.57 107.039 1659.94 97.129L1642.97 89.6964C1580.01 62.1204 1542.45 -3.3794 1550.32 -71.8897L1552.57 -91.7567C1553.64 -101.567 1548.36 -110.928 1539.39 -114.86L1410.26 -171.413L1410.14 -171.467Z"
                    fill="url(#aupaint6_linear_12474_62052)" />
            </g>
        </g>
    </g>
    <defs>
        <linearGradient id="aupaint0_linear_12474_62052" x1="1194.65" y1="350.363" x2="1683.57"
            y2="159.826" gradientUnits="userSpaceOnUse">
            <stop offset="0.26" stop-color="#0D7012" />
            <stop offset="1" stop-color="#085714" />
        </linearGradient>
        <linearGradient id="aupaint1_linear_12474_62052" x1="1805.37" y1="326.327" x2="1097.18"
            y2="186.755" gradientUnits="userSpaceOnUse">
            <stop offset="0.04" stop-color="#114A8A" />
            <stop offset="1" stop-color="#0C59A3" stop-opacity="0" />
        </linearGradient>
        <linearGradient id="aupaint2_linear_12474_62052" x1="901.56" y1="-100.498" x2="1555.92"
            y2="186.088" gradientUnits="userSpaceOnUse">
            <stop stop-color="#107C10" />
            <stop offset="0.96" stop-color="#56B50E" />
        </linearGradient>
        <radialGradient id="aupaint3_radial_12474_62052" cx="0" cy="0" r="1"
            gradientUnits="userSpaceOnUse"
            gradientTransform="translate(1496.49 128.196) rotate(-32.6704) scale(136.723 348.379)">
            <stop stop-opacity="0.3" />
            <stop offset="1" stop-opacity="0" />
        </radialGradient>
        <linearGradient id="aupaint4_linear_12474_62052" x1="1600.26" y1="406.111" x2="1480.57"
            y2="-187.643" gradientUnits="userSpaceOnUse">
            <stop offset="0.04" stop-color="#33980F" />
            <stop offset="1" stop-color="#BAE884" />
        </linearGradient>
        <linearGradient id="aupaint5_linear_12474_62052" x1="1589" y1="162.396" x2="1663.03"
            y2="194.82" gradientUnits="userSpaceOnUse">
            <stop stop-color="#E5FAC1" stop-opacity="0" />
            <stop offset="0.56" stop-color="#E5FAC1" stop-opacity="0.52" />
            <stop offset="1" stop-color="#E5FAC1" />
        </linearGradient>
        <linearGradient id="aupaint6_linear_12474_62052" x1="1478.74" y1="-419.124" x2="1525.5"
            y2="-2.96833" gradientUnits="userSpaceOnUse">
            <stop offset="0.14" stop-color="#FDE100" />
            <stop offset="0.98" stop-color="#FFC600" stop-opacity="0" />
        </linearGradient>
        <clipPath id="auclip0_12474_62052">
            <rect width="1725" height="240" fill="white" />
        </clipPath>
        <clipPath id="auclip1_12474_62052">
            <rect width="615" height="615" fill="white"
                transform="translate(1246.72 -285) rotate(23.6518)" />
        </clipPath>
    </defs>
</svg>