<?xml version="1.0" encoding="UTF-8"?>
<svg width="1725" height="240" viewBox="0 0 1725 240" fill="none" y="960"
    xmlns="http://www.w3.org/2000/svg">
    <g clip-path="url(#baclip0_12474_62146)">
        <rect width="1725" height="240" fill="#3DD5F9" />
        <g opacity="0.5" clip-path="url(#baclip1_12474_62146)">
            <path
                d="M1450.28 458.857C1483.09 473.228 1521.37 458.301 1535.71 425.538L1637.1 194.057C1640.21 186.935 1639.23 179.148 1635.15 173.258C1601 123.778 1516.13 1.15514 1475.88 -57.074C1473.69 -60.1563 1470.66 -62.6159 1466.97 -64.23C1463.05 -65.9483 1458.96 -66.3233 1455.04 -65.7778C1384.78 -55.8019 1237.86 -35.1214 1178.39 -26.7905C1171.29 -25.7952 1164.73 -21.1698 1161.61 -14.0473L1060.23 217.433C1045.88 250.197 1060.87 288.451 1093.68 302.822L1450.34 459.028L1450.28 458.857Z"
                fill="url(#bapaint0_linear_12474_62146)" />
            <path
                d="M1118.34 84.4263L1060.17 217.26C1045.82 250.024 1060.8 288.278 1093.61 302.649L1450.28 458.855C1483.09 473.226 1521.37 458.299 1535.72 425.536L1593.89 292.702L1118.34 84.4263Z"
                fill="url(#bapaint1_linear_12474_62146)" />
            <path
                d="M1093.61 302.651C1060.8 288.28 1045.82 250.026 1060.16 217.263L1120.79 78.8495C1123.96 71.6083 1130.64 67.0351 1137.85 66.0918L1338.88 37.6988C1342.8 37.1533 1346.83 37.647 1350.64 39.3132C1354.44 40.9794 1357.66 43.662 1359.8 46.863L1475.25 213.863C1479.57 219.857 1480.62 227.815 1477.45 235.056L1416.83 373.469C1402.48 406.233 1417.46 444.487 1450.28 458.858L1093.61 302.651Z"
                fill="url(#bapaint2_linear_12474_62146)" />
            <path
                d="M1093.61 302.651C1060.8 288.28 1045.82 250.026 1060.16 217.263L1120.79 78.8495C1123.96 71.6083 1130.64 67.0351 1137.85 66.0918L1338.88 37.6988C1342.8 37.1533 1346.83 37.647 1350.64 39.3132C1354.44 40.9794 1357.66 43.662 1359.8 46.863L1475.25 213.863C1479.57 219.857 1480.62 227.815 1477.45 235.056L1416.83 373.469C1402.48 406.233 1417.46 444.487 1450.28 458.858L1093.61 302.651Z"
                fill="url(#bapaint3_radial_12474_62146)" />
            <path
                d="M1416.83 373.467L1475.01 240.633L1118.34 84.4263L1060.17 217.26C1045.82 250.024 1060.8 288.278 1093.61 302.649L1450.28 458.855C1417.47 444.484 1402.48 406.23 1416.83 373.467Z"
                fill="url(#bapaint4_linear_12474_62146)" />
            <path
                d="M1093.61 302.653C1060.8 288.282 1045.81 250.028 1060.16 217.265L1080.02 171.918C1083.14 164.796 1089.65 160.289 1096.8 159.175L1222.61 141.414C1226.53 140.868 1230.57 141.362 1234.37 143.028C1238.17 144.695 1241.39 147.377 1243.53 150.578C1243.53 150.578 1282.9 207.574 1315.72 254.915C1319.92 260.857 1320.97 268.815 1317.85 275.937L1297.94 321.402C1283.59 354.166 1298.58 392.42 1331.39 406.791L1093.61 302.653Z"
                fill="url(#bapaint5_linear_12474_62146)" />
            <path
                d="M1293.46 358.484C1291.38 346.398 1292.59 333.626 1297.89 321.518L1317.8 276.052C1320.92 268.93 1319.87 260.972 1315.67 255.031C1282.85 207.69 1243.48 150.693 1243.48 150.693C1241.22 147.44 1238.12 144.81 1234.32 143.144C1230.51 141.477 1226.36 140.932 1222.56 141.529L1096.75 159.29C1089.65 160.286 1083.09 164.911 1079.97 172.034L1060.11 217.38C1054.81 229.488 1053.56 242.38 1055.63 254.465L1293.41 358.603L1293.46 358.484Z"
                fill="url(#bapaint6_linear_12474_62146)" />
        </g>
    </g>
    <defs>
        <linearGradient id="bapaint0_linear_12474_62146" x1="1271.94" y1="380.754" x2="1466.91"
            y2="-64.4008" gradientUnits="userSpaceOnUse">
            <stop stop-color="#114A85" />
            <stop offset="0.67" stop-color="#028EDB" />
        </linearGradient>
        <linearGradient id="bapaint1_linear_12474_62146" x1="1263" y1="401.17" x2="1347.18"
            y2="208.982" gradientUnits="userSpaceOnUse">
            <stop stop-opacity="0.2" />
            <stop offset="0.55" stop-opacity="0" />
        </linearGradient>
        <linearGradient id="bapaint2_linear_12474_62146" x1="1242.22" y1="367.737" x2="1380.36"
            y2="52.3304" gradientUnits="userSpaceOnUse">
            <stop offset="0.31" stop-color="#0094E5" />
            <stop offset="1" stop-color="#40D8F9" />
        </linearGradient>
        <radialGradient id="bapaint3_radial_12474_62146" cx="0" cy="0" r="1"
            gradientUnits="userSpaceOnUse"
            gradientTransform="translate(1180.32 291.674) rotate(23.6518) scale(190.662 190.373)">
            <stop stop-opacity="0.3" />
            <stop offset="1" stop-opacity="0" />
        </radialGradient>
        <linearGradient id="bapaint4_linear_12474_62146" x1="1242.22" y1="367.735" x2="1326.4"
            y2="175.547" gradientUnits="userSpaceOnUse">
            <stop offset="0.09" stop-opacity="0.2" />
            <stop offset="0.55" stop-opacity="0" />
        </linearGradient>
        <linearGradient id="bapaint5_linear_12474_62146" x1="1182.73" y1="341.823" x2="1264.09"
            y2="156.046" gradientUnits="userSpaceOnUse">
            <stop stop-color="#3CC5EE" />
            <stop offset="1" stop-color="#50E0FF" />
        </linearGradient>
        <linearGradient id="bapaint6_linear_12474_62146" x1="1182.11" y1="275.62" x2="1251.77"
            y2="116.551" gradientUnits="userSpaceOnUse">
            <stop stop-color="#A1ECFF" stop-opacity="0" />
            <stop offset="0.9" stop-color="#A1ECFF" stop-opacity="0.9" />
        </linearGradient>
        <clipPath id="baclip0_12474_62146">
            <rect width="1725" height="240" fill="white" />
        </clipPath>
        <clipPath id="baclip1_12474_62146">
            <rect width="622.993" height="622.993" fill="white"
                transform="translate(1209.01 -252) rotate(23.6518)" />
        </clipPath>
    </defs>
</svg>