<?xml version="1.0" encoding="UTF-8"?>
<svg width="1725" height="240" viewBox="0 0 1725 240" fill="none" y="240"
    xmlns="http://www.w3.org/2000/svg">
    <g clip-path="url(#asclip0_12474_62126)">
        <rect width="1725" height="240" fill="#3DD5F9" />
        <g opacity="0.5" clip-path="url(#asclip1_12474_62126)">
            <path fill-rule="evenodd" clip-rule="evenodd"
                d="M1591.8 98.8418C1624.31 78.4144 1651.72 113.93 1638.11 145.014L1582.13 272.827C1576.72 283.625 1567.32 292.139 1556 296.497L1390.56 360.735C1377.8 365.645 1363.72 364.005 1352.73 356.33C1352.73 356.33 1043.44 135.237 1238.4 167.998C1433.35 200.759 1591.8 98.8418 1591.8 98.8418Z"
                fill="#767676" />
            <path fill-rule="evenodd" clip-rule="evenodd"
                d="M1591.8 98.8418C1624.31 78.4144 1651.72 113.93 1638.11 145.014L1582.13 272.827C1576.72 283.625 1567.32 292.139 1556 296.497L1390.56 360.735C1377.8 365.645 1363.72 364.005 1352.73 356.33C1352.73 356.33 1043.44 135.237 1238.4 167.998C1433.35 200.759 1591.8 98.8418 1591.8 98.8418Z"
                fill="url(#aspaint0_linear_12474_62126)" />
            <path fill-rule="evenodd" clip-rule="evenodd"
                d="M1591.8 98.8418C1624.31 78.4144 1651.72 113.93 1638.11 145.014L1582.13 272.827C1576.72 283.625 1567.32 292.139 1556 296.497L1390.56 360.735C1377.8 365.645 1363.72 364.005 1352.73 356.33C1352.73 356.33 1043.44 135.237 1238.4 167.998C1433.35 200.759 1591.8 98.8418 1591.8 98.8418Z"
                fill="url(#aspaint1_linear_12474_62126)" />
            <path fill-rule="evenodd" clip-rule="evenodd"
                d="M1429.49 346.011L1429.55 346.186L1542.64 302.105C1509.24 315.217 1448.41 289.133 1404.31 236.669C1374.9 201.679 1364.6 154.585 1357.37 108.462L1318.3 -147.859L1199.14 -99.4137C1189.03 -95.3363 1180.13 -87.3819 1175.14 -77.1377L1104.47 85.4562C1099.23 96.201 1098.48 108.559 1102.4 119.605L1157.8 277.345C1161.63 288.149 1169.59 296.77 1179.88 301.247L1336 369.621C1345.65 373.821 1356.77 373.713 1366.81 369.928L1429.49 346.011Z"
                fill="#4F1A1A" />
            <path fill-rule="evenodd" clip-rule="evenodd"
                d="M1429.49 346.011L1429.55 346.186L1542.64 302.105C1509.24 315.217 1448.41 289.133 1404.31 236.669C1374.9 201.679 1364.6 154.585 1357.37 108.462L1318.3 -147.859L1199.14 -99.4137C1189.03 -95.3363 1180.13 -87.3819 1175.14 -77.1377L1104.47 85.4562C1099.23 96.201 1098.48 108.559 1102.4 119.605L1157.8 277.345C1161.63 288.149 1169.59 296.77 1179.88 301.247L1336 369.621C1345.65 373.821 1356.77 373.713 1366.81 369.928L1429.49 346.011Z"
                fill="url(#aspaint2_linear_12474_62126)" />
            <path fill-rule="evenodd" clip-rule="evenodd"
                d="M1429.49 346.011L1429.55 346.186L1542.64 302.105C1509.24 315.217 1448.41 289.133 1404.31 236.669C1374.9 201.679 1364.6 154.585 1357.37 108.462L1318.3 -147.859L1199.14 -99.4137C1189.03 -95.3363 1180.13 -87.3819 1175.14 -77.1377L1104.47 85.4562C1099.23 96.201 1098.48 108.559 1102.4 119.605L1157.8 277.345C1161.63 288.149 1169.59 296.77 1179.88 301.247L1336 369.621C1345.65 373.821 1356.77 373.713 1366.81 369.928L1429.49 346.011Z"
                fill="url(#aspaint3_linear_12474_62126)" />
            <path fill-rule="evenodd" clip-rule="evenodd"
                d="M1429.49 346.011L1429.55 346.186L1542.64 302.105C1509.24 315.217 1448.41 289.133 1404.31 236.669C1374.9 201.679 1364.6 154.585 1357.37 108.462L1318.3 -147.859L1199.14 -99.4137C1189.03 -95.3363 1180.13 -87.3819 1175.14 -77.1377L1104.47 85.4562C1099.23 96.201 1098.48 108.559 1102.4 119.605L1157.8 277.345C1161.63 288.149 1169.59 296.77 1179.88 301.247L1336 369.621C1345.65 373.821 1356.77 373.713 1366.81 369.928L1429.49 346.011Z"
                fill="url(#aspaint4_linear_12474_62126)" />
            <path fill-rule="evenodd" clip-rule="evenodd"
                d="M1183.11 104.807C1245.71 54.1978 1248.96 76.3205 1416.06 33.17C1493.58 13.1506 1550.43 -25.5404 1580.61 -50.0468C1593.05 -60.153 1590.1 -78.7935 1575.88 -85.021L1393.03 -165.109C1383.03 -169.493 1371.62 -169.594 1361.29 -165.39L1198.22 -99.0526C1187.7 -94.7732 1179.16 -86.3864 1174.51 -75.7681L1103.56 86.216C1099.03 96.5539 1098.56 108.179 1102.23 118.617L1150.23 254.98C1150.23 254.98 1116.36 158.761 1183.11 104.807Z"
                fill="#585858" />
            <path fill-rule="evenodd" clip-rule="evenodd"
                d="M1183.11 104.807C1245.71 54.1978 1248.96 76.3205 1416.06 33.17C1493.58 13.1506 1550.43 -25.5404 1580.61 -50.0468C1593.05 -60.153 1590.1 -78.7935 1575.88 -85.021L1393.03 -165.109C1383.03 -169.493 1371.62 -169.594 1361.29 -165.39L1198.22 -99.0526C1187.7 -94.7732 1179.16 -86.3864 1174.51 -75.7681L1103.56 86.216C1099.03 96.5539 1098.56 108.179 1102.23 118.617L1150.23 254.98C1150.23 254.98 1116.36 158.761 1183.11 104.807Z"
                fill="url(#aspaint5_linear_12474_62126)" />
            <path fill-rule="evenodd" clip-rule="evenodd"
                d="M1183.11 104.807C1245.71 54.1978 1248.96 76.3205 1416.06 33.17C1493.58 13.1506 1550.43 -25.5404 1580.61 -50.0468C1593.05 -60.153 1590.1 -78.7935 1575.88 -85.021L1393.03 -165.109C1383.03 -169.493 1371.62 -169.594 1361.29 -165.39L1198.22 -99.0526C1187.7 -94.7732 1179.16 -86.3864 1174.51 -75.7681L1103.56 86.216C1099.03 96.5539 1098.56 108.179 1102.23 118.617L1150.23 254.98C1150.23 254.98 1116.36 158.761 1183.11 104.807Z"
                fill="url(#aspaint6_linear_12474_62126)" />
            <path fill-rule="evenodd" clip-rule="evenodd"
                d="M1183.11 104.807C1245.71 54.1978 1248.96 76.3205 1416.06 33.17C1493.58 13.1506 1550.43 -25.5404 1580.61 -50.0468C1593.05 -60.153 1590.1 -78.7935 1575.88 -85.021L1393.03 -165.109C1383.03 -169.493 1371.62 -169.594 1361.29 -165.39L1198.22 -99.0526C1187.7 -94.7732 1179.16 -86.3864 1174.51 -75.7681L1103.56 86.216C1099.03 96.5539 1098.56 108.179 1102.23 118.617L1150.23 254.98C1150.23 254.98 1116.36 158.761 1183.11 104.807Z"
                fill="url(#aspaint7_linear_12474_62126)" />
        </g>
    </g>
    <defs>
        <linearGradient id="aspaint0_linear_12474_62126" x1="1463.25" y1="262.881" x2="1667.47"
            y2="173.188" gradientUnits="userSpaceOnUse">
            <stop stop-color="#114A85" />
            <stop offset="0.795693" stop-color="#028EDB" />
        </linearGradient>
        <linearGradient id="aspaint1_linear_12474_62126" x1="1450.18" y1="306.269" x2="1768.3"
            y2="85.3342" gradientUnits="userSpaceOnUse">
            <stop stop-color="#114A85" />
            <stop offset="0.67" stop-color="#028EDB" />
        </linearGradient>
        <linearGradient id="aspaint2_linear_12474_62126" x1="1197.23" y1="125.102" x2="1442.91"
            y2="234.83" gradientUnits="userSpaceOnUse">
            <stop offset="0.074218" stop-color="#0669B6" />
            <stop offset="0.261846" stop-color="#0E7FCB" />
            <stop offset="0.544674" stop-color="#148DD9" />
            <stop offset="0.95" stop-color="#3CC5EE" />
        </linearGradient>
        <linearGradient id="aspaint3_linear_12474_62126" x1="1154.68" y1="214.605" x2="1453.61"
            y2="297.104" gradientUnits="userSpaceOnUse">
            <stop offset="0.31" stop-color="#0094E5" />
            <stop offset="1" stop-color="#40D8F9" />
        </linearGradient>
        <linearGradient id="aspaint4_linear_12474_62126" x1="1192.35" y1="55.3546" x2="1429.29"
            y2="255.84" gradientUnits="userSpaceOnUse">
            <stop offset="0.09" stop-opacity="0.2" />
            <stop offset="0.55" stop-opacity="0" />
        </linearGradient>
        <linearGradient id="aspaint5_linear_12474_62126" x1="1490.25" y1="-67.5057" x2="1179.73"
            y2="-11.1175" gradientUnits="userSpaceOnUse">
            <stop stop-color="#BDF5FF" />
            <stop offset="1" stop-color="#40D9FA" />
        </linearGradient>
        <linearGradient id="aspaint6_linear_12474_62126" x1="1098.6" y1="119.551" x2="1418.55"
            y2="63.3445" gradientUnits="userSpaceOnUse">
            <stop stop-color="#3CC5EE" />
            <stop offset="1" stop-color="#50E0FF" />
        </linearGradient>
        <linearGradient id="aspaint7_linear_12474_62126" x1="1223.42" y1="30.5535" x2="1295.78"
            y2="118.705" gradientUnits="userSpaceOnUse">
            <stop stop-color="#A1ECFF" stop-opacity="0" />
            <stop offset="0.9" stop-color="#A1ECFF" stop-opacity="0.9" />
        </linearGradient>
        <clipPath id="asclip0_12474_62126">
            <rect width="1725" height="240" fill="white" />
        </clipPath>
        <clipPath id="asclip1_12474_62126">
            <rect width="615" height="615" fill="white"
                transform="translate(1216.72 -298) rotate(23.6518)" />
        </clipPath>
    </defs>
</svg>