<?xml version="1.0" encoding="UTF-8"?>
<svg width="1725" height="240" viewBox="0 0 1725 240" fill="none" y="1440"
    xmlns="http://www.w3.org/2000/svg">
    <g clip-path="url(#bfclip0_12474_63867)">
        <rect width="1725" height="240" fill="#117865" />
        <g opacity="0.5" clip-path="url(#bfclip1_12474_63867)">
            <path fill-rule="evenodd" clip-rule="evenodd"
                d="M1111.53 153.046L1093.4 175.487C1087.23 182.504 1078.35 192.889 1071.72 202.691C1065.7 208.838 1060.67 216.165 1057.01 224.517C1041.93 258.955 1055.53 298.704 1087.35 317.058C1096.17 322.537 1106.85 327.132 1119.56 330.607L1177.72 347.059C1192.34 351.197 1208.03 346.2 1217.58 334.371L1316.04 212.26L1111.53 153.046Z"
                fill="url(#bfpaint0_linear_12474_63867)" />
            <path
                d="M1162.15 183.042C1100.42 166.679 1069.44 205.103 1069.44 205.103L1213.89 25.9327L1520.32 113.495L1418.11 239.507C1412.7 246.287 1403.67 249.347 1395.14 247.064L1393.41 246.624L1160.4 182.607L1162.15 183.042Z"
                fill="url(#bfpaint1_linear_12474_63867)" />
            <path
                d="M1162.15 183.042C1100.42 166.679 1069.44 205.103 1069.44 205.103L1213.89 25.9327L1520.32 113.495L1418.11 239.507C1412.7 246.287 1403.67 249.347 1395.14 247.064L1393.41 246.624L1160.4 182.607L1162.15 183.042Z"
                fill="url(#bfpaint2_linear_12474_63867)" fill-opacity="0.8" />
            <path
                d="M1251.79 67.6222L1592.77 160.575C1600.84 162.872 1609.46 159.997 1614.6 153.546L1700.03 48.4097C1701.2 46.9845 1702.19 45.3747 1702.96 43.6112C1707.55 33.1392 1702.79 20.9343 1692.3 16.3436C1691.49 15.9878 1690.66 15.6815 1689.83 15.4378L1364.47 -73.2388C1328.95 -82.4446 1291.43 -69.7007 1268.74 -41.5791L1154.73 98.8367C1177.72 70.4037 1191.69 53.308 1251.79 67.6222Z"
                fill="url(#bfpaint3_linear_12474_63867)" />
            <path
                d="M1251.79 67.6222L1592.77 160.575C1600.84 162.872 1609.46 159.997 1614.6 153.546L1700.03 48.4097C1701.2 46.9845 1702.19 45.3747 1702.96 43.6112C1707.55 33.1392 1702.79 20.9343 1692.3 16.3436C1691.49 15.9878 1690.66 15.6815 1689.83 15.4378L1364.47 -73.2388C1328.95 -82.4446 1291.43 -69.7007 1268.74 -41.5791L1154.73 98.8367C1177.72 70.4037 1191.69 53.308 1251.79 67.6222Z"
                fill="url(#bfpaint4_linear_12474_63867)" />
            <path
                d="M1251.79 67.6222L1592.77 160.575C1600.84 162.872 1609.46 159.997 1614.6 153.546L1700.03 48.4097C1701.2 46.9845 1702.19 45.3747 1702.96 43.6112C1707.55 33.1392 1702.79 20.9343 1692.3 16.3436C1691.49 15.9878 1690.66 15.6815 1689.83 15.4378L1364.47 -73.2388C1328.95 -82.4446 1291.43 -69.7007 1268.74 -41.5791L1154.73 98.8367C1177.72 70.4037 1191.69 53.308 1251.79 67.6222Z"
                fill="url(#bfpaint5_linear_12474_63867)" fill-opacity="0.4" />
            <path
                d="M1251.79 67.6298C1201.74 55.7101 1183.68 65.6084 1165.76 85.6609L1069.43 205.13C1069.43 205.13 1100.14 167.112 1161.29 182.889L1393.4 246.666L1395.13 247.105C1403.66 249.388 1412.69 246.318 1418.1 239.548L1502.19 135.886L1251.79 67.6298Z"
                fill="url(#bfpaint6_linear_12474_63867)" />
            <path
                d="M1251.79 67.6298C1201.74 55.7101 1183.68 65.6084 1165.76 85.6609L1069.43 205.13C1069.43 205.13 1100.14 167.112 1161.29 182.889L1393.4 246.666L1395.13 247.105C1403.66 249.388 1412.69 246.318 1418.1 239.548L1502.19 135.886L1251.79 67.6298Z"
                fill="url(#bfpaint7_linear_12474_63867)" fill-opacity="0.2" />
            <path fill-rule="evenodd" clip-rule="evenodd"
                d="M1161.3 182.892C1109.62 169.563 1079.77 194.581 1071.73 202.667C1065.7 208.834 1060.67 216.161 1057.01 224.513C1041.93 258.951 1055.53 298.7 1087.35 317.054C1096.17 322.534 1106.85 327.129 1119.56 330.604L1177.72 347.056C1192.34 351.194 1208.03 346.196 1217.58 334.367L1307.35 223.029L1161.3 182.906L1161.3 182.892Z"
                fill="url(#bfpaint8_linear_12474_63867)" />
        </g>
    </g>
    <defs>
        <linearGradient id="bfpaint0_linear_12474_63867" x1="1133.89" y1="338.562" x2="1209.62"
            y2="165.649" gradientUnits="userSpaceOnUse">
            <stop offset="0.056" stop-color="#2AAC94" />
            <stop offset="0.155" stop-color="#239C87" />
            <stop offset="0.372" stop-color="#177E71" />
            <stop offset="0.588" stop-color="#0E6961" />
            <stop offset="0.799" stop-color="#095D57" />
            <stop offset="1" stop-color="#085954" />
        </linearGradient>
        <linearGradient id="bfpaint1_linear_12474_63867" x1="1407.34" y1="308.79" x2="1319.9"
            y2="54.0581" gradientUnits="userSpaceOnUse">
            <stop offset="0.0417478" stop-color="#ABE88E" />
            <stop offset="0.548926" stop-color="#2AAA92" />
            <stop offset="0.906" stop-color="#117865" />
        </linearGradient>
        <linearGradient id="bfpaint2_linear_12474_63867" x1="1000.88" y1="120.255" x2="1183.51"
            y2="135.66" gradientUnits="userSpaceOnUse">
            <stop stop-color="#6AD6F9" />
            <stop offset="1" stop-color="#6AD6F9" stop-opacity="0" />
        </linearGradient>
        <linearGradient id="bfpaint3_linear_12474_63867" x1="1213.14" y1="-34.5456" x2="1636.1"
            y2="150.694" gradientUnits="userSpaceOnUse">
            <stop offset="0.043" stop-color="#25FFD4" />
            <stop offset="0.874" stop-color="#55DDB9" />
        </linearGradient>
        <linearGradient id="bfpaint4_linear_12474_63867" x1="1239.03" y1="-93.6627" x2="1542.55"
            y2="250.118" gradientUnits="userSpaceOnUse">
            <stop stop-color="#6AD6F9" />
            <stop offset="0.229501" stop-color="#60E9D0" />
            <stop offset="0.650711" stop-color="#6DE9BB" />
            <stop offset="0.99354" stop-color="#ABE88E" />
        </linearGradient>
        <linearGradient id="bfpaint5_linear_12474_63867" x1="1259.78" y1="-45.1199" x2="1446.88"
            y2="91.434" gradientUnits="userSpaceOnUse">
            <stop stop-color="white" stop-opacity="0" />
            <stop offset="0.458511" stop-color="white" />
            <stop offset="1" stop-color="white" stop-opacity="0" />
        </linearGradient>
        <linearGradient id="bfpaint6_linear_12474_63867" x1="1250.74" y1="162.443" x2="1319.27"
            y2="19.3042" gradientUnits="userSpaceOnUse">
            <stop offset="0.204642" stop-color="#063D3B" stop-opacity="0" />
            <stop offset="0.58553" stop-color="#063D3B" stop-opacity="0.236587" />
            <stop offset="0.872285" stop-color="#063D3B" stop-opacity="0.75" />
        </linearGradient>
        <linearGradient id="bfpaint7_linear_12474_63867" x1="1103.16" y1="80.5853" x2="1265.62"
            y2="191.419" gradientUnits="userSpaceOnUse">
            <stop stop-color="white" stop-opacity="0" />
            <stop offset="0.458511" stop-color="white" />
            <stop offset="1" stop-color="white" stop-opacity="0" />
        </linearGradient>
        <linearGradient id="bfpaint8_linear_12474_63867" x1="1162.18" y1="293.844" x2="1201.61"
            y2="109.82" gradientUnits="userSpaceOnUse">
            <stop offset="0.064" stop-color="#063D3B" stop-opacity="0" />
            <stop offset="0.17" stop-color="#063D3B" stop-opacity="0.135" />
            <stop offset="0.562" stop-color="#063D3B" stop-opacity="0.599" />
            <stop offset="0.85" stop-color="#063D3B" stop-opacity="0.9" />
            <stop offset="1" stop-color="#063D3B" />
        </linearGradient>
        <clipPath id="bfclip0_12474_63867">
            <rect width="1725" height="240" fill="white" />
        </clipPath>
        <clipPath id="bfclip1_12474_63867">
            <rect width="622.993" height="622.993" fill="white"
                transform="translate(1209.01 -252) rotate(23.6518)" />
        </clipPath>
    </defs>
</svg>