<?xml version="1.0" encoding="UTF-8"?>
<svg width="1725" height="240" viewBox="0 0 1725 240" fill="none" x="1725" y="480"
    xmlns="http://www.w3.org/2000/svg">
    <g clip-path="url(#bzclip0_12474_62084)">
        <rect width="1725" height="240" fill="#0178D4" />
        <g opacity="0.5" clip-path="url(#bzclip1_12474_62084)">
            <path
                d="M1528.39 -161.641C1476.85 -184.813 1418.21 -186.571 1365.37 -166.528C1312.53 -146.486 1269.81 -106.284 1246.59 -54.7566C1242.94 -46.6114 1239.8 -38.2507 1237.17 -29.7211C1210.29 56.0715 1271.48 128.26 1248.23 241.723C1247.5 245.626 1248.1 249.66 1249.92 253.184C1251.75 256.708 1254.7 259.521 1258.31 261.176L1400.79 323.577C1404.45 325.101 1408.51 325.357 1412.33 324.305C1416.15 323.252 1419.5 320.952 1421.87 317.771C1489.54 223.763 1583.39 219.475 1628.87 141.829C1657.36 93.0359 1665.31 34.921 1650.96 -19.7329C1636.62 -74.3867 1601.15 -121.103 1552.36 -149.607C1544.62 -154.101 1536.62 -158.119 1528.39 -161.641Z"
                fill="url(#bzpaint0_radial_12474_62084)" />
            <path
                d="M1562.15 -16.9129C1549.72 -21.847 1535.84 -21.6584 1523.54 -16.3883C1511.25 -11.1183 1501.54 -1.1954 1496.54 11.2113L1485.36 36.7377L1415.41 6.10279L1426.59 -19.4236C1432.22 -31.7051 1432.76 -45.7102 1428.12 -58.3933C1423.47 -71.0764 1414 -81.4118 1401.78 -87.1521L1400.78 -87.589C1388.34 -92.523 1374.46 -92.3344 1362.17 -87.0644C1349.88 -81.7943 1340.17 -71.8715 1335.17 -59.4648C1329.49 -47.3332 1328.79 -33.4613 1333.21 -20.8187C1337.64 -8.17607 1346.83 2.23252 1358.83 8.17891L1380.02 17.4568L1292.95 216.269C1291.56 219.436 1291.49 223.025 1292.74 226.245C1294 229.465 1296.49 232.054 1299.66 233.441C1302.82 234.828 1306.41 234.9 1309.63 233.641C1312.85 232.383 1315.44 229.896 1316.83 226.729L1403.9 27.9168L1475.49 59.2713L1388.42 258.083C1387.04 261.243 1386.96 264.822 1388.22 268.035C1389.48 271.247 1391.96 273.829 1395.12 275.213C1398.27 276.597 1401.85 276.669 1405.07 275.413C1408.28 274.157 1410.86 271.677 1412.24 268.518L1499.32 69.7056L1520.21 78.855C1526.39 81.3098 1532.99 82.5219 1539.65 82.4221C1546.3 82.3222 1552.86 80.9123 1558.97 78.2731C1565.07 75.6338 1570.6 71.8168 1575.23 67.0406C1579.86 62.2643 1583.5 56.6223 1585.95 50.4373C1591.69 38.3466 1592.42 24.4709 1587.96 11.8479C1583.5 -0.775003 1574.22 -11.1167 1562.15 -16.9129ZM1389.89 -5.07688L1367.35 -14.9458C1361.26 -18.2402 1356.67 -23.7633 1354.56 -30.3601C1352.44 -36.9569 1352.96 -44.1164 1356 -50.3411C1358.51 -56.7972 1363.42 -62.0317 1369.71 -64.9498C1375.99 -67.868 1383.16 -68.2437 1389.71 -65.9985C1395.82 -62.7159 1400.41 -57.1931 1402.53 -50.5918C1404.65 -43.9905 1404.12 -36.8253 1401.07 -30.6032L1389.89 -5.07688ZM1531.72 57.0409L1509.19 47.172L1520.93 20.3547C1521.87 17.2424 1523.41 14.345 1525.46 11.8279C1527.52 9.3107 1530.05 7.2231 1532.91 5.68426C1535.78 4.1454 1538.91 3.18545 1542.15 2.85918C1545.38 2.53292 1548.65 2.84674 1551.76 3.78273C1558.04 5.67304 1563.32 9.98282 1566.43 15.764C1569.54 21.5451 1570.22 28.324 1568.33 34.6095C1567.71 36.5014 1566.91 38.329 1565.94 40.0668C1563.85 46.757 1559.2 52.3468 1553 55.6096C1546.8 58.8724 1539.56 59.5417 1532.86 57.4706L1531.72 57.0409Z"
                fill="url(#bzpaint1_linear_12474_62084)" />
        </g>
    </g>
    <defs>
        <radialGradient id="bzpaint0_radial_12474_62084" cx="0" cy="0" r="1"
            gradientUnits="userSpaceOnUse"
            gradientTransform="translate(1443.37 62.4319) rotate(23.6518) scale(232.374 232.374)">
            <stop stop-color="#0078D4" />
            <stop offset="0.26" stop-color="#0075CE" />
            <stop offset="0.59" stop-color="#006CBE" />
            <stop offset="0.97" stop-color="#005CA4" />
            <stop offset="1" stop-color="#005BA1" />
        </radialGradient>
        <linearGradient id="bzpaint1_linear_12474_62084" x1="1479.36" y1="-48.4148" x2="1371.36"
            y2="203.615" gradientUnits="userSpaceOnUse">
            <stop stop-color="#F2F2F2" />
            <stop offset="0.23" stop-color="#E6E6E6" stop-opacity="0.99" />
            <stop offset="0.37" stop-color="#D1D3D4" stop-opacity="0.95" />
            <stop offset="0.48" stop-color="#E7E5F0" stop-opacity="0.89" />
            <stop offset="0.58" stop-color="#DEDBEE" stop-opacity="0.81" />
            <stop offset="0.67" stop-color="#D3CEEB" stop-opacity="0.7" />
            <stop offset="0.76" stop-color="#C4BEE8" stop-opacity="0.57" />
            <stop offset="0.84" stop-color="#B4ABE5" stop-opacity="0.41" />
            <stop offset="0.92" stop-color="#A095E1" stop-opacity="0.22" />
            <stop offset="0.99" stop-color="#8B7DDC" stop-opacity="0.02" />
            <stop offset="1" stop-color="#897BDC" stop-opacity="0" />
        </linearGradient>
        <clipPath id="bzclip0_12474_62084">
            <rect width="1725" height="240" fill="white" />
        </clipPath>
        <clipPath id="bzclip1_12474_62084">
            <rect width="615" height="615" fill="white"
                transform="translate(1246.72 -285) rotate(23.6518)" />
        </clipPath>
    </defs>
</svg>