<?xml version="1.0" encoding="UTF-8"?>
<svg width="1725" height="240" viewBox="0 0 1725 240" fill="none" x="1725" y="720"
    xmlns="http://www.w3.org/2000/svg">
    <g clip-path="url(#caclip0_11606_49438)">
        <g clip-path="url(#caclip1_11606_49438)">
            <path
                d="M1158.48 313.569L1755.08 931.165C1765.83 942.592 1778.29 952.535 1792.48 960.996C1877.59 1011.76 1987.88 983.864 2038.66 898.729C2065.52 853.694 2070.31 802.191 2057.01 755.788L1439.09 -1169.2C1457.97 -1106.92 1451.49 -1037.18 1415.81 -977.34L1076.2 -407.926C934.919 -171.029 976.073 124.493 1159.09 313.936"
                fill="url(#capaint0_linear_11606_49438)" />
            <path
                d="M1332.66 -1306.27C1219.17 -1373.96 1072.45 -1336.85 1004.75 -1223.33L63.5794 354.743L292.213 1139.28C224.513 1252.79 261.592 1399.52 375.08 1467.2C488.569 1534.89 635.291 1497.78 702.99 1384.26L1442.9 143.641C1510.6 30.1283 1657.33 -6.98366 1770.81 60.7011C1823.24 91.9685 1859.57 140.405 1876.46 194.805L1474.82 -1056.73L1439.31 -1168.23L1438.94 -1167.61C1422.54 -1224.23 1386.69 -1274.89 1332.41 -1307.26L1332.66 -1306.27Z"
                fill="url(#capaint1_linear_11606_49438)" />
            <path
                d="M1332.66 -1306.27C1219.17 -1373.96 1072.45 -1336.85 1004.75 -1223.33L63.5794 354.743L292.213 1139.28C224.513 1252.79 261.592 1399.52 375.08 1467.2C488.569 1534.89 635.291 1497.78 702.99 1384.26L1442.9 143.641C1510.6 30.1283 1657.33 -6.98366 1770.81 60.7011C1823.24 91.9685 1859.57 140.405 1876.46 194.805L1474.82 -1056.73L1439.31 -1168.23L1438.94 -1167.61C1422.54 -1224.23 1386.69 -1274.89 1332.41 -1307.26L1332.66 -1306.27Z"
                fill="url(#capaint2_radial_11606_49438)" />
            <path
                d="M548.592 -151.371L-48.0142 -768.966C-58.7591 -780.392 -71.2236 -790.337 -85.4096 -798.798C-170.526 -849.562 -280.814 -821.666 -331.588 -736.532C-358.447 -691.496 -363.243 -639.994 -349.945 -593.591L267.979 1331.4C249.098 1269.12 255.571 1199.38 291.26 1139.54L630.862 570.125C772.148 333.228 730.995 37.7049 547.975 -151.739"
                fill="url(#capaint3_linear_11606_49438)" />
        </g>
    </g>
    <defs>
        <linearGradient id="capaint0_linear_11606_49438" x1="2100.94" y1="1027.04" x2="1066.29"
            y2="-824.921" gradientUnits="userSpaceOnUse">
            <stop offset="0.226672" stop-color="#CA2134" />
            <stop offset="0.497218" stop-color="#670938" />
        </linearGradient>
        <linearGradient id="capaint1_linear_11606_49438" x1="-363.458" y1="859.465" x2="2183.04"
            y2="-465.399" gradientUnits="userSpaceOnUse">
            <stop offset="0.132123" stop-color="#CA2134" />
            <stop offset="0.554865" stop-color="#E82C41" />
            <stop offset="0.647463" stop-color="#F83F54" />
            <stop offset="0.897072" stop-color="#FFA43D" />
        </linearGradient>
        <radialGradient id="capaint2_radial_11606_49438" cx="0" cy="0" r="1"
            gradientUnits="userSpaceOnUse"
            gradientTransform="translate(251.796 599.139) rotate(9.01059) scale(773.638 1244.75)">
            <stop offset="0.140388" stop-color="#4A0829" />
            <stop offset="0.958033" stop-color="#670938" stop-opacity="0" />
        </radialGradient>
        <linearGradient id="capaint3_linear_11606_49438" x1="730.661" y1="6.57047" x2="-248.444"
            y2="405.195" gradientUnits="userSpaceOnUse">
            <stop stop-color="#FF9C70" />
            <stop offset="0.285" stop-color="#FF835C" />
            <stop offset="0.8" stop-color="#F83F54" />
        </linearGradient>
        <clipPath id="caclip0_11606_49438">
            <rect width="1725" height="240" fill="white" />
        </clipPath>
        <clipPath id="caclip1_11606_49438">
            <rect width="3447.86" height="3447.86" fill="white"
                transform="translate(-1509.59 677.717) rotate(-59.188)" />
        </clipPath>
    </defs>
</svg>