<?xml version="1.0" encoding="utf-8"?>
<!-- Generator: Adobe Illustrator 21.1.0, SVG Export Plug-In . SVG Version: 6.00 Build 0)  -->
<svg version="1.1" id="Layer_1" xmlns="http://www.w3.org/2000/svg" xmlns:xlink="http://www.w3.org/1999/xlink" x="0px" y="0px"
	 viewBox="0 0 128 128" style="enable-background:new 0 0 128 128;" xml:space="preserve">
<style type="text/css">
	.st0{fill:#2E001F;}
	.st1{fill:#FF26B7;}
	.st2{fill:#FAFAFA;}
	.st3{fill:#FFD9F2;}
</style>
<g>
	<path class="st0" d="M24,126c-5.514,0-10-4.486-10-10V12c0-5.514,4.486-10,10-10h61.521c2.132,0,4.137,0.829,5.646,2.333
		l20.48,20.408c1.495,1.49,2.353,3.555,2.353,5.667V116c0,5.514-4.486,10-10,10H24z"/>
	<path class="st1" d="M85.52,4c1.588,0,3.111,0.629,4.235,1.75l20.48,20.408c1.13,1.126,1.765,2.655,1.765,4.25V116
		c0,4.418-3.582,8-8,8H24c-4.418,0-8-3.582-8-8V12c0-4.418,3.582-8,8-8H85.52 M85.52,0H24c-6.617,0-12,5.383-12,12v104
		c0,6.617,5.383,12,12,12h80c6.617,0,12-5.383,12-12V30.408c0-2.639-1.072-5.221-2.941-7.084L92.579,2.917
		C90.691,1.036,88.185,0,85.52,0L85.52,0z"/>
</g>
<g>
	<g>
		<path class="st2" d="M57.547,100.544l2.436,4.676l2.436,4.676c0.042,0.07,0.049,0.14,0.028,0.193s-0.07,0.087-0.14,0.087h-1.512
			h-1.512c-0.098,0-0.168-0.014-0.224-0.049s-0.098-0.091-0.14-0.175c-0.56-1.148-1.12-2.296-1.687-3.465s-1.141-2.359-1.729-3.591
			h-0.014h-0.014c-0.518,1.162-1.064,2.359-1.621,3.553s-1.123,2.383-1.683,3.531c-0.042,0.07-0.084,0.119-0.133,0.151
			s-0.105,0.045-0.175,0.045h-1.442h-1.442c-0.084,0-0.133-0.035-0.15-0.084s-0.003-0.112,0.039-0.168l2.38-4.536l2.38-4.536
			l-2.296-4.55l-2.296-4.55c-0.056-0.07-0.056-0.133-0.028-0.178s0.084-0.074,0.14-0.074h1.498h1.498
			c0.084,0,0.147,0.007,0.196,0.035s0.084,0.077,0.112,0.161c0.546,1.148,1.099,2.289,1.645,3.433s1.085,2.292,1.603,3.454h0.014
			h0.014c0.504-1.148,1.036-2.296,1.575-3.44s1.085-2.286,1.617-3.42c0.042-0.07,0.077-0.126,0.123-0.164s0.102-0.059,0.186-0.059
			h1.4h1.4c0.07,0,0.119,0.028,0.14,0.074s0.014,0.109-0.028,0.178l-2.296,4.396L57.547,100.544z"/>
		<path class="st2" d="M64.826,91.752c0-0.07,0.007-0.119,0.035-0.154s0.077-0.056,0.161-0.07c0.322-0.014,0.945-0.035,1.726-0.053
			s1.719-0.031,2.671-0.031c2.842,0,4.97,0.917,6.387,2.506s2.125,3.85,2.125,6.538c0,3.738-1.225,6.174-2.923,7.675
			s-3.867,2.068-5.757,2.068c-0.714,0-1.589-0.007-2.38-0.017s-1.498-0.024-1.876-0.038c-0.056,0-0.098-0.021-0.126-0.059
			s-0.042-0.094-0.042-0.164v-9.1V91.752z M67.878,107.488c0.238,0.014,0.462,0.028,0.693,0.038s0.469,0.018,0.735,0.018
			c1.568,0,2.933-0.553,3.909-1.701s1.565-2.891,1.579-5.271c0.014-2.324-0.581-3.934-1.554-4.963s-2.324-1.477-3.822-1.477
			c-0.294,0-0.56,0.007-0.812,0.018s-0.49,0.024-0.728,0.038v6.65V107.488z"/>
	</g>
</g>
<g>
	<g>
		<path class="st3" d="M53.15,49.173l5.568,10.688l5.568,10.688c0.096,0.16,0.112,0.32,0.064,0.44s-0.16,0.2-0.32,0.2h-3.456h-3.456
			c-0.224,0-0.384-0.032-0.512-0.112s-0.224-0.208-0.32-0.4c-1.28-2.624-2.56-5.248-3.856-7.92s-2.608-5.392-3.952-8.207h-0.032
			h-0.032c-1.184,2.656-2.432,5.392-3.704,8.119s-2.568,5.448-3.848,8.071c-0.096,0.16-0.192,0.272-0.304,0.344
			s-0.24,0.104-0.4,0.104h-3.296h-3.296c-0.192,0-0.304-0.08-0.344-0.192s-0.008-0.256,0.088-0.384l5.44-10.367l5.44-10.367
			l-5.248-10.399l-5.248-10.399c-0.128-0.16-0.128-0.304-0.064-0.408s0.192-0.168,0.32-0.168h3.424h3.424
			c0.192,0,0.336,0.016,0.448,0.08s0.192,0.176,0.256,0.368c1.248,2.624,2.512,5.232,3.76,7.847s2.48,5.24,3.664,7.895h0.032h0.032
			c1.152-2.624,2.368-5.248,3.6-7.863s2.48-5.224,3.695-7.815c0.096-0.16,0.176-0.288,0.28-0.376s0.232-0.136,0.424-0.136h3.2h3.2
			c0.16,0,0.272,0.064,0.32,0.168s0.032,0.248-0.064,0.408l-5.248,10.047L53.15,49.173z"/>
		<path class="st3" d="M65.439,55.637c0-4.64,1.536-8.767,4.296-11.735s6.744-4.776,11.64-4.776c0.416,0,0.735,0,1.047,0.008
			s0.616,0.024,1,0.056v-5.152v-5.152c0-0.128,0.048-0.224,0.12-0.288s0.168-0.096,0.264-0.096h3.136h3.136
			c0.16,0,0.256,0.032,0.312,0.088s0.072,0.136,0.072,0.232v18.143v18.143c0,0.544,0,1.152,0.024,1.808s0.072,1.36,0.168,2.096
			c0,0.128-0.016,0.208-0.064,0.272s-0.128,0.112-0.256,0.176c-1.664,0.8-3.376,1.376-5.088,1.752s-3.424,0.552-5.088,0.552
			c-4.288,0-7.967-1.328-10.575-4.008S65.439,61.044,65.439,55.637z M83.423,45.461c-0.288-0.128-0.624-0.224-1.008-0.288
			s-0.816-0.096-1.296-0.096c-2.496,0-4.623,0.96-6.127,2.72s-2.384,4.32-2.384,7.519c0,3.648,0.896,6.208,2.352,7.856
			s3.472,2.384,5.712,2.384c0.48,0,0.976-0.032,1.448-0.104s0.92-0.184,1.304-0.343v-9.823V45.461z"/>
	</g>
</g>
<g>
</g>
<g>
</g>
<g>
</g>
<g>
</g>
<g>
</g>
<g>
</g>
</svg>
