<?xml version="1.0" encoding="utf-8"?>
<!-- Generator: Adobe Illustrator 21.1.0, SVG Export Plug-In . SVG Version: 6.00 Build 0)  -->
<svg version="1.1" id="Layer_1" xmlns="http://www.w3.org/2000/svg" xmlns:xlink="http://www.w3.org/1999/xlink" x="0px" y="0px"
	 viewBox="0 0 128 128" style="enable-background:new 0 0 128 128;" xml:space="preserve">
<style type="text/css">
	.st0{fill:#202600;}
	.st1{fill:#CAF200;}
	.st2{fill:#FAFAFA;}
</style>
<g>
	<path class="st0" d="M24,126c-5.514,0-10-4.486-10-10V12c0-5.514,4.486-10,10-10h61.521c2.132,0,4.137,0.829,5.646,2.333
		l20.48,20.408c1.495,1.49,2.353,3.555,2.353,5.667V116c0,5.514-4.486,10-10,10H24z"/>
	<path class="st1" d="M85.52,4c1.588,0,3.111,0.629,4.235,1.75l20.48,20.408c1.13,1.126,1.765,2.655,1.765,4.25V116
		c0,4.418-3.582,8-8,8H24c-4.418,0-8-3.582-8-8V12c0-4.418,3.582-8,8-8H85.52 M85.52,0H24c-6.617,0-12,5.383-12,12v104
		c0,6.617,5.383,12,12,12h80c6.617,0,12-5.383,12-12V30.408c0-2.639-1.072-5.221-2.941-7.084L92.579,2.917
		C90.691,1.036,88.185,0,85.52,0L85.52,0z"/>
</g>
<g>
	<g>
		<path class="st2" d="M35.608,91.5h1.988h1.988c0.07,0,0.119,0.007,0.154,0.032s0.056,0.067,0.07,0.136
			c0.35,1.302,1.029,4.067,1.68,6.863s1.274,5.625,1.512,7.053h0.014h0.014c0.266-1.302,0.987-4.088,1.732-6.892
			s1.516-5.624,1.88-6.996c0.014-0.07,0.035-0.119,0.07-0.151s0.084-0.045,0.154-0.045h1.918H50.7c0.07,0,0.112,0.007,0.14,0.028
			s0.042,0.056,0.056,0.112l0.336,9.156l0.336,9.156c0.014,0.084,0,0.14-0.035,0.175s-0.091,0.049-0.161,0.049h-1.358h-1.358
			c-0.084,0-0.133-0.014-0.161-0.045s-0.035-0.081-0.035-0.151c-0.056-2.996-0.084-6.607-0.098-9.656s-0.014-5.534-0.014-6.276
			h-0.014H48.32c-0.238,1.19-0.973,4.172-1.781,7.357s-1.69,6.573-2.222,8.575c-0.014,0.084-0.042,0.133-0.081,0.161
			s-0.087,0.035-0.143,0.035H42.86h-1.232c-0.07,0-0.126-0.007-0.168-0.032s-0.07-0.067-0.084-0.136
			c-0.518-2.086-1.253-5.285-1.939-8.358s-1.323-6.02-1.645-7.602h-0.028h-0.028c0,1.106-0.056,3.57-0.14,6.517
			s-0.196,6.377-0.308,9.415c0,0.084-0.021,0.133-0.056,0.161s-0.084,0.035-0.14,0.035H35.86h-1.232
			c-0.084,0-0.14-0.014-0.175-0.045s-0.049-0.081-0.049-0.151l0.504-9.156l0.504-9.156c0.014-0.07,0.028-0.112,0.056-0.136
			S35.538,91.5,35.608,91.5z"/>
		<path class="st2" d="M58.288,103.651c0,1.344,0.224,2.352,0.794,3.024s1.487,1.008,2.873,1.008c0.546,0,1.05-0.042,1.488-0.109
			s0.808-0.158,1.089-0.256v-7.798v-7.798c0-0.07,0.014-0.126,0.046-0.164s0.08-0.059,0.15-0.059h1.33h1.33
			c0.07,0,0.119,0.014,0.15,0.045s0.045,0.081,0.045,0.151v7.63v7.63c0,0.42,0.007,0.77,0.021,1.088s0.035,0.605,0.063,0.899
			c0.014,0.07,0.007,0.119-0.021,0.158s-0.077,0.066-0.147,0.094c-0.7,0.252-1.575,0.561-2.59,0.806s-2.17,0.427-3.43,0.427
			c-2.072,0-3.64-0.476-4.69-1.505s-1.582-2.611-1.582-4.823v-6.188v-6.188c0-0.07,0.007-0.126,0.035-0.164S55.32,91.5,55.404,91.5
			h1.344h1.344c0.07,0,0.119,0.014,0.15,0.045s0.045,0.081,0.045,0.151v5.978V103.651z"/>
		<path class="st2" d="M70.859,109.532c-0.056-0.042-0.098-0.091-0.126-0.151s-0.042-0.13-0.042-0.214v-1.344v-1.344
			c0-0.042,0.028-0.084,0.07-0.105s0.098-0.021,0.154,0.021c0.63,0.434,1.316,0.749,2.019,0.956s1.424,0.305,2.125,0.305
			c1.022,0,1.743-0.266,2.208-0.683s0.675-0.984,0.675-1.586c0-0.532-0.133-1.015-0.511-1.508s-1.001-0.998-1.981-1.572
			l-0.504-0.266l-0.504-0.266c-1.442-0.812-2.373-1.631-2.943-2.509s-0.78-1.816-0.78-2.867c0-1.428,0.497-2.716,1.463-3.646
			s2.401-1.505,4.277-1.505c0.826,0,1.54,0.063,2.135,0.175s1.071,0.273,1.421,0.469c0.07,0.028,0.112,0.063,0.136,0.113
			s0.032,0.112,0.032,0.196v1.26v1.26c0,0.056-0.028,0.105-0.07,0.13s-0.098,0.025-0.154-0.017c-0.434-0.28-0.966-0.49-1.554-0.63
			s-1.232-0.21-1.89-0.21c-1.078,0-1.792,0.308-2.237,0.738s-0.62,0.983-0.62,1.474c0,0.532,0.133,0.994,0.508,1.456
			s0.991,0.924,1.957,1.456l0.448,0.238l0.448,0.238c1.596,0.882,2.597,1.75,3.199,2.66s0.805,1.862,0.805,2.912
			c0,1.554-0.567,2.87-1.596,3.797s-2.52,1.467-4.368,1.467c-0.826,0-1.617-0.077-2.331-0.227S71.377,109.826,70.859,109.532z"/>
		<path class="st2" d="M94.268,109.952c-0.014,0.084-0.035,0.14-0.073,0.175s-0.095,0.049-0.179,0.049h-4.788h-4.788
			c-0.084,0-0.14-0.014-0.175-0.049s-0.049-0.091-0.049-0.175v-9.114v-9.114c0-0.084,0.014-0.14,0.049-0.175
			s0.091-0.049,0.175-0.049h4.62h4.62c0.084,0,0.14,0.007,0.179,0.035s0.06,0.077,0.073,0.161l0.126,1.176l0.126,1.176
			c0.014,0.07,0.007,0.126-0.021,0.164s-0.077,0.059-0.147,0.059h-3.374h-3.374v2.492v2.492h3.038h3.038
			c0.07,0,0.119,0.014,0.151,0.045s0.046,0.081,0.046,0.151v1.19v1.19c0,0.07-0.021,0.119-0.06,0.15s-0.095,0.045-0.165,0.045
			h-3.024h-3.024v2.688v2.688h3.598h3.598c0.084,0,0.133,0.014,0.158,0.046s0.025,0.081,0.01,0.151l-0.182,1.176L94.268,109.952z"/>
	</g>
</g>
<g>
	<g>
		<path class="st1" d="M31.968,28.502h4.544h4.544c0.16,0,0.272,0.016,0.352,0.072s0.128,0.152,0.16,0.312
			c0.8,2.976,2.352,9.295,3.84,15.687s2.912,12.855,3.456,16.119h0.032h0.032c0.608-2.976,2.256-9.343,3.96-15.751
			s3.464-12.855,4.296-15.991c0.032-0.16,0.08-0.272,0.16-0.344s0.192-0.104,0.352-0.104h4.384h4.384c0.16,0,0.256,0.016,0.32,0.064
			s0.096,0.128,0.128,0.256l0.768,20.927l0.768,20.927c0.032,0.192,0,0.32-0.081,0.4s-0.208,0.112-0.368,0.112h-3.104H61.79
			c-0.192,0-0.304-0.032-0.368-0.104s-0.08-0.184-0.08-0.344c-0.128-6.847-0.192-15.103-0.224-22.07s-0.032-12.647-0.032-14.343
			h-0.032h-0.032c-0.544,2.72-2.224,9.535-4.072,16.815s-3.864,15.023-5.08,19.598c-0.032,0.192-0.096,0.304-0.184,0.368
			s-0.2,0.08-0.328,0.08h-2.816h-2.816c-0.16,0-0.288-0.016-0.384-0.072s-0.16-0.152-0.192-0.312
			c-1.184-4.768-2.864-12.079-4.432-19.103s-3.024-13.759-3.76-17.375h-0.064h-0.064c0,2.528-0.128,8.159-0.32,14.895
			s-0.448,14.575-0.704,21.518c0,0.192-0.048,0.304-0.128,0.368s-0.192,0.08-0.32,0.08h-2.816h-2.816c-0.192,0-0.32-0.032-0.4-0.104
			s-0.112-0.184-0.112-0.344l1.152-20.926l1.152-20.926c0.032-0.16,0.064-0.256,0.128-0.312S31.808,28.502,31.968,28.502z"/>
		<path class="st1" d="M98.846,64.724c0,0.224,0.016,0.672,0.048,1.336s0.08,1.544,0.144,2.632c0,0.128-0.016,0.224-0.064,0.296
			s-0.128,0.12-0.256,0.152c-1.696,0.64-3.472,1.296-5.416,1.792s-4.056,0.832-6.423,0.832c-2.912,0-5.76-0.56-7.88-2.24
			s-3.512-4.48-3.512-8.959V50.357V40.15c0-0.16,0.032-0.288,0.104-0.376s0.184-0.136,0.344-0.136h3.04h3.04
			c0.16,0,0.272,0.048,0.344,0.136s0.104,0.216,0.104,0.376v9.791v9.791c0,1.888,0.368,3.344,1.232,4.327s2.224,1.496,4.208,1.496
			c0.8,0,1.552-0.08,2.224-0.208s1.264-0.304,1.744-0.496V52.501V40.15c0-0.16,0.032-0.288,0.104-0.376s0.184-0.136,0.344-0.136
			h3.04h3.04c0.192,0,0.304,0.048,0.368,0.136s0.08,0.216,0.08,0.376v12.287V64.724z"/>
	</g>
</g>
<g>
</g>
<g>
</g>
<g>
</g>
<g>
</g>
<g>
</g>
<g>
</g>
</svg>
