<?xml version="1.0" encoding="utf-8"?>
<!-- Generator: Adobe Illustrator 21.1.0, SVG Export Plug-In . SVG Version: 6.00 Build 0)  -->
<svg version="1.1" id="Layer_1" xmlns="http://www.w3.org/2000/svg" xmlns:xlink="http://www.w3.org/1999/xlink" x="0px" y="0px"
	 viewBox="0 0 128 128" style="enable-background:new 0 0 128 128;" xml:space="preserve">
<style type="text/css">
	.st0{fill:#28092E;}
	.st1{fill:#E873FF;}
	.st2{fill:#FAFAFA;}
</style>
<g>
	<path class="st0" d="M24,126c-5.514,0-10-4.486-10-10V12c0-5.514,4.486-10,10-10h61.521c2.132,0,4.137,0.829,5.646,2.333
		l20.48,20.408c1.495,1.49,2.353,3.555,2.353,5.667V116c0,5.514-4.486,10-10,10H24z"/>
	<path class="st1" d="M85.52,4c1.588,0,3.111,0.629,4.235,1.75l20.48,20.408c1.13,1.126,1.765,2.655,1.765,4.25V116
		c0,4.418-3.582,8-8,8H24c-4.418,0-8-3.582-8-8V12c0-4.418,3.582-8,8-8H85.52 M85.52,0H24c-6.617,0-12,5.383-12,12v104
		c0,6.617,5.383,12,12,12h80c6.617,0,12-5.383,12-12V30.408c0-2.639-1.072-5.221-2.941-7.084L92.579,2.917
		C90.691,1.036,88.185,0,85.52,0L85.52,0z"/>
</g>
<g>
	<g>
		<path class="st2" d="M38.982,91.724c0-0.056,0.007-0.104,0.031-0.139s0.066-0.056,0.137-0.056
			c0.546-0.028,1.218-0.049,1.964-0.063s1.564-0.021,2.405-0.021c2.352,0,4.039,0.644,5.138,1.701s1.61,2.527,1.61,4.179
			c0,2.156-0.777,3.696-2.034,4.696s-2.993,1.463-4.911,1.463c-0.322,0-0.539-0.007-0.731-0.014s-0.361-0.014-0.585-0.014v3.262
			v3.262c0,0.07-0.014,0.119-0.045,0.151s-0.08,0.045-0.15,0.045h-1.316h-1.316c-0.07,0-0.119-0.014-0.151-0.045
			s-0.046-0.081-0.046-0.151v-9.128V91.724z M42.006,100.74c0.196,0.014,0.371,0.021,0.581,0.024s0.455,0.003,0.791,0.003
			c0.994,0,1.953-0.175,2.663-0.686s1.173-1.358,1.173-2.702c0-1.078-0.329-1.89-0.941-2.433s-1.508-0.815-2.643-0.815
			c-0.336,0-0.665,0.007-0.948,0.018s-0.522,0.024-0.676,0.038v3.276V100.74z"/>
		<path class="st2" d="M56.287,109.979c0,0.07-0.014,0.119-0.046,0.151s-0.08,0.045-0.15,0.045h-1.288h-1.288
			c-0.084,0-0.14-0.014-0.175-0.049s-0.049-0.091-0.049-0.175v-9.086V91.78c0-0.07,0.014-0.133,0.042-0.179s0.07-0.073,0.126-0.073
			c0.686-0.028,1.351-0.049,2.104-0.063s1.592-0.021,2.628-0.021c2.002,0,3.605,0.476,4.708,1.386s1.705,2.254,1.705,3.99
			c0,1.428-0.476,2.541-1.151,3.37s-1.55,1.375-2.349,1.669c0.406,0.7,1.295,2.296,2.195,3.927s1.81,3.297,2.258,4.137
			c0.042,0.07,0.063,0.133,0.049,0.178s-0.063,0.074-0.161,0.074h-1.456h-1.456c-0.098,0-0.168-0.014-0.221-0.038
			s-0.088-0.059-0.116-0.101c-0.322-0.56-0.987-1.806-1.732-3.206s-1.572-2.954-2.216-4.13h-0.98h-0.98v3.64V109.979z
			 M57.995,100.012c1.022,0,1.904-0.203,2.53-0.668s0.997-1.193,0.997-2.244c0-1.022-0.336-1.764-0.931-2.25
			s-1.449-0.717-2.485-0.717c-0.364,0-0.721,0.007-1.036,0.018s-0.588,0.024-0.784,0.038V97.1v2.912h0.854H57.995z"/>
		<path class="st2" d="M81.822,100.656c0.014,3.122-0.693,5.564-1.957,7.227s-3.083,2.545-5.295,2.545
			c-2.24,0-4.046-0.924-5.292-2.597s-1.932-4.095-1.932-7.09c0-2.912,0.735-5.285,2.013-6.93s3.098-2.562,5.268-2.562
			c2.268,0,4.067,0.966,5.299,2.625S81.822,97.884,81.822,100.656z M74.682,107.684c1.302,0,2.303-0.672,2.979-1.879
			s1.025-2.95,1.025-5.092c-0.014-2.128-0.392-3.808-1.092-4.956s-1.722-1.764-3.024-1.764c-1.176,0-2.191,0.532-2.912,1.641
			s-1.148,2.797-1.148,5.107c0,2.016,0.35,3.751,1.047,4.983S73.296,107.684,74.682,107.684z"/>
		<path class="st2" d="M86.078,91.696c0-0.07,0.014-0.119,0.049-0.151s0.091-0.045,0.175-0.045h1.316h1.316
			c0.084,0,0.133,0.014,0.161,0.045s0.035,0.081,0.035,0.151v6.916v6.916c0,0.434-0.014,0.861-0.049,1.264s-0.091,0.781-0.175,1.117
			c-0.308,1.344-0.952,2.275-1.81,2.87s-1.928,0.854-3.09,0.854c-0.182,0-0.357-0.007-0.525-0.021s-0.329-0.035-0.484-0.063
			c-0.084-0.014-0.133-0.042-0.161-0.088s-0.035-0.109-0.035-0.193v-1.148v-1.148c0-0.07,0.014-0.119,0.045-0.147
			s0.08-0.035,0.15-0.021c0.154,0.014,0.266,0.021,0.364,0.025s0.182,0.004,0.28,0.004c0.742,0,1.351-0.161,1.774-0.62
			s0.661-1.215,0.661-2.405v-7.056V91.696z"/>
	</g>
</g>
<g>
	<g>
		<path class="st1" d="M43.2,29.015c0-0.128,0.016-0.24,0.072-0.32s0.152-0.128,0.312-0.128c1.248-0.064,2.784-0.112,4.488-0.144
			s3.576-0.048,5.496-0.048c5.375,0,9.231,1.472,11.743,3.888s3.68,5.776,3.68,9.551c0,4.928-1.776,8.448-4.648,10.735
			s-6.84,3.344-11.224,3.344c-0.736,0-1.232-0.016-1.672-0.032s-0.824-0.032-1.336-0.032v7.455v7.455
			c0,0.16-0.032,0.272-0.104,0.344s-0.184,0.104-0.344,0.104h-3.008h-3.008c-0.16,0-0.272-0.032-0.344-0.104
			S43.2,70.899,43.2,70.739V49.877V29.015z M50.111,49.621c0.448,0.032,0.848,0.048,1.328,0.056s1.04,0.008,1.808,0.008
			c2.272,0,4.464-0.4,6.087-1.568s2.68-3.104,2.68-6.176c0-2.464-0.752-4.319-2.152-5.559s-3.448-1.864-6.04-1.864
			c-0.768,0-1.52,0.016-2.168,0.04s-1.192,0.056-1.544,0.088v7.488V49.621z"/>
		<path class="st1" d="M74.239,46.102c0-0.224,0-0.624-0.024-1.24s-0.072-1.448-0.168-2.536c0-0.16,0.016-0.256,0.064-0.328
			s0.128-0.12,0.256-0.184c1.184-0.48,3.168-1.152,5.64-1.704s5.432-0.984,8.567-0.984c0.16,0,0.272,0.016,0.344,0.072
			s0.104,0.152,0.104,0.312v2.816v2.816c0,0.16-0.032,0.256-0.104,0.312s-0.184,0.072-0.344,0.072
			c-1.216-0.064-2.72-0.016-4.088,0.12s-2.6,0.36-3.272,0.648v12.223v12.223c0,0.16-0.032,0.272-0.104,0.344
			s-0.184,0.104-0.344,0.104h-3.04h-3.04c-0.16,0-0.272-0.032-0.344-0.104s-0.104-0.184-0.104-0.344V58.42V46.102z"/>
	</g>
</g>
<g>
</g>
<g>
</g>
<g>
</g>
<g>
</g>
<g>
</g>
<g>
</g>
</svg>
