<?xml version="1.0" encoding="utf-8"?>
<!-- Generator: Adobe Illustrator 24.0.1, SVG Export Plug-In . SVG Version: 6.00 Build 0)  -->
<svg version="1.1" id="Layer_1" xmlns="http://www.w3.org/2000/svg" xmlns:xlink="http://www.w3.org/1999/xlink" x="0px" y="0px"
	 viewBox="0 0 64 64" style="enable-background:new 0 0 64 64;" xml:space="preserve">
<style type="text/css">
	.st0{fill:#F5F5F5;}
	.st1{fill:#B3B3B3;}
	.st2{fill:#4B4B4B;}
	.st3{enable-background:new    ;}
	.st4{fill:#2C2C2C;}
</style>
<title>Artboard 1</title>
<g id="Surface">
	<g id="Document">
		<g id="Document_Fill">
			<path id="_64" class="st0" d="M14,60.6c-2.7,0-4.9-2.2-5-4.9V8.5c0.1-2.7,2.3-4.9,5-4.9h27.5c1.3,0,2.6,0.5,3.5,1.4l8.5,8.3
				c0.9,0.9,1.5,2.2,1.5,3.5v38.9c-0.1,2.7-2.3,4.9-5,4.9H14z"/>
		</g>
		<g id="Document_Outline">
			<path id="_64-2" class="st1" d="M41.5,4c1.1,0,2.1,0.4,2.8,1.2l8.5,8.3c0.8,0.7,1.2,1.6,1.2,2.7v38.9c0,2.2-1.9,4-4.1,3.9
				c0,0,0,0,0,0H14c-2.2,0-3.9-1.7-4-3.9V7.9C10,5.7,11.8,4,14,4H41.5 M41.5,2H14c-3.3,0-5.9,2.6-6,5.9v47.2c0,3.3,2.7,5.9,6,5.9
				c0,0,0,0,0,0h36c3.2,0.1,5.9-2.5,6-5.7c0,0,0,0,0,0v-39c0-1.6-0.6-3.1-1.8-4.2l-8.5-8.3C44.6,2.6,43.1,2,41.5,2L41.5,2z"/>
		</g>
	</g>
</g>
<g id="Modifier">
	<g id="Audio">
		<g id="_64-3">
			<path class="st2" d="M32,36c-0.6,0-1-0.4-1-1V18.1c0-0.8,0.1-1.1,0.7-1.2c0.5-0.2,1.1,0.1,1.2,0.7v0.6L33,35c0,0.5-0.4,1-0.9,1
				c0,0,0,0,0,0H32z"/>
			<path class="st2" d="M28,32c-0.6-0.1-1-0.5-1-1.1V22c0-0.6,0.4-1,1-1c0.5,0,1,0.4,1,0.9c0,0,0,0,0,0v9c0.1,0.5-0.3,1-0.9,1.1
				c0,0,0,0,0,0H28z"/>
			<path class="st2" d="M36,38c-0.6-0.1-1-0.6-0.9-1.1v-22c0-0.5,0.3-0.9,0.8-0.9H36c0.5,0,1,0.4,1,0.9c0,0,0,0,0,0V37
				C37,37.6,36.6,38,36,38z"/>
			<path class="st2" d="M24,37c-0.5,0.1-0.9-0.2-1-0.7c0,0,0,0,0,0c0,0,0-0.1,0-0.1V17.2c-0.1-0.6,0.3-1.1,0.9-1.2c0,0,0,0,0,0H24
				c0.6,0,1,0.4,1,1v18.9C25,36.5,24.6,37,24,37C24.1,37,24.1,37,24,37L24,37z"/>
			<path class="st2" d="M40,31c-0.6,0-1-0.4-1-1v-6.9c-0.2-0.5,0.1-1.1,0.7-1.2c0.5-0.2,1.1,0.1,1.2,0.7c0.1,0.2,0.1,0.4,0,0.6
				L41,30C41,30.6,40.6,31,40,31z"/>
			<path class="st2" d="M19.9,31.9c-0.6,0-1-0.5-0.9-1.1c0,0,0,0,0,0l0,0v-8.9c0-0.5,0.4-0.9,0.9-0.9l0,0H20
				c0.4-0.1,0.8,0.2,0.8,0.6c0,0,0,0,0,0c0,0.1,0,0.1,0,0.2l0.1,9C21,31.4,20.6,31.9,19.9,31.9C20,31.9,20,31.9,19.9,31.9L19.9,31.9
				z"/>
			<path class="st2" d="M44,33.9c-0.6,0-1-0.4-1-1V19c0-0.5,0.4-0.9,0.9-0.9c0,0,0,0,0,0h0.1c0.6,0,1,0.4,1,1L45,33
				C45,33.5,44.5,33.9,44,33.9z"/>
		</g>
	</g>
</g>
<g id="Mime">
	<g id="_64-4">
		<g class="st3">
			<path class="st4" d="M23.8,50.2l-0.6,2.4c0,0.1,0,0.1-0.1,0.1h-1.2c-0.1,0-0.1,0-0.1-0.1l2.2-7.8c0-0.1,0.1-0.3,0.1-0.7
				c0-0.1,0-0.1,0.1-0.1h1.7c0.1,0,0.1,0,0.1,0.1l2.5,8.5c0,0.1,0,0.1-0.1,0.1h-1.3c-0.1,0-0.1,0-0.1-0.1l-0.6-2.4H23.8z M26,48.9
				c-0.2-0.9-0.7-2.8-0.9-3.7h0c-0.2,0.9-0.6,2.5-0.9,3.7H26z"/>
		</g>
		<g class="st3">
			<path class="st4" d="M31.2,50.2l-0.6,2.4c0,0.1,0,0.1-0.1,0.1h-1.2c-0.1,0-0.1,0-0.1-0.1l2.2-7.8c0-0.1,0.1-0.3,0.1-0.7
				c0-0.1,0-0.1,0.1-0.1h1.7c0.1,0,0.1,0,0.1,0.1l2.5,8.5c0,0.1,0,0.1-0.1,0.1h-1.3c-0.1,0-0.1,0-0.1-0.1l-0.7-2.4H31.2z M33.4,48.9
				c-0.2-0.9-0.7-2.8-0.9-3.7h0c-0.2,0.9-0.6,2.5-0.9,3.7H33.4z"/>
		</g>
		<g class="st3">
			<path class="st4" d="M41.9,52.4c0,0.1,0,0.1-0.1,0.1c-0.3,0.1-0.9,0.2-1.4,0.2c-2,0-3.8-1.3-3.8-4.4c0-2.7,1.6-4.5,4-4.5
				c0.6,0,1.1,0.1,1.4,0.2c0.1,0,0.1,0.1,0.1,0.1v1.1c0,0.1-0.1,0.1-0.1,0.1c-0.3-0.2-0.8-0.2-1.3-0.2c-1.5,0-2.5,1.2-2.5,3.1
				c0,2.5,1.4,3.2,2.5,3.2c0.5,0,0.9,0,1.2-0.2c0.1,0,0.1,0,0.1,0.1V52.4z"/>
		</g>
	</g>
</g>
</svg>
