<?xml version="1.0" encoding="utf-8"?>
<!-- Generator: Adobe Illustrator 22.1.0, SVG Export Plug-In . SVG Version: 6.00 Build 0)  -->
<svg version="1.1" id="Layer_1" xmlns="http://www.w3.org/2000/svg" xmlns:xlink="http://www.w3.org/1999/xlink" x="0px" y="0px"
	 viewBox="0 0 64 64" style="enable-background:new 0 0 64 64;" xml:space="preserve">
<style type="text/css">
	.st0{display:none;}
	.st1{display:inline;fill:#261D00;}
	.st2{display:inline;}
	.st3{fill:#FFBF00;}
	.st4{display:inline;fill:#2E0918;}
	.st5{fill:#FF3388;}
	.st6{display:inline;fill:#FF3388;}
	.st7{fill:#FFFFFF;}
	.st8{fill:#FF2116;}
	.st9{display:inline;fill:#FFFFFF;}
	.st10{display:inline;fill:#B3B3B3;}
	.st11{fill:#FFF7CC;}
	.st12{fill:#2C2C2C;}
</style>
<g id="Surface">
	<g id="Envelope" class="st0">
		<path class="st1" d="M12,63c-2.8,0-5-2.2-5-5V2c0-0.6,0.4-1,1-1h48c0.6,0,1,0.4,1,1v56c0,2.8-2.2,5-5,5H12z"/>
		<g class="st2">
			<path class="st3" d="M56.8,0.2C56.6,0.1,56.3,0,56,0H8C7.7,0,7.4,0.1,7.2,0.2C6.5,0.5,6,1.1,6,1.9V2v56c0,3.3,2.7,6,6,6h40
				c3.3,0,6-2.7,6-6V1.9C58,1.1,57.5,0.5,56.8,0.2z M55.3,2L51,7.3c-0.2,0.2-0.5,0.4-0.8,0.4H14c-0.3,0-0.6-0.1-0.8-0.3L8.7,2H55.3z
				 M56,58c0,2.2-1.8,4-4,4H12c-2.2,0-4-1.8-4-4V4.2l3.7,4.3c0.6,0.7,1.4,1.1,2.3,1.1h36.2c0.9,0,1.7-0.4,2.3-1.1L56,4.3V58z"/>
		</g>
	</g>
	<g id="Pad" class="st0">
		<path class="st4" d="M12,63c-2.8,0-5-2.2-5-5V2c0-0.6,0.4-1,1-1h48c0.6,0,1,0.4,1,1v56c0,2.8-2.2,5-5,5H12z"/>
		<g class="st2">
			<path class="st5" d="M56,0H8C6.9,0,6,0.9,6,2v56c0,3.3,2.7,6,6,6h40c3.3,0,6-2.7,6-6V2C58,0.9,57.1,0,56,0z M56,58
				c0,2.2-1.8,4-4,4H12c-2.2,0-4-1.8-4-4V6h48V58z"/>
		</g>
	</g>
	<g id="Book" class="st0">
		<path class="st4" d="M12,63c-2.8,0-5-2.2-5-5V6c0-2.8,2.2-5,5-5h36c0.6,0,1,0.4,1,1v5h7c0.6,0,1,0.4,1,1v50c0,2.8-2.2,5-5,5H12z"
			/>
		<path class="st6" d="M56,6h-6V2c0-1.1-0.9-2-2-2H12c-0.7,0-1.4,0.1-2.1,0.4C7.6,1.2,6,3.4,6,6v52c0,3.3,2.7,6,6,6h40
			c3.3,0,6-2.7,6-6V8C58,6.9,57.1,6,56,6z M10.7,2.2C10.9,2.1,11.3,2,11.6,2H48v4H11.6c-1.1,0-2-0.9-2-2C9.6,3.3,10,2.6,10.7,2.2
			C10.6,2.2,10.7,2.2,10.7,2.2z M56,58c0,2.2-1.8,4-4,4H12c-2.2,0-4-1.8-4-4V6c0-0.1,0-0.1,0-0.2C8.7,7.1,10,8,11.6,8h39.9
			c0.1,0,0.2,0,0.3,0H56V58z"/>
	</g>
	<g id="Document">
		<g>
			<path class="st7" d="M12,63c-2.8,0-5-2.2-5-5V6c0-2.8,2.2-5,5-5h30.8c1.1,0,2.1,0.4,2.8,1.2l10.2,10.2c0.8,0.8,1.2,1.8,1.2,2.8
				V58c0,2.8-2.2,5-5,5H12z"/>
			<path class="st8" d="M42.8,2c0.8,0,1.6,0.3,2.1,0.9l10.2,10.2c0.6,0.6,0.9,1.3,0.9,2.1V58c0,2.2-1.8,4-4,4H12c-2.2,0-4-1.8-4-4V6
				c0-2.2,1.8-4,4-4H42.8 M42.8,0H12C8.7,0,6,2.7,6,6v52c0,3.3,2.7,6,6,6h40c3.3,0,6-2.7,6-6V15.2c0-1.3-0.5-2.6-1.5-3.5L46.3,1.5
				C45.3,0.5,44.1,0,42.8,0L42.8,0z"/>
		</g>
	</g>
	<g id="Generic_Document" class="st0">
		<path class="st9" d="M12,63c-2.8,0-5-2.2-5-5V6c0-2.8,2.2-5,5-5h30.8c1.1,0,2.1,0.4,2.8,1.2l10.2,10.2c0.8,0.8,1.2,1.8,1.2,2.8V58
			c0,2.8-2.2,5-5,5H12z"/>
		<path class="st10" d="M56.5,11.7L46.3,1.5c-1-1-2.2-1.5-3.5-1.5H12C8.7,0,6,2.7,6,6v52c0,3.3,2.7,6,6,6h40c3.3,0,6-2.7,6-6V15.2
			C58,13.9,57.5,12.6,56.5,11.7z M45,3l10,10h-9c-0.5,0-1-0.4-1-1V3z M56,58c0,2.2-1.8,4-4,4H12c-2.2,0-4-1.8-4-4V6c0-2.2,1.8-4,4-4
			h30.8C42.9,2,43,2,43,2v10c0,1.6,1.3,3,3,3h10c0,0.1,0,0.1,0,0.2V58z"/>
	</g>
</g>
<g id="Mnem" class="st0">
	<g id="_x36_4_6_" class="st2">
		<g>
			<path class="st11" d="M18.6,34.9c-0.1-0.1-0.2-0.2-0.2-0.4v-3.1c0-0.1,0.1-0.2,0.3-0.1c1.4,1,3.1,1.4,4.7,1.4
				c2.3,0,3.3-1.2,3.3-2.6c0-1.2-0.6-2.2-2.8-3.5L22.7,26c-3.3-1.9-4.3-3.7-4.3-6.1c0-3.3,2.3-5.9,6.6-5.9c1.9,0,3.3,0.3,4.1,0.7
				c0.2,0.1,0.2,0.2,0.2,0.4V18c0,0.1-0.1,0.2-0.3,0.1c-1-0.6-2.4-1-3.9-1c-2.5,0-3.3,1.4-3.3,2.5c0,1.2,0.6,2.1,2.8,3.3l1,0.5
				c3.6,2,4.6,4,4.6,6.4c0,3.6-2.6,6-6.8,6C21.6,35.9,19.8,35.5,18.6,34.9z"/>
			<path class="st11" d="M45.6,27.2c0,5.8-4.1,8.6-8.2,8.6c-0.3,0-0.5,0-0.8-0.1v4.4c0,0.1-0.1,0.2-0.2,0.2l-3,0.3
				c-0.2,0-0.2,0-0.2-0.2v-18c0-0.4,0-1.3-0.1-1.7c0,0,0-0.1,0.1-0.2c1.3-0.4,3.2-1.1,5.5-1.1C43.2,19.6,45.6,22.9,45.6,27.2z
				 M36.6,22.9v9.9c0.3,0.1,0.7,0.1,1.1,0.1c2.1,0,4.4-1.5,4.4-5.4c0-3.2-1.4-4.9-3.8-4.9C37.6,22.6,37.1,22.7,36.6,22.9z"/>
		</g>
	</g>
</g>
<g id="_x32_56_17_">
	<g>
		<path class="st8" d="M44.275,28.85c-0.35-0.375-0.925-0.675-1.675-0.881s-1.675-0.319-2.725-0.319c-0.6,0-1.237,0.038-1.906,0.106
			c-0.669,0.069-1.369,0.169-2.094,0.294c-0.425-0.4-0.85-0.837-1.269-1.312s-0.831-0.987-1.231-1.538
			c-0.275-0.4-0.55-0.8-0.812-1.2c-0.262-0.4-0.512-0.8-0.737-1.2c0.375-1.175,0.7-2.325,0.931-3.394
			c0.231-1.069,0.369-2.056,0.369-2.906c0-0.625-0.1-1.462-0.438-2.144s-0.913-1.206-1.862-1.206c-0.25,0-0.513,0.075-0.744,0.206
			c-0.231,0.131-0.431,0.319-0.556,0.544c-0.375,0.675-0.487,1.8-0.325,3.15c0.163,1.35,0.6,2.925,1.325,4.5
			C30.275,22.3,30,23.062,29.7,23.856c-0.3,0.794-0.625,1.619-0.975,2.494c-0.3,0.725-0.625,1.45-0.969,2.163
			s-0.706,1.413-1.081,2.087c-2.05,0.825-3.737,1.688-4.944,2.531c-1.206,0.844-1.931,1.669-2.056,2.419
			c-0.05,0.25-0.038,0.487,0.038,0.713c0.075,0.225,0.212,0.437,0.413,0.637c0.125,0.1,0.312,0.237,0.562,0.35s0.562,0.2,0.938,0.2
			c1.175,0,2.425-0.862,3.625-2.169c1.2-1.306,2.35-3.056,3.325-4.831c0.55-0.2,1.112-0.388,1.688-0.562s1.163-0.337,1.763-0.487
			c0.65-0.175,1.275-0.325,1.888-0.456c0.612-0.131,1.213-0.244,1.812-0.344c1.425,1.3,2.762,2.013,3.906,2.4
			c1.144,0.388,2.094,0.45,2.744,0.45c0.775,0,1.267-0.12,1.595-0.312s0.49-0.454,0.605-0.738c0.103-0.341,0.103-0.653,0.04-0.918
			C44.552,29.217,44.425,29,44.275,28.85z M29.925,14.15c0.1-0.175,0.225-0.312,0.369-0.406C30.438,13.65,30.6,13.6,30.775,13.6
			c0.35,0,0.625,0.15,0.812,0.444s0.288,0.731,0.288,1.306c0,0.6-0.1,1.4-0.288,2.338s-0.462,2.012-0.812,3.162
			c-0.7-1.6-1.05-3.037-1.156-4.194C29.513,15.5,29.65,14.625,29.925,14.15z M20.125,35.6c0.125-0.625,0.775-1.338,1.837-2.081
			C23.025,32.775,24.5,32,26.275,31.25c-1,1.7-2,3.075-2.9,4.025s-1.7,1.475-2.3,1.475c-0.125,0-0.237-0.025-0.344-0.069
			c-0.106-0.044-0.206-0.106-0.306-0.181c-0.125-0.125-0.213-0.275-0.263-0.431C20.112,35.912,20.1,35.75,20.125,35.6z
			 M35.275,28.15c-0.525,0.1-1.075,0.212-1.638,0.337S32.5,28.75,31.925,28.9c-0.5,0.125-1,0.262-1.494,0.413
			c-0.494,0.15-0.981,0.312-1.456,0.487c0.275-0.525,0.538-1.037,0.775-1.537s0.45-0.988,0.625-1.463
			c0.225-0.55,0.45-1.112,0.669-1.681s0.431-1.144,0.631-1.719c0.2,0.35,0.412,0.7,0.638,1.05c0.225,0.35,0.462,0.7,0.712,1.05
			c0.35,0.475,0.713,0.938,1.088,1.381S34.875,27.75,35.275,28.15L35.275,28.15L35.275,28.15L35.275,28.15L35.275,28.15z
			 M36.275,28.45c1.2-0.225,2.325-0.325,3.269-0.344c0.944-0.019,1.706,0.044,2.181,0.144c0.45,0.1,0.8,0.3,1.019,0.575
			c0.219,0.275,0.306,0.625,0.231,1.025c-0.075,0.425-0.362,0.738-0.769,0.913s-0.931,0.212-1.481,0.087
			c-0.9-0.225-1.713-0.575-2.45-0.994C37.537,29.438,36.875,28.95,36.275,28.45z"/>
	</g>
</g>
<g>
	<path class="st12" d="M21.81,45.914c0-0.014,0.001-0.027,0.003-0.039s0.006-0.022,0.012-0.031s0.014-0.016,0.026-0.02
		c0.011-0.005,0.025-0.007,0.043-0.007c0.136-0.007,0.288-0.013,0.453-0.018s0.342-0.01,0.528-0.013
		c0.186-0.004,0.382-0.006,0.583-0.008c0.201-0.002,0.408-0.003,0.618-0.003c0.587,0,1.092,0.08,1.518,0.227
		s0.774,0.359,1.049,0.623s0.476,0.58,0.608,0.932c0.132,0.353,0.196,0.743,0.196,1.155c0,0.538-0.097,1-0.273,1.389
		c-0.176,0.389-0.429,0.707-0.743,0.957c-0.314,0.25-0.688,0.433-1.103,0.553s-0.871,0.178-1.35,0.178
		c-0.081,0-0.148-0.001-0.207-0.002c-0.059-0.001-0.11-0.003-0.159-0.005c-0.048-0.002-0.093-0.004-0.14-0.005
		c-0.047-0.001-0.096-0.002-0.152-0.002v0.815v0.815v0.815v0.815c0,0.018-0.002,0.033-0.005,0.045s-0.009,0.023-0.017,0.03
		c-0.008,0.008-0.018,0.014-0.03,0.017c-0.012,0.004-0.027,0.005-0.045,0.005h-0.329h-0.329h-0.329h-0.329
		c-0.017,0-0.032-0.002-0.045-0.005c-0.012-0.004-0.022-0.009-0.03-0.017c-0.008-0.008-0.014-0.018-0.017-0.03
		c-0.004-0.013-0.005-0.027-0.005-0.045v-2.28v-2.28v-2.28V45.914z M23.32,50.417c0.049,0.004,0.095,0.006,0.143,0.008
		c0.047,0.002,0.095,0.003,0.148,0.004c0.052,0.001,0.109,0.001,0.174,0.002s0.137,0,0.221,0c0.248,0,0.492-0.022,0.718-0.076
		c0.226-0.054,0.435-0.139,0.612-0.267c0.177-0.128,0.324-0.297,0.426-0.519s0.16-0.495,0.16-0.831c0-0.269-0.041-0.505-0.12-0.708
		c-0.079-0.203-0.197-0.372-0.35-0.507s-0.341-0.237-0.562-0.305c-0.221-0.068-0.474-0.102-0.758-0.102
		c-0.084,0-0.167,0.001-0.247,0.002c-0.08,0.002-0.156,0.004-0.227,0.006c-0.071,0.003-0.136,0.006-0.193,0.009
		s-0.106,0.007-0.145,0.01v0.818v0.818v0.818V50.417z"/>
	<path class="st12" d="M28.957,45.928c0-0.018,0.001-0.033,0.003-0.045c0.003-0.013,0.007-0.023,0.014-0.032
		c0.007-0.009,0.017-0.016,0.03-0.021c0.013-0.006,0.03-0.01,0.051-0.014c0.081-0.004,0.199-0.008,0.345-0.013
		c0.147-0.005,0.322-0.009,0.517-0.014s0.409-0.008,0.635-0.011c0.225-0.003,0.461-0.005,0.699-0.005c0.71,0,1.33,0.115,1.862,0.328
		c0.532,0.214,0.974,0.527,1.328,0.924s0.619,0.878,0.796,1.427c0.177,0.549,0.265,1.167,0.265,1.839
		c0,0.934-0.153,1.705-0.412,2.336s-0.624,1.123-1.048,1.498c-0.424,0.375-0.907,0.633-1.402,0.798
		c-0.495,0.165-1.002,0.235-1.474,0.235c-0.178,0-0.377-0.001-0.58-0.002c-0.203-0.001-0.411-0.004-0.609-0.006
		c-0.198-0.003-0.385-0.006-0.546-0.009c-0.161-0.003-0.297-0.007-0.391-0.01c-0.014,0-0.026-0.003-0.037-0.008
		c-0.011-0.005-0.019-0.012-0.026-0.022c-0.007-0.01-0.012-0.021-0.016-0.035c-0.003-0.014-0.005-0.029-0.005-0.047v-2.273v-2.273
		v-2.273V45.928z M30.481,53.788c0.059,0.004,0.117,0.007,0.174,0.01c0.057,0.003,0.114,0.006,0.172,0.009s0.116,0.005,0.177,0.006
		s0.124,0.002,0.19,0.002c0.392,0,0.758-0.069,1.087-0.21c0.329-0.141,0.622-0.353,0.866-0.64c0.244-0.287,0.439-0.648,0.574-1.086
		c0.135-0.438,0.21-0.953,0.214-1.547c0.004-0.58-0.069-1.072-0.203-1.482c-0.134-0.41-0.33-0.74-0.573-0.997
		c-0.243-0.257-0.533-0.441-0.856-0.562s-0.679-0.176-1.053-0.176c-0.073,0-0.143,0.001-0.211,0.002
		c-0.067,0.002-0.132,0.004-0.195,0.006c-0.063,0.003-0.124,0.006-0.184,0.009s-0.12,0.007-0.179,0.01v1.661v1.661v1.661V53.788z"/>
	<path class="st12" d="M38.704,55.019c0,0.021-0.002,0.039-0.005,0.053c-0.004,0.014-0.009,0.026-0.017,0.035
		c-0.008,0.009-0.018,0.015-0.03,0.019c-0.012,0.004-0.027,0.006-0.045,0.006h-0.332h-0.332H37.61h-0.332
		c-0.017,0-0.032-0.002-0.045-0.006c-0.012-0.004-0.023-0.01-0.03-0.019c-0.008-0.009-0.014-0.02-0.017-0.035
		c-0.004-0.014-0.006-0.032-0.006-0.053v-2.28v-2.28v-2.28v-2.28c0-0.017,0.002-0.032,0.006-0.045
		c0.004-0.012,0.009-0.022,0.017-0.03c0.008-0.008,0.018-0.014,0.03-0.017c0.012-0.004,0.027-0.006,0.045-0.006h1.164h1.164h1.164
		h1.164c0.021,0,0.038,0.002,0.051,0.006c0.013,0.004,0.023,0.009,0.031,0.017c0.008,0.008,0.014,0.018,0.018,0.03
		c0.005,0.012,0.008,0.027,0.012,0.045l0.035,0.294l0.035,0.294l0.035,0.294l0.035,0.294c0.004,0.021,0.004,0.039,0,0.053
		s-0.01,0.026-0.019,0.035s-0.022,0.015-0.038,0.019c-0.016,0.004-0.034,0.006-0.055,0.006h-0.843H40.39h-0.843h-0.843v0.664v0.664
		v0.664v0.664h0.755h0.755h0.755h0.755c0.018,0,0.033,0.001,0.045,0.004c0.013,0.003,0.023,0.007,0.03,0.014
		c0.008,0.007,0.014,0.017,0.017,0.03c0.004,0.013,0.005,0.03,0.005,0.051v0.294v0.294v0.294v0.294c0,0.021-0.002,0.038-0.005,0.051
		s-0.009,0.023-0.017,0.03c-0.008,0.007-0.018,0.011-0.03,0.014c-0.013,0.003-0.027,0.003-0.045,0.003H40.97h-0.755H39.46h-0.755
		v0.951v0.951v0.951V55.019z"/>
</g>
</svg>
