<svg xmlns="http://www.w3.org/2000/svg" viewBox="0 0 52 64">
  <defs>
    <style>
      .cls-1 {
        fill: #3e3e3e;
      }

      .cls-2 {
        fill: #999;
      }

      .cls-3 {
        fill: #fff;
      }

      .cls-4 {
        fill: #cdcdcd;
      }
    </style>
  </defs>
  <g id="s_acrobat_PDF_dark_64" transform="translate(-3)">
    <g id="Group_61034" data-name="Group 61034" transform="translate(3)">
      <path id="Path_36065" data-name="Path 36065" class="cls-1" d="M8.5,62.5a5.006,5.006,0,0,1-5-5V5.5a5.007,5.007,0,0,1,5-5H39.26a3.97,3.97,0,0,1,2.822,1.166l10.24,10.2A4.03,4.03,0,0,1,53.5,14.7V57.5a5,5,0,0,1-5,5Z" transform="translate(-2.5 0.5)"/>
      <path id="Path_36066" data-name="Path 36066" class="cls-2" d="M39.76,2a3,3,0,0,1,2.118.874l10.24,10.2A3.007,3.007,0,0,1,53,15.2V58a4,4,0,0,1-4,4H9a4,4,0,0,1-4-4V6A4,4,0,0,1,9,2H39.76m0-2H9A6.007,6.007,0,0,0,3,6V58a6.007,6.007,0,0,0,6,6H49a6.007,6.007,0,0,0,6-6V15.2a5.037,5.037,0,0,0-1.47-3.542L43.29,1.458A4.972,4.972,0,0,0,39.76,0Z" transform="translate(-3)"/>
    </g>
    <g id="Group_61036" data-name="Group 61036" transform="translate(19.15 45.716)">
      <g id="Group_61035" data-name="Group 61035">
        <path id="Path_36067" data-name="Path 36067" class="cls-3" d="M11.077,23a.125.125,0,0,1,.016-.07.076.076,0,0,1,.068-.028c.274-.014.61-.026.982-.032s.782-.012,1.2-.012a3.576,3.576,0,0,1,2.57.852,2.814,2.814,0,0,1,.806,2.09A2.839,2.839,0,0,1,15.7,28.15a3.922,3.922,0,0,1-2.458.732c-.162,0-.27,0-.366-.006s-.18-.006-.292-.006v3.264a.082.082,0,0,1-.1.1H11.173a.082.082,0,0,1-.1-.1V27.568l0-4.568Zm1.512,4.51c.1.006.186.01.29.012s.228,0,.4,0a2.272,2.272,0,0,0,1.332-.344,1.832,1.832,0,0,0,.116-2.568A1.941,1.941,0,0,0,13.4,24.2c-.168,0-.332,0-.474.008s-.26.012-.338.018v1.638S12.589,27.51,12.589,27.51Z" transform="translate(-11.075 -22.858)"/>
        <path id="Path_36068" data-name="Path 36068" class="cls-3" d="M14.653,23.013a.112.112,0,0,1,.018-.076.126.126,0,0,1,.082-.034c.16-.008.472-.018.862-.028s.86-.016,1.336-.016a4.089,4.089,0,0,1,3.2,1.254,4.807,4.807,0,0,1,1.062,3.272,4.858,4.858,0,0,1-1.462,3.838,4.36,4.36,0,0,1-2.88,1.034c-.356,0-.794,0-1.19-.008s-.75-.012-.938-.018a.07.07,0,0,1-.062-.03.142.142,0,0,1-.022-.082V27.567l0-4.554Zm1.528,7.87c.118.008.23.016.346.02s.234.008.368.008a2.468,2.468,0,0,0,1.956-.852,4.031,4.031,0,0,0,.79-2.636,3.466,3.466,0,0,0-.778-2.482,2.543,2.543,0,0,0-1.912-.738c-.148,0-.28,0-.406.008s-.244.012-.364.018v3.326S16.181,30.883,16.181,30.883Z" transform="translate(-7.497 -22.857)"/>
        <path id="Path_36069" data-name="Path 36069" class="cls-3" d="M20.3,32.1a.129.129,0,0,1-.024.088.092.092,0,0,1-.074.024H18.866a.094.094,0,0,1-.076-.024.129.129,0,0,1-.022-.088V22.972a.084.084,0,0,1,.1-.1h4.668a.108.108,0,0,1,.082.024.159.159,0,0,1,.03.076l.07.588.07.588a.093.093,0,0,1-.02.088.139.139,0,0,1-.094.024H20.3v2.664H23.32a.112.112,0,0,1,.076.018c.016.014.022.038.022.08V28.2c0,.042-.006.066-.022.08a.112.112,0,0,1-.076.018H20.3V30.2S20.3,32.1,20.3,32.1Z" transform="translate(-3.382 -22.844)"/>
      </g>
    </g>
    <g id="Group_61037" data-name="Group 61037" transform="translate(15.005 11.254)">
      <path id="Path_36070" data-name="Path 36070" class="cls-4" d="M36.685,23.521a4.009,4.009,0,0,0-1.954-1.042,12.242,12.242,0,0,0-3.14-.356c-.646,0-1.342.034-2.08.1s-1.516.174-2.33.312a19.975,19.975,0,0,1-1.376-1.472c-.448-.532-.888-1.1-1.314-1.714-.3-.432-.592-.874-.87-1.324s-.544-.9-.792-1.366a38.684,38.684,0,0,0,1.056-4.026,16.341,16.341,0,0,0,.354-3.108A5.792,5.792,0,0,0,23.7,6.855a2.177,2.177,0,0,0-2.032-1.228,1.986,1.986,0,0,0-.946.268,1.833,1.833,0,0,0-.72.692,6.19,6.19,0,0,0-.342,3.716A20.033,20.033,0,0,0,21.2,15.457c-.282.89-.612,1.726-.968,2.578s-.734,1.72-1.114,2.674c-.33.808-.644,1.55-.98,2.28s-.692,1.45-1.1,2.212a24.731,24.731,0,0,0-5.6,3.082,5.821,5.821,0,0,0-2.4,2.968,1.778,1.778,0,0,0,.056.9,1.874,1.874,0,0,0,.5.766,2,2,0,0,0,.548.368,2.761,2.761,0,0,0,1.2.256c1.512,0,3-1.238,4.316-2.854a34.22,34.22,0,0,0,3.276-5.122c.618-.22,1.3-.44,1.992-.646s1.38-.4,2.01-.568c.692-.19,1.36-.378,2.012-.546s1.286-.316,1.916-.424a13.639,13.639,0,0,0,4.5,2.826,9.354,9.354,0,0,0,3.156.618,3.349,3.349,0,0,0,1.834-.432,1.755,1.755,0,0,0,.718-.884,1.488,1.488,0,0,0,.082-.318,2.143,2.143,0,0,0,.022-.318,2.273,2.273,0,0,0-.132-.756A1.817,1.817,0,0,0,36.685,23.521ZM10.657,32.627a1,1,0,0,1-.336-.054.784.784,0,0,1-.276-.166,1.02,1.02,0,0,1-.268-.454,1.133,1.133,0,0,1-.01-.538,5.38,5.38,0,0,1,2.1-2.434,23.335,23.335,0,0,1,4.672-2.692,18.345,18.345,0,0,1-3.2,4.652A4.739,4.739,0,0,1,10.657,32.627Zm9.654-23.77a6.343,6.343,0,0,1,.106-1.19,2.837,2.837,0,0,1,.288-.852,1.089,1.089,0,0,1,.354-.392.855.855,0,0,1,.466-.14,1.158,1.158,0,0,1,1,.662,2.643,2.643,0,0,1,.322,1.182,11.162,11.162,0,0,1-.4,2.842c-.258,1.04-.61,2.168-.968,3.364a18.451,18.451,0,0,1-.884-2.99A13.077,13.077,0,0,1,20.311,8.857ZM22.7,23.531c-.49.138-1.046.278-1.6.426s-1.116.3-1.614.468c.266-.532.522-1.12.762-1.7s.462-1.15.658-1.646c.242-.606.488-1.24.72-1.872s.454-1.256.65-1.846c.22.376.494.828.77,1.272s.556.872.788,1.2c.376.536.762,1.048,1.156,1.53s.8.936,1.2,1.356c-.554.1-1.122.226-1.7.36S23.307,23.371,22.7,23.531ZM36,24.749a1.214,1.214,0,0,1-.206.488,1.272,1.272,0,0,1-.456.4,2.371,2.371,0,0,1-1.008.3,5.243,5.243,0,0,1-1.374-.04,8.21,8.21,0,0,1-2.614-1.012A16.457,16.457,0,0,1,27.805,23.1a22.188,22.188,0,0,1,3.538-.3A16.687,16.687,0,0,1,34,22.957a3.16,3.16,0,0,1,1.508.654A1.206,1.206,0,0,1,36,24.749Z" transform="translate(-9.003 -5.627)"/>
    </g>
  </g>
</svg>
