<svg xmlns="http://www.w3.org/2000/svg" width="18" height="18" viewBox="0 0 18 18">
  <g fill="none" fill-rule="evenodd">
    <path fill="#B3B3B3" fill-rule="nonzero" d="M10.8145519,1 L4.00104662,1 C2.85430792,1 2,1.77393475 2,3.02369172 L2.00666047,15.1460299 C2.00666032,16.288342 2.76279698,17 3.99904853,17 L13.2004616,17 C14.4240444,17 15.0423265,16.3372048 15.0423265,15.1408183 L15.0423265,5.43606089 C15.0423265,4.96707649 14.8752662,4.52648111 14.5738634,4.17385807 L12.2647314,1.71093676 C11.813976,1.26706306 11.3781416,1 10.8145519,1 Z M10.8145519,2 C11.0789668,2 11.3490045,2.21203819 11.5354936,2.39519709 L13.7526025,4.75803996 C13.9390915,4.94186489 14.0423265,5.17764034 14.0423265,5.43606089 L14.0423265,15.1408183 C14.0423265,15.7782112 13.8758185,16 13.2004616,16 L3.99904853,16 C3.25975262,16 3.00666032,15.6823026 3.00666032,15.1454805 L3,3.02369172 C3,2.29105614 3.45023787,2 4.00104662,2 L10.8145519,2 Z"/>
    <path fill="#252525" d="M10.8145519,2 C11.0789668,2 11.3490045,2.21203819 11.5354936,2.39519709 L13.7526025,4.75803996 C13.9390915,4.94186489 14.0423265,5.17764034 14.0423265,5.43606089 L14.0423265,15.1408183 C14.0423265,15.7782112 13.8758185,16 13.2004616,16 L3.99904853,16 C3.25975262,16 3.00666032,15.6823026 3.00666032,15.1454805 L3,3.02369172 C3,2.29105614 3.45023787,2 4.00104662,2 L10.8145519,2 Z"/>
    <path fill="#E3E3E3" fill-rule="nonzero" d="M6.04960653,4.5 C5.7506417,4.50274784 5.50973103,4.74632563 5.50974361,5.04583975 L5.50974361,5.51656394 L5.03986292,5.51656394 C4.742029,5.52197783 4.502659,5.7639979 4.5,6.0624037 L4.5,10.4541602 C4.502659,10.752566 4.742029,10.9945861 5.03986292,11 L10.9683576,11 C11.2661915,10.9945861 11.5055615,10.752566 11.5082205,10.4541602 L11.5,10 L11.9498858,10 C12.2477197,9.99458611 12.4953102,9.76104062 12.4979692,9.46263482 L12.4979692,5.05585516 C12.510638,4.91542313 12.4636208,4.7761479 12.3684683,4.67224553 C12.2733158,4.56834315 12.1388467,4.50944307 11.9980961,4.51001541 L6.04960653,4.5 Z M11.0083474,10.509245 L5.00987054,10.509245 L5.00987054,6.00231125 L11.0083474,6.00231125 L11.0083474,10.509245 Z M11.5,9.5 L11.5082205,6.07241911 C11.5055615,5.77401331 11.2661915,5.53199324 10.9683576,5.52657935 L6,5.51656394 L6,5 L12,5 L12,9.5 L11.5,9.5 Z"/>
    <path fill="#E3E3E3" d="M7.17998991,9.00691359 C7.08999496,9.05188629 7,8.95694392 7,8.86699852 L7,7.1230571 C7.00479227,7.08391661 7.02932691,7.04996427 7.06499636,7.03311169 C7.10083144,7.01355939 7.14415483,7.01355939 7.17998991,7.03311169 L8.93489156,7.90258392 C8.97441577,7.92762799 8.99880498,7.97075437 8.99988791,8.01751416 C9.00189982,8.06507158 8.9766957,8.10963893 8.93489156,8.13244439 L7.17998991,9.00691359 Z"/>
    <g transform="translate(2 1)">
      <path fill="#B3B3B3" fill-rule="nonzero" d="M8.81455193,0 L2.00104662,0 C0.854307915,0 -2.7065461e-11,0.773934752 -2.7065461e-11,2.02369172 L0.00666047442,14.1460299 C0.00666032347,15.288342 0.762796975,16 1.99904853,16 L11.2004616,16 C12.4240444,16 13.0423265,15.3372048 13.0423265,14.1408183 L13.0423265,4.43606089 C13.0423265,3.96707649 12.8752662,3.52648111 12.5738634,3.17385807 L10.2647314,0.710936759 C9.81397601,0.267063057 9.37814164,0 8.81455193,0 Z M8.81455193,1 C9.07896677,1 9.34900455,1.21203819 9.5354936,1.39519709 L11.7526025,3.75803996 C11.9390915,3.94186489 12.0423265,4.17764034 12.0423265,4.43606089 L12.0423265,14.1408183 C12.0423265,14.7782112 11.8758185,15 11.2004616,15 L1.99904853,15 C1.25975262,15 1.00666032,14.6823026 1.00666032,14.1454805 L1,2.02369172 C1,1.29105614 1.45023787,1 2.00104662,1 L8.81455193,1 Z"/>
      <path fill="#252525" d="M8.81455193,1 C9.07896677,1 9.34900455,1.21203819 9.5354936,1.39519709 L11.7526025,3.75803996 C11.9390915,3.94186489 12.0423265,4.17764034 12.0423265,4.43606089 L12.0423265,14.1408183 C12.0423265,14.7782112 11.8758185,15 11.2004616,15 L1.99904853,15 C1.25975262,15 1.00666032,14.6823026 1.00666032,14.1454805 L1,2.02369172 C1,1.29105614 1.45023787,1 2.00104662,1 L8.81455193,1 Z"/>
    </g>
    <path fill="#E3E3E3" fill-rule="nonzero" d="M6.42795932 4.90285716L8.38091171 2.88887502C8.45527017 2.81216969 8.45527017 2.68783035 8.38091171 2.61112502L6.42795932.597142879C6.3535784.520460713 6.23300692.520460713 6.15862599.597142879L5.88910218.874892879C5.81474372.951598207 5.81474372 1.07593755 5.88910218 1.15264288L7.43805456 2.75000002 5.88910218 4.34735716C5.81474372 4.42406249 5.81474372 4.54840184 5.88910218 4.62510716L6.15862599 4.90285716C6.23300692 4.97953933 6.3535784 4.97953933 6.42795932 4.90285716zM3.04757837 4.34735716L1.49862599 2.75000002 3.04757837 1.15264288C3.12193684 1.07593755 3.12193684.951598207 3.04757837.874892879L2.77805456.597142879C2.70367364.520460713 2.58310215.520460713 2.50872123.597142879L.555768848 2.61112502C.481410384 2.68783035.481410384 2.81216969.555768848 2.88887502L2.50872123 4.90285716C2.58310215 4.97953933 2.70367364 4.97953933 2.77805456 4.90285716L3.04757837 4.62510716C3.12193684 4.54840184 3.12193684 4.42406249 3.04757837 4.34735716zM4.07995932 5.35955359L5.55519742.252410736C5.57233856.192959175 5.5612446.128651316 5.52527213.0789441815 5.48929966.0292370471 5.43267508 0 5.37253075 0L5.0561498 0C4.97189845 0 4.89768524.0571655375 4.87367361.140446451L3.39843551 5.24758931C3.38130393 5.30700773 3.39237553 5.37127918 3.42830386 5.42097714 3.46423218 5.4706751 3.5208009 5.5 3.58091171 5.5L3.89691171 5.5C3.98137445 5.5002153 4.05588763 5.44304379 4.07995932 5.35955359z" transform="translate(4 5)"/>
  </g>
</svg>
