<svg xmlns="http://www.w3.org/2000/svg" width="18" height="18" viewBox="0 0 18 18">
  <g fill="none" fill-rule="evenodd">
    <path fill="#B3B3B3" fill-rule="nonzero" d="M10.8145519,1 L4.00104662,1 C2.85430792,1 2,1.77393475 2,3.02369172 L2.00666047,15.1460299 C2.00666032,16.288342 2.76279698,17 3.99904853,17 L13.2004616,17 C14.4240444,17 15.0423265,16.3372048 15.0423265,15.1408183 L15.0423265,5.43606089 C15.0423265,4.96707649 14.8752662,4.52648111 14.5738634,4.17385807 L12.2647314,1.71093676 C11.813976,1.26706306 11.3781416,1 10.8145519,1 Z M10.8145519,2 C11.0789668,2 11.3490045,2.21203819 11.5354936,2.39519709 L13.7526025,4.75803996 C13.9390915,4.94186489 14.0423265,5.17764034 14.0423265,5.43606089 L14.0423265,15.1408183 C14.0423265,15.7782112 13.8758185,16 13.2004616,16 L3.99904853,16 C3.25975262,16 3.00666032,15.6823026 3.00666032,15.1454805 L3,3.02369172 C3,2.29105614 3.45023787,2 4.00104662,2 L10.8145519,2 Z"/>
    <path fill="#252525" d="M10.8145519,2 C11.0789668,2 11.3490045,2.21203819 11.5354936,2.39519709 L13.7526025,4.75803996 C13.9390915,4.94186489 14.0423265,5.17764034 14.0423265,5.43606089 L14.0423265,15.1408183 C14.0423265,15.7782112 13.8758185,16 13.2004616,16 L3.99904853,16 C3.25975262,16 3.00666032,15.6823026 3.00666032,15.1454805 L3,3.02369172 C3,2.29105614 3.45023787,2 4.00104662,2 L10.8145519,2 Z"/>
    <path fill="#E3E3E3" fill-rule="nonzero" d="M11.3789425,7.01924809 L9.3527866,7.01145767 L9.35244745,5.27703329 C9.34784492,5.16526627 9.28207612,5.065113 9.18134263,5.01647338 C9.04342578,4.9809226 8.89696486,5.00345505 8.77611145,5.07881664 L4.87696952,9.01150423 C4.80953406,9.08625131 4.84669563,9.27948549 4.88667013,9.37178343 C4.92922582,9.45605392 5.01960019,9.50507821 5.11344498,9.49479915 L6.85905623,9.49479915 C6.86034719,9.90237679 7.02693825,10.2919925 7.32071625,10.5745092 C7.61449429,10.8570259 8.01032077,11.0082686 8.41763771,10.9936358 C9.06181335,10.9903669 9.63859009,10.593833 9.87231542,9.99354523 L11.3503444,9.99354523 C11.6273209,9.98246748 11.8444691,9.7517234 11.8387265,9.47458498 L11.8387265,7.51800413 C11.8471526,7.39006499 11.8027253,7.26427061 11.7158206,7.16999977 C11.6289159,7.07572888 11.5071434,7.02123614 11.3789425,7.01924809 Z M5.39398965,9.01683084 L8.8644294,5.65741695 L8.85404052,7.01145767 C8.72413014,7.0095988 8.59898173,7.06031773 8.50701934,7.15209509 C8.41505695,7.24387244 8.3640861,7.36891846 8.36568333,7.49883233 L8.36568333,8.00894982 C7.69838283,7.98501335 7.09183344,8.39427774 6.86425317,9.02202778 L5.39398965,9.01683084 Z M8.40123395,10.5663501 C7.8244626,10.5473073 7.36245162,10.0820777 7.34741343,9.50518803 C7.34277025,9.2246101 7.45142557,8.95400609 7.64881615,8.75455061 C7.84620673,8.55509507 8.11566532,8.44362951 8.39627642,8.44535263 C8.68172894,8.4288791 8.96057942,8.53538672 9.16236565,8.73796226 C9.36415187,8.94053781 9.46957003,9.21980199 9.4519822,9.50518803 C9.48365417,9.79331155 9.38357654,10.0803369 9.17962839,10.2863063 C8.97568025,10.4922758 8.68965581,10.5951791 8.40123395,10.5663501 L8.40123395,10.5663501 Z"/>
  </g>
</svg>
