<svg xmlns="http://www.w3.org/2000/svg" width="18" height="18" viewBox="0 0 18 18">
  <g fill="none" fill-rule="evenodd">
    <path fill="#FF2116" fill-rule="nonzero" d="M10.8145519,1 L4.00104662,1 C2.85430792,1 2,1.77393475 2,3.02369172 L2.00666047,15.1460299 C2.00666032,16.288342 2.76279698,17 3.99904853,17 L13.2004616,17 C14.4240444,17 15.0423265,16.3372048 15.0423265,15.1408183 L15.0423265,5.43606089 C15.0423265,4.96707649 14.8752662,4.52648111 14.5738634,4.17385807 L12.2647314,1.71093676 C11.813976,1.26706306 11.3781416,1 10.8145519,1 Z M10.8145519,2 C11.0789668,2 11.3490045,2.21203819 11.5354936,2.39519709 L13.7526025,4.75803996 C13.9390915,4.94186489 14.0423265,5.17764034 14.0423265,5.43606089 L14.0423265,15.1408183 C14.0423265,15.7782112 13.8758185,16 13.2004616,16 L3.99904853,16 C3.25975262,16 3.00666032,15.6823026 3.00666032,15.1454805 L3,3.02369172 C3,2.29105614 3.45023787,2 4.00104662,2 L10.8145519,2 Z"/>
    <path fill="#FFF" d="M10.8145519,2 C11.0789668,2 11.3490045,2.21203819 11.5354936,2.39519709 L13.7526025,4.75803996 C13.9390915,4.94186489 14.0423265,5.17764034 14.0423265,5.43606089 L14.0423265,15.1408183 C14.0423265,15.7782112 13.8758185,16 13.2004616,16 L3.99904853,16 C3.25975262,16 3.00666032,15.6823026 3.00666032,15.1454805 L3,3.02369172 C3,2.29105614 3.45023787,2 4.00104662,2 L10.8145519,2 Z"/>
    <g transform="translate(5.5 4)">
      <path fill="#2C2C2C" d="M4.77882136,10.2109 C4.77882136,10.2139 4.77882136,10.2164 4.77832136,10.2189 C4.77832136,10.2209 4.77782136,10.2224 4.77732136,10.2244 C4.77682136,10.2259 4.77632136,10.2279 4.77582136,10.2294 C4.77532136,10.2309 4.77432136,10.2329 4.77332136,10.2339 C4.77232136,10.2349 4.77132136,10.2359 4.76982136,10.2369 C4.76832136,10.2379 4.76782136,10.2384 4.76632136,10.2389 C4.76482136,10.2394 4.76332136,10.2399 4.76132136,10.2399 C4.75882136,10.2399 4.75682136,10.2404 4.75482136,10.2404 L4.71332136,10.2404 L4.67182136,10.2404 L4.63032136,10.2404 L4.58882136,10.2404 L4.54732136,10.2404 L4.50582136,10.2404 L4.46432136,10.2404 L4.42282136,10.2404 C4.42082136,10.2404 4.41882136,10.2404 4.41682136,10.2399 C4.41482136,10.2394 4.41382136,10.2394 4.41232136,10.2389 C4.41082136,10.2384 4.40932136,10.2379 4.40832136,10.2369 C4.40732136,10.2359 4.40582136,10.2354 4.40432136,10.2339 C4.40332136,10.2329 4.40232136,10.2309 4.40182136,10.2294 C4.40132136,10.2279 4.40032136,10.2264 4.40032136,10.2244 C4.39982136,10.2229 4.39932136,10.2209 4.39932136,10.2189 C4.39932136,10.2169 4.39882136,10.2144 4.39882136,10.2109 L4.39882136,9.9264 L4.39882136,9.6409 L4.39882136,9.3559 L4.39882136,9.0714 L4.39882136,8.7859 L4.39882136,8.5009 L4.39882136,8.2164 L4.39882136,7.9309 C4.39882136,7.9294 4.39882136,7.9274 4.39932136,7.9254 C4.39982136,7.9234 4.39982136,7.9219 4.40032136,7.9204 C4.40082136,7.9184 4.40132136,7.9169 4.40182136,7.9159 C4.40232136,7.9149 4.40332136,7.9134 4.40432136,7.9124 C4.40582136,7.9114 4.40682136,7.9104 4.40832136,7.9099 C4.40932136,7.9094 4.41082136,7.9089 4.41232136,7.9089 C4.41382136,7.9084 4.41482136,7.9079 4.41682136,7.9079 C4.41882136,7.9079 4.42082136,7.9074 4.42282136,7.9074 L4.56832136,7.9074 L4.71382136,7.9074 L4.85932136,7.9074 L5.00482136,7.9074 L5.15032136,7.9074 L5.29582136,7.9074 L5.44132136,7.9074 L5.58682136,7.9074 C5.58932136,7.9074 5.59182136,7.9074 5.59432136,7.9079 C5.59632136,7.9079 5.59832136,7.9084 5.59982136,7.9089 L5.60382136,7.9099 C5.60532136,7.9104 5.60632136,7.9114 5.60732136,7.9124 C5.60832136,7.9134 5.60932136,7.9144 5.60982136,7.9159 C5.61082136,7.9169 5.61132136,7.9184 5.61182136,7.9204 C5.61232136,7.9219 5.61282136,7.9234 5.61382136,7.9254 L5.61532136,7.9309 L5.61982136,7.9679 L5.62382136,8.0044 L5.62832136,8.0404 L5.63282136,8.0769 L5.63782136,8.1139 L5.64232136,8.1504 L5.64632136,8.1864 L5.65082136,8.2229 C5.65132136,8.2254 5.65132136,8.2279 5.65132136,8.2304 C5.65132136,8.2329 5.65132136,8.2349 5.65082136,8.2369 C5.65032136,8.2384 5.64982136,8.2404 5.64882136,8.2419 C5.64782136,8.2429 5.64732136,8.2444 5.64582136,8.2454 C5.64482136,8.2464 5.64332136,8.2474 5.64232136,8.2484 C5.64082136,8.2494 5.63882136,8.2499 5.63682136,8.2504 C5.63482136,8.2509 5.63232136,8.2514 5.62982136,8.2514 C5.62732136,8.2514 5.62532136,8.2519 5.62232136,8.2519 L5.51732136,8.2519 L5.41182136,8.2519 L5.30682136,8.2519 L5.20182136,8.2519 L5.09632136,8.2519 L4.99082136,8.2519 L4.88532136,8.2519 L4.77932136,8.2519 L4.77932136,8.3349 L4.77932136,8.4179 L4.77932136,8.5009 L4.77932136,8.5839 L4.77932136,8.6669 L4.77932136,8.7499 L4.77932136,8.8329 L4.77932136,8.9159 L4.87382136,8.9159 L4.96882136,8.9159 L5.06282136,8.9159 L5.15782136,8.9159 L5.25182136,8.9159 L5.34682136,8.9159 L5.44082136,8.9159 L5.53582136,8.9159 L5.54132136,8.9159 C5.54282136,8.9159 5.54482136,8.9164 5.54632136,8.9169 C5.54782136,8.9174 5.54932136,8.9179 5.55132136,8.9184 C5.55232136,8.9189 5.55382136,8.9204 5.55432136,8.9209 C5.55532136,8.9219 5.55632136,8.9229 5.55682136,8.9239 C5.55732136,8.9249 5.55832136,8.9264 5.55832136,8.9284 C5.55882136,8.9294 5.55932136,8.9314 5.55932136,8.9334 C5.55932136,8.9354 5.55982136,8.9379 5.55982136,8.9409 L5.55982136,8.9769 L5.55982136,9.0134 L5.55982136,9.0504 L5.55982136,9.0869 L5.55982136,9.1229 L5.55982136,9.1594 L5.55982136,9.1964 L5.55982136,9.2329 C5.55982136,9.2354 5.55982136,9.2379 5.55932136,9.2399 C5.55932136,9.2419 5.55882136,9.2434 5.55832136,9.2449 L5.55682136,9.2494 C5.55632136,9.2504 5.55532136,9.2519 5.55432136,9.2524 C5.55332136,9.2539 5.55232136,9.2544 5.55032136,9.2549 C5.54882136,9.2554 5.54782136,9.2559 5.54632136,9.2564 C5.54482136,9.2569 5.54282136,9.2569 5.54132136,9.2569 L5.53582136,9.2569 L5.44082136,9.2569 L5.34682136,9.2569 L5.25182136,9.2569 L5.15782136,9.2569 L5.06282136,9.2569 L4.96832136,9.2569 L4.87332136,9.2569 L4.77882136,9.2569 L4.77882136,9.3754 L4.77882136,9.4944 L4.77882136,9.6139 L4.77882136,9.7329 L4.77882136,9.8514 L4.77882136,9.9709 L4.77882136,10.0894 L4.77882136,10.2109 Z M2.72382136,9.9034 C2.73082136,9.9039 2.73782136,9.9044 2.74582136,9.9049 C2.75232136,9.9054 2.75982136,9.9059 2.76732136,9.9059 C2.77382136,9.9059 2.78082136,9.9064 2.78882136,9.9069 C2.79632136,9.9074 2.80282136,9.9079 2.80982136,9.9079 C2.81782136,9.9084 2.82432136,9.9084 2.83182136,9.9089 C2.83982136,9.9089 2.84682136,9.9089 2.85432136,9.9089 C2.86232136,9.9089 2.87032136,9.9089 2.87782136,9.9094 L2.90232136,9.9094 C2.95082136,9.9094 2.99832136,9.9054 3.04382136,9.8964 C3.08982136,9.8879 3.13282136,9.8744 3.17432136,9.8569 C3.21532136,9.8399 3.25382136,9.8179 3.28982136,9.7904 C3.32582136,9.7634 3.36032136,9.7329 3.39082136,9.6974 C3.42132136,9.6609 3.44832136,9.6204 3.47232136,9.5754 C3.49682136,9.5309 3.51732136,9.4804 3.53382136,9.4259 C3.55082136,9.3704 3.56382136,9.3109 3.57282136,9.2464 C3.58182136,9.1819 3.58682136,9.1134 3.58782136,9.0384 C3.58832136,8.9664 3.58332136,8.8994 3.57482136,8.8379 C3.56632136,8.7764 3.55332136,8.7199 3.53682136,8.6679 C3.51932136,8.6169 3.49882136,8.5709 3.47532136,8.5294 C3.45082136,8.4879 3.42382136,8.4509 3.39332136,8.4184 C3.36232136,8.3869 3.32982136,8.3594 3.29332136,8.3354 C3.25782136,8.3119 3.21932136,8.2929 3.17882136,8.2784 C3.13832136,8.2629 3.09582136,8.2519 3.05182136,8.2444 C3.00782136,8.2379 2.96282136,8.2344 2.91532136,8.2344 L2.88832136,8.2344 C2.87982136,8.2344 2.87132136,8.2344 2.86232136,8.2349 C2.85382136,8.2349 2.84582136,8.2354 2.83832136,8.2354 C2.83032136,8.2354 2.82182136,8.2359 2.81382136,8.2364 C2.80582136,8.2369 2.79882136,8.2369 2.79032136,8.2374 C2.78282136,8.2379 2.77582136,8.2384 2.76832136,8.2384 C2.76032136,8.2389 2.75282136,8.2394 2.74582136,8.2394 C2.73782136,8.2399 2.73032136,8.2404 2.72332136,8.2409 L2.72332136,8.4484 L2.72332136,8.6559 L2.72332136,8.8634 L2.72332136,9.0709 L2.72332136,9.2784 L2.72332136,9.4859 L2.72332136,9.6939 C2.72332136,9.7979 2.72382136,9.9034 2.72382136,9.9034 L2.72382136,9.9034 Z M2.34232136,7.9379 L2.34232136,7.9319 C2.34232136,7.9304 2.34282136,7.9289 2.34282136,7.9274 L2.34432136,7.9229 C2.34482136,7.9214 2.34532136,7.9204 2.34632136,7.9189 C2.34732136,7.9179 2.34882136,7.9169 2.34982136,7.9159 C2.35082136,7.9149 2.35182136,7.9144 2.35382136,7.9139 C2.35532136,7.9129 2.35732136,7.9124 2.35982136,7.9119 C2.36182136,7.9114 2.36382136,7.9109 2.36632136,7.9104 C2.37632136,7.9099 2.38882136,7.9094 2.40382136,7.9089 C2.41782136,7.9089 2.43482136,7.9084 2.45282136,7.9079 C2.47082136,7.9074 2.49082136,7.9069 2.51232136,7.9064 C2.53382136,7.9059 2.55782136,7.9054 2.58132136,7.9049 C2.60582136,7.9044 2.63182136,7.9039 2.65782136,7.9034 C2.68482136,7.9029 2.71182136,7.9024 2.74032136,7.9024 C2.76832136,7.9019 2.79782136,7.9019 2.82632136,7.9014 C2.85532136,7.9014 2.88532136,7.9009 2.91482136,7.9009 C3.00332136,7.9009 3.08682136,7.9079 3.16432136,7.9219 C3.24182136,7.9354 3.31382136,7.9559 3.38082136,7.9829 C3.44682136,8.0094 3.50782136,8.0419 3.56282136,8.0809 C3.61882136,8.1194 3.66782136,8.1639 3.71232136,8.2139 C3.75632136,8.2629 3.79532136,8.3184 3.82882136,8.3774 C3.86132136,8.4369 3.88982136,8.5014 3.91182136,8.5704 C3.93382136,8.6384 3.95032136,8.7119 3.96082136,8.7884 C3.97232136,8.8659 3.97732136,8.9464 3.97732136,9.0304 C3.97732136,9.1464 3.96832136,9.2539 3.95082136,9.3504 C3.93332136,9.4479 3.90732136,9.5349 3.87432136,9.6144 C3.84182136,9.6934 3.80332136,9.7629 3.75882136,9.8254 C3.71482136,9.8874 3.66532136,9.9419 3.61232136,9.9889 C3.55982136,10.0354 3.50282136,10.0754 3.44432136,10.1084 C3.38482136,10.1409 3.32382136,10.1674 3.26182136,10.1879 C3.19982136,10.2084 3.13732136,10.2234 3.07532136,10.2334 C3.01332136,10.2424 2.95282136,10.2469 2.89332136,10.2469 L2.82332136,10.2469 C2.79982136,10.2469 2.77382136,10.2469 2.74832136,10.2464 C2.72332136,10.2459 2.69732136,10.2459 2.67232136,10.2459 C2.64632136,10.2459 2.62132136,10.2454 2.59632136,10.2449 C2.57182136,10.2444 2.54782136,10.2439 2.52532136,10.2439 C2.50232136,10.2439 2.48032136,10.2434 2.45982136,10.2429 C2.43932136,10.2424 2.42182136,10.2419 2.40482136,10.2419 C2.38832136,10.2414 2.37382136,10.2409 2.36232136,10.2409 C2.36132136,10.2409 2.35932136,10.2409 2.35732136,10.2404 L2.35282136,10.2389 C2.35182136,10.2384 2.35082136,10.2374 2.34982136,10.2364 C2.34882136,10.2354 2.34732136,10.2344 2.34632136,10.2334 C2.34532136,10.2314 2.34482136,10.2304 2.34382136,10.2289 C2.34332136,10.2274 2.34282136,10.2259 2.34232136,10.2239 C2.34182136,10.2224 2.34182136,10.2209 2.34132136,10.2189 C2.34132136,10.2169 2.34132136,10.2149 2.34132136,10.2124 L2.34132136,9.9284 L2.34132136,9.6424 L2.34132136,9.3589 L2.34132136,9.0749 L2.34132136,8.7904 L2.34132136,8.5069 L2.34132136,8.2224 L2.34232136,7.9379 Z M0.93332136,9.0604 C0.93882136,9.0609 0.94532136,9.0614 0.95082136,9.0614 C0.95682136,9.0614 0.96332136,9.0619 0.96882136,9.0624 C0.97532136,9.0624 0.98082136,9.0629 0.98732136,9.0629 C0.99282136,9.0629 0.99932136,9.0634 1.00632136,9.0634 L1.02682136,9.0634 L1.04982136,9.0634 L1.07532136,9.0634 L1.10482136,9.0634 C1.13582136,9.0634 1.16632136,9.0619 1.19682136,9.0589 C1.22682136,9.0559 1.25682136,9.0514 1.28432136,9.0444 C1.31282136,9.0374 1.34032136,9.0294 1.36532136,9.0179 C1.39132136,9.0074 1.41532136,8.9934 1.43732136,8.9774 C1.45932136,8.9619 1.47982136,8.9434 1.49782136,8.9219 C1.51632136,8.9004 1.53132136,8.8754 1.54382136,8.8479 C1.55682136,8.8209 1.56732136,8.7894 1.57332136,8.7554 C1.58082136,8.7209 1.58382136,8.6824 1.58382136,8.6404 C1.58382136,8.6069 1.58132136,8.5754 1.57632136,8.5464 C1.57132136,8.5164 1.56382136,8.4894 1.55382136,8.4639 C1.54382136,8.4379 1.53182136,8.4149 1.51732136,8.3934 C1.50232136,8.3724 1.48582136,8.3534 1.46632136,8.3369 C1.44732136,8.3199 1.42582136,8.3049 1.40282136,8.2919 C1.37882136,8.2799 1.35332136,8.2684 1.32582136,8.2604 C1.29882136,8.2514 1.26832136,8.2449 1.23732136,8.2414 C1.20582136,8.2374 1.17232136,8.2349 1.13632136,8.2349 L1.10532136,8.2349 C1.09482136,8.2349 1.08482136,8.2349 1.07482136,8.2354 C1.06482136,8.2354 1.05532136,8.2359 1.04632136,8.2359 C1.03682136,8.2359 1.02782136,8.2364 1.01832136,8.2369 C1.00932136,8.2374 1.00082136,8.2374 0.99282136,8.2379 C0.98532136,8.2384 0.97732136,8.2389 0.96982136,8.2389 C0.96332136,8.2394 0.95582136,8.2399 0.94982136,8.2399 C0.94432136,8.2399 0.93832136,8.2409 0.93382136,8.2414 L0.93382136,8.3439 L0.93382136,8.4464 L0.93382136,8.5489 L0.93382136,8.6514 L0.93382136,8.7539 L0.93382136,8.8559 L0.93382136,8.9584 L0.93382136,9.0604 L0.93332136,9.0604 Z M0.55532136,7.9344 L0.55532136,7.9299 C0.55532136,7.9284 0.55582136,7.9269 0.55582136,7.9254 C0.55682136,7.9239 0.55682136,7.9224 0.55732136,7.9214 C0.55782136,7.9194 0.55832136,7.9184 0.55932136,7.9174 C0.55982136,7.9164 0.56032136,7.9154 0.56132136,7.9144 C0.56232136,7.9134 0.56382136,7.9129 0.56532136,7.9124 C0.56732136,7.9119 0.56882136,7.9114 0.57032136,7.9109 C0.57182136,7.9104 0.57382136,7.9104 0.57582136,7.9104 C0.59282136,7.9094 0.61132136,7.9089 0.63032136,7.9084 C0.64882136,7.9074 0.66832136,7.9069 0.68932136,7.9064 C0.70982136,7.9059 0.73132136,7.9049 0.75332136,7.9044 C0.77582136,7.9039 0.79832136,7.9034 0.82132136,7.9029 C0.84482136,7.9024 0.86832136,7.9019 0.89332136,7.9019 C0.91732136,7.9014 0.94232136,7.9014 0.96732136,7.9009 C0.99282136,7.9004 1.01832136,7.9004 1.04382136,7.9004 L1.12232136,7.9004 C1.19532136,7.9004 1.26332136,7.9054 1.32732136,7.9144 C1.39032136,7.9244 1.44832136,7.9384 1.50132136,7.9564 C1.55482136,7.9749 1.60282136,7.9974 1.64682136,8.0234 C1.69032136,8.0499 1.72932136,8.0794 1.76382136,8.1129 C1.79882136,8.1454 1.82832136,8.1819 1.85332136,8.2209 C1.87882136,8.2599 1.89932136,8.3019 1.91582136,8.3459 C1.93282136,8.3894 1.94482136,8.4359 1.95332136,8.4849 C1.96082136,8.5334 1.96532136,8.5829 1.96532136,8.6349 C1.96532136,8.7014 1.95882136,8.7639 1.94732136,8.8224 C1.93582136,8.8804 1.91882136,8.9329 1.89682136,8.9814 C1.87482136,9.0304 1.84832136,9.0749 1.81732136,9.1144 C1.78632136,9.1539 1.75032136,9.1894 1.71082136,9.2209 C1.67182136,9.2514 1.62882136,9.2794 1.58232136,9.3024 C1.53632136,9.3254 1.48732136,9.3444 1.43532136,9.3594 C1.38282136,9.3739 1.32882136,9.3854 1.27182136,9.3924 C1.21582136,9.4004 1.15682136,9.4039 1.09732136,9.4039 L1.06982136,9.4039 C1.06082136,9.4039 1.05282136,9.4039 1.04532136,9.4034 C1.03832136,9.4034 1.03132136,9.4029 1.02432136,9.4029 C1.01832136,9.4029 1.01132136,9.4024 1.00582136,9.4024 C0.99932136,9.4024 0.99332136,9.4019 0.98782136,9.4019 C0.98182136,9.4019 0.97682136,9.4014 0.97032136,9.4014 C0.96482136,9.4014 0.95832136,9.4014 0.95282136,9.4009 L0.93282136,9.4009 L0.93282136,9.5024 L0.93282136,9.6044 L0.93282136,9.7064 L0.93282136,9.8084 L0.93282136,9.9104 L0.93282136,10.0129 L0.93282136,10.1149 L0.93282136,10.2169 C0.93282136,10.2189 0.93282136,10.2214 0.93232136,10.2224 C0.93232136,10.2244 0.93182136,10.2259 0.93082136,10.2274 C0.93032136,10.2289 0.92982136,10.2304 0.92932136,10.2314 C0.92882136,10.2334 0.92782136,10.2344 0.92682136,10.2354 C0.92582136,10.2364 0.92482136,10.2374 0.92382136,10.2379 C0.92232136,10.2384 0.92132136,10.2394 0.91932136,10.2394 C0.91782136,10.2399 0.91632136,10.2404 0.91432136,10.2404 L0.90832136,10.2404 L0.86732136,10.2404 L0.82632136,10.2404 L0.78582136,10.2404 L0.74482136,10.2404 L0.70332136,10.2404 L0.66232136,10.2404 L0.62132136,10.2404 L0.58032136,10.2404 C0.57832136,10.2404 0.57582136,10.2404 0.57382136,10.2399 C0.57182136,10.2399 0.57032136,10.2394 0.56932136,10.2389 C0.56782136,10.2384 0.56582136,10.2379 0.56482136,10.2374 C0.56332136,10.2369 0.56232136,10.2359 0.56132136,10.2349 C0.56032136,10.2339 0.55982136,10.2329 0.55932136,10.2309 C0.55882136,10.2294 0.55782136,10.2284 0.55782136,10.2269 C0.55732136,10.2254 0.55682136,10.2234 0.55682136,10.2219 L0.55682136,10.2164 L0.55682136,9.9309 L0.55682136,9.6459 L0.55682136,9.3614 L0.55682136,9.0759 L0.55682136,8.7909 L0.55682136,8.5064 L0.55682136,8.2214 C0.55532136,8.0769 0.55532136,7.9344 0.55532136,7.9344 L0.55532136,7.9344 Z"/>
      <path fill="#FA0F00" d="M6.15622136,4.0415 C6.15122136,3.9935 6.14022136,3.948 6.12472136,3.906 C6.10072136,3.8435 6.06672136,3.789 6.02922136,3.7485 C5.97972136,3.6955 5.91922136,3.649 5.84772136,3.6095 C5.63272136,3.4895 5.31772136,3.429 4.90722136,3.429 C4.77272136,3.429 4.62922136,3.436 4.47822136,3.449 C4.32672136,3.462 4.16722136,3.4815 4.00072136,3.5075 C3.82122136,3.334 3.64572136,3.1295 3.47922136,2.8985 C3.36022136,2.734 3.25072136,2.564 3.15222136,2.391 C3.20072136,2.2395 3.24272136,2.095 3.27922136,1.958 C3.30022136,1.877 3.31922136,1.7995 3.33622136,1.724 C3.36072136,1.6165 3.38072136,1.5145 3.39672136,1.418 C3.40772136,1.351 3.41722136,1.2865 3.42472136,1.2245 C3.43672136,1.1175 3.44272136,1.0185 3.44272136,0.927 C3.44272136,0.6075 3.35172136,0.2735 3.11922136,0.107 C3.08672136,0.084 3.05222136,0.063 3.01422136,0.0475 C2.94272136,0.017 2.86072136,9.02389274e-13 2.76722136,9.02389274e-13 C2.68522136,9.02389274e-13 2.60222136,0.0245 2.52922136,0.068 C2.45622136,0.111 2.39272136,0.1725 2.34972136,0.246 C2.27022136,0.383 2.23222136,0.574 2.23422136,0.8 C2.23472136,0.8855 2.24272136,0.977 2.25472136,1.072 C2.29472136,1.3925 2.39772136,1.7575 2.56172136,2.126 C2.53222136,2.214 2.50172136,2.3015 2.47072136,2.3885 C2.40872136,2.5635 2.34272136,2.7385 2.27072136,2.92 C2.23422136,3.011 2.19672136,3.1035 2.15722136,3.198 C2.02422136,3.5185 1.86672136,3.8455 1.69972136,4.148 C1.28722136,4.314 0.49622136,4.673 0.15922136,5.0955 C0.0812213595,5.1935 0.0277213595,5.2945 0.00872135952,5.397 C0.000721359524,5.438 -0.00127864048,5.4785 0.000721359524,5.518 C0.00622135952,5.597 0.0312213595,5.672 0.0757213595,5.7395 C0.0977213595,5.773 0.12472136,5.8045 0.15622136,5.834 C0.17422136,5.851 0.21572136,5.8855 0.27872136,5.9175 C0.28972136,5.923 0.30122136,5.928 0.31372136,5.9335 C0.34672136,5.948 0.38372136,5.9615 0.42672136,5.9715 C0.47672136,5.9835 0.53322136,5.991 0.59622136,5.991 C0.71872136,5.991 0.84022136,5.9595 0.96072136,5.903 C1.04122136,5.865 1.12072136,5.8165 1.19972136,5.7585 C1.35672136,5.6425 1.50972136,5.4905 1.65522136,5.319 C1.80072136,5.1465 1.93872136,4.954 2.06622136,4.7575 C2.16122136,4.61 2.25072136,4.46 2.33272136,4.315 C2.45672136,4.2725 2.58222136,4.2325 2.70822136,4.1945 C2.83372136,4.156 2.96022136,4.1205 3.08622136,4.087 C3.11372136,4.08 3.13972136,4.0745 3.16672136,4.0675 C3.41422136,4.0035 3.65472136,3.9495 3.88222136,3.909 C3.92522136,3.9465 3.96822136,3.982 4.01072136,4.0155 C4.09522136,4.083 4.17872136,4.143 4.26022136,4.196 C4.30122136,4.2225 4.34122136,4.2475 4.38122136,4.2705 C4.85822136,4.55 5.26072136,4.601 5.49072136,4.601 C5.70172136,4.601 5.84622136,4.5555 5.94572136,4.4905 C5.97072136,4.474 5.99272136,4.457 6.01172136,4.4385 C6.07022136,4.384 6.10572136,4.3225 6.12722136,4.2645 C6.14622136,4.2145 6.15622136,4.164 6.15822136,4.1145 C6.15922136,4.09 6.15870423,4.0655 6.15622136,4.0415 L6.15622136,4.0415 Z M2.61722136,0.402 C2.62122136,0.395 2.62672136,0.389 2.63172136,0.3825 C2.66522136,0.337 2.71172136,0.309 2.76122136,0.309 C2.80072136,0.309 2.83222136,0.321 2.85772136,0.341 C2.93372136,0.402 2.95322136,0.5385 2.95322136,0.658 C2.95372136,0.753 2.94322136,0.869 2.92272136,1.0005 C2.89572136,1.1765 2.85172136,1.3795 2.79322136,1.597 C2.77872136,1.651 2.76322136,1.7065 2.74672136,1.762 C2.68022136,1.587 2.63322136,1.425 2.60072136,1.2775 C2.56872136,1.1305 2.55172136,0.998 2.54572136,0.8825 C2.54022136,0.7665 2.54522136,0.6675 2.55872136,0.587 C2.57172136,0.506 2.59272136,0.444 2.61722136,0.402 L2.61722136,0.402 Z M3.54172136,3.593 C3.36322136,3.6305 3.17822136,3.674 2.99072136,3.7235 C2.85622136,3.759 2.71922136,3.798 2.58322136,3.8395 C2.65572136,3.691 2.72222136,3.544 2.78022136,3.404 C2.85672136,3.219 2.92872136,3.0345 2.99472136,2.8535 C3.05272136,2.9445 3.11322136,3.033 3.17422136,3.1185 C3.23472136,3.2025 3.29722136,3.2835 3.36022136,3.3615 C3.42322136,3.4395 3.48722136,3.514 3.55222136,3.5845 L3.53672136,3.588 L3.54172136,3.593 Z M4.88772136,3.7345 C5.06572136,3.7345 5.22872136,3.747 5.33322136,3.769 C5.43372136,3.79 5.54322136,3.8365 5.57672136,3.9405 C5.58222136,3.958 5.58522136,3.977 5.58572136,3.9975 C5.58672136,4.018 5.58472136,4.0405 5.58072136,4.0645 C5.55722136,4.184 5.43372136,4.261 5.26522136,4.261 C5.24322136,4.261 5.22072136,4.2555 5.19822136,4.253 C5.17272136,4.25 5.14772136,4.25 5.12272136,4.2435 C4.81222136,4.1695 4.51522136,4.02 4.21872136,3.786 C4.28872136,3.7755 4.35472136,3.767 4.41822136,3.7605 C4.60872136,3.74 4.77022136,3.7345 4.88772136,3.7345 L4.88772136,3.7345 Z M1.38472136,4.7915 C1.28172136,4.943 1.18022136,5.0775 1.08322136,5.1925 C1.03472136,5.25 0.98722136,5.3025 0.94072136,5.35 C0.75672136,5.54 0.59422136,5.646 0.47422136,5.646 C0.43022136,5.646 0.39372136,5.633 0.36722136,5.6075 C0.35522136,5.596 0.34522136,5.585 0.33672136,5.573 C0.32072136,5.5495 0.31172136,5.5245 0.30972136,5.497 C0.30872136,5.4835 0.30972136,5.469 0.31272136,5.4545 C0.31522136,5.4395 0.32022136,5.4245 0.32622136,5.408 C0.35072136,5.3445 0.40122136,5.2755 0.47522136,5.202 C0.49372136,5.184 0.51322136,5.1655 0.53472136,5.1465 C0.74672136,4.9585 1.09772136,4.7495 1.54022136,4.552 C1.48822136,4.6355 1.43622136,4.7155 1.38472136,4.7915 L1.38472136,4.7915 Z"/>
    </g>
  </g>
</svg>
