<svg xmlns="http://www.w3.org/2000/svg" width="18" height="18" viewBox="0 0 18 18">
  <g fill="none" fill-rule="evenodd">
    <g transform="translate(2 1)">
      <path fill="#B3B3B3" fill-rule="nonzero" d="M8.81455193,0 L2.00104662,0 C0.854307915,0 -2.7065461e-11,0.773934752 -2.7065461e-11,2.02369172 L0.00666047442,14.1460299 C0.00666032347,15.288342 0.762796975,16 1.99904853,16 L11.2004616,16 C12.4240444,16 13.0423265,15.3372048 13.0423265,14.1408183 L13.0423265,4.43606089 C13.0423265,3.96707649 12.8752662,3.52648111 12.5738634,3.17385807 L10.2647314,0.710936759 C9.81397601,0.267063057 9.37814164,0 8.81455193,0 Z M8.81455193,1 C9.07896677,1 9.34900455,1.21203819 9.5354936,1.39519709 L11.7526025,3.75803996 C11.9390915,3.94186489 12.0423265,4.17764034 12.0423265,4.43606089 L12.0423265,14.1408183 C12.0423265,14.7782112 11.8758185,15 11.2004616,15 L1.99904853,15 C1.25975262,15 1.00666032,14.6823026 1.00666032,14.1454805 L1,2.02369172 C1,1.29105614 1.45023787,1 2.00104662,1 L8.81455193,1 Z"/>
      <path fill="#FFF" d="M8.81455193,1 C9.07896677,1 9.34900455,1.21203819 9.5354936,1.39519709 L11.7526025,3.75803996 C11.9390915,3.94186489 12.0423265,4.17764034 12.0423265,4.43606089 L12.0423265,14.1408183 C12.0423265,14.7782112 11.8758185,15 11.2004616,15 L1.99904853,15 C1.25975262,15 1.00666032,14.6823026 1.00666032,14.1454805 L1,2.02369172 C1,1.29105614 1.45023787,1 2.00104662,1 L8.81455193,1 Z"/>
    </g>
    <path fill="#4B4B4B" fill-rule="nonzero" d="M6.42795932 4.90285716L8.38091171 2.88887502C8.45527017 2.81216969 8.45527017 2.68783035 8.38091171 2.61112502L6.42795932.597142879C6.3535784.520460713 6.23300692.520460713 6.15862599.597142879L5.88910218.874892879C5.81474372.951598207 5.81474372 1.07593755 5.88910218 1.15264288L7.43805456 2.75000002 5.88910218 4.34735716C5.81474372 4.42406249 5.81474372 4.54840184 5.88910218 4.62510716L6.15862599 4.90285716C6.23300692 4.97953933 6.3535784 4.97953933 6.42795932 4.90285716zM3.04757837 4.34735716L1.49862599 2.75000002 3.04757837 1.15264288C3.12193684 1.07593755 3.12193684.951598207 3.04757837.874892879L2.77805456.597142879C2.70367364.520460713 2.58310215.520460713 2.50872123.597142879L.555768848 2.61112502C.481410384 2.68783035.481410384 2.81216969.555768848 2.88887502L2.50872123 4.90285716C2.58310215 4.97953933 2.70367364 4.97953933 2.77805456 4.90285716L3.04757837 4.62510716C3.12193684 4.54840184 3.12193684 4.42406249 3.04757837 4.34735716zM4.07995932 5.35955359L5.55519742.252410736C5.57233856.192959175 5.5612446.128651316 5.52527213.0789441815 5.48929966.0292370471 5.43267508 0 5.37253075 0L5.0561498 0C4.97189845 0 4.89768524.0571655375 4.87367361.140446451L3.39843551 5.24758931C3.38130393 5.30700773 3.39237553 5.37127918 3.42830386 5.42097714 3.46423218 5.4706751 3.5208009 5.5 3.58091171 5.5L3.89691171 5.5C3.98137445 5.5002153 4.05588763 5.44304379 4.07995932 5.35955359z" transform="translate(4 5)"/>
  </g>
</svg>
