<svg xmlns="http://www.w3.org/2000/svg" width="18" height="18" viewBox="0 0 18 18">
  <g fill="none" fill-rule="evenodd" transform="translate(2 1)">
    <path fill="#B3B3B3" fill-rule="nonzero" d="M8.81455193,0 L2.00104662,0 C0.854307915,0 -2.7065461e-11,0.773934752 -2.7065461e-11,2.02369172 L0.00666047442,14.1460299 C0.00666032347,15.288342 0.762796975,16 1.99904853,16 L11.2004616,16 C12.4240444,16 13.0423265,15.3372048 13.0423265,14.1408183 L13.0423265,4.43606089 C13.0423265,3.96707649 12.8752662,3.52648111 12.5738634,3.17385807 L10.2647314,0.710936759 C9.81397601,0.267063057 9.37814164,0 8.81455193,0 Z M8.81455193,1 C9.07896677,1 9.34900455,1.21203819 9.5354936,1.39519709 L11.7526025,3.75803996 C11.9390915,3.94186489 12.0423265,4.17764034 12.0423265,4.43606089 L12.0423265,14.1408183 C12.0423265,14.7782112 11.8758185,15 11.2004616,15 L1.99904853,15 C1.25975262,15 1.00666032,14.6823026 1.00666032,14.1454805 L1,2.02369172 C1,1.29105614 1.45023787,1 2.00104662,1 L8.81455193,1 Z"/>
    <path fill="#FFF" d="M8.81455193,1 C9.07896677,1 9.34900455,1.21203819 9.5354936,1.39519709 L11.7526025,3.75803996 C11.9390915,3.94186489 12.0423265,4.17764034 12.0423265,4.43606089 L12.0423265,14.1408183 C12.0423265,14.7782112 11.8758185,15 11.2004616,15 L1.99904853,15 C1.25975262,15 1.00666032,14.6823026 1.00666032,14.1454805 L1,2.02369172 C1,1.29105614 1.45023787,1 2.00104662,1 L8.81455193,1 Z"/>
    <path fill="#4B4B4B" fill-rule="nonzero" d="M9.59164948,4.5010176 L3.41612862,4.5010176 C3.31292492,4.49354115 3.21099586,4.52749027 3.13289787,4.59535217 C3.05479988,4.66321408 3.0069726,4.75939315 3,4.8626054 L3,8.3759057 C3,8.79970216 3.17889642,8.98632813 3.56780167,8.98632813 L9.42830928,8.98632813 C9.59164948,8.98632813 9.7498321,8.9352666 9.85999411,8.81525433 C9.96899481,8.69650075 10,8.53971638 10,8.3759057 L10,4.8626054 C9.96293483,4.66271594 9.79460382,4.51366155 9.59164948,4.5010176 Z M6.88929507,5.48709792 L9.61180163,5.48668824 L9.61180163,6.2647061 L6.88929507,6.26511578 L6.88929507,5.48709792 Z M6.88929507,6.65412471 L9.61180163,6.65371503 L9.61180163,7.43173289 L6.88929507,7.43214256 L6.88929507,6.65412471 Z M4.94464754,8.59875967 L3.56780167,8.59875967 C3.46040845,8.59875967 3.37334904,8.51172291 3.37334904,8.40435763 L3.37679744,7.81572755 L4.94467179,7.82238053 L4.94464754,8.59875967 Z M4.94467179,7.4323474 L3.37679744,7.42569442 L3.37679744,6.64808624 L4.94467179,6.65473922 L4.94467179,7.4323474 Z M4.94467179,6.26593514 L3.37679744,6.25928215 L3.37679744,5.48167398 L4.94467179,5.48832696 L4.94467179,6.26593514 Z M6.50034131,8.59916935 L5.33355279,8.59875967 L5.3336013,7.82238053 L6.50036557,7.82115149 L6.50034131,8.59916935 Z M6.50036557,7.43214256 L5.33357704,7.4323474 L5.33357704,6.65473922 L6.50036557,6.65351019 L6.50036557,7.43214256 Z M6.50036557,6.2647061 L5.33357704,6.26593514 L5.33357704,5.48832696 L6.50036557,5.48709792 L6.50036557,6.2647061 Z M9.609173,8.42360546 C9.609173,8.53097075 9.5221136,8.61800751 9.41472038,8.61800751 L6.88927082,8.59875967 L6.88927082,7.82115149 L9.61180163,7.82074181 L9.609173,8.42360546 Z"/>
  </g>
</svg>
