<svg xmlns="http://www.w3.org/2000/svg" width="18" height="18" viewBox="0 0 18 18">
  <g fill="none" fill-rule="evenodd">
    <path fill="#B3B3B3" fill-rule="nonzero" d="M10.8145519,1 L4.00104662,1 C2.85430792,1 2,1.77393475 2,3.02369172 L2.00666047,15.1460299 C2.00666032,16.288342 2.76279698,17 3.99904853,17 L13.2004616,17 C14.4240444,17 15.0423265,16.3372048 15.0423265,15.1408183 L15.0423265,5.43606089 C15.0423265,4.96707649 14.8752662,4.52648111 14.5738634,4.17385807 L12.2647314,1.71093676 C11.813976,1.26706306 11.3781416,1 10.8145519,1 Z M10.8145519,2 C11.0789668,2 11.3490045,2.21203819 11.5354936,2.39519709 L13.7526025,4.75803996 C13.9390915,4.94186489 14.0423265,5.17764034 14.0423265,5.43606089 L14.0423265,15.1408183 C14.0423265,15.7782112 13.8758185,16 13.2004616,16 L3.99904853,16 C3.25975262,16 3.00666032,15.6823026 3.00666032,15.1454805 L3,3.02369172 C3,2.29105614 3.45023787,2 4.00104662,2 L10.8145519,2 Z"/>
    <path fill="#252525" d="M10.8145519,2 C11.0789668,2 11.3490045,2.21203819 11.5354936,2.39519709 L13.7526025,4.75803996 C13.9390915,4.94186489 14.0423265,5.17764034 14.0423265,5.43606089 L14.0423265,15.1408183 C14.0423265,15.7782112 13.8758185,16 13.2004616,16 L3.99904853,16 C3.25975262,16 3.00666032,15.6823026 3.00666032,15.1454805 L3,3.02369172 C3,2.29105614 3.45023787,2 4.00104662,2 L10.8145519,2 Z"/>
    <path fill="#E3E3E3" fill-rule="nonzero" d="M6.04960653,4.5 C5.7506417,4.50274784 5.50973103,4.74632563 5.50974361,5.04583975 L5.50974361,5.51656394 L5.03986292,5.51656394 C4.742029,5.52197783 4.502659,5.7639979 4.5,6.0624037 L4.5,10.4541602 C4.502659,10.752566 4.742029,10.9945861 5.03986292,11 L10.9683576,11 C11.2661915,10.9945861 11.5055615,10.752566 11.5082205,10.4541602 L11.5,10 L11.9498858,10 C12.2477197,9.99458611 12.4953102,9.76104062 12.4979692,9.46263482 L12.4979692,5.05585516 C12.510638,4.91542313 12.4636208,4.7761479 12.3684683,4.67224553 C12.2733158,4.56834315 12.1388467,4.50944307 11.9980961,4.51001541 L6.04960653,4.5 Z M11.0083474,10.509245 L5.00987054,10.509245 L5.00987054,6.00231125 L11.0083474,6.00231125 L11.0083474,10.509245 Z M11.5,9.5 L11.5082205,6.07241911 C11.5055615,5.77401331 11.2661915,5.53199324 10.9683576,5.52657935 L6,5.51656394 L6,5 L12,5 L12,9.5 L11.5,9.5 Z"/>
    <path fill="#E3E3E3" d="M7.17998991,9.00691359 C7.08999496,9.05188629 7,8.95694392 7,8.86699852 L7,7.1230571 C7.00479227,7.08391661 7.02932691,7.04996427 7.06499636,7.03311169 C7.10083144,7.01355939 7.14415483,7.01355939 7.17998991,7.03311169 L8.93489156,7.90258392 C8.97441577,7.92762799 8.99880498,7.97075437 8.99988791,8.01751416 C9.00189982,8.06507158 8.9766957,8.10963893 8.93489156,8.13244439 L7.17998991,9.00691359 Z"/>
  </g>
</svg>
