<?xml version="1.0" encoding="utf-8"?>
<!-- Generator: Adobe Illustrator 21.1.0, SVG Export Plug-In . SVG Version: 6.00 Build 0)  -->
<svg version="1.1" id="Layer_1" xmlns="http://www.w3.org/2000/svg" xmlns:xlink="http://www.w3.org/1999/xlink" x="0px" y="0px"
	 viewBox="0 0 128 128" style="enable-background:new 0 0 128 128;" xml:space="preserve">
<style type="text/css">
	.st0{fill:#290741;}
	.st1{fill:#CD87FF;}
	.st2{fill:#FAFAFA;}
</style>
<g>
	<path class="st0" d="M24,126c-5.514,0-10-4.486-10-10V12c0-5.514,4.486-10,10-10h61.521c2.132,0,4.137,0.829,5.646,2.333
		l20.48,20.408c1.495,1.49,2.353,3.555,2.353,5.667V116c0,5.514-4.486,10-10,10H24z"/>
	<path class="st1" d="M85.52,4c1.588,0,3.111,0.629,4.235,1.75l20.48,20.408c1.13,1.126,1.765,2.655,1.765,4.25V116
		c0,4.418-3.582,8-8,8H24c-4.418,0-8-3.582-8-8V12c0-4.418,3.582-8,8-8H85.52 M85.52,0H24c-6.617,0-12,5.383-12,12v104
		c0,6.617,5.383,12,12,12h80c6.617,0,12-5.383,12-12V30.408c0-2.639-1.072-5.221-2.941-7.084L92.579,2.917
		C90.691,1.036,88.185,0,85.52,0L85.52,0z"/>
</g>
<g>
	<g>
		<path class="st2" d="M32.431,104.912l-0.672,2.534l-0.672,2.534c-0.014,0.07-0.035,0.119-0.073,0.151s-0.095,0.045-0.179,0.045
			h-1.246h-1.246c-0.084,0-0.133-0.014-0.157-0.052s-0.024-0.101-0.011-0.2l2.408-8.428l2.408-8.428
			c0.042-0.154,0.077-0.294,0.105-0.5s0.049-0.479,0.063-0.899c0-0.056,0.014-0.098,0.039-0.126s0.06-0.042,0.102-0.042h1.778h1.778
			c0.056,0,0.098,0.007,0.129,0.032s0.052,0.067,0.066,0.136l2.702,9.142l2.702,9.142c0.014,0.07,0.014,0.126-0.007,0.164
			s-0.063,0.059-0.133,0.059h-1.4h-1.4c-0.07,0-0.126-0.014-0.168-0.042s-0.07-0.07-0.084-0.126l-0.7-2.548l-0.7-2.548h-2.716
			H32.431z M37.163,102.14c-0.238-0.938-0.637-2.429-1.029-3.934s-0.777-3.024-0.987-4.018h-0.014h-0.014
			c-0.182,0.994-0.497,2.324-0.854,3.735s-0.756,2.901-1.106,4.217h2.002H37.163z"/>
		<path class="st2" d="M55.083,109.952c-0.014,0.084-0.035,0.14-0.074,0.175s-0.095,0.049-0.179,0.049h-4.788h-4.788
			c-0.084,0-0.14-0.014-0.175-0.049s-0.049-0.091-0.049-0.175v-9.114v-9.114c0-0.084,0.014-0.14,0.049-0.175S45.17,91.5,45.254,91.5
			h4.62h4.62c0.084,0,0.14,0.007,0.179,0.035s0.06,0.077,0.073,0.161l0.126,1.176l0.126,1.176c0.014,0.07,0.007,0.126-0.021,0.164
			s-0.077,0.059-0.147,0.059h-3.374h-3.374v2.492v2.492h3.038h3.038c0.07,0,0.119,0.014,0.151,0.045s0.046,0.081,0.046,0.151v1.19
			v1.19c0,0.07-0.021,0.119-0.06,0.15s-0.095,0.045-0.165,0.045h-3.024h-3.024v2.688v2.688h3.598h3.598
			c0.084,0,0.133,0.014,0.157,0.046s0.024,0.081,0.011,0.151l-0.182,1.176L55.083,109.952z"/>
		<path class="st2" d="M68.941,109.7c0,0.084-0.014,0.147-0.045,0.196s-0.08,0.084-0.15,0.112c-0.364,0.154-0.84,0.259-1.376,0.325
			s-1.13,0.095-1.733,0.095c-2.184,0-4.242-0.714-5.754-2.268s-2.478-3.948-2.478-7.308c0-2.884,0.854-5.292,2.359-6.979
			s3.661-2.653,6.265-2.653c0.687,0,1.282,0.035,1.772,0.101s0.875,0.165,1.14,0.291c0.07,0.028,0.113,0.063,0.137,0.112
			s0.032,0.112,0.032,0.196v1.204v1.204c0,0.112-0.028,0.168-0.067,0.192s-0.088,0.017-0.13,0.003
			c-0.336-0.168-0.756-0.301-1.239-0.392s-1.029-0.14-1.617-0.14c-1.638,0-3.004,0.623-3.959,1.781s-1.501,2.852-1.501,4.994
			c0,2.646,0.749,4.361,1.806,5.415s2.422,1.446,3.655,1.446c0.56,0,1.028-0.021,1.459-0.077s0.823-0.147,1.229-0.287
			c0.056-0.028,0.104-0.042,0.139-0.024s0.056,0.066,0.056,0.164v1.148V109.7z"/>
		<path class="st2" d="M75.354,104.912l-0.672,2.534l-0.672,2.534c-0.014,0.07-0.035,0.119-0.074,0.151s-0.094,0.045-0.178,0.045
			h-1.246h-1.246c-0.084,0-0.133-0.014-0.158-0.052s-0.025-0.101-0.01-0.2l2.408-8.428l2.408-8.428
			c0.042-0.154,0.077-0.294,0.105-0.5s0.049-0.479,0.063-0.899c0-0.056,0.014-0.098,0.038-0.126S76.18,91.5,76.222,91.5H78h1.778
			c0.056,0,0.098,0.007,0.13,0.032s0.052,0.067,0.067,0.136l2.702,9.142l2.702,9.142c0.014,0.07,0.014,0.126-0.007,0.164
			s-0.063,0.059-0.133,0.059h-1.4h-1.4c-0.07,0-0.126-0.014-0.168-0.042s-0.07-0.07-0.084-0.126l-0.7-2.548l-0.7-2.548H78.07H75.354
			z M80.086,102.14c-0.238-0.938-0.637-2.429-1.03-3.934s-0.777-3.024-0.987-4.018h-0.014h-0.014
			c-0.182,0.994-0.497,2.324-0.854,3.735s-0.756,2.901-1.106,4.217h2.002H80.086z"/>
		<path class="st2" d="M87.953,91.724c0-0.056,0.007-0.104,0.032-0.139s0.067-0.056,0.136-0.056
			c0.546-0.028,1.218-0.049,1.964-0.063s1.565-0.021,2.405-0.021c2.352,0,4.039,0.644,5.138,1.701s1.61,2.527,1.61,4.179
			c0,2.156-0.777,3.696-2.034,4.696s-2.993,1.463-4.911,1.463c-0.322,0-0.539-0.007-0.731-0.014s-0.36-0.014-0.584-0.014v3.262
			v3.262c0,0.07-0.014,0.119-0.046,0.151s-0.081,0.045-0.151,0.045h-1.316h-1.316c-0.07,0-0.119-0.014-0.151-0.045
			s-0.045-0.081-0.045-0.151v-9.128V91.724z M90.978,100.74c0.196,0.014,0.371,0.021,0.581,0.024s0.455,0.003,0.792,0.003
			c0.994,0,1.953-0.175,2.663-0.686s1.173-1.358,1.173-2.702c0-1.078-0.329-1.89-0.942-2.433s-1.509-0.815-2.642-0.815
			c-0.336,0-0.666,0.007-0.949,0.018s-0.521,0.024-0.675,0.038v3.276V100.74z"/>
	</g>
</g>
<g>
	<g>
		<path class="st1" d="M43.391,59.156l-1.536,5.792l-1.536,5.792c-0.032,0.16-0.08,0.272-0.168,0.344s-0.216,0.104-0.408,0.104
			h-2.848h-2.848c-0.192,0-0.304-0.032-0.36-0.12s-0.056-0.232-0.024-0.456l5.504-19.262l5.504-19.262
			c0.096-0.352,0.176-0.672,0.24-1.144s0.112-1.096,0.144-2.056c0-0.128,0.032-0.224,0.088-0.288s0.136-0.096,0.232-0.096h4.064
			h4.064c0.128,0,0.224,0.016,0.296,0.072s0.12,0.152,0.152,0.312l6.176,20.895l6.176,20.895c0.032,0.16,0.032,0.288-0.016,0.376
			s-0.144,0.136-0.304,0.136h-3.2h-3.2c-0.16,0-0.288-0.032-0.384-0.096s-0.16-0.16-0.192-0.288l-1.6-5.824l-1.6-5.824h-6.208
			H43.391z M54.207,52.821c-0.544-2.144-1.456-5.552-2.352-8.991s-1.776-6.912-2.256-9.184h-0.032h-0.032
			c-0.416,2.272-1.136,5.312-1.952,8.536s-1.728,6.631-2.528,9.639h4.576H54.207z"/>
		<path class="st1" d="M75.583,56.853c0.032,2.624,0.672,4.816,2.04,6.352s3.464,2.416,6.407,2.416c1.152,0,2.224-0.08,3.264-0.272
			s2.048-0.496,3.072-0.944c0.128-0.064,0.24-0.08,0.32-0.04s0.128,0.136,0.128,0.296v2.432v2.432c0,0.192-0.032,0.336-0.096,0.456
			s-0.16,0.216-0.289,0.312c-1.024,0.512-2.176,0.88-3.472,1.12s-2.735,0.352-4.335,0.352c-5.12,0-8.639-1.888-10.879-4.832
			s-3.2-6.944-3.2-11.167c0-4.576,1.184-8.735,3.408-11.751s5.487-4.888,9.647-4.888c4.224,0,7.072,1.776,8.864,4.272
			s2.528,5.711,2.528,8.591c0,0.928-0.032,1.776-0.088,2.48s-0.136,1.264-0.232,1.616c-0.032,0.16-0.08,0.272-0.16,0.352
			s-0.192,0.128-0.351,0.16c-0.384,0.064-1.152,0.128-2.248,0.176s-2.52,0.08-4.216,0.08h-5.056H75.583z M83.455,51.541
			c0.992,0,1.664,0,2.111-0.008s0.672-0.024,0.767-0.056c0-0.128,0.016-0.256,0.032-0.376s0.032-0.232,0.032-0.328
			c0-1.056-0.256-2.544-1.016-3.768s-2.024-2.184-4.04-2.184c-1.856,0-3.184,0.816-4.096,2.064s-1.408,2.928-1.6,4.656h3.904H83.455
			z"/>
	</g>
</g>
<g>
</g>
<g>
</g>
<g>
</g>
<g>
</g>
<g>
</g>
<g>
</g>
</svg>
