<?xml version="1.0" encoding="utf-8"?>
<!-- Generator: Adobe Illustrator 21.1.0, SVG Export Plug-In . SVG Version: 6.00 Build 0)  -->
<svg version="1.1" id="Layer_1" xmlns="http://www.w3.org/2000/svg" xmlns:xlink="http://www.w3.org/1999/xlink" x="0px" y="0px"
	 viewBox="0 0 128 128" style="enable-background:new 0 0 128 128;" xml:space="preserve">
<style type="text/css">
	.st0{fill:#290741;}
	.st1{fill:#CD87FF;}
	.st2{fill:#FAFAFA;}
</style>
<path class="st0" d="M24,126c-5.514,0-10-4.486-10-10V4c0-1.104,0.896-2,2-2h96c1.104,0,2,0.896,2,2v112c0,5.514-4.486,10-10,10H24z
	"/>
<path class="st1" d="M112,0H16c-2.21,0-4,1.79-4,4v112c0,6.62,5.38,12,12,12h80c6.62,0,12-5.38,12-12V4C116,1.79,114.21,0,112,0z
	 M112,116c0,4.42-3.58,8-8,8H24c-4.42,0-8-3.58-8-8V12h96V116z"/>
<g>
	<g>
		<path class="st1" d="M43.391,59.156l-1.536,5.792l-1.536,5.792c-0.032,0.16-0.08,0.272-0.168,0.344s-0.216,0.104-0.408,0.104
			h-2.848h-2.848c-0.192,0-0.304-0.032-0.36-0.12s-0.056-0.232-0.024-0.456l5.504-19.262l5.504-19.262
			c0.096-0.352,0.176-0.672,0.24-1.144s0.112-1.096,0.144-2.056c0-0.128,0.032-0.224,0.088-0.288s0.136-0.096,0.232-0.096h4.064
			h4.064c0.128,0,0.224,0.016,0.296,0.072s0.12,0.152,0.152,0.312l6.176,20.895l6.176,20.895c0.032,0.16,0.032,0.288-0.016,0.376
			s-0.144,0.136-0.304,0.136h-3.2h-3.2c-0.16,0-0.288-0.032-0.384-0.096s-0.16-0.16-0.192-0.288l-1.6-5.824l-1.6-5.824h-6.208
			H43.391z M54.207,52.821c-0.544-2.144-1.456-5.552-2.352-8.991s-1.776-6.912-2.256-9.184h-0.032h-0.032
			c-0.416,2.272-1.136,5.312-1.952,8.536s-1.728,6.631-2.528,9.639h4.576H54.207z"/>
		<path class="st1" d="M75.583,56.853c0.032,2.624,0.672,4.816,2.04,6.352s3.464,2.416,6.407,2.416c1.152,0,2.224-0.08,3.264-0.272
			s2.048-0.496,3.072-0.944c0.128-0.064,0.24-0.08,0.32-0.04s0.128,0.136,0.128,0.296v2.432v2.432c0,0.192-0.032,0.336-0.096,0.456
			s-0.16,0.216-0.289,0.312c-1.024,0.512-2.176,0.88-3.472,1.12s-2.735,0.352-4.335,0.352c-5.12,0-8.639-1.888-10.879-4.832
			s-3.2-6.944-3.2-11.167c0-4.576,1.184-8.735,3.408-11.751s5.487-4.888,9.647-4.888c4.224,0,7.072,1.776,8.864,4.272
			s2.528,5.711,2.528,8.591c0,0.928-0.032,1.776-0.088,2.48s-0.136,1.264-0.232,1.616c-0.032,0.16-0.08,0.272-0.16,0.352
			s-0.192,0.128-0.351,0.16c-0.384,0.064-1.152,0.128-2.248,0.176s-2.52,0.08-4.216,0.08h-5.056H75.583z M83.455,51.541
			c0.992,0,1.664,0,2.111-0.008s0.672-0.024,0.767-0.056c0-0.128,0.016-0.256,0.032-0.376s0.032-0.232,0.032-0.328
			c0-1.056-0.256-2.544-1.016-3.768s-2.024-2.184-4.04-2.184c-1.856,0-3.184,0.816-4.096,2.064s-1.408,2.928-1.6,4.656h3.904H83.455
			z"/>
	</g>
</g>
<g>
	<g>
		<path class="st2" d="M40.117,104.912l-0.672,2.534l-0.672,2.534c-0.014,0.07-0.035,0.119-0.073,0.151s-0.095,0.045-0.179,0.045
			h-1.246h-1.246c-0.084,0-0.133-0.014-0.157-0.052s-0.024-0.101-0.011-0.2l2.408-8.428l2.408-8.428
			c0.042-0.154,0.077-0.294,0.105-0.5s0.049-0.479,0.063-0.899c0-0.056,0.014-0.098,0.039-0.126s0.06-0.042,0.102-0.042h1.778h1.778
			c0.056,0,0.098,0.007,0.129,0.032s0.052,0.067,0.066,0.136l2.702,9.142l2.702,9.142c0.014,0.07,0.014,0.126-0.007,0.164
			s-0.063,0.059-0.133,0.059h-1.4h-1.4c-0.07,0-0.126-0.014-0.168-0.042s-0.07-0.07-0.084-0.126l-0.7-2.548l-0.7-2.548h-2.716
			H40.117z M44.849,102.14c-0.238-0.938-0.637-2.429-1.029-3.934s-0.777-3.024-0.987-4.018h-0.014h-0.014
			c-0.182,0.994-0.497,2.324-0.854,3.735s-0.756,2.901-1.106,4.217h2.002H44.849z"/>
		<path class="st2" d="M62.769,109.952c-0.014,0.084-0.035,0.14-0.074,0.175s-0.095,0.049-0.179,0.049h-4.788H52.94
			c-0.084,0-0.14-0.014-0.175-0.049s-0.049-0.091-0.049-0.175v-9.114v-9.114c0-0.084,0.014-0.14,0.049-0.175S52.856,91.5,52.94,91.5
			h4.62h4.62c0.084,0,0.14,0.007,0.179,0.035s0.06,0.077,0.073,0.161l0.126,1.176l0.126,1.176c0.014,0.07,0.007,0.126-0.021,0.164
			s-0.077,0.059-0.147,0.059h-3.374h-3.374v2.492v2.492h3.038h3.038c0.07,0,0.119,0.014,0.151,0.045s0.046,0.081,0.046,0.151v1.19
			v1.19c0,0.07-0.021,0.119-0.06,0.15s-0.095,0.045-0.165,0.045h-3.024h-3.024v2.688v2.688h3.598h3.598
			c0.084,0,0.133,0.014,0.157,0.046s0.024,0.081,0.011,0.151l-0.182,1.176L62.769,109.952z"/>
		<path class="st2" d="M69.517,94.271h-2.352h-2.352c-0.07,0-0.119-0.014-0.147-0.049s-0.035-0.091-0.021-0.175l0.168-1.176
			l0.168-1.176c0.014-0.07,0.035-0.119,0.07-0.151s0.084-0.045,0.154-0.045h5.88h5.88c0.084,0,0.14,0.014,0.179,0.049
			s0.06,0.091,0.073,0.175l0.112,1.162l0.112,1.162c0.014,0.084,0,0.14-0.036,0.175s-0.091,0.049-0.161,0.049h-2.338h-2.338v7.84
			v7.84c0,0.07-0.014,0.126-0.049,0.164s-0.091,0.059-0.176,0.059h-1.302H69.74c-0.084,0-0.14-0.014-0.175-0.049
			s-0.049-0.091-0.049-0.175v-7.84V94.271z"/>
		<path class="st2" d="M87.659,100.544l2.436,4.676l2.436,4.676c0.042,0.07,0.049,0.14,0.028,0.193s-0.07,0.087-0.14,0.087h-1.512
			h-1.512c-0.098,0-0.168-0.014-0.224-0.049s-0.098-0.091-0.14-0.175c-0.56-1.148-1.12-2.296-1.687-3.465s-1.141-2.359-1.729-3.591
			h-0.014h-0.014c-0.518,1.162-1.064,2.359-1.621,3.553s-1.124,2.383-1.684,3.531c-0.042,0.07-0.084,0.119-0.133,0.151
			s-0.105,0.045-0.175,0.045h-1.442h-1.442c-0.084,0-0.133-0.035-0.151-0.084s-0.004-0.112,0.038-0.168l2.38-4.536l2.38-4.536
			l-2.296-4.55l-2.296-4.55c-0.056-0.07-0.056-0.133-0.028-0.178s0.084-0.074,0.14-0.074h1.498h1.498
			c0.084,0,0.147,0.007,0.196,0.035s0.084,0.077,0.112,0.161c0.546,1.148,1.099,2.289,1.645,3.433s1.085,2.292,1.603,3.454h0.014
			h0.014c0.504-1.148,1.036-2.296,1.575-3.44s1.085-2.286,1.617-3.42c0.042-0.07,0.077-0.126,0.123-0.164S89.256,91.5,89.34,91.5
			h1.4h1.4c0.07,0,0.119,0.028,0.14,0.074s0.014,0.109-0.028,0.178l-2.296,4.396L87.659,100.544z"/>
	</g>
</g>
<g>
</g>
<g>
</g>
<g>
</g>
<g>
</g>
<g>
</g>
<g>
</g>
</svg>
