<?xml version="1.0" encoding="utf-8"?>
<!-- Generator: Adobe Illustrator 24.0.1, SVG Export Plug-In . SVG Version: 6.00 Build 0)  -->
<svg version="1.1" id="Layer_1" xmlns="http://www.w3.org/2000/svg" xmlns:xlink="http://www.w3.org/1999/xlink" x="0px" y="0px"
	 viewBox="0 0 64 64" style="enable-background:new 0 0 64 64;" xml:space="preserve">
<style type="text/css">
	.st0{fill:#F5F5F5;}
	.st1{fill:#B3B3B3;}
	.st2{fill:#4B4B4B;}
	.st3{enable-background:new    ;}
	.st4{fill:#2C2C2C;}
</style>
<title>64</title>
<g id="Surface">
	<g id="Document">
		<g id="Document_Fill">
			<path id="_64" class="st0" d="M14,60.6c-2.7,0-4.9-2.2-5-4.9V8.5c0.1-2.7,2.3-4.9,5-4.9h27.5c1.3,0,2.6,0.5,3.5,1.4l8.5,8.3
				c0.9,0.9,1.5,2.2,1.5,3.5v38.9c-0.1,2.7-2.3,4.9-5,4.9H14z"/>
		</g>
		<g id="Document_Outline">
			<path id="_64-2" class="st1" d="M41.5,4c1.1,0,2.1,0.5,2.8,1.2l8.5,8.3c0.8,0.7,1.2,1.6,1.2,2.7v38.9c0,2.2-1.9,4-4.1,3.9
				c0,0,0,0,0,0H14c-2.2,0-3.9-1.7-4-3.9V7.9C10,5.7,11.8,4,14,4H41.5 M41.5,2H14c-3.3,0-5.9,2.6-6,5.9v47.2c0,3.3,2.7,5.9,6,5.9
				c0,0,0,0,0,0h36c3.2,0.1,5.9-2.5,6-5.7c0,0,0-0.1,0-0.1V16.3c0-1.6-0.6-3.1-1.8-4.2l-8.5-8.4C44.6,2.6,43.1,2,41.5,2L41.5,2z"/>
		</g>
	</g>
</g>
<g id="Modifier">
	<g id="Audio">
		<g id="_64-3">
			<path class="st2" d="M32,36c-0.6,0-1-0.4-1-1V18.1c0-0.6,0.1-1.1,0.7-1.3s1.1,0.1,1.3,0.7v0.6L33,35c0,0.5-0.4,1-0.9,1
				C32.1,36,32,36,32,36z"/>
			<path class="st2" d="M28,32c-0.6-0.1-1-0.5-1-1.1V22c0-0.6,0.4-1,1-1c0.5,0,1,0.4,1,0.9c0,0,0,0.1,0,0.1v8.9
				c0.1,0.5-0.3,1-0.9,1.1C28.1,32,28,32,28,32z"/>
			<path class="st2" d="M36,38c-0.6-0.1-1-0.6-0.9-1.1v-22c0-0.5,0.3-0.9,0.8-0.9c0,0,0.1,0,0.1,0c0.5,0,1,0.4,1,0.9
				c0,0,0,0.1,0,0.1v22C37,37.6,36.6,38,36,38z"/>
			<path class="st2" d="M24,37c-0.5,0.1-0.9-0.3-1-0.8c0,0,0-0.1,0-0.1V17.2c-0.1-0.6,0.3-1.1,0.9-1.2c0,0,0,0,0.1,0
				c0.6,0,1,0.4,1,1v18.9C25,36.5,24.6,37,24,37C24.1,37,24,37,24,37z"/>
			<path class="st2" d="M40,31c-0.6,0-1-0.4-1-1v-6.9c0-0.5,0.4-1,0.9-1c0.6,0,1,0.4,1,1L41,30C41,30.6,40.6,31,40,31z"/>
			<path class="st2" d="M19.9,31.9c-0.6,0-1-0.5-0.9-1.1c0,0,0,0,0,0v-8.9c0-0.5,0.4-0.9,0.9-0.9c0,0,0.1,0,0.1,0
				c0.4-0.1,0.8,0.2,0.8,0.6c0,0.1,0,0.1,0,0.2l0.1,9C21,31.4,20.6,31.9,19.9,31.9C20,31.9,20,31.9,19.9,31.9z"/>
			<path class="st2" d="M44,33.9c-0.6,0-1-0.4-1-1V19c0-0.5,0.4-0.9,0.9-0.9c0,0,0,0,0.1,0c0.6,0,1,0.4,1,1L45,33
				C45,33.5,44.5,33.9,44,33.9z"/>
		</g>
	</g>
</g>
<g id="Mime">
	<g class="st3">
		<path class="st4" d="M26,50.2l-0.6,2.4c0,0.1,0,0.1-0.1,0.1h-1.2c-0.1,0-0.1,0-0.1-0.1l2.2-7.8c0-0.1,0.1-0.3,0.1-0.7
			c0-0.1,0-0.1,0.1-0.1H28c0.1,0,0.1,0,0.1,0.1l2.5,8.5c0,0.1,0,0.1-0.1,0.1h-1.3c-0.1,0-0.1,0-0.1-0.1l-0.6-2.4H26z M28.1,48.9
			c-0.2-0.9-0.7-2.8-0.9-3.7h0c-0.2,0.9-0.6,2.5-0.9,3.7H28.1z"/>
		<path class="st4" d="M33.2,52.6c0,0.1,0,0.1-0.1,0.1h-1.2c-0.1,0-0.1,0-0.1-0.1v-8.5c0-0.1,0-0.1,0.1-0.1h1.2c0.1,0,0.1,0,0.1,0.1
			V52.6z"/>
	</g>
	<g class="st3">
		<path class="st4" d="M36.6,52.6c0,0.1,0,0.1-0.1,0.1h-1.2c-0.1,0-0.1,0-0.1-0.1v-8.5c0-0.1,0-0.1,0.1-0.1h4.3c0.1,0,0.1,0,0.1,0.1
			l0.1,1.1c0,0.1,0,0.1-0.1,0.1h-3.1v2.5h2.8c0.1,0,0.1,0,0.1,0.1v1.1c0,0.1,0,0.1-0.1,0.1h-2.8V52.6z"/>
	</g>
</g>
</svg>
