<?xml version="1.0" encoding="utf-8"?>
<!-- Generator: Adobe Illustrator 21.1.0, SVG Export Plug-In . SVG Version: 6.00 Build 0)  -->
<svg version="1.1" id="Layer_1" xmlns="http://www.w3.org/2000/svg" xmlns:xlink="http://www.w3.org/1999/xlink" x="0px" y="0px"
	 viewBox="0 0 128 128" style="enable-background:new 0 0 128 128;" xml:space="preserve">
<style type="text/css">
	.st0{fill:#FFFFFF;}
	.st1{fill:#B3B3B3;}
	.st2{fill:#2C2C2C;}
	.st3{fill:#FF2116;}
</style>
<g>
	<path class="st0" d="M24,126c-5.514,0-10-4.486-10-10V12c0-5.514,4.486-10,10-10h61.521c2.132,0,4.137,0.829,5.646,2.333
		l20.48,20.408c1.495,1.49,2.353,3.555,2.353,5.667V116c0,5.514-4.486,10-10,10H24z"/>
	<path class="st1" d="M85.52,4c1.588,0,3.111,0.629,4.235,1.75l20.48,20.408c1.13,1.126,1.765,2.655,1.765,4.25V116
		c0,4.418-3.582,8-8,8H24c-4.418,0-8-3.582-8-8V12c0-4.418,3.582-8,8-8H85.52 M85.52,0H24c-6.617,0-12,5.383-12,12v104
		c0,6.617,5.383,12,12,12h80c6.617,0,12-5.383,12-12V30.408c0-2.639-1.072-5.221-2.941-7.084L92.579,2.917
		C90.691,1.036,88.185,0,85.52,0L85.52,0z"/>
</g>
<g>
	<g>
		<path class="st2" d="M44.302,91.724c0-0.056,0.007-0.104,0.031-0.139s0.066-0.056,0.137-0.056
			c0.546-0.028,1.218-0.049,1.964-0.063s1.564-0.021,2.405-0.021c2.352,0,4.039,0.644,5.138,1.701s1.61,2.527,1.61,4.179
			c0,2.156-0.777,3.696-2.034,4.696s-2.993,1.463-4.911,1.463c-0.322,0-0.539-0.007-0.731-0.014s-0.36-0.014-0.585-0.014v3.262
			v3.262c0,0.07-0.014,0.119-0.045,0.151s-0.08,0.045-0.15,0.045h-1.316h-1.316c-0.07,0-0.119-0.014-0.151-0.045
			s-0.046-0.081-0.046-0.151v-9.128V91.724z M47.326,100.74c0.196,0.014,0.371,0.021,0.581,0.024s0.455,0.003,0.791,0.003
			c0.994,0,1.953-0.175,2.664-0.686s1.172-1.358,1.172-2.702c0-1.078-0.329-1.89-0.941-2.433s-1.508-0.815-2.643-0.815
			c-0.336,0-0.665,0.007-0.948,0.018s-0.522,0.024-0.676,0.038v3.276V100.74z"/>
		<path class="st2" d="M58.61,91.752c0-0.07,0.007-0.119,0.035-0.154s0.077-0.056,0.161-0.07c0.322-0.014,0.945-0.035,1.725-0.053
			s1.718-0.031,2.67-0.031c2.842,0,4.97,0.917,6.388,2.506s2.125,3.85,2.125,6.538c0,3.738-1.225,6.174-2.923,7.675
			s-3.868,2.068-5.758,2.068c-0.714,0-1.589-0.007-2.38-0.017s-1.498-0.024-1.876-0.038c-0.056,0-0.098-0.021-0.126-0.059
			s-0.042-0.094-0.042-0.164v-9.1V91.752z M61.663,107.488c0.238,0.014,0.462,0.028,0.693,0.038s0.469,0.018,0.735,0.018
			c1.568,0,2.933-0.553,3.91-1.701s1.564-2.891,1.578-5.271c0.014-2.324-0.581-3.934-1.554-4.963s-2.324-1.477-3.822-1.477
			c-0.294,0-0.56,0.007-0.812,0.018s-0.49,0.024-0.728,0.038v6.65V107.488z"/>
		<path class="st2" d="M78.126,109.952c0,0.084-0.014,0.14-0.045,0.175s-0.08,0.049-0.15,0.049h-1.33h-1.33
			c-0.07,0-0.119-0.014-0.151-0.049s-0.045-0.091-0.045-0.175v-9.128v-9.128c0-0.07,0.014-0.119,0.045-0.151S75.2,91.5,75.271,91.5
			h4.662h4.662c0.084,0,0.134,0.014,0.165,0.045s0.045,0.081,0.06,0.151l0.14,1.176l0.14,1.176c0.014,0.084,0,0.14-0.039,0.175
			s-0.102,0.049-0.186,0.049H81.5h-3.374v2.66v2.66h3.024h3.024c0.07,0,0.119,0.007,0.151,0.035s0.045,0.077,0.045,0.161v1.176
			v1.176c0,0.084-0.014,0.133-0.045,0.161s-0.081,0.035-0.151,0.035H81.15h-3.024v3.808V109.952z"/>
	</g>
</g>
<g>
	<path class="st3" d="M88.1,56.98c-0.735-0.785-1.86-1.385-3.336-1.789S81.46,54.58,79.32,54.58c-1.16,0-2.403,0.06-3.719,0.179
		s-2.706,0.296-4.161,0.531c-0.83-0.78-1.647-1.632-2.446-2.554s-1.579-1.911-2.334-2.966c-0.545-0.75-1.067-1.517-1.565-2.296
		s-0.97-1.569-1.415-2.364c0.835-2.58,1.462-4.91,1.881-6.975s0.629-3.865,0.629-5.385c0-1.67-0.315-3.4-1.074-4.713
		s-1.961-2.208-3.736-2.208c-0.54,0-1.085,0.165-1.566,0.453s-0.899,0.698-1.184,1.188c-0.83,1.42-1.043,3.698-0.698,6.393
		s1.248,5.808,2.648,8.898c-0.51,1.53-1.045,3.04-1.625,4.581s-1.205,3.114-1.895,4.769c-0.58,1.4-1.217,2.82-1.894,4.219
		s-1.391,2.776-2.126,4.091c-4.085,1.625-7.427,3.368-9.82,5.076s-3.835,3.384-4.12,4.874c-0.1,0.54-0.062,1.065,0.105,1.552
		s0.465,0.937,0.885,1.328c0.135,0.125,0.457,0.395,0.972,0.634s1.223,0.446,2.128,0.446c2.695,0,5.455-2.165,7.907-4.984
		s4.597-6.291,6.062-8.906c1.1-0.38,2.213-0.743,3.329-1.084s2.236-0.661,3.351-0.956c1.245-0.33,2.467-0.627,3.661-0.891
		s2.359-0.494,3.489-0.689c2.845,2.55,5.525,4.017,7.806,4.847s4.164,1.023,5.414,1.023c1.205,0,2.2-0.198,2.964-0.58
		s1.296-0.95,1.576-1.69c0.07-0.185,0.12-0.375,0.153-0.566s0.048-0.384,0.048-0.574c0-0.455-0.09-0.9-0.241-1.296
		S88.345,57.24,88.1,56.98z M42.17,72.6c-0.225,0-0.432-0.035-0.619-0.103S41.2,72.33,41.06,72.2c-0.19-0.18-0.335-0.37-0.433-0.571
		s-0.148-0.414-0.148-0.639c0-0.055,0.005-0.112,0.013-0.171S40.51,70.7,40.52,70.64c0.21-1.125,1.395-2.463,3.352-3.873
		s4.687-2.893,7.987-4.308c-1.88,3.135-3.743,5.67-5.415,7.421S43.29,72.6,42.17,72.6z M59.21,31.57c0-0.745,0.06-1.408,0.172-1.975
		s0.277-1.04,0.487-1.405c0.165-0.29,0.385-0.52,0.636-0.678s0.534-0.243,0.824-0.243c0.79,0,1.267,0.438,1.549,1.059
		s0.366,1.426,0.371,2.161c0,1.175-0.18,2.682-0.52,4.415s-0.84,3.69-1.48,5.765c-0.715-1.77-1.225-3.452-1.556-4.989
		S59.21,32.755,59.21,31.57z M63.48,57.01c-0.88,0.235-1.768,0.485-2.656,0.747s-1.779,0.537-2.664,0.822
		c0.48-0.91,0.938-1.83,1.364-2.737s0.821-1.803,1.176-2.662c0.44-1.06,0.86-2.115,1.257-3.16s0.772-2.08,1.123-3.1
		c0.385,0.65,0.78,1.285,1.182,1.901s0.812,1.214,1.228,1.789c0.67,0.93,1.358,1.812,2.06,2.645s1.42,1.615,2.15,2.345
		c-0.995,0.185-2.015,0.398-3.054,0.634S64.55,56.73,63.48,57.01z M82.95,56.27c0.515,0.105,1.187,0.323,1.684,0.759
		S85.45,58.12,85.26,59.1c-0.055,0.28-0.165,0.54-0.326,0.771S84.56,60.305,84.3,60.47c-0.41,0.265-0.91,0.433-1.464,0.496
		s-1.161,0.024-1.786-0.126c-1.415-0.34-2.795-0.862-4.159-1.58s-2.711-1.63-4.061-2.75c2.15-0.36,4.207-0.518,5.964-0.536
		S82.005,56.075,82.95,56.27z"/>
</g>
<g>
</g>
<g>
</g>
<g>
</g>
<g>
</g>
<g>
</g>
<g>
</g>
</svg>
