<?xml version="1.0" encoding="utf-8"?>
<!-- Generator: Adobe Illustrator 21.1.0, SVG Export Plug-In . SVG Version: 6.00 Build 0)  -->
<svg version="1.1" id="Generic_Document" xmlns="http://www.w3.org/2000/svg" xmlns:xlink="http://www.w3.org/1999/xlink" x="0px"
	 y="0px" viewBox="0 0 32 32" style="enable-background:new 0 0 32 32;" xml:space="preserve">
<style type="text/css">
	.st0{fill:#FFFFFF;}
	.st1{fill:#B3B3B3;}
</style>
<g>
	<path class="st0" d="M6,31.5c-1.4,0-2.5-1.1-2.5-2.5V3c0-1.4,1.1-2.5,2.5-2.5h15.4c0.5,0,1,0.2,1.4,0.6l5.1,5.1
		c0.4,0.4,0.6,0.9,0.6,1.4V29c0,1.4-1.1,2.5-2.5,2.5H6z"/>
	<g>
		<path class="st1" d="M28.3,5.8l-5.1-5.1C22.7,0.3,22,0,21.4,0H6C4.3,0,3,1.3,3,3v26c0,1.7,1.3,3,3,3h20c1.7,0,3-1.3,3-3V7.6
			C29,6.9,28.7,6.3,28.3,5.8z M22.5,1.5l5,5H23c-0.3,0-0.5-0.2-0.5-0.5V1.5z M28,29c0,1.1-0.9,2-2,2H6c-1.1,0-2-0.9-2-2V3
			c0-1.1,0.9-2,2-2h15.4c0,0,0.1,0,0.1,0v5c0,0.8,0.7,1.5,1.5,1.5h5c0,0,0,0.1,0,0.1V29z"/>
	</g>
</g>
</svg>
