<?xml version="1.0" encoding="utf-8"?>
<!-- Generator: Adobe Illustrator 22.1.0, SVG Export Plug-In . SVG Version: 6.00 Build 0)  -->
<svg version="1.1" id="Layer_1" xmlns="http://www.w3.org/2000/svg" xmlns:xlink="http://www.w3.org/1999/xlink" x="0px" y="0px"
	 viewBox="0 0 128 128" style="enable-background:new 0 0 128 128;" xml:space="preserve">
<style type="text/css">
	.st0{display:none;}
	.st1{display:inline;}
	.st2{fill:#2E0918;}
	.st3{fill:#FF3388;}
	.st4{fill:#261D00;}
	.st5{fill:#FFBF00;}
	.st6{display:inline;fill:#2E0918;}
	.st7{display:inline;fill:#FF3388;}
	.st8{fill:#262002;}
	.st9{fill:#FFD70D;}
	.st10{fill:#FFFFFF;}
	.st11{fill:#B3B3B3;}
	.st12{display:none;fill:#4B4B4B;}
	.st13{fill:#FF2116;}
	.st14{fill:#FFF7CC;}
</style>
<g id="Surface">
	<g id="Book" class="st0">
		<g class="st1">
			<path class="st2" d="M24,126c-5.514,0-10-4.486-10-10V12c0-5.514,4.486-10,10-10h72c1.104,0,2,0.896,2,2v10h14
				c1.104,0,2,0.896,2,2v100c0,5.514-4.486,10-10,10H24z"/>
			<path class="st3" d="M112,12h-12V4c0-2.21-1.79-4-4-4H24c-1.56,0-3.06,0.3-4.43,0.85C15.14,2.61,12,6.94,12,12v104
				c0,6.62,5.38,12,12,12h80c6.62,0,12-5.38,12-12V16C116,13.79,114.21,12,112,12z M21.18,4.52C21.77,4.19,22.45,4,23.17,4H96v8
				H23.17c-2.23,0-4.05-1.79-4.05-4C19.12,6.51,19.95,5.2,21.18,4.52z M112,116c0,4.42-3.58,8-8,8H24c-4.42,0-8-3.58-8-8V12
				c0-0.12,0-0.24,0.01-0.35c1.34,2.58,4.04,4.35,7.16,4.35H112V116z"/>
		</g>
	</g>
	<g id="Envelope" class="st0">
		<g class="st1">
			<path class="st4" d="M24,125.995c-5.514,0-10-4.486-10-10v-112c0-1.104,0.896-2,2-2h96c1.104,0,2,0.896,2,2v112
				c0,5.514-4.486,10-10,10H24z"/>
			<path class="st5" d="M115.99,3.85c-0.05-1.55-0.99-2.87-2.32-3.47C113.16,0.13,112.59,0,112,0H16c-0.59,0-1.16,0.13-1.67,0.37
				c-1.32,0.6-2.25,1.9-2.32,3.43C12,3.87,12,3.93,12,4v112c0,6.61,5.38,12,12,12h80c6.62,0,12-5.39,12-12V4
				C116,3.95,116,3.9,115.99,3.85z M110.67,4l-8.71,10.52c-0.38,0.46-0.95,0.72-1.54,0.72H27.95c-0.58,0-1.14-0.25-1.52-0.7L17.43,4
				H110.67z M112,116c0,4.41-3.58,8-8,8H24c-4.42,0-8-3.59-8-8V8.48l7.39,8.66c1.14,1.34,2.81,2.1,4.56,2.1h72.47
				c1.79,0,3.47-0.79,4.62-2.17l6.96-8.4V116z"/>
		</g>
	</g>
	<g id="Pad" class="st0">
		<path class="st6" d="M24,126c-5.514,0-10-4.486-10-10V4c0-1.104,0.896-2,2-2h96c1.104,0,2,0.896,2,2v112c0,5.514-4.486,10-10,10
			H24z"/>
		<path class="st7" d="M112,0H16c-2.21,0-4,1.79-4,4v112c0,6.62,5.38,12,12,12h80c6.62,0,12-5.38,12-12V4C116,1.79,114.21,0,112,0z
			 M112,116c0,4.42-3.58,8-8,8H24c-4.42,0-8-3.58-8-8V12h96V116z"/>
	</g>
	<g id="Document">
		<g>
			<path class="st8" d="M24,126c-5.514,0-10-4.486-10-10V12c0-5.514,4.486-10,10-10h61.521c2.132,0,4.137,0.829,5.646,2.333
				l20.48,20.408c1.495,1.49,2.353,3.555,2.353,5.667V116c0,5.514-4.486,10-10,10H24z"/>
			<path class="st9" d="M85.52,4c1.588,0,3.111,0.629,4.235,1.75l20.48,20.408c1.13,1.126,1.765,2.655,1.765,4.25V116
				c0,4.418-3.582,8-8,8H24c-4.418,0-8-3.582-8-8V12c0-4.418,3.582-8,8-8H85.52 M85.52,0H24c-6.617,0-12,5.383-12,12v104
				c0,6.617,5.383,12,12,12h80c6.617,0,12-5.383,12-12V30.408c0-2.639-1.072-5.221-2.941-7.084L92.579,2.917
				C90.691,1.036,88.185,0,85.52,0L85.52,0z"/>
		</g>
	</g>
	<g id="Generic_Document" class="st0">
		<g class="st1">
			<path class="st10" d="M24,126.011c-5.514,0-10-4.486-10-10v-104c0-5.514,4.486-10,10-10h61.521c2.132,0,4.137,0.829,5.646,2.333
				l20.48,20.408c1.517,1.512,2.353,3.524,2.353,5.667v85.592c0,5.514-4.486,10-10,10H24z"/>
			<g>
				<path class="st11" d="M113.06,23.33L92.58,2.93c-1.89-1.88-4.4-2.92-7.06-2.92H24c-6.62,0-12,5.38-12,12v104
					c0,6.62,5.38,12,12,12h80c6.62,0,12-5.38,12-12V30.42C116,27.78,114.93,25.2,113.06,23.33z M90,6l20.06,19.99H92
					c-1.11,0-2-0.9-2-2V6z M112,116.01c0,4.42-3.58,8-8,8H24c-4.42,0-8-3.58-8-8v-104c0-4.42,3.58-8,8-8h61.52
					c0.16,0,0.32,0.01,0.48,0.02v19.96c0,3.31,2.69,6,6,6h19.98c0.01,0.14,0.02,0.29,0.02,0.43C112,30.42,112,116.01,112,116.01z"/>
			</g>
		</g>
	</g>
</g>
<g id="Modifier">
	<path id="ZIP" class="st12" d="M76,29.069v-2c0-0.552-0.448-1-1-1H53c-0.552,0-1,0.456-1,1.008v5.992c0,0.552,0.448,1,1,1h9v4h-9
		c-0.552,0-1,0.448-1,1v2c0,0.552,0.448,1,1,1h9v4h-9c-0.552,0-1,0.448-1,1v2c0,0.552,0.448,1,1,1h9v8h-3c-0.552,0-1,0.469-1,1.021
		v13.979c0,0.552,0.448,1,1,1h10c0.552,0,1-0.448,1-1v-14c0-0.552-0.448-1-1-1h-3v-8h9c0.552,0,1-0.448,1-1v-6c0-0.552-0.448-1-1-1
		h-9v-4h9c0.552,0,1-0.448,1-1v-2c0-0.552-0.448-1-1-1h-9v-4h9C75.552,30.069,76,29.621,76,29.069z M66,70.069h-4v-6h4V70.069z"/>
	<g id="Acrobat" class="st0">
		<g class="st1">
			<path class="st13" d="M88.1,56.98c-1.47-1.57-4.5-2.4-8.78-2.4c-2.32,0-4.97,0.24-7.88,0.71c-1.66-1.56-3.27-3.41-4.78-5.52
				c-1.09-1.5-2.09-3.07-2.98-4.66c1.67-5.16,2.51-9.32,2.51-12.36c0-3.34-1.26-6.92-4.81-6.92c-1.08,0-2.18,0.66-2.75,1.64
				c-1.66,2.84-0.85,9.11,1.95,15.29c-1.02,3.06-2.14,6.04-3.52,9.35c-1.16,2.8-2.55,5.68-4.02,8.31
				c-8.17,3.25-13.37,6.97-13.94,9.95c-0.2,1.08,0.15,2.1,0.99,2.88c0.27,0.25,1.29,1.08,3.1,1.08c5.39,0,11.04-8.66,13.97-13.89
				c2.2-0.76,4.45-1.45,6.68-2.04c2.49-0.66,4.89-1.19,7.15-1.58c5.69,5.1,10.72,5.87,13.22,5.87c2.41,0,3.98-0.79,4.54-2.27
				c0.14-0.37,0.2-0.76,0.2-1.14C88.95,58.37,88.59,57.5,88.1,56.98z M42.17,72.6c-0.45,0-0.83-0.14-1.11-0.4
				c-0.38-0.36-0.58-0.76-0.58-1.21c0-0.11,0.02-0.23,0.04-0.35c0.42-2.25,4.74-5.35,11.34-8.18C48.1,68.73,44.41,72.6,42.17,72.6z
				 M59.21,31.57c0-1.49,0.24-2.65,0.66-3.38c0.33-0.58,0.88-0.92,1.46-0.92c1.58,0,1.91,1.75,1.92,3.22c0,2.35-0.72,6.03-2,10.18
				C59.82,37.13,59.21,33.94,59.21,31.57z M63.48,57.01c-1.76,0.47-3.55,1-5.32,1.57c0.96-1.82,1.83-3.68,2.54-5.4
				c0.88-2.12,1.68-4.22,2.38-6.26c0.77,1.3,1.58,2.54,2.41,3.69c1.34,1.86,2.75,3.53,4.21,4.99
				C67.71,55.97,65.62,56.45,63.48,57.01z M82.95,56.27c1.03,0.21,2.69,0.87,2.31,2.83c-0.11,0.56-0.44,1.04-0.96,1.37
				c-0.82,0.53-2,0.67-3.25,0.37c-2.83-0.68-5.52-2.09-8.22-4.33C77.13,55.79,81.06,55.88,82.95,56.27z"/>
		</g>
	</g>
</g>
<g id="Mnem">
	<g>
		<g>
			<path class="st14" d="M37.28,69.716c-0.256-0.192-0.384-0.448-0.384-0.832V62.74c0-0.192,0.256-0.384,0.512-0.192
				c2.88,1.984,6.271,2.879,9.471,2.879c4.672,0,6.592-2.432,6.592-5.184c0-2.432-1.216-4.416-5.696-7.04l-2.304-1.216
				C38.88,48.276,36.96,44.5,36.96,39.7c0-6.527,4.543-11.775,13.119-11.775c3.775,0,6.527,0.576,8.127,1.472
				c0.32,0.128,0.384,0.32,0.384,0.704v5.76c0,0.256-0.256,0.448-0.512,0.256c-1.984-1.28-4.863-1.92-7.871-1.92
				c-4.928,0-6.528,2.816-6.528,5.056c0,2.432,1.216,4.224,5.632,6.655l2.048,1.088c7.295,4.032,9.151,7.936,9.151,12.735
				c0,7.104-5.184,12.031-13.631,12.031C43.104,71.764,39.647,71.06,37.28,69.716z"/>
			<path class="st14" d="M91.229,54.485c0,11.583-8.127,17.279-16.383,17.279c-0.512,0-1.088-0.064-1.664-0.128v8.767
				c0,0.257-0.128,0.385-0.447,0.448l-6.079,0.576c-0.385,0-0.449-0.064-0.449-0.384V45.077c0-0.704-0.063-2.56-0.191-3.456
				c0-0.064,0.064-0.256,0.191-0.32c2.561-0.832,6.464-2.176,11.008-2.176C86.302,39.126,91.229,45.717,91.229,54.485z
				 M73.183,45.717v19.775c0.576,0.191,1.408,0.256,2.112,0.256c4.288,0,8.831-3.072,8.831-10.815c0-6.335-2.815-9.727-7.615-9.727
				C75.167,45.206,74.207,45.397,73.183,45.717z"/>
		</g>
	</g>
</g>
</svg>
