<?xml version="1.0" encoding="utf-8"?>
<!-- Generator: Adobe Illustrator 21.1.0, SVG Export Plug-In . SVG Version: 6.00 Build 0)  -->
<svg version="1.1" id="Layer_1" xmlns="http://www.w3.org/2000/svg" xmlns:xlink="http://www.w3.org/1999/xlink" x="0px" y="0px"
	 viewBox="0 0 128 128" style="enable-background:new 0 0 128 128;" xml:space="preserve">
<style type="text/css">
	.st0{fill:#0A2600;}
	.st1{fill:#76ED3C;}
	.st2{fill:#FAFAFA;}
</style>
<g>
	<path class="st0" d="M24,126c-5.514,0-10-4.486-10-10V12c0-5.514,4.486-10,10-10h61.521c2.132,0,4.137,0.829,5.646,2.333
		l20.48,20.408c1.495,1.49,2.353,3.555,2.353,5.667V116c0,5.514-4.486,10-10,10H24z"/>
	<path class="st1" d="M85.52,4c1.588,0,3.111,0.629,4.235,1.75l20.48,20.408c1.13,1.126,1.765,2.655,1.765,4.25V116
		c0,4.418-3.582,8-8,8H24c-4.418,0-8-3.582-8-8V12c0-4.418,3.582-8,8-8H85.52 M85.52,0H24c-6.617,0-12,5.383-12,12v104
		c0,6.617,5.383,12,12,12h80c6.617,0,12-5.383,12-12V30.408c0-2.639-1.072-5.221-2.941-7.084L92.579,2.917
		C90.691,1.036,88.185,0,85.52,0L85.52,0z"/>
</g>
<g>
	<g>
		<path class="st2" d="M47.004,91.752c0-0.07,0.007-0.119,0.035-0.154s0.077-0.056,0.161-0.07c0.322-0.014,0.945-0.035,1.725-0.053
			s1.719-0.031,2.671-0.031c2.842,0,4.97,0.917,6.387,2.506s2.125,3.85,2.125,6.538c0,3.738-1.225,6.174-2.922,7.675
			s-3.868,2.068-5.758,2.068c-0.714,0-1.589-0.007-2.38-0.017s-1.498-0.024-1.876-0.038c-0.056,0-0.098-0.021-0.126-0.059
			s-0.042-0.094-0.042-0.164v-9.1V91.752z M50.057,107.488c0.238,0.014,0.462,0.028,0.693,0.038s0.469,0.018,0.735,0.018
			c1.568,0,2.933-0.553,3.91-1.701s1.565-2.891,1.579-5.271c0.014-2.324-0.581-3.934-1.554-4.963s-2.324-1.477-3.822-1.477
			c-0.294,0-0.56,0.007-0.812,0.018s-0.49,0.024-0.728,0.038v6.65V107.488z"/>
		<path class="st2" d="M76.964,106.228h0.014h0.014c0.126-0.868,0.35-2.331,0.745-4.658s0.962-5.52,1.774-9.846
			c0.014-0.084,0.035-0.14,0.07-0.175s0.084-0.049,0.154-0.049h1.316h1.316c0.07,0,0.126,0.021,0.157,0.063s0.039,0.105,0.011,0.189
			l-1.974,9.128l-1.974,9.128c-0.028,0.07-0.056,0.112-0.094,0.136s-0.088,0.032-0.157,0.032H76.88h-1.456
			c-0.084,0-0.133-0.007-0.168-0.032s-0.056-0.067-0.084-0.136c-0.378-1.82-0.952-4.851-1.487-7.752s-1.033-5.673-1.257-6.975
			h-0.014H72.4c-0.196,1.302-0.749,4.109-1.348,7.021s-1.243,5.929-1.621,7.651c-0.014,0.084-0.042,0.14-0.087,0.175
			s-0.108,0.049-0.192,0.049h-1.428h-1.428c-0.07,0-0.119-0.014-0.157-0.045s-0.067-0.081-0.094-0.151l-1.96-9.128l-1.96-9.128
			c-0.014-0.084-0.007-0.14,0.018-0.175s0.067-0.049,0.122-0.049h1.428h1.428c0.056,0,0.105,0.007,0.144,0.035
			s0.066,0.077,0.08,0.161c0.952,4.69,1.554,7.903,1.946,10.153s0.574,3.538,0.687,4.378h0.014h0.014
			c0.154-0.98,0.399-2.352,0.83-4.606s1.047-5.39,1.943-9.898c0.028-0.084,0.063-0.14,0.108-0.175s0.101-0.049,0.171-0.049h1.512
			h1.512c0.07,0,0.112,0.014,0.14,0.045s0.042,0.081,0.056,0.151c0.518,2.87,1.015,5.431,1.47,7.811S76.614,104.085,76.964,106.228z
			"/>
	</g>
</g>
<g>
	<g>
		<path class="st1" d="M30.208,29.079c0-0.16,0.016-0.272,0.08-0.352s0.176-0.128,0.368-0.16c0.736-0.032,2.16-0.08,3.944-0.12
			s3.928-0.072,6.103-0.072c6.496,0,11.359,2.096,14.599,5.728s4.856,8.799,4.856,14.943c0,8.543-2.8,14.111-6.68,17.543
			s-8.839,4.728-13.159,4.728c-1.632,0-3.632-0.016-5.44-0.04s-3.424-0.056-4.288-0.088c-0.128,0-0.224-0.048-0.288-0.136
			s-0.096-0.216-0.096-0.376V49.877V29.079z M37.184,65.044c0.544,0.032,1.056,0.064,1.584,0.088s1.072,0.04,1.68,0.04
			c3.584,0,6.703-1.264,8.935-3.888s3.576-6.607,3.608-12.047c0.032-5.312-1.328-8.992-3.552-11.343s-5.312-3.376-8.735-3.376
			c-0.672,0-1.28,0.016-1.856,0.04s-1.12,0.056-1.664,0.088v15.199V65.044z"/>
		<path class="st1" d="M87.038,71.188c-0.224,0-0.368-0.032-0.464-0.112s-0.144-0.208-0.176-0.4
			c-0.96-5.344-1.84-9.919-2.568-13.815s-1.304-7.112-1.656-9.736h-0.032H82.11c-0.416,2.368-1.008,5.536-1.816,9.479
			s-1.832,8.663-3.112,14.135c-0.064,0.192-0.128,0.304-0.216,0.368s-0.2,0.08-0.36,0.08h-3.136h-3.136
			c-0.224,0-0.368-0.016-0.472-0.08s-0.168-0.176-0.232-0.368l-3.424-15.295L62.784,40.15c-0.032-0.128-0.016-0.256,0.056-0.352
			s0.2-0.16,0.392-0.16h3.135h3.135c0.128,0,0.24,0.032,0.328,0.096s0.152,0.16,0.185,0.288c1.216,6.879,2.08,12.095,2.687,15.943
			s0.96,6.328,1.151,7.736h0.128h0.128c0.224-1.664,0.671-4.224,1.423-8.032s1.808-8.863,3.248-15.519
			c0.064-0.192,0.096-0.32,0.16-0.4s0.16-0.112,0.353-0.112h3.295h3.295c0.16,0,0.256,0.032,0.32,0.104s0.096,0.184,0.128,0.344
			c1.12,6.303,2.048,11.439,2.744,15.399s1.16,6.744,1.352,8.343h0.096h0.096c0.32-2.048,0.688-4.448,1.32-8.112
			s1.528-8.591,2.904-15.695c0.032-0.128,0.064-0.224,0.128-0.288s0.16-0.096,0.32-0.096h2.944h2.944
			c0.128,0,0.24,0.032,0.304,0.104s0.08,0.184,0.016,0.344l-3.808,15.327l-3.808,15.327c-0.032,0.16-0.064,0.272-0.144,0.344
			s-0.208,0.104-0.432,0.104h-3.136H87.038z"/>
	</g>
</g>
<g>
</g>
<g>
</g>
<g>
</g>
<g>
</g>
<g>
</g>
<g>
</g>
</svg>
