<?xml version="1.0" encoding="utf-8"?>
<!-- Generator: Adobe Illustrator 25.0.1, SVG Export Plug-In . SVG Version: 6.00 Build 0)  -->
<svg version="1.1" id="Layer_1" xmlns="http://www.w3.org/2000/svg" xmlns:xlink="http://www.w3.org/1999/xlink" x="0px" y="0px"
	 viewBox="0 0 1024 1024" style="enable-background:new 0 0 1024 1024;" xml:space="preserve">
<style type="text/css">
	.st0{fill:#013301;}
	.st1{fill:#33FF66;}
	.st2{enable-background:new    ;}
	.st3{fill:#FFFFFF;}
</style>
<g id="Surface">
	<g id="Document">
		<g id="Document_Fill">
			<path id="_1024" class="st0" d="M223.8,963c-44.1,0-80-35.2-80-78.4V129.4c0-43.2,35.9-78.4,80-78.4H664
				c21.2,0,41.5,8.3,56.7,23.1l135.8,133.5c14.9,14.5,23.4,34.5,23.3,55.3v621.7c0,43.2-35.9,78.4-80,78.4H223.8z"/>
		</g>
		<g id="Document_Outline">
			<path id="_1024-2" class="st1" d="M664.4,66.9c16.9,0.1,33.2,6.8,45.2,18.7L845.4,219c11.9,11.5,18.7,27.4,18.8,44v621.7
				c0,34.4-28.9,62.3-64.2,62.3H224c-35.3,0-64.1-28.4-64.1-62.8V129c0-34.4,29-62.2,64.3-62.2H664.4 M664.2,35.1H224
				c-53,0-95.8,42.2-95.8,94.3v755.2c0,52.1,42.5,94.4,95.5,94.4h576c53,0,96.1-42.1,96.1-94.2V263.1c0-25.1-10-49.2-28-66.8
				L732.1,62.7C714,45,689.6,35,664.2,35.1z"/>
		</g>
	</g>
</g>
<g id="Mime">
	<g id="_1024-3">
		<g class="st2">
			<path class="st3" d="M403.3,705.9c0-1,0.2-1.5,1.5-1.7c4.8-0.2,18.5-0.6,32.7-0.6c42.2,0,63.2,27.2,63.2,67.2
				c0,55.5-36.4,72.4-64.5,72.4c-10.6,0-26-0.2-31.6-0.4c-0.8,0-1.2-0.6-1.2-1.7V705.9z M426,822.8c3.5,0.2,6.7,0.4,10.6,0.4
				c23.3,0,40.6-16.4,40.8-51.8c0.2-34.5-17.7-47.8-39.9-47.8c-4.4,0-7.9,0.2-11.4,0.4V822.8z"/>
		</g>
		<g class="st2">
			<path class="st3" d="M527.3,842.7c-1.2,0-1.7-0.4-1.7-1.7V705.5c0-1,0.6-1.5,1.5-1.5h25.8c1.2,0,1.7,0.2,2.1,1.2
				c12.3,26,39.7,90.5,45.1,104.2h0.2c-0.4-6.4-1-17.1-1-33.7v-70.3c0-0.8,0.4-1.5,1.7-1.5H619c1.2,0,1.7,0.4,1.7,1.7v135.2
				c0,1.5-0.6,1.9-2.1,1.9h-23.1c-1.5,0-2.1-0.4-2.5-1.5c-9.6-22.5-40.4-90.9-47-110.7h-0.2c0.6,9.4,1,21.6,1,38.5v72
				c0,1-0.4,1.7-1.5,1.7H527.3z"/>
		</g>
	</g>
</g>
<g id="Modifier">
	<g id="Dn">
		<g id="_1024-4">
			<path class="st1" d="M257.4,542.9V237.7c-0.2-1.9,1.2-3.6,3.1-3.8c0.1,0,0.1,0,0.2,0c4.8-0.3,11.8-0.6,21.1-0.7
				c9.3-0.2,20.2-0.3,32.6-0.5c12.5-0.2,25.8-0.2,39.8-0.2c38.4,0,70.2,6.6,95.5,19.7c25.3,13.1,44.2,31.1,56.9,54
				c12.6,22.9,19,49.2,19,79c0,23-3.3,43.4-9.8,61.2c-6.6,17.8-15.5,33-26.9,45.8c-11.1,12.6-24.2,23.4-38.6,31.9
				c-14.4,8.5-29.9,14.8-46.1,18.7c-15.9,3.9-32.1,6-48.5,6H320c-12.6,0-24.4-0.1-35.3-0.2c-10.9-0.2-19-0.4-24.5-0.7
				C258.3,547.7,257.4,546.1,257.4,542.9z M323.6,291.4v198.7c3.5,0,6.7,0.1,9.6,0.2c2.9,0.2,5.8,0.3,8.9,0.5
				c3,0.2,6.5,0.2,10.3,0.2c15.7,0,29.9-2.2,42.7-6.7c12.3-4.2,23.6-11.1,32.9-20.2c9.4-9.4,16.6-20.7,21.1-33.1
				c5-13.1,7.4-28,7.4-44.6c0-16-2.4-30-7.2-42c-4.5-11.6-11.7-21.9-20.9-30.2c-9.4-8.3-20.6-14.5-32.6-18
				c-13.5-4-27.5-5.9-41.5-5.8c-6.4,0-11.8,0.1-16.1,0.2C333.9,290.9,329,291.1,323.6,291.4z"/>
			<path class="st1" d="M561.7,543.4V364.9c0-5.4-0.1-11.5-0.2-18.2c-0.2-6.7-0.4-13.1-0.7-19.2c-0.3-6.1-0.6-10.9-1-14.4
				c-0.4-1-0.2-2.1,0.5-2.9c0.8-0.7,1.8-1,2.9-1H613c1.7-0.1,3.3,0.3,4.8,1c1.3,0.7,2.2,1.9,2.4,3.4c0.6,1.9,1.4,4.1,2.2,6.5
				c0.9,2.9,1.5,5.9,1.7,8.9c9.3-8.1,20-14.4,31.7-18.5c11.6-4,23.7-6,36-6c9.5,0,19,1.6,28.1,4.6c9.7,3.2,18.6,8.3,26.2,15.1
				c8,7,14.4,16.7,19.2,29c4.8,12.3,7.2,28.2,7.2,47.8v142.6c0,2.9-1.3,4.3-3.8,4.3h-58.1c-3.2,0-4.8-1.6-4.8-4.8V406.6
				c0-9.9-1.4-18.1-4.3-24.5c-2.6-6-6.8-11.2-12.2-14.9c-5.3-3.5-12.1-5.3-20.4-5.3c-7.7-0.1-15.4,1.3-22.6,4.1
				c-6.6,2.6-12.6,6.4-17.8,11.3v166.1c0,2.9-1.3,4.3-3.8,4.3H566C563.1,547.7,561.7,546.3,561.7,543.4z"/>
		</g>
	</g>
</g>
</svg>
