<svg xmlns="http://www.w3.org/2000/svg" xmlns:xlink="http://www.w3.org/1999/xlink" width="64" height="64" viewBox="0 0 64 64">
  <defs>
    <clipPath id="clip-folder_shared-dark">
      <rect width="64" height="64"/>
    </clipPath>
  </defs>
  <g id="folder_shared-dark" clip-path="url(#clip-folder_shared-dark)">
    <g id="shared_folder" data-name="shared folder" transform="translate(-227 -234)">
      <path id="Path_3" data-name="Path 3" d="M6,59a4.951,4.951,0,0,1-5-5V10A4.951,4.951,0,0,1,6,5H26.2A3.631,3.631,0,0,1,29,6.2l6.2,6.2a1.974,1.974,0,0,0,1.4.6H58a4.951,4.951,0,0,1,5,5V54a4.951,4.951,0,0,1-5,5Z" transform="translate(227 234)" fill="#4d4d4d"/>
      <path id="Path_4" data-name="Path 4" d="M58,12H36.7a.908.908,0,0,1-.7-.3L29.8,5.5A4.852,4.852,0,0,0,26.3,4H6a6.018,6.018,0,0,0-6,6V54a6.018,6.018,0,0,0,6,6H58a6.018,6.018,0,0,0,6-6V18a6.018,6.018,0,0,0-6-6Zm4,42a4.012,4.012,0,0,1-4,4H6a4.012,4.012,0,0,1-4-4V14H58a4.012,4.012,0,0,1,4,4Z" transform="translate(227 234)" fill="#696969"/>
      <path id="Path_1" data-name="Path 1" d="M32.8,37.7V36.1a.908.908,0,0,1,.3-.7A8.317,8.317,0,0,0,35,30.2c0-3.9-2.1-6.2-5.3-6.2s-5.3,2.3-5.3,6.2a8.8,8.8,0,0,0,2,5.2.908.908,0,0,1,.3.7v1.6a1.088,1.088,0,0,1-.9,1.1c-6.3.6-7.3,4.9-7.3,6.6V48H41.2V45.4c0-1.6-1.1-6-7.4-6.6a1.164,1.164,0,0,1-1-1.1Z" transform="translate(227.5 234)" fill="#c8c8c8"/>
      <path id="Path_2" data-name="Path 2" d="M39.1,37.1a1.063,1.063,0,0,1-.9-1v-.8a1.08,1.08,0,0,1,.3-.7,9.311,9.311,0,0,0,1.4-4.9c0-3.3-2-5.7-4.9-5.7h-.5a8.053,8.053,0,0,1,2.3,6.1,9.983,9.983,0,0,1-2.2,6.2V37c6.5,1,8.3,5.8,8.3,8.3v1.1h2.7V43.8A7.093,7.093,0,0,0,39.1,37.1Z" transform="translate(227.5 234)" fill="#c8c8c8"/>
    </g>
  </g>
</svg>
