<?xml version="1.0" encoding="utf-8"?>
<!-- Generator: Adobe Illustrator 23.0.5, SVG Export Plug-In . SVG Version: 6.00 Build 0)  -->
<svg version="1.1" id="Layer_1" xmlns="http://www.w3.org/2000/svg" xmlns:xlink="http://www.w3.org/1999/xlink" x="0px" y="0px"
	 viewBox="0 0 64 64" style="enable-background:new 0 0 64 64;" xml:space="preserve" width="64" height="64">
<style type="text/css">
	.st0{fill:#4D4D4D;}
	.st1{fill:#696969;}
</style>
<path id="Path_3" class="st0" d="M6,59c-2.7,0-5-2.2-5-4.9c0,0,0-0.1,0-0.1V10c0-2.7,2.2-5,4.9-5C5.9,5,6,5,6,5h20.2
	c1.1,0,2.1,0.4,2.8,1.2l6.2,6.2c0.4,0.4,0.9,0.6,1.4,0.6H58c2.7,0,5,2.2,5,4.9c0,0,0,0.1,0,0.1v36c0,2.7-2.2,5-4.9,5
	c0,0-0.1,0-0.1,0H6z"/>
<path id="Path_4" class="st1" d="M58,12H36.7c-0.3,0-0.5-0.1-0.7-0.3l-6.2-6.2c-0.9-1-2.2-1.5-3.5-1.5H6c-3.3,0-6,2.7-6,6v44
	c0,3.3,2.7,6,6,6h52c3.3,0,6-2.7,6-6V18C64,14.7,61.3,12,58,12z M62,54c0,2.2-1.8,4-4,4H6c-2.2,0-4-1.8-4-4V14h56c2.2,0,4,1.8,4,4
	V54z"/>
</svg>


