<?xml version="1.0" encoding="utf-8"?>
<!-- Generator: Adobe Illustrator 27.6.0, SVG Export Plug-In . SVG Version: 6.00 Build 0)  -->
<svg version="1.1" id="Layer_1" xmlns="http://www.w3.org/2000/svg" xmlns:xlink="http://www.w3.org/1999/xlink" x="0px" y="0px"
	 viewBox="0 0 128 128" style="enable-background:new 0 0 128 128;" xml:space="preserve">
<style type="text/css">
	.st0{fill:#F5F5F5;}
	.st1{fill:#B3B3B3;}
	.st2{fill:#4B4B4B;}
	.st3{fill:#2C2C2C;}
</style>
<g id="Surface">
	<g id="Document">
		<g id="Document_Fill">
			<path id="_128" class="st0" d="M28,121.2c-5.5,0-10-4.4-10-9.8V17c0-5.4,4.5-9.8,10-9.8h55c2.6,0,5.2,1.1,7.1,2.9l17,16.7
				c1.9,1.8,2.9,4.3,2.9,6.9v77.7c0,5.4-4.5,9.8-10,9.8C100,121.2,28,121.2,28,121.2z"/>
		</g>
		<g id="Document_Outline">
			<path id="_128-2" class="st1" d="M83,8c2.1,0,4.2,1,5.7,2.4l17,16.7c1.5,1.5,2.4,3.3,2.4,5.4v77.7c0,4.3-3.7,7.8-8.1,7.8H28
				c-4.4,0-8-3.4-8-7.7V15.9c0-4.3,3.6-7.9,8-7.9L83,8 M83.1,4h-55C21.4,4,16,9.3,16,15.8v94.4c0,6.5,5.4,11.7,12,11.7h72
				c6.6,0,12-5.1,12-11.6V32.6c0-3.1-1.3-6.2-3.5-8.4l-17-16.7C89.3,5.3,86.3,4,83.1,4L83.1,4L83.1,4z"/>
		</g>
	</g>
</g>
<g id="Modifier">
	<g id="Image">
		<path class="st2" d="M86.7,45H72l0-15c0-0.8-0.8-1.5-1.5-1.8c-0.7-0.3-1.6-0.1-2.1,0.5L37.6,61.4c-0.5,0.6-0.7,1.9-0.4,2.6
			c0.3,0.7,1,1,1.8,1H53c0.5,6.4,5.9,11,12,11c5.2,0,9.6-3.5,11.5-8h10.1c2.1,0,3.4-1.6,3.4-3.7V49.2C90,47.1,88.8,45,86.7,45
			L86.7,45z M43.5,61L68,34.9V45c-2.1,0-4,1.8-4,4v2c-5.5,0.4-9.9,4.9-11.2,10L43.5,61L43.5,61z M65,72.3c-4.4,0-7.5-3.4-8-7.7
			c0-0.3-0.1-0.6-0.1-1c0-1,0.2-2,0.5-2.9c1.1-3.1,3.3-5.3,6.6-5.7c0.3,0,0.6-0.1,1-0.1c1,0,1.4,0.2,2.3,0.5
			c1.5,0.5,2.8,1.5,3.8,2.7c1.2,1.5,1.9,3.4,1.9,5.4c0,1.8-0.5,3.4-1.5,4.8C70,70.8,67.9,72.3,65,72.3L65,72.3z"/>
	</g>
</g>
<g id="Mime">
	<g>
		<path class="st3" d="M52.5,105.3c-0.2,0-0.2,0-0.2-0.2v-7.5h-5.9v7.5c0,0.1-0.1,0.2-0.2,0.2h-2.4c-0.2,0-0.2-0.1-0.2-0.2V88.2
			c0-0.1,0-0.2,0.2-0.2h2.4c0.1,0,0.2,0.1,0.2,0.2v6.9h5.9v-6.9c0-0.1,0.1-0.2,0.2-0.2H55c0.1,0,0.2,0,0.2,0.2v17
			c0,0.2-0.1,0.2-0.2,0.2H52.5L52.5,105.3z"/>
		<path class="st3" d="M59.2,88.2c0-0.1,0-0.2,0.2-0.2c0.6,0,2.3-0.1,4.1-0.1c5.3,0,7.9,3.4,7.9,8.4c0,6.9-4.6,9-8.1,9
			c-1.3,0-3.2,0-4-0.1c-0.1,0-0.2-0.1-0.2-0.2C59.2,105.1,59.2,88.2,59.2,88.2z M62,102.9c0.4,0,0.8,0.1,1.3,0.1
			c2.9,0,5.1-2.1,5.1-6.5c0-4.3-2.2-6-5-6c-0.5,0-1,0-1.4,0.1L62,102.9L62,102.9z"/>
		<path class="st3" d="M77.2,105.2c0,0.1-0.1,0.2-0.2,0.2h-2.4c-0.2,0-0.2-0.1-0.2-0.2V88.3c0-0.1,0.1-0.2,0.2-0.2
			C75.9,88,77.1,88,79,88c3.7,0,6,1.8,6,5c0,2.7-1.8,4.1-3.2,4.7c0.8,1.3,3.3,5.9,4.1,7.5c0.1,0.1,0.1,0.2-0.1,0.2H83
			c-0.2,0-0.3-0.1-0.3-0.1c-0.6-1-2.5-4.6-3.7-6.8h-1.8L77.2,105.2L77.2,105.2z M78.8,95.9c1.9,0,3.3-0.8,3.3-2.7
			c0-1.9-1.2-2.8-3.2-2.8c-0.7,0-1.3,0-1.7,0.1v5.4C77.2,95.9,78.8,95.9,78.8,95.9z"/>
	</g>
</g>
</svg>
