<?xml version="1.0" encoding="utf-8"?>
<!-- Generator: Adobe Illustrator 21.1.0, SVG Export Plug-In . SVG Version: 6.00 Build 0)  -->
<svg version="1.1" id="Layer_1" xmlns="http://www.w3.org/2000/svg" xmlns:xlink="http://www.w3.org/1999/xlink" x="0px" y="0px"
	 viewBox="0 0 128 128" style="enable-background:new 0 0 128 128;" xml:space="preserve">
<style type="text/css">
	.st0{fill:#2E0918;}
	.st1{fill:#FF3388;}
	.st2{fill:#FAFAFA;}
</style>
<g>
	<path class="st0" d="M24,125.995c-5.514,0-10-4.486-10-10v-112c0-1.104,0.896-2,2-2h96c1.104,0,2,0.896,2,2v112
		c0,5.514-4.486,10-10,10H24z"/>
	<path class="st1" d="M115.99,3.85c-0.05-1.55-0.99-2.87-2.32-3.47C113.16,0.13,112.59,0,112,0H16c-0.59,0-1.16,0.13-1.67,0.37
		c-1.32,0.6-2.25,1.9-2.32,3.43C12,3.87,12,3.93,12,4v112c0,6.61,5.38,12,12,12h80c6.62,0,12-5.39,12-12V4
		C116,3.95,116,3.9,115.99,3.85z M110.67,4l-8.71,10.52c-0.38,0.46-0.95,0.72-1.54,0.72H27.95c-0.58,0-1.14-0.25-1.52-0.7L17.43,4
		H110.67z M112,116c0,4.41-3.58,8-8,8H24c-4.42,0-8-3.59-8-8V8.48l7.39,8.66c1.14,1.34,2.81,2.1,4.56,2.1h72.47
		c1.79,0,3.47-0.79,4.62-2.17l6.96-8.4V116z"/>
</g>
<g>
	<g>
		<path class="st1" d="M52.191,70.676c0,0.192-0.016,0.32-0.088,0.4s-0.2,0.112-0.424,0.112h-2.976h-2.976
			c-0.192,0-0.32-0.048-0.4-0.136s-0.112-0.216-0.112-0.376V49.845V29.015c0-0.192,0.048-0.32,0.136-0.4s0.216-0.112,0.376-0.112
			h3.008h3.008c0.16,0,0.272,0.032,0.344,0.104s0.104,0.184,0.104,0.344v20.863V70.676z"/>
		<path class="st1" d="M58.399,55.637c0-4.64,1.536-8.767,4.296-11.735s6.744-4.776,11.64-4.776c0.416,0,0.735,0,1.047,0.008
			s0.616,0.024,1,0.056v-5.152v-5.152c0-0.128,0.048-0.224,0.12-0.288s0.168-0.096,0.264-0.096h3.136h3.136
			c0.16,0,0.256,0.032,0.312,0.088s0.072,0.136,0.072,0.232v18.143v18.143c0,0.544,0,1.152,0.024,1.808s0.072,1.36,0.168,2.096
			c0,0.128-0.016,0.208-0.064,0.272s-0.128,0.112-0.256,0.176c-1.664,0.8-3.376,1.376-5.088,1.752s-3.424,0.552-5.088,0.552
			c-4.288,0-7.967-1.328-10.575-4.008S58.399,61.044,58.399,55.637z M76.383,45.461c-0.288-0.128-0.624-0.224-1.008-0.288
			s-0.816-0.096-1.296-0.096c-2.496,0-4.623,0.96-6.127,2.72s-2.384,4.32-2.384,7.519c0,3.648,0.896,6.208,2.352,7.856
			s3.472,2.384,5.712,2.384c0.48,0,0.976-0.032,1.448-0.104s0.92-0.184,1.304-0.343v-9.823V45.461z"/>
	</g>
</g>
<g>
	<g>
		<path class="st2" d="M40.537,109.952c0,0.168-0.028,0.224-0.224,0.224h-2.604c-0.168,0-0.224-0.084-0.224-0.224V91.724
			c0-0.168,0.084-0.224,0.224-0.224h2.632c0.14,0,0.196,0.056,0.196,0.196V109.952z"/>
		<path class="st2" d="M44.848,91.752c0-0.14,0.028-0.196,0.196-0.224c0.644-0.028,2.492-0.084,4.396-0.084
			c5.684,0,8.512,3.668,8.512,9.044c0,7.476-4.9,9.743-8.68,9.743c-1.428,0-3.5-0.027-4.256-0.056c-0.112,0-0.168-0.084-0.168-0.224
			V91.752z M47.9,107.488c0.476,0.027,0.896,0.056,1.428,0.056c3.136,0,5.46-2.212,5.488-6.972c0.028-4.648-2.38-6.44-5.376-6.44
			c-0.588,0-1.064,0.028-1.54,0.056V107.488z"/>
		<path class="st2" d="M62.152,91.5h3.976c0.14,0,0.196,0.028,0.224,0.168c0.7,2.604,2.716,11.06,3.192,13.916h0.027
			c0.532-2.604,2.885-11.145,3.612-13.888c0.028-0.141,0.084-0.196,0.224-0.196h3.837c0.14,0,0.168,0.028,0.195,0.14l0.672,18.312
			c0.028,0.168-0.056,0.224-0.195,0.224h-2.717c-0.168,0-0.195-0.056-0.195-0.196c-0.112-5.991-0.112-14.447-0.112-15.932h-0.028
			c-0.476,2.38-2.939,11.928-4.004,15.932c-0.027,0.168-0.111,0.196-0.224,0.196h-2.464c-0.141,0-0.225-0.028-0.252-0.168
			c-1.036-4.172-2.94-12.796-3.584-15.96H64.28c0,2.212-0.224,9.856-0.448,15.932c0,0.168-0.084,0.196-0.196,0.196h-2.464
			c-0.168,0-0.224-0.056-0.224-0.196l1.008-18.312C61.984,91.528,62.012,91.5,62.152,91.5z"/>
		<path class="st2" d="M82.34,110.176c-0.196,0-0.252-0.084-0.252-0.252v-18.2c0-0.14,0.056-0.224,0.196-0.224h2.688
			c0.141,0,0.168,0.056,0.168,0.196v15.707h7c0.141,0,0.196,0.057,0.168,0.196l-0.42,2.38c-0.027,0.141-0.111,0.196-0.252,0.196
			H82.34z"/>
	</g>
</g>
<g>
</g>
<g>
</g>
<g>
</g>
<g>
</g>
<g>
</g>
<g>
</g>
</svg>
