<?xml version="1.0" encoding="utf-8"?>
<!-- Generator: Adobe Illustrator 21.1.0, SVG Export Plug-In . SVG Version: 6.00 Build 0)  -->
<svg version="1.1" id="Layer_1" xmlns="http://www.w3.org/2000/svg" xmlns:xlink="http://www.w3.org/1999/xlink" x="0px" y="0px"
	 viewBox="0 0 128 128" style="enable-background:new 0 0 128 128;" xml:space="preserve">
<style type="text/css">
	.st0{fill:#2E0918;}
	.st1{fill:#FF3388;}
	.st2{fill:#FAFAFA;}
</style>
<g>
	<path class="st0" d="M24,126c-5.514,0-10-4.486-10-10V12c0-5.514,4.486-10,10-10h72c1.104,0,2,0.896,2,2v10h14c1.104,0,2,0.896,2,2
		v100c0,5.514-4.486,10-10,10H24z"/>
	<path class="st1" d="M112,12h-12V4c0-2.21-1.79-4-4-4H24c-1.56,0-3.06,0.3-4.43,0.85C15.14,2.61,12,6.94,12,12v104
		c0,6.62,5.38,12,12,12h80c6.62,0,12-5.38,12-12V16C116,13.79,114.21,12,112,12z M21.18,4.52C21.77,4.19,22.45,4,23.17,4H96v8H23.17
		c-2.23,0-4.05-1.79-4.05-4C19.12,6.51,19.95,5.2,21.18,4.52z M112,116c0,4.42-3.58,8-8,8H24c-4.42,0-8-3.58-8-8V12
		c0-0.12,0-0.24,0.01-0.35c1.34,2.58,4.04,4.35,7.16,4.35H112V116z"/>
</g>
<g>
	<g>
		<path class="st2" d="M41.237,109.952c0,0.084-0.007,0.14-0.039,0.175s-0.088,0.049-0.185,0.049h-1.302h-1.302
			c-0.084,0-0.14-0.021-0.175-0.059s-0.049-0.094-0.049-0.164v-9.114v-9.114c0-0.084,0.021-0.14,0.06-0.175s0.095-0.049,0.165-0.049
			h1.316h1.316c0.07,0,0.119,0.014,0.151,0.045s0.046,0.081,0.046,0.151v9.128V109.952z"/>
		<path class="st2" d="M45.772,110.176c-0.084,0-0.14-0.014-0.175-0.049s-0.049-0.091-0.049-0.175v-9.128v-9.128
			c0-0.07,0.021-0.119,0.056-0.151s0.084-0.045,0.14-0.045h1.736h1.736c0.084,0,0.14,0.007,0.182,0.032s0.07,0.067,0.098,0.136
			c0.826,1.75,2.163,4.795,3.384,7.633s2.327,5.47,2.691,6.394h0.014h0.014c-0.028-0.434-0.063-1.008-0.091-1.753
			s-0.049-1.662-0.049-2.782v-4.732v-4.732c0-0.056,0.014-0.105,0.049-0.14s0.091-0.056,0.175-0.056h1.218h1.218
			c0.084,0,0.14,0.014,0.175,0.049s0.049,0.091,0.049,0.175v9.1v9.1c0,0.098-0.021,0.161-0.066,0.2s-0.115,0.052-0.213,0.052H56.51
			h-1.554c-0.098,0-0.168-0.014-0.221-0.045s-0.088-0.081-0.116-0.151c-0.644-1.512-2.002-4.571-3.311-7.584
			s-2.569-5.981-3.017-7.312h-0.014h-0.014c0.042,0.63,0.077,1.358,0.102,2.212s0.038,1.834,0.038,2.968v4.844v4.844
			c0,0.07-0.014,0.126-0.045,0.164s-0.08,0.059-0.15,0.059H46.99H45.772z"/>
		<path class="st2" d="M62.628,91.752c0-0.07,0.007-0.119,0.035-0.154s0.077-0.056,0.161-0.07c0.322-0.014,0.945-0.035,1.725-0.053
			s1.719-0.031,2.67-0.031c2.842,0,4.97,0.917,6.388,2.506s2.125,3.85,2.125,6.538c0,3.738-1.225,6.174-2.923,7.675
			s-3.868,2.068-5.758,2.068c-0.714,0-1.589-0.007-2.38-0.017s-1.498-0.024-1.876-0.038c-0.056,0-0.098-0.021-0.126-0.059
			s-0.042-0.094-0.042-0.164v-9.1V91.752z M65.68,107.488c0.238,0.014,0.462,0.028,0.693,0.038s0.469,0.018,0.734,0.018
			c1.568,0,2.934-0.553,3.91-1.701s1.564-2.891,1.578-5.271c0.014-2.324-0.581-3.934-1.554-4.963s-2.324-1.477-3.822-1.477
			c-0.294,0-0.56,0.007-0.812,0.018s-0.49,0.024-0.728,0.038v6.65V107.488z"/>
		<path class="st2" d="M79.091,91.752c0-0.07,0.007-0.119,0.028-0.154s0.056-0.056,0.112-0.07c0.392-0.014,1.12-0.035,1.964-0.053
			s1.802-0.031,2.656-0.031c2.59,0,4.116,0.756,4.995,1.743s1.109,2.205,1.109,3.128c0,1.036-0.252,1.841-0.595,2.457
			s-0.777,1.043-1.141,1.323c0.504,0.266,1.148,0.721,1.666,1.442s0.91,1.708,0.91,3.038c0,1.764-0.707,3.185-1.953,4.161
			s-3.031,1.508-5.187,1.494c-0.91,0-1.778-0.007-2.531-0.017s-1.39-0.024-1.837-0.038c-0.07-0.014-0.119-0.042-0.151-0.081
			s-0.045-0.087-0.045-0.143v-9.1V91.752z M82.087,99.032h0.854h0.854c0.406,0,0.833,0.014,1.211,0.038s0.707,0.059,0.917,0.101
			c0.28-0.252,0.546-0.56,0.742-0.959s0.322-0.889,0.322-1.505c0-0.854-0.287-1.505-0.823-1.943s-1.32-0.662-2.314-0.662
			c-0.336,0-0.665,0.007-0.966,0.018s-0.574,0.025-0.798,0.039v2.436V99.032z M82.087,107.544c0.252,0.014,0.497,0.028,0.756,0.038
			s0.532,0.017,0.84,0.017c1.106,0,2.1-0.21,2.818-0.686s1.159-1.218,1.159-2.282c0-0.658-0.168-1.232-0.507-1.694
			s-0.85-0.812-1.536-1.022c-0.238-0.07-0.497-0.126-0.774-0.165s-0.57-0.06-0.879-0.06h-0.938h-0.938v2.926V107.544z"/>
	</g>
</g>
<g>
	<g>
		<path class="st1" d="M52.191,70.676c0,0.192-0.016,0.32-0.088,0.4s-0.2,0.112-0.424,0.112h-2.976h-2.976
			c-0.192,0-0.32-0.048-0.4-0.136s-0.112-0.216-0.112-0.376V49.845V29.015c0-0.192,0.048-0.32,0.136-0.4s0.216-0.112,0.376-0.112
			h3.008h3.008c0.16,0,0.272,0.032,0.344,0.104s0.104,0.184,0.104,0.344v20.863V70.676z"/>
		<path class="st1" d="M58.399,55.637c0-4.64,1.536-8.767,4.296-11.735s6.744-4.776,11.64-4.776c0.416,0,0.735,0,1.047,0.008
			s0.616,0.024,1,0.056v-5.152v-5.152c0-0.128,0.048-0.224,0.12-0.288s0.168-0.096,0.264-0.096h3.136h3.136
			c0.16,0,0.256,0.032,0.312,0.088s0.072,0.136,0.072,0.232v18.143v18.143c0,0.544,0,1.152,0.024,1.808s0.072,1.36,0.168,2.096
			c0,0.128-0.016,0.208-0.064,0.272s-0.128,0.112-0.256,0.176c-1.664,0.8-3.376,1.376-5.088,1.752s-3.424,0.552-5.088,0.552
			c-4.288,0-7.967-1.328-10.575-4.008S58.399,61.044,58.399,55.637z M76.383,45.461c-0.288-0.128-0.624-0.224-1.008-0.288
			s-0.816-0.096-1.296-0.096c-2.496,0-4.623,0.96-6.127,2.72s-2.384,4.32-2.384,7.519c0,3.648,0.896,6.208,2.352,7.856
			s3.472,2.384,5.712,2.384c0.48,0,0.976-0.032,1.448-0.104s0.92-0.184,1.304-0.343v-9.823V45.461z"/>
	</g>
</g>
<g>
</g>
<g>
</g>
<g>
</g>
<g>
</g>
<g>
</g>
<g>
</g>
</svg>
