<?xml version="1.0" encoding="utf-8"?>
<!-- Generator: Adobe Illustrator 21.1.0, SVG Export Plug-In . SVG Version: 6.00 Build 0)  -->
<svg version="1.1" id="Layer_1" xmlns="http://www.w3.org/2000/svg" xmlns:xlink="http://www.w3.org/1999/xlink" x="0px" y="0px"
	 viewBox="0 0 32 32" style="enable-background:new 0 0 32 32;" xml:space="preserve">
<style type="text/css">
	.st0{fill:#061E26;}
	.st1{fill:#26C9FF;}
	.st2{fill:#FAFAFA;}
</style>
<g>
	<path class="st0" d="M6,31.5c-1.378,0-2.5-1.121-2.5-2.5V3c0-1.378,1.122-2.5,2.5-2.5h15.38c0.533,0,1.034,0.207,1.411,0.583
		l5.12,5.102C28.285,6.558,28.5,7.074,28.5,7.602V29c0,1.379-1.121,2.5-2.5,2.5H6z"/>
	<path class="st1" d="M21.38,1c0.397,0,0.778,0.157,1.059,0.437l5.12,5.102C27.841,6.821,28,7.203,28,7.602V29c0,1.105-0.895,2-2,2
		H6c-1.105,0-2-0.895-2-2V3c0-1.105,0.895-2,2-2H21.38 M21.38,0H6C4.346,0,3,1.346,3,3v26c0,1.654,1.346,3,3,3h20
		c1.654,0,3-1.346,3-3V7.602c0-0.66-0.268-1.305-0.735-1.771l-5.12-5.102C22.673,0.259,22.046,0,21.38,0L21.38,0z"/>
</g>
<g>
	<g>
		<path class="st2" d="M11.034,22.929c0-0.014,0.002-0.026,0.008-0.035s0.017-0.014,0.034-0.014
			c0.137-0.007,0.305-0.013,0.491-0.016s0.391-0.005,0.602-0.005c0.588,0,1.01,0.161,1.285,0.426s0.403,0.632,0.403,1.045
			c0,0.54-0.194,0.925-0.509,1.175s-0.749,0.366-1.229,0.366c-0.081,0-0.135-0.002-0.183-0.003s-0.09-0.003-0.146-0.003v0.816v0.816
			c0,0.018-0.003,0.03-0.011,0.038s-0.02,0.011-0.038,0.011h-0.329h-0.329c-0.018,0-0.03-0.003-0.038-0.011s-0.011-0.02-0.011-0.038
			v-2.283V22.929z M11.79,25.184c0.049,0.003,0.093,0.005,0.145,0.006s0.114,0.001,0.198,0.001c0.249,0,0.489-0.044,0.666-0.172
			s0.293-0.34,0.293-0.676c0-0.27-0.082-0.472-0.235-0.608s-0.377-0.204-0.661-0.204c-0.084,0-0.166,0.002-0.237,0.004
			s-0.13,0.006-0.169,0.009v0.819V25.184z"/>
		<path class="st2" d="M14.583,27.383c-0.014-0.01-0.025-0.022-0.032-0.037s-0.011-0.032-0.011-0.053v-0.336v-0.336
			c0-0.01,0.007-0.021,0.018-0.026s0.025-0.005,0.039,0.005c0.158,0.108,0.329,0.187,0.505,0.239s0.356,0.076,0.531,0.076
			c0.256,0,0.436-0.067,0.552-0.171s0.169-0.246,0.169-0.396c0-0.133-0.033-0.254-0.128-0.378s-0.25-0.249-0.495-0.393l-0.126-0.067
			l-0.126-0.067c-0.361-0.203-0.594-0.408-0.736-0.628s-0.195-0.454-0.195-0.717c0-0.357,0.124-0.679,0.366-0.912
			s0.6-0.376,1.07-0.376c0.207,0,0.385,0.016,0.534,0.044s0.268,0.068,0.355,0.118c0.018,0.007,0.028,0.016,0.034,0.028
			s0.008,0.028,0.008,0.049v0.315v0.315c0,0.014-0.007,0.026-0.017,0.032s-0.025,0.006-0.039-0.004
			c-0.108-0.07-0.241-0.123-0.389-0.158s-0.308-0.052-0.473-0.052c-0.27,0-0.448,0.077-0.56,0.184s-0.155,0.246-0.155,0.368
			c0,0.133,0.033,0.249,0.127,0.365s0.248,0.231,0.489,0.364l0.112,0.06l0.112,0.06c0.399,0.221,0.65,0.438,0.8,0.665
			s0.201,0.466,0.201,0.728c0,0.389-0.142,0.718-0.399,0.95s-0.63,0.367-1.092,0.367c-0.207,0-0.404-0.019-0.583-0.057
			S14.712,27.457,14.583,27.383z"/>
		<path class="st2" d="M17.922,22.936c0-0.018,0.002-0.03,0.009-0.038s0.019-0.014,0.04-0.017c0.081-0.004,0.237-0.009,0.432-0.014
			s0.43-0.008,0.668-0.008c0.711,0,1.243,0.229,1.598,0.627s0.531,0.963,0.531,1.636c0,0.935-0.306,1.544-0.731,1.919
			s-0.967,0.517-1.44,0.517c-0.179,0-0.397-0.002-0.595-0.004s-0.375-0.006-0.469-0.009c-0.014,0-0.025-0.005-0.032-0.015
			s-0.01-0.024-0.01-0.041v-2.276V22.936z M18.686,26.871c0.06,0.004,0.115,0.008,0.173,0.01s0.117,0.004,0.184,0.004
			c0.392,0,0.733-0.138,0.978-0.426s0.391-0.723,0.395-1.318c0.003-0.581-0.145-0.984-0.389-1.241s-0.581-0.369-0.956-0.369
			c-0.073,0-0.14,0.002-0.203,0.004s-0.123,0.006-0.182,0.009v1.663V26.871z"/>
	</g>
</g>
<g>
	<g>
		<path class="st1" d="M10.289,7.249c0-0.032,0.004-0.06,0.018-0.08s0.038-0.032,0.078-0.032c0.312-0.016,0.696-0.028,1.123-0.036
			s0.894-0.012,1.375-0.012c1.344,0,2.309,0.368,2.937,0.972s0.92,1.445,0.92,2.389c0,1.233-0.444,2.113-1.162,2.685
			s-1.711,0.836-2.807,0.836c-0.184,0-0.308-0.004-0.418-0.008s-0.206-0.008-0.334-0.008v1.865v1.865
			c0,0.04-0.008,0.068-0.026,0.086s-0.046,0.026-0.086,0.026h-0.752h-0.752c-0.04,0-0.068-0.008-0.086-0.026
			s-0.026-0.046-0.026-0.086v-5.218V7.249z M12.018,12.403c0.112,0.008,0.212,0.012,0.332,0.014s0.26,0.002,0.452,0.002
			c0.568,0,1.117-0.1,1.523-0.392s0.67-0.776,0.67-1.545c0-0.616-0.188-1.08-0.538-1.391s-0.862-0.466-1.511-0.466
			c-0.192,0-0.38,0.004-0.542,0.01s-0.298,0.014-0.386,0.022v1.873V12.403z"/>
		<path class="st1" d="M20.242,11.25c-0.384,0-0.64,0.096-0.8,0.232s-0.224,0.312-0.224,0.472c0,0.176,0.044,0.324,0.216,0.494
			s0.472,0.362,0.984,0.626c0.76,0.368,1.26,0.728,1.571,1.126s0.43,0.834,0.43,1.355c0,0.776-0.296,1.372-0.792,1.775
			s-1.193,0.611-1.993,0.611c-0.424,0-0.816-0.044-1.154-0.118s-0.622-0.178-0.83-0.299c-0.032-0.016-0.052-0.036-0.064-0.062
			s-0.016-0.058-0.016-0.098v-0.712V15.94c0-0.048,0.012-0.08,0.032-0.094s0.048-0.01,0.079,0.014
			c0.304,0.2,0.632,0.344,0.964,0.438s0.668,0.138,0.989,0.138c0.384,0,0.656-0.08,0.833-0.214s0.256-0.322,0.256-0.538
			c0-0.176-0.056-0.34-0.234-0.524s-0.479-0.388-0.967-0.644c-0.688-0.328-1.176-0.66-1.492-1.05s-0.46-0.838-0.46-1.399
			c0-0.624,0.244-1.196,0.7-1.612s1.124-0.676,1.973-0.676c0.416,0,0.768,0.032,1.056,0.082s0.512,0.118,0.672,0.19
			c0.04,0.024,0.064,0.056,0.078,0.09s0.018,0.07,0.018,0.102v0.664v0.664c0,0.04-0.012,0.072-0.036,0.09s-0.06,0.022-0.108,0.006
			c-0.216-0.128-0.48-0.232-0.769-0.304S20.554,11.25,20.242,11.25z"/>
	</g>
</g>
<g>
</g>
<g>
</g>
<g>
</g>
<g>
</g>
<g>
</g>
<g>
</g>
</svg>
