<svg xmlns="http://www.w3.org/2000/svg" viewBox="0 0 26 32" x="0px" y="0px" width="150" height="210">
  <g id="s_agreementfiletype_32" transform="translate(-1993 -1174)">
    <g id="filetype_zip_32" transform="translate(1990 1174)">
      <g id="Document">
        <g id="Group_61875" data-name="Group 61875">
          <path id="Path_36373" data-name="Path 36373" fill="#ffffff" d="M6,31.5A2.5,2.5,0,0,1,3.5,29V3A2.5,2.5,0,0,1,6,.5H21.38a1.985,1.985,0,0,1,1.411.583l5.12,5.1A2.015,2.015,0,0,1,28.5,7.6V29A2.5,2.5,0,0,1,26,31.5Z"/>
          <path id="Path_36374" data-name="Path 36374" fill="#b3b3b3" d="M21.38,1a1.5,1.5,0,0,1,1.059.437l5.12,5.1A1.5,1.5,0,0,1,28,7.6V29a2,2,0,0,1-2,2H6a2,2,0,0,1-2-2V3A2,2,0,0,1,6,1H21.38m0-1H6A3,3,0,0,0,3,3V29a3,3,0,0,0,3,3H26a3,3,0,0,0,3-3V7.6a2.518,2.518,0,0,0-.735-1.771l-5.12-5.1A2.486,2.486,0,0,0,21.38,0Z"/>
        </g>
      </g>
    </g>
    <g id="s_sendforsignature_color_24" transform="translate(2000 1181)">
      <path id="Path_36375" data-name="Path 36375" fill="#4b4b4b" d="M2.86,5.011l-.914.93-.9-.93a.427.427,0,0,0-.614,0,.455.455,0,0,0,0,.622l.915.93L.428,7.5a.448.448,0,0,0,0,.617.427.427,0,0,0,.614,0l.9-.93.914.93a.419.419,0,0,0,.607,0,.446.446,0,0,0,0-.617l-.914-.936.914-.93a.453.453,0,0,0,0-.622A.419.419,0,0,0,2.86,5.011ZM9.672,9.029a1.348,1.348,0,0,1-1-.661,1.969,1.969,0,0,1-1.172.5,1.31,1.31,0,0,1-.969-.651A5.647,5.647,0,0,1,6.108,7.3C5.767,7.74,4.5,9.017,4.5,9.017l-.574-.8a12.96,12.96,0,0,0,1.894-2.23,6.859,6.859,0,0,1,.105-3.961A1.537,1.537,0,0,1,7.8,1.067a1.3,1.3,0,0,1,.909.964c.225,1.1-.685,2.611-1.873,4.388a3.629,3.629,0,0,0,.427,1.216A.547.547,0,0,0,8.161,7.5c-.061-1.333,0-1.63.076-1.776A.809.809,0,0,1,9.075,5.1a.75.75,0,0,1,.641.611,2.912,2.912,0,0,1-.465,1.821c.2.823,1,.426,1.3-.2l.367-1.025.581.745-.148.448C10.888,8.782,10.072,9.029,9.672,9.029Zm-3-6.483c-.207.488-.405,3.233.235,2.348a7.548,7.548,0,0,0,.9-2.011c.142-.487-.052-.841-.293-.9C7.14,1.9,6.879,2.053,6.671,2.546ZM0,10.5A.5.5,0,0,1,.5,10H11a.5.5,0,1,1,0,1H.5A.5.5,0,0,1,0,10.5Z"/>
    </g>
  </g>
</svg>