<?xml version="1.0" encoding="utf-8"?>
<!-- Generator: Adobe Illustrator 21.1.0, SVG Export Plug-In . SVG Version: 6.00 Build 0)  -->
<svg version="1.1" id="Layer_1" xmlns="http://www.w3.org/2000/svg" xmlns:xlink="http://www.w3.org/1999/xlink" x="0px" y="0px"
	 viewBox="0 0 32 32" style="enable-background:new 0 0 32 32;" xml:space="preserve">
<style type="text/css">
	.st0{fill:#2E001F;}
	.st1{fill:#FF26B7;}
	.st2{fill:#FAFAFA;}
	.st3{fill:#FFD9F2;}
</style>
<g>
	<path class="st0" d="M6,31.5c-1.378,0-2.5-1.121-2.5-2.5V3c0-1.378,1.122-2.5,2.5-2.5h15.38c0.533,0,1.034,0.207,1.411,0.583
		l5.12,5.102C28.285,6.558,28.5,7.074,28.5,7.602V29c0,1.379-1.121,2.5-2.5,2.5H6z"/>
	<path class="st1" d="M21.38,1c0.397,0,0.778,0.157,1.059,0.437l5.12,5.102C27.841,6.821,28,7.203,28,7.602V29c0,1.105-0.895,2-2,2
		H6c-1.105,0-2-0.895-2-2V3c0-1.105,0.895-2,2-2H21.38 M21.38,0H6C4.346,0,3,1.346,3,3v26c0,1.654,1.346,3,3,3h20
		c1.654,0,3-1.346,3-3V7.602c0-0.66-0.268-1.305-0.735-1.771l-5.12-5.102C22.673,0.259,22.046,0,21.38,0L21.38,0z"/>
</g>
<g>
	<g>
		<path class="st2" d="M14.388,25.135l0.609,1.169l0.609,1.169c0.01,0.018,0.012,0.035,0.007,0.048s-0.017,0.022-0.035,0.022H15.2
			h-0.378c-0.025,0-0.042-0.003-0.056-0.012s-0.025-0.023-0.035-0.044c-0.14-0.287-0.28-0.574-0.422-0.867s-0.286-0.59-0.433-0.899
			h-0.003H13.87c-0.13,0.291-0.266,0.591-0.405,0.889s-0.281,0.596-0.421,0.883c-0.01,0.018-0.021,0.03-0.033,0.038
			s-0.026,0.011-0.044,0.011h-0.361h-0.361c-0.021,0-0.033-0.009-0.038-0.021s-0.001-0.028,0.01-0.042l0.595-1.134l0.595-1.134
			l-0.574-1.138l-0.574-1.138c-0.014-0.018-0.014-0.033-0.007-0.045s0.021-0.019,0.035-0.019h0.375h0.375
			c0.021,0,0.037,0.002,0.049,0.009s0.021,0.02,0.028,0.041c0.136,0.287,0.275,0.573,0.411,0.859s0.271,0.573,0.401,0.864h0.003
			h0.003c0.126-0.287,0.259-0.574,0.394-0.86s0.271-0.572,0.404-0.855c0.01-0.018,0.019-0.032,0.031-0.042s0.025-0.015,0.046-0.015
			h0.35h0.35c0.017,0,0.03,0.007,0.035,0.019s0.004,0.027-0.007,0.045l-0.574,1.1L14.388,25.135z"/>
		<path class="st2" d="M16.207,22.936c0-0.018,0.002-0.03,0.009-0.038s0.019-0.014,0.041-0.017c0.08-0.004,0.236-0.009,0.431-0.014
			s0.43-0.008,0.668-0.008c0.711,0,1.243,0.229,1.598,0.627s0.531,0.963,0.531,1.636c0,0.935-0.306,1.544-0.731,1.919
			s-0.967,0.517-1.44,0.517c-0.178,0-0.397-0.002-0.595-0.004s-0.375-0.006-0.469-0.009c-0.014,0-0.024-0.005-0.031-0.015
			s-0.011-0.024-0.011-0.041v-2.276V22.936z M16.971,26.871c0.06,0.004,0.115,0.008,0.173,0.01s0.117,0.004,0.184,0.004
			c0.392,0,0.733-0.138,0.978-0.426s0.391-0.723,0.395-1.318c0.003-0.581-0.145-0.984-0.389-1.241s-0.581-0.369-0.956-0.369
			c-0.073,0-0.14,0.002-0.203,0.004s-0.123,0.006-0.182,0.009v1.663V26.871z"/>
	</g>
</g>
<g>
	<g>
		<path class="st3" d="M13.29,12.291l1.393,2.673l1.393,2.673c0.024,0.04,0.028,0.08,0.016,0.11s-0.04,0.05-0.08,0.05h-0.864h-0.864
			c-0.056,0-0.096-0.008-0.128-0.028s-0.056-0.052-0.08-0.1c-0.32-0.656-0.64-1.312-0.964-1.981s-0.652-1.349-0.988-2.053h-0.008
			h-0.008c-0.296,0.664-0.608,1.349-0.926,2.031s-0.642,1.362-0.962,2.019c-0.024,0.04-0.048,0.068-0.076,0.086
			s-0.06,0.026-0.1,0.026H9.217H8.392c-0.048,0-0.076-0.02-0.086-0.048s-0.002-0.064,0.022-0.096l1.361-2.593l1.361-2.593
			L9.737,9.866L8.424,7.265c-0.032-0.04-0.032-0.076-0.016-0.102s0.048-0.042,0.08-0.042h0.856h0.856
			c0.048,0,0.084,0.004,0.112,0.02s0.048,0.044,0.064,0.092c0.312,0.656,0.628,1.309,0.94,1.963s0.62,1.311,0.917,1.975h0.008h0.008
			c0.288-0.656,0.593-1.313,0.901-1.967s0.62-1.307,0.924-1.955c0.024-0.04,0.044-0.072,0.07-0.094s0.058-0.034,0.106-0.034h0.8h0.8
			c0.04,0,0.068,0.016,0.08,0.042s0.008,0.062-0.016,0.102l-1.312,2.513L13.29,12.291z"/>
		<path class="st3" d="M16.36,13.907c0-1.16,0.384-2.193,1.075-2.935s1.687-1.194,2.911-1.194c0.104,0,0.184,0,0.262,0.002
			s0.154,0.006,0.25,0.014V8.505V7.217c0-0.032,0.012-0.056,0.03-0.072s0.042-0.024,0.066-0.024h0.785h0.785
			c0.04,0,0.063,0.008,0.078,0.022s0.018,0.034,0.018,0.058v4.538v4.538c0,0.136,0,0.288,0.006,0.452s0.018,0.34,0.042,0.525
			c0,0.032-0.004,0.052-0.016,0.068s-0.032,0.028-0.064,0.044c-0.416,0.2-0.844,0.344-1.272,0.439s-0.856,0.138-1.272,0.138
			c-1.072,0-1.993-0.332-2.645-1.003S16.36,15.26,16.36,13.907z M20.858,11.362c-0.072-0.032-0.156-0.056-0.252-0.072
			s-0.204-0.024-0.324-0.024c-0.625,0-1.157,0.24-1.533,0.68s-0.596,1.08-0.596,1.881c0,0.912,0.224,1.553,0.588,1.965
			s0.868,0.596,1.428,0.596c0.12,0,0.244-0.008,0.362-0.026s0.23-0.046,0.326-0.086v-2.457V11.362z"/>
	</g>
</g>
<g>
</g>
<g>
</g>
<g>
</g>
<g>
</g>
<g>
</g>
<g>
</g>
</svg>
