<?xml version="1.0" encoding="utf-8"?>
<!-- Generator: Adobe Illustrator 22.0.1, SVG Export Plug-In . SVG Version: 6.00 Build 0)  -->
<svg version="1.1" id="Layer_1" xmlns="http://www.w3.org/2000/svg" xmlns:xlink="http://www.w3.org/1999/xlink" x="0px" y="0px"
	 viewBox="0 0 34 34" style="enable-background:new 0 0 34 34;" xml:space="preserve">
<style type="text/css">
	.st0{fill:#FFFFFF;}
	.st1{fill:#B3B3B3;}
</style>
<g>
	<g id="s_no_thumbnail_34">
		<g id="filetype_generic_32" transform="translate(459 -3196)">
			<g id="Group_59748">
				<g id="filetype_generic_32-2" transform="translate(5539 5424)">
					<path id="Path_34153" class="st0" d="M-5991-2195.5c-1.4,0-2.5-1.1-2.5-2.5c0,0,0,0,0,0v-26c0-1.4,1.1-2.5,2.5-2.5c0,0,0,0,0,0
						h15.4c0.5,0,1,0.2,1.4,0.6l5.1,5.1c0.4,0.4,0.6,0.9,0.6,1.4v21.4c0,1.4-1.1,2.5-2.5,2.5c0,0,0,0,0,0H-5991z"/>
					<g id="Group_56321">
						<path id="Path_34154" class="st1" d="M-5968.7-2221.2l-5.1-5.1c-0.5-0.4-1.1-0.7-1.8-0.7h-15.4c-1.6,0-3,1.3-3,2.9
							c0,0,0,0.1,0,0.1v26c0,1.6,1.3,3,2.9,3c0,0,0.1,0,0.1,0h20c1.6,0,3-1.3,3-2.9c0,0,0-0.1,0-0.1v-21.4
							C-5968-2220.1-5968.3-2220.7-5968.7-2221.2z M-5974.5-2225.5l5,5h-4.5c-0.3,0-0.5-0.2-0.5-0.4c0,0,0,0,0-0.1V-2225.5z
							 M-5969-2198c0,1.1-0.9,2-2,2h-20c-1.1,0-2-0.9-2-2v-26c0-1.1,0.9-2,2-2h15.5v5c0,0.8,0.7,1.5,1.5,1.5h5V-2198z"/>
					</g>
				</g>
			</g>
		</g>
	</g>
</g>
</svg>
