<?xml version="1.0" encoding="utf-8"?>
<!-- Generator: Adobe Illustrator 25.0.1, SVG Export Plug-In . SVG Version: 6.00 Build 0)  -->
<svg version="1.1" id="Layer_1" xmlns="http://www.w3.org/2000/svg" xmlns:xlink="http://www.w3.org/1999/xlink" x="0px" y="0px"
	 viewBox="0 0 1024 1024" style="enable-background:new 0 0 1024 1024;" xml:space="preserve">
<style type="text/css">
	.st0{fill:#F5F5F5;}
	.st1{fill:#B3B3B3;}
	.st2{fill:#4B4B4B;}
	.st3{enable-background:new    ;}
	.st4{fill:#2C2C2C;}
</style>
<g id="Surface">
	<g id="Document">
		<g id="Document_Fill">
			<path id="_1024" class="st0" d="M223.8,963c-44.1,0-80-35.2-80-78.4V129.4c0-43.2,35.9-78.4,80-78.4H664
				c21.2,0,41.5,8.3,56.7,23.1l135.8,133.5c14.9,14.5,23.4,34.5,23.3,55.3v621.7c0,43.2-35.9,78.4-80,78.4H223.8z"/>
		</g>
		<g id="Document_Outline">
			<path id="_1024-2" class="st1" d="M664.4,66.9c16.9,0.1,33.2,6.8,45.2,18.7L845.4,219c11.9,11.5,18.7,27.4,18.8,44v621.7
				c0,34.4-28.9,62.3-64.2,62.3H224c-35.3,0-64.1-28.4-64.1-62.8V129c0-34.4,29-62.2,64.3-62.2H664.4 M664.2,35.1H224
				c-53,0-95.8,42.2-95.8,94.3v755.2c0,52.1,42.5,94.4,95.5,94.4h576c53,0,96.1-42.1,96.1-94.2V263.1c0-25.1-10-49.2-28-66.8
				L732.1,62.7C714,45,689.6,35,664.2,35.1z"/>
		</g>
	</g>
</g>
<g id="Modifier">
	<g id="_3D">
		<g id="_1024-3">
			<path class="st2" d="M711.8,315c0-0.3-0.2-0.6-0.2-1.1c0-0.7-0.2-1.4-0.5-2.1c-0.2-0.7-0.5-1.4-0.8-2.1c-0.2-0.7-0.5-1.4-1-1.9
				c-0.5-0.6-1-1.1-1.4-1.8c-0.4-0.6-0.9-1-1.4-1.4c-1.2-1-2.4-1.8-3.8-2.4c-0.5-0.3-1-0.5-1.6-0.6l-182.7-76.1l-0.6-0.3
				c-3.9-1.7-8.3-1.5-12.1,0.3l-182.4,76.1c-0.6,0.1-1.1,0.4-1.6,0.6c-1.4,0.6-2.7,1.4-3.8,2.4c-1.1,1-2,2-2.9,3.2
				c-1.2,1.8-2.1,3.8-2.6,5.9c-0.3,0.7-0.4,1.4-0.3,2.1v200.4c0.1,6.2,3.9,11.8,9.6,14.1l183.9,76.2c2,1,4.2,1.5,6.4,1.4
				c2,0,3.9-0.4,5.7-1.1l0.6-0.3l184.1-76.2c5.7-2.3,9.5-7.8,9.6-14V316C712,315.7,712,315.3,711.8,315z M512,376.3l-143.8-59.7
				l143-59.3L654.8,317L512,376.3z M680,504.5l-159.2,65.9V407L680,340.8V504.5z"/>
			<path class="st2" d="M312.3,313.8c0.5-2.1,1.4-4.1,2.6-5.9C313.5,309.6,312.6,311.6,312.3,313.8z M319.1,303.5
				c-0.5,0.3-0.9,0.7-1.3,1.1c1.2-1,2.4-1.8,3.8-2.4C320.7,302.5,319.8,302.9,319.1,303.5L319.1,303.5z"/>
			<path class="st2" d="M705.3,303.5c-0.7-0.6-1.6-1.1-2.6-1.3c1.4,0.6,2.7,1.4,3.8,2.4C706.2,304.2,705.8,303.8,705.3,303.5z"/>
		</g>
	</g>
</g>
<g id="Mime">
	<g class="st3">
		<path class="st4" d="M259.4,837.9c-0.8-0.6-1.2-1.5-1.2-2.7v-20c0-0.6,0.8-1.2,1.7-0.6c9.4,6.4,20.4,9.4,30.8,9.4
			c15.2,0,21.4-7.9,21.4-16.8c0-7.9-4-14.4-18.5-22.9l-7.5-4c-21.4-12.1-27.7-24.3-27.7-39.9c0-21.2,14.8-38.3,42.6-38.3
			c12.3,0,21.2,1.9,26.4,4.8c1,0.4,1.2,1,1.2,2.3v18.7c0,0.8-0.8,1.5-1.7,0.8c-6.4-4.2-15.8-6.2-25.6-6.2c-16,0-21.2,9.2-21.2,16.4
			c0,7.9,4,13.7,18.3,21.6l6.7,3.5c23.7,13.1,29.7,25.8,29.7,41.4c0,23.1-16.8,39.1-44.3,39.1C278.3,844.6,267.1,842.3,259.4,837.9z
			"/>
	</g>
	<g class="st3">
		<path class="st4" d="M358.6,705.9c0-1,0.2-1.5,1-1.7c5.8-0.2,21.6-0.6,34.3-0.6c38.5,0,45.3,22.5,45.3,36.2
			c0,15.4-7.5,23.9-12.9,28.1c7.5,4,19.1,13.5,19.1,33.3c0,26.2-21,42.2-53,42c-13.5,0-25.8-0.2-32.4-0.4c-1-0.2-1.5-0.8-1.5-1.7
			V705.9z M380.9,760h12.7c6,0,12.7,0.4,15.8,1c4.2-3.7,7.9-9.2,7.9-18.3c0-12.7-8.5-19.3-23.3-19.3c-5,0-9.8,0.2-13.1,0.4V760z
			 M380.9,823.2c3.7,0.2,7.3,0.4,11.9,0.4c16.4,0,29.5-6.2,29.5-22c0-9.8-5-17.1-15.2-20.2c-3.5-1-7.7-1.7-12.3-1.7h-13.9V823.2z"/>
	</g>
	<g class="st3">
		<path class="st4" d="M464.3,837.9c-0.8-0.6-1.2-1.5-1.2-2.7v-20c0-0.6,0.8-1.2,1.7-0.6c9.4,6.4,20.4,9.4,30.8,9.4
			c15.2,0,21.4-7.9,21.4-16.8c0-7.9-4-14.4-18.5-22.9l-7.5-4c-21.4-12.1-27.7-24.3-27.7-39.9c0-21.2,14.8-38.3,42.6-38.3
			c12.3,0,21.2,1.9,26.4,4.8c1,0.4,1.2,1,1.2,2.3v18.7c0,0.8-0.8,1.5-1.7,0.8c-6.4-4.2-15.8-6.2-25.6-6.2c-16,0-21.2,9.2-21.2,16.4
			c0,7.9,4,13.7,18.3,21.6l6.7,3.5c23.7,13.1,29.7,25.8,29.7,41.4c0,23.1-16.8,39.1-44.3,39.1C483.2,844.6,472,842.3,464.3,837.9z"
			/>
	</g>
	<g class="st3">
		<path class="st4" d="M585.5,803.6l-10,37.6c-0.2,1-0.6,1.5-1.9,1.5h-18.5c-1.2,0-1.5-0.4-1.2-1.9l35.8-125.2
			c0.6-2.3,1-4.2,1.2-10.4c0-0.8,0.4-1.2,1-1.2h26.4c0.8,0,1.2,0.2,1.5,1.2L660,841.1c0.2,1,0,1.7-1,1.7h-20.8c-1,0-1.7-0.4-1.9-1.2
			l-10.4-37.9H585.5z M620.7,783c-3.5-13.9-11.9-44.3-15-59.1h-0.2c-2.7,14.8-9.4,39.5-14.6,59.1H620.7z"/>
	</g>
	<g class="st3">
		<path class="st4" d="M701.4,841.3c0,1-0.4,1.5-1.5,1.5h-19.1c-1.2,0-1.7-0.4-1.7-1.7v-135c0-1,0.4-1.9,1.2-1.9
			c10.2-0.4,19.8-0.6,35.2-0.6c29.7,0,47.6,14.1,47.6,39.9c0,21.2-14.1,33.1-26,37.4c6,10.4,26.4,47.4,33.1,59.9
			c0.6,1,0.6,1.9-0.8,1.9h-21.6c-1.5,0-2.1-0.4-2.5-1c-4.8-8.3-19.8-37-29.3-54.5h-14.6V841.3z M714.1,767.2
			c15.2,0,26.2-6,26.2-21.6c0-15.2-10-22-25.4-22c-5.4,0-10.6,0.2-13.5,0.4v43.3H714.1z"/>
	</g>
</g>
</svg>
