<?xml version="1.0" encoding="utf-8"?>
<!-- Generator: Adobe Illustrator 21.1.0, SVG Export Plug-In . SVG Version: 6.00 Build 0)  -->
<svg version="1.1" id="Layer_1" xmlns="http://www.w3.org/2000/svg" xmlns:xlink="http://www.w3.org/1999/xlink" x="0px" y="0px"
	 viewBox="0 0 128 128" style="enable-background:new 0 0 128 128;" xml:space="preserve">
<style type="text/css">
	.st0{fill:#FFFFFF;}
	.st1{fill:#B3B3B3;}
	.st2{fill:#2C2C2C;}
	.st3{fill:#4B4B4B;}
</style>
<g>
	<path class="st0" d="M24,126c-5.514,0-10-4.486-10-10V12c0-5.514,4.486-10,10-10h61.521c2.132,0,4.137,0.829,5.646,2.333
		l20.48,20.408c1.495,1.49,2.353,3.555,2.353,5.667V116c0,5.514-4.486,10-10,10H24z"/>
	<path class="st1" d="M85.52,4c1.588,0,3.111,0.629,4.235,1.75l20.48,20.408c1.13,1.126,1.765,2.655,1.765,4.25V116
		c0,4.418-3.582,8-8,8H24c-4.418,0-8-3.582-8-8V12c0-4.418,3.582-8,8-8H85.52 M85.52,0H24c-6.617,0-12,5.383-12,12v104
		c0,6.617,5.383,12,12,12h80c6.617,0,12-5.383,12-12V30.408c0-2.639-1.072-5.221-2.941-7.084L92.579,2.917
		C90.691,1.036,88.185,0,85.52,0L85.52,0z"/>
</g>
<g>
	<g>
		<path class="st2" d="M47.13,110.176c-0.07,0-0.126-0.014-0.165-0.049s-0.06-0.091-0.06-0.175v-0.798v-0.798
			c0-0.07,0.007-0.119,0.021-0.168s0.035-0.098,0.063-0.168l4.13-6.874l4.13-6.874h-3.962h-3.962c-0.07,0-0.119-0.014-0.147-0.049
			s-0.035-0.091-0.021-0.175l0.182-1.176l0.182-1.176c0.014-0.07,0.035-0.119,0.07-0.151s0.084-0.045,0.154-0.045h5.53h5.53
			c0.056,0,0.098,0.014,0.126,0.042s0.042,0.07,0.042,0.126v0.868v0.868c0,0.07-0.014,0.133-0.039,0.199s-0.06,0.137-0.102,0.221
			l-4.046,6.79l-4.046,6.79h4.172h4.172c0.07,0,0.119,0.021,0.144,0.06s0.025,0.095-0.004,0.165l-0.196,1.176l-0.196,1.176
			c-0.014,0.07-0.042,0.119-0.084,0.151s-0.098,0.045-0.168,0.045h-5.726H47.13z"/>
		<path class="st2" d="M65.05,109.952c0,0.084-0.007,0.14-0.039,0.175s-0.088,0.049-0.185,0.049h-1.302h-1.302
			c-0.084,0-0.14-0.021-0.175-0.059s-0.049-0.094-0.049-0.164v-9.114v-9.114c0-0.084,0.021-0.14,0.06-0.175s0.095-0.049,0.165-0.049
			h1.316h1.316c0.07,0,0.119,0.014,0.151,0.045s0.046,0.081,0.046,0.151v9.128V109.952z"/>
		<path class="st2" d="M69.361,91.724c0-0.056,0.007-0.104,0.032-0.139s0.067-0.056,0.136-0.056
			c0.546-0.028,1.218-0.049,1.964-0.063s1.565-0.021,2.405-0.021c2.352,0,4.039,0.644,5.138,1.701s1.61,2.527,1.61,4.179
			c0,2.156-0.777,3.696-2.034,4.696s-2.993,1.463-4.911,1.463c-0.322,0-0.539-0.007-0.731-0.014s-0.36-0.014-0.584-0.014v3.262
			v3.262c0,0.07-0.014,0.119-0.046,0.151s-0.081,0.045-0.151,0.045h-1.316h-1.316c-0.07,0-0.119-0.014-0.151-0.045
			s-0.045-0.081-0.045-0.151v-9.128V91.724z M72.386,100.74c0.196,0.014,0.371,0.021,0.581,0.024s0.455,0.003,0.792,0.003
			c0.994,0,1.953-0.175,2.663-0.686s1.173-1.358,1.173-2.702c0-1.078-0.329-1.89-0.942-2.433s-1.509-0.815-2.642-0.815
			c-0.336,0-0.666,0.007-0.949,0.018s-0.521,0.024-0.675,0.038v3.276V100.74z"/>
	</g>
</g>
<path id="_x36_4_4_" class="st3" d="M76,29.069v-2c0-0.552-0.448-1-1-1H53c-0.552,0-1,0.456-1,1.008v5.992c0,0.552,0.448,1,1,1h9v4
	h-9c-0.552,0-1,0.448-1,1v2c0,0.552,0.448,1,1,1h9v4h-9c-0.552,0-1,0.448-1,1v2c0,0.552,0.448,1,1,1h9v8h-3
	c-0.552,0-1,0.469-1,1.021v13.979c0,0.552,0.448,1,1,1h10c0.552,0,1-0.448,1-1v-14c0-0.552-0.448-1-1-1h-3v-8h9c0.552,0,1-0.448,1-1
	v-6c0-0.552-0.448-1-1-1h-9v-4h9c0.552,0,1-0.448,1-1v-2c0-0.552-0.448-1-1-1h-9v-4h9C75.552,30.069,76,29.621,76,29.069z
	 M66,70.069h-4v-6h4V70.069z"/>
<g>
</g>
<g>
</g>
<g>
</g>
<g>
</g>
<g>
</g>
<g>
</g>
</svg>
