<?xml version="1.0" encoding="utf-8"?>
<!-- Generator: Adobe Illustrator 21.1.0, SVG Export Plug-In . SVG Version: 6.00 Build 0)  -->
<svg version="1.1" id="Layer_1" xmlns="http://www.w3.org/2000/svg" xmlns:xlink="http://www.w3.org/1999/xlink" x="0px" y="0px"
	 viewBox="0 0 128 128" style="enable-background:new 0 0 128 128;" xml:space="preserve">
<style type="text/css">
	.st0{fill:#2E0918;}
	.st1{fill:#FF3388;}
	.st2{fill:#FAFAFA;}
</style>
<g>
	<path class="st0" d="M24,125.995c-5.514,0-10-4.486-10-10v-112c0-1.104,0.896-2,2-2h96c1.104,0,2,0.896,2,2v112
		c0,5.514-4.486,10-10,10H24z"/>
	<path class="st1" d="M115.99,3.85c-0.05-1.55-0.99-2.87-2.32-3.47C113.16,0.13,112.59,0,112,0H16c-0.59,0-1.16,0.13-1.67,0.37
		c-1.32,0.6-2.25,1.9-2.32,3.43C12,3.87,12,3.93,12,4v112c0,6.61,5.38,12,12,12h80c6.62,0,12-5.39,12-12V4
		C116,3.95,116,3.9,115.99,3.85z M110.67,4l-8.71,10.52c-0.38,0.46-0.95,0.72-1.54,0.72H27.95c-0.58,0-1.14-0.25-1.52-0.7L17.43,4
		H110.67z M112,116c0,4.41-3.58,8-8,8H24c-4.42,0-8-3.59-8-8V8.48l7.39,8.66c1.14,1.34,2.81,2.1,4.56,2.1h72.47
		c1.79,0,3.47-0.79,4.62-2.17l6.96-8.4V116z"/>
</g>
<g>
	<g>
		<path class="st1" d="M52.191,70.676c0,0.192-0.016,0.32-0.088,0.4s-0.2,0.112-0.424,0.112h-2.976h-2.976
			c-0.192,0-0.32-0.048-0.4-0.136s-0.112-0.216-0.112-0.376V49.845V29.015c0-0.192,0.048-0.32,0.136-0.4s0.216-0.112,0.376-0.112
			h3.008h3.008c0.16,0,0.272,0.032,0.344,0.104s0.104,0.184,0.104,0.344v20.863V70.676z"/>
		<path class="st1" d="M58.399,55.637c0-4.64,1.536-8.767,4.296-11.735s6.744-4.776,11.64-4.776c0.416,0,0.735,0,1.047,0.008
			s0.616,0.024,1,0.056v-5.152v-5.152c0-0.128,0.048-0.224,0.12-0.288s0.168-0.096,0.264-0.096h3.136h3.136
			c0.16,0,0.256,0.032,0.312,0.088s0.072,0.136,0.072,0.232v18.143v18.143c0,0.544,0,1.152,0.024,1.808s0.072,1.36,0.168,2.096
			c0,0.128-0.016,0.208-0.064,0.272s-0.128,0.112-0.256,0.176c-1.664,0.8-3.376,1.376-5.088,1.752s-3.424,0.552-5.088,0.552
			c-4.288,0-7.967-1.328-10.575-4.008S58.399,61.044,58.399,55.637z M76.383,45.461c-0.288-0.128-0.624-0.224-1.008-0.288
			s-0.816-0.096-1.296-0.096c-2.496,0-4.623,0.96-6.127,2.72s-2.384,4.32-2.384,7.519c0,3.648,0.896,6.208,2.352,7.856
			s3.472,2.384,5.712,2.384c0.48,0,0.976-0.032,1.448-0.104s0.92-0.184,1.304-0.343v-9.823V45.461z"/>
	</g>
</g>
<g>
	<g>
		<path class="st2" d="M42.65,109.952c0,0.084-0.007,0.14-0.039,0.175s-0.088,0.049-0.185,0.049h-1.302h-1.302
			c-0.084,0-0.14-0.021-0.175-0.059s-0.049-0.094-0.049-0.164v-9.114v-9.114c0-0.084,0.021-0.14,0.06-0.175s0.095-0.049,0.165-0.049
			h1.316h1.316c0.07,0,0.119,0.014,0.151,0.045s0.046,0.081,0.046,0.151v9.128V109.952z"/>
		<path class="st2" d="M46.962,91.752c0-0.07,0.007-0.119,0.035-0.154s0.077-0.056,0.161-0.07c0.322-0.014,0.945-0.035,1.725-0.053
			s1.718-0.031,2.67-0.031c2.842,0,4.97,0.917,6.388,2.506s2.125,3.85,2.125,6.538c0,3.738-1.225,6.174-2.922,7.675
			s-3.868,2.068-5.758,2.068c-0.714,0-1.589-0.007-2.38-0.017s-1.498-0.024-1.876-0.038c-0.056,0-0.098-0.021-0.126-0.059
			s-0.042-0.094-0.042-0.164v-9.1V91.752z M50.014,107.488c0.238,0.014,0.462,0.028,0.693,0.038s0.469,0.018,0.735,0.018
			c1.568,0,2.933-0.553,3.91-1.701s1.564-2.891,1.578-5.271c0.014-2.324-0.581-3.934-1.554-4.963s-2.324-1.477-3.822-1.477
			c-0.294,0-0.56,0.007-0.812,0.018s-0.49,0.024-0.728,0.038v6.65V107.488z"/>
		<path class="st2" d="M65.638,104.912l-0.672,2.534l-0.672,2.534c-0.014,0.07-0.035,0.119-0.073,0.151s-0.095,0.045-0.179,0.045
			h-1.246H61.55c-0.084,0-0.133-0.014-0.157-0.052s-0.024-0.101-0.011-0.2l2.408-8.428l2.408-8.428
			c0.042-0.154,0.077-0.294,0.105-0.5s0.049-0.479,0.063-0.899c0-0.056,0.014-0.098,0.039-0.126s0.06-0.042,0.102-0.042h1.778h1.778
			c0.056,0,0.098,0.007,0.13,0.032s0.052,0.067,0.067,0.136l2.702,9.142l2.702,9.142c0.014,0.07,0.014,0.126-0.007,0.164
			s-0.063,0.059-0.133,0.059h-1.4h-1.4c-0.07,0-0.126-0.014-0.168-0.042s-0.07-0.07-0.084-0.126l-0.7-2.548l-0.7-2.548h-2.716
			H65.638z M70.37,102.14c-0.238-0.938-0.637-2.429-1.03-3.934s-0.777-3.024-0.987-4.018H68.34h-0.014
			c-0.182,0.994-0.497,2.324-0.854,3.735s-0.756,2.901-1.107,4.217h2.002H70.37z"/>
		<path class="st2" d="M78.237,91.724c0-0.056,0.007-0.104,0.032-0.139s0.067-0.056,0.136-0.056
			c0.546-0.028,1.218-0.049,1.964-0.063s1.565-0.021,2.405-0.021c2.352,0,4.039,0.644,5.138,1.701s1.61,2.527,1.61,4.179
			c0,2.156-0.777,3.696-2.034,4.696s-2.993,1.463-4.911,1.463c-0.322,0-0.539-0.007-0.731-0.014s-0.36-0.014-0.584-0.014v3.262
			v3.262c0,0.07-0.014,0.119-0.046,0.151s-0.081,0.045-0.151,0.045H79.75h-1.316c-0.07,0-0.119-0.014-0.151-0.045
			s-0.045-0.081-0.045-0.151v-9.128V91.724z M81.262,100.74c0.196,0.014,0.371,0.021,0.581,0.024s0.455,0.003,0.792,0.003
			c0.994,0,1.953-0.175,2.663-0.686s1.173-1.358,1.173-2.702c0-1.078-0.329-1.89-0.942-2.433s-1.509-0.815-2.642-0.815
			c-0.336,0-0.666,0.007-0.949,0.018s-0.521,0.024-0.675,0.038v3.276V100.74z"/>
	</g>
</g>
<g>
</g>
<g>
</g>
<g>
</g>
<g>
</g>
<g>
</g>
<g>
</g>
</svg>
