<?xml version="1.0" encoding="utf-8"?>
<!-- Generator: Adobe Illustrator 21.1.0, SVG Export Plug-In . SVG Version: 6.00 Build 0)  -->
<svg version="1.1" id="Surface" xmlns="http://www.w3.org/2000/svg" xmlns:xlink="http://www.w3.org/1999/xlink" x="0px" y="0px"
	 viewBox="0 0 32 32" style="enable-background:new 0 0 32 32;" xml:space="preserve">
<g>
	<path fill="#3E3E3E" d="M3,29.5c-1.4,0-2.5-1.1-2.5-2.5V5c0-1.4,1.1-2.5,2.5-2.5h10.1c0.5,0,1,0.2,1.4,0.6l3.1,3.1
		c0.2,0.2,0.4,0.3,0.7,0.3H29c1.4,0,2.5,1.1,2.5,2.5v18c0,1.4-1.1,2.5-2.5,2.5H3z"/>
	<path fill="#999999" d="M29,6H18.3c-0.1,0-0.2,0-0.4-0.2l-3.1-3.1C14.4,2.3,13.8,2,13.1,2H3C1.3,2,0,3.3,0,5v22c0,1.6,1.3,3,3,3h26
		c1.7,0,3-1.4,3-3V9C32,7.3,30.7,6,29,6z M31,27c0,1.1-0.9,2-2,2H3c-1.1,0-2-0.9-2-2V7h28c1.1,0,2,0.9,2,2V27z"/>
</g>
</svg>