<?xml version="1.0" encoding="UTF-8"?>
<svg id="Layer_1" data-name="Layer 1" xmlns="http://www.w3.org/2000/svg" viewBox="0 0 36 36">
  <defs>
    <style>
      .cls-1 {
        fill: #eaeaea;
      }

      .cls-2 {
        fill: #acc6e6;
      }

      .cls-3 {
        fill: #1473e6;
      }
    </style>
  </defs>
  <g id="Layer_2" data-name="Layer 2">
    <g id="Surfaces">
      <g id="Video_Audio_Surface" data-name="Video Audio Surface">
        <g id="Outline_no_shadow" data-name="Outline no shadow">
          <path class="cls-1" d="M6.375,.5H29.625c3.5158-.00501,6.36998,2.84104,6.375,6.35684V29.14316c-.00502,3.5158-2.8592,6.36185-6.375,6.35684H6.375c-3.5158,.00501-6.36998-2.84104-6.375-6.35684V6.85684C.00502,3.34104,2.8592,.49499,6.375,.5Z"/>
        </g>
        <g id="_32" data-name="32">
          <rect class="cls-2" y="23.86578" width="36" height="1.13587"/>
          <rect class="cls-2" y="8.18025" width="36" height="1.18994"/>
          <rect class="cls-2" y="16.05832" width="36" height="1.1276"/>
          <rect class="cls-2" x="7.78146" y=".5" width="1.21854" height="35.00001"/>
          <rect class="cls-2" x="18.10714" y=".5" width="1.07122" height="35.00001"/>
          <rect class="cls-2" x="28.39286" y=".5" width="1.13839" height="35.00001"/>
          <path class="cls-2" d="M1.15033,32.77826H34.84967c.25214-.36017,.47101-.74542,.64514-1.15497H.50519c.17413,.40955,.393,.7948,.64514,1.15497Z"/>
        </g>
      </g>
    </g>
    <g id="Outlined_Mnemonics_Logos" data-name="Outlined Mnemonics Logos">
      <g id="An">
        <path class="cls-3" d="M14.55647,21.44017h-5.57864l-1.14565,3.51012c-.03211,.13242-.15373,.22337-.28982,.21674h-2.82554c-.16113,0-.21748-.0883-.16905-.2649l4.85008-13.801c.04834-.14446,.0966-.27323,.14495-.458,.06317-.32127,.09552-.64783,.0966-.97525-.01144-.08171,.04553-.15722,.12724-.16866,.01387-.00194,.02794-.00192,.04181,.00006h3.83979c.11251,0,.17692,.04014,.19322,.12043l5.462,15.30647c.04827,.16067-.00004,.24094-.14494,.24083h-3.13952c-.1114,.01242-.21474-.05971-.24148-.16857l-1.22105-3.55827Zm-4.69975-2.97017h3.8157c-.09661-.32095-.2093-.68217-.33809-1.08367-.12905-.4011-.26589-.83055-.41052-1.28835-.14495-.45752-.28987-.91506-.43477-1.37263-.1449-.45757-.27771-.89906-.39843-1.32447-.12078-.42516-.22945-.81446-.326-1.16791h-.02417c-.13597,.65041-.30523,1.29341-.50713,1.92647-.22566,.72245-.4551,1.46094-.68833,2.21547-.23358,.75481-.463,1.45318-.68826,2.09509Z"/>
        <path class="cls-3" d="M28.06057,20.09648h-4.72845c.06109,.45384,.21916,.88925,.46354,1.27715,.26862,.39953,.64876,.71082,1.09193,.89701,.60512,.24534,1.25581,.35977,1.90845,.33553,.51881,.00194,1.03665-.0417,1.5477-.13188,.48196-.08631,.95325-.22692,1.40418-.41893,.07952-.064,.12025-.02424,.12025,.11928v2.27404c.00388,.06206-.00873,.12413-.03588,.1794-.02715,.04364-.064,.08049-.10764,.10764-.49748,.23468-1.02114,.40729-1.56031,.51493-.69627,.12995-1.40418,.19007-2.11209,.1794-.97847,.03006-1.95209-.14934-2.85588-.52657-.72536-.31807-1.36636-.80197-1.8716-1.41194-.47129-.57409-.82234-1.23739-1.0318-1.95015-.20752-.70306-.31226-1.4323-.31226-2.16543-.00194-.801,.12316-1.59619,.37238-2.35744,.23953-.74282,.61869-1.43327,1.11617-2.03451,.49166-.59445,1.1055-1.07641,1.79984-1.41194,.78258-.35105,1.63498-.51978,2.49223-.49166,.79519-.02715,1.58746,.12025,2.31962,.43153,.61578,.27831,1.15496,.70112,1.57195,1.23254,.39275,.50523,.69336,1.07738,.88828,1.68735,.1891,.58766,.28607,1.20151,.28801,1.81923,0,.35105-.01164,.67009-.03588,.95713-.02424,.28704-.04364,.49457-.06012,.62257-.01261,.10958-.1057,.19201-.21625,.19104-.09601,0-.25989,.01164-.49166,.03588-.23177,.02424-.51978,.03976-.86404,.04752-.34523,.00776-.71664-.00873-1.10066-.00873Zm-4.72069-2.30119h3.1439c.38402,0,.66815-.00388,.8524-.01164,.11734,0,.23371-.01164,.34814-.03588v-.14449c-.00485-.18716-.03685-.37238-.09601-.55081-.26765-.83979-1.06284-1.39836-1.94433-1.36442-.82428-.05043-1.60104,.3908-1.98021,1.1249-.16389,.30644-.27347,.63906-.32389,.98235Z"/>
      </g>
    </g>
  </g>
</svg>