<?xml version="1.0" encoding="UTF-8"?>
<svg id="Layer_1" data-name="Layer 1" xmlns="http://www.w3.org/2000/svg" viewBox="0 0 36 36">
  <defs>
    <style>
      .cls-1 {
        fill: #eaeaea;
      }

      .cls-2 {
        fill: #acc6e6;
      }

      .cls-3 {
        fill: #1473e6;
      }
    </style>
  </defs>
  <g id="Layer_2" data-name="Layer 2">
    <g id="Surfaces">
      <g id="Video_Audio_Surface" data-name="Video Audio Surface">
        <g id="Outline_no_shadow" data-name="Outline no shadow">
          <path class="cls-1" d="M6.375,.5H29.625c3.5158-.00501,6.36998,2.84104,6.375,6.35684V29.14316c-.00502,3.5158-2.8592,6.36185-6.375,6.35684H6.375c-3.5158,.00501-6.36998-2.84104-6.375-6.35684V6.85684C.00502,3.34104,2.8592,.49499,6.375,.5Z"/>
        </g>
        <g id="_32" data-name="32">
          <rect class="cls-2" y="23.86578" width="36" height="1.13587"/>
          <rect class="cls-2" y="8.18025" width="36" height="1.18994"/>
          <rect class="cls-2" y="16.05832" width="36" height="1.1276"/>
          <rect class="cls-2" x="7.78146" y=".5" width="1.21854" height="35.00001"/>
          <rect class="cls-2" x="18.10714" y=".5" width="1.07122" height="35.00001"/>
          <rect class="cls-2" x="28.39286" y=".5" width="1.13839" height="35.00001"/>
          <path class="cls-2" d="M1.15033,32.77826H34.84967c.25214-.36017,.47101-.74542,.64514-1.15497H.50519c.17413,.40955,.393,.7948,.64514,1.15497Z"/>
        </g>
      </g>
    </g>
  </g>
  <g id="Layer_2-2" data-name="Layer 2">
    <g id="Outlined_Mnemonics_Logos" data-name="Outlined Mnemonics Logos">
      <g id="Ai">
        <path class="cls-3" d="M16.4366,21.45972h-5.53872l-1.12689,3.49074c-.03188,.13146-.15263,.22176-.28775,.21518h-2.8054c-.15999,0-.21592-.08767-.16779-.263l4.79548-13.77165c.04799-.14343,.09597-.30681,.14391-.49014,.06272-.31897,.09483-.6432,.0959-.96828-.01133-.08115,.04528-.15612,.12643-.16744,.01372-.00191,.02764-.0019,.04136,.00005h3.81236c.1117,0,.17564,.03986,.19183,.11958l5.44291,15.30179c.04791,.15952-.00006,.23922-.14391,.23911h-3.11709c-.1106,.01233-.21319-.05928-.23975-.16736l-1.22288-3.53858Zm-4.67555-3.01253h3.78843c-.09591-.31865-.2078-.6773-.33566-1.07592-.12812-.39823-.26399-.82461-.40759-1.27914-.14392-.45425-.2878-.90852-.43166-1.36282-.14386-.4543-.27572-.89263-.39559-1.315-.11991-.42212-.2278-.80864-.32367-1.15956h-.024c-.13499,.64577-.30305,1.28418-.50351,1.91271-.22405,.71728-.45185,1.45049-.68341,2.19964-.2319,.74941-.45968,1.44277-.68334,2.0801Z"/>
        <path class="cls-3" d="M24.39687,12.03956c-.49434,.01992-.97382-.17133-1.31876-.52599-.3429-.36893-.52419-.85957-.50358-1.36282-.0175-.499,.17877-.98175,.53951-1.32697,.35738-.3418,.8364-.52683,1.33075-.51403,.50394-.02783,.99611,.15891,1.35475,.51403,.33389,.35929,.51077,.83687,.49146,1.32697,.02016,.5054-.1659,.99729-.5155,1.36282-.36622,.3597-.86589,.55034-1.37864,.52599Zm-1.65449,12.88698V13.49799c0-.14343,.0637-.21518,.19183-.21518h2.94925c.12775,0,.19169,.07173,.19184,.21518v11.42855c0,.15952-.06395,.23922-.19184,.23911h-2.92525c-.14383,0-.21577-.07971-.21583-.23911Z"/>
      </g>
    </g>
  </g>
</svg>