<?xml version="1.0" encoding="UTF-8"?>
<svg id="Layer_1" data-name="Layer 1" xmlns="http://www.w3.org/2000/svg" viewBox="0 0 36 36">
  <defs>
    <style>
      .cls-1 {
        fill: #eaeaea;
      }

      .cls-2 {
        fill: #acc6e6;
      }

      .cls-3 {
        fill: #1473e6;
      }
    </style>
  </defs>
  <g id="Layer_2" data-name="Layer 2">
    <g id="Surfaces">
      <g id="Video_Audio_Surface" data-name="Video Audio Surface">
        <g id="Outline_no_shadow" data-name="Outline no shadow">
          <path class="cls-1" d="M6.375,.5H29.625c3.5158-.00501,6.36998,2.84104,6.375,6.35684V29.14316c-.00502,3.5158-2.8592,6.36185-6.375,6.35684H6.375c-3.5158,.00501-6.36998-2.84104-6.375-6.35684V6.85684C.00502,3.34104,2.8592,.49499,6.375,.5Z"/>
        </g>
        <g id="_32" data-name="32">
          <rect class="cls-2" y="23.86578" width="36" height="1.13587"/>
          <rect class="cls-2" y="8.18025" width="36" height="1.18994"/>
          <rect class="cls-2" y="16.05832" width="36" height="1.1276"/>
          <rect class="cls-2" x="7.78146" y=".5" width="1.21854" height="35.00001"/>
          <rect class="cls-2" x="18.10714" y=".5" width="1.07122" height="35.00001"/>
          <rect class="cls-2" x="28.39286" y=".5" width="1.13839" height="35.00001"/>
          <path class="cls-2" d="M1.15033,32.77826H34.84967c.25214-.36017,.47101-.74542,.64514-1.15497H.50519c.17413,.40955,.393,.7948,.64514,1.15497Z"/>
        </g>
      </g>
    </g>
  </g>
  <g id="Outlined_Mnemonics_Logos" data-name="Outlined Mnemonics Logos">
    <g id="Pr">
      <path class="cls-3" d="M8.3074,24.97346V9.58559c0-.11215,.04834-.16857,.14495-.16857,.2573,0,.49223-.00376,.84658-.01205,.354-.00789,.73637-.01591,1.14712-.02407,.4106-.00792,.84532-.01595,1.30415-.0241,.45879-.00789,.9136-.0119,1.36443-.01205,1.04908-.02698,2.0949,.12782,3.09118,.45755,.75504,.25458,1.44391,.67412,2.01658,1.22814,.48487,.47967,.85976,1.05893,1.09876,1.69773,.22591,.62124,.34039,1.27749,.33816,1.93853,.04554,1.12738-.26727,2.24019-.89355,3.17872-.60035,.83853-1.44316,1.47304-2.415,1.81813-1.08792,.36843-2.2329,.53959-3.381,.5054-.35434,0-.6039-.00402-.74868-.01205-.14487-.00793-.3622-.01195-.652-.01206v4.80455c.01473,.10501-.05846,.20208-.16347,.21681-.01789,.00251-.03604,.00248-.05391-.00008h-2.87526c-.11279,0-.16904-.06398-.16904-.19266Zm3.26167-12.66671v5.0189c.20903,.01617,.40222,.02419,.57957,.02406h.797c.58632-.00192,1.16881-.09464,1.72675-.27486,.47816-.14152,.90564-.41734,1.23164-.79468,.33716-.44041,.50435-.98756,.47095-1.5412,.0127-.46595-.10889-.92572-.35025-1.32449-.25409-.38605-.62088-.68452-1.05051-.85486-.5615-.21761-1.16105-.31998-1.76294-.301-.38642,0-.72853,.004-1.02634,.012-.2981,.00828-.50337,.02032-.61582,.03611l-.00005,.00002Z"/>
      <path class="cls-3" d="M21.74292,13.167h2.63233c.14669,.00114,.27482,.09944,.31391,.24083,.04495,.11847,.07515,.24202,.08994,.36787,.03372,.15491,.05791,.31174,.07244,.46961,.01589,.16856,.02394,.34916,.02417,.5418,.45173-.52436,.99614-.96108,1.606-1.28832,.69762-.3838,1.48093-.58503,2.27715-.585,.10471-.01527,.20197,.05724,.21724,.16195,.00265,.01816,.00267,.03661,.00007,.05478v2.91382c0,.11251-.08049,.1687-.24148,.16857-.54598-.02064-1.09232,.0303-1.62507,.15152-.43201,.08559-.85319,.21885-1.25581,.39734-.29206,.13035-.55452,.31879-.77139,.55385v7.63378c0,.1445-.0644,.21674-.19321,.21673h-2.9598c-.11631,.01701-.22439-.06349-.2414-.1798-.00296-.02023-.00299-.04079-.00008-.06103v-8.28391c0-.35297-.00403-.72623-.01209-1.11979-.00827-.39321-.02035-.78252-.03625-1.16795-.00218-.34034-.02411-.68026-.0657-1.01805-.01897-.07419,.0258-.14972,.1-.16868,.02264-.00579,.04638-.00576,.069,.00008h.00004Z"/>
    </g>
  </g>
</svg>