<?xml version="1.0" encoding="UTF-8"?>
<svg id="Layer_1" data-name="Layer 1" xmlns="http://www.w3.org/2000/svg" viewBox="0 0 36 36">
  <defs>
    <style>
      .cls-1 {
        fill: #eaeaea;
      }

      .cls-2 {
        fill: #acc6e6;
      }

      .cls-3 {
        fill: #1473e6;
      }
    </style>
  </defs>
  <g id="Layer_2" data-name="Layer 2">
    <g id="Surfaces">
      <g id="Video_Audio_Surface" data-name="Video Audio Surface">
        <g id="Outline_no_shadow" data-name="Outline no shadow">
          <path class="cls-1" d="M6.375,.5H29.625c3.5158-.00501,6.36998,2.84104,6.375,6.35684V29.14316c-.00502,3.5158-2.8592,6.36185-6.375,6.35684H6.375c-3.5158,.00501-6.36998-2.84104-6.375-6.35684V6.85684C.00502,3.34104,2.8592,.49499,6.375,.5Z"/>
        </g>
        <g id="_32" data-name="32">
          <rect class="cls-2" y="23.86578" width="36" height="1.13587"/>
          <rect class="cls-2" y="8.18025" width="36" height="1.18994"/>
          <rect class="cls-2" y="16.05832" width="36" height="1.1276"/>
          <rect class="cls-2" x="7.78146" y=".5" width="1.21854" height="35.00001"/>
          <rect class="cls-2" x="18.10714" y=".5" width="1.07122" height="35.00001"/>
          <rect class="cls-2" x="28.39286" y=".5" width="1.13839" height="35.00001"/>
          <path class="cls-2" d="M1.15033,32.77826H34.84967c.25214-.36017,.47101-.74542,.64514-1.15497H.50519c.17413,.40955,.393,.7948,.64514,1.15497Z"/>
        </g>
      </g>
    </g>
  </g>
  <g id="Outlined_Mnemonics_Logos" data-name="Outlined Mnemonics Logos">
    <g id="Pr">
      <path class="cls-3" d="M8.3074,24.97346V9.58559c0-.11215,.04834-.16857,.14495-.16857,.2573,0,.49223-.00376,.84658-.01205,.354-.00789,.73637-.01591,1.14712-.02407,.4106-.00792,.84532-.01595,1.30415-.0241,.45879-.00789,.9136-.0119,1.36443-.01205,1.04908-.02698,2.0949,.12782,3.09118,.45755,.75504,.25458,1.44391,.67412,2.01658,1.22814,.48487,.47967,.85976,1.05893,1.09876,1.69773,.22591,.62124,.34039,1.27749,.33816,1.93853,.04554,1.12738-.26727,2.24019-.89355,3.17872-.60035,.83853-1.44316,1.47304-2.415,1.81813-1.08792,.36843-2.2329,.53959-3.381,.5054-.35434,0-.6039-.00402-.74868-.01205-.14487-.00793-.3622-.01195-.652-.01206v4.80455c.01473,.10501-.05846,.20208-.16347,.21681-.01789,.00251-.03604,.00248-.05391-.00008h-2.87526c-.11279,0-.16904-.06398-.16904-.19266Zm3.26167-12.66671v5.0189c.20903,.01617,.40222,.02419,.57957,.02406h.797c.58632-.00192,1.16881-.09464,1.72675-.27486,.47816-.14152,.90564-.41734,1.23164-.79468,.33716-.44041,.50435-.98756,.47095-1.5412,.0127-.46595-.10889-.92572-.35025-1.32449-.25409-.38605-.62088-.68452-1.05051-.85486-.5615-.21761-1.16105-.31998-1.76294-.301-.38642,0-.72853,.004-1.02634,.012-.2981,.00828-.50337,.02032-.61582,.03611l-.00005,.00002Z"/>
    </g>
  </g>
  <g id="Layer_2-2" data-name="Layer 2">
    <g id="Outlined_Mnemonics_Logos-2" data-name="Outlined Mnemonics Logos">
      <g id="Ps">
        <path class="cls-3" d="M28.79546,16.41463c-.45409-.23264-.93756-.40279-1.43725-.50583-.55076-.126-1.11379-.19063-1.67878-.1927-.30562-.00827-.6108,.02825-.90584,.1084-.18763,.04161-.35449,.14826-.47105,.30107-.0787,.12208-.12061,.26423-.12073,.40948,.00443,.14093,.05538,.27643,.1449,.38537,.1412,.16465,.31359,.29973,.50724,.39743,.34446,.18496,.69932,.34983,1.06283,.49378,.81052,.27051,1.58516,.63852,2.30688,1.09594,.49123,.30903,.89796,.73529,1.18364,1.24045,.23994,.47788,.36013,1.00692,.35025,1.54156,.01439,.70606-.18793,1.39957-.5797,1.98714-.42003,.5972-1.00275,1.06119-1.67886,1.33677-.86318,.34528-1.78817,.50926-2.71744,.48176-.68523,.00691-1.3693-.05768-2.04113-.1927-.52919-.09674-1.04439-.25854-1.53388-.48173-.10769-.05536-.1736-.16806-.16904-.28906v-2.60132c-.0059-.05194,.01734-.10289,.06043-.13248,.04248-.02394,.09534-.01915,.13282,.01205,.57812,.33988,1.20562,.58772,1.85996,.73462,.57695,.1442,1.16868,.22099,1.76333,.22883,.42594,.0265,.85213-.04777,1.244-.21678,.24501-.11157,.40125-.35705,.3986-.62625-.02091-.24602-.15474-.46844-.36233-.60213-.45703-.29894-.9528-.53396-1.47352-.69853-.75825-.26313-1.47737-.62773-2.13775-1.08388-.47191-.32716-.86069-.76023-1.13525-1.26456-.23751-.47444-.35762-.99896-.35025-1.52948-.00129-.63749,.1743-1.26284,.50724-1.80649,.38016-.59937,.92541-1.07613,1.57014-1.37292,.833-.37911,1.74238-.56047,2.65708-.52991,.62251-.00499,1.24444,.03931,1.85996,.13248,.44563,.05635,.88136,.17387,1.29488,.34925,.06642,.01897,.12007,.06803,.1449,.13248,.01633,.05882,.02446,.11961,.02418,.18065v2.43273c.00338,.05765-.02423,.11274-.07246,.14452-.06553,.0325-.14249,.0325-.20802-.00001Z"/>
      </g>
    </g>
  </g>
</svg>