<?xml version="1.0" encoding="UTF-8"?>
<svg id="Layer_1" data-name="Layer 1" xmlns="http://www.w3.org/2000/svg" viewBox="0 0 36 36">
  <defs>
    <style>
      .cls-1 {
        fill: #eaeaea;
      }

      .cls-2 {
        fill: #acc6e6;
      }

      .cls-3 {
        fill: #1473e6;
      }
    </style>
  </defs>
  <g id="Layer_2" data-name="Layer 2">
    <g id="Surfaces">
      <g id="Video_Audio_Surface" data-name="Video Audio Surface">
        <g id="Outline_no_shadow" data-name="Outline no shadow">
          <path class="cls-1" d="M6.375,.5H29.625c3.5158-.00501,6.36998,2.84104,6.375,6.35684V29.14316c-.00502,3.5158-2.8592,6.36185-6.375,6.35684H6.375c-3.5158,.00501-6.36998-2.84104-6.375-6.35684V6.85684C.00502,3.34104,2.8592,.49499,6.375,.5Z"/>
        </g>
        <g id="_32" data-name="32">
          <rect class="cls-2" y="23.86578" width="36" height="1.13587"/>
          <rect class="cls-2" y="8.18025" width="36" height="1.18994"/>
          <rect class="cls-2" y="16.05832" width="36" height="1.1276"/>
          <rect class="cls-2" x="7.78146" y=".5" width="1.21854" height="35.00001"/>
          <rect class="cls-2" x="18.10714" y=".5" width="1.07122" height="35.00001"/>
          <rect class="cls-2" x="28.39286" y=".5" width="1.13839" height="35.00001"/>
          <path class="cls-2" d="M1.15033,32.77826H34.84967c.25214-.36017,.47101-.74542,.64514-1.15497H.50519c.17413,.40955,.393,.7948,.64514,1.15497Z"/>
        </g>
      </g>
    </g>
  </g>
  <g id="Layer_2-2" data-name="Layer 2">
    <g id="Outlined_Mnemonics_Logos" data-name="Outlined Mnemonics Logos">
      <g id="Xd">
        <path class="cls-3" d="M18.92505,9.70445l-4.49194,7.39293,4.80589,7.85048c.03082,.0549,.03947,.11951,.02417,.18058-.01626,.05645-.07244,.02089-.169,.03671h-3.42935c-.24155,0-.4106-.00849-.5072-.16916-.32227-.62608-.64427-1.24817-.966-1.86626-.32227-.61787-.66438-1.248-1.02634-1.8904-.36226-.64189-.72049-1.29209-1.07469-1.95058h-.02417c-.32227,.64229-.65635,1.28446-1.00225,1.92651-.34636,.6423-.68847,1.28046-1.02634,1.91447-.33809,.63437-.68423,1.26449-1.03843,1.89036-.06452,.1445-.17739,.1594-.33815,.1594h-3.30849c-.06416,0-.10041,.02534-.10869-.039-.00908-.05874,.00382-.11876,.03625-.16857l4.66092-7.63376-4.54024-7.65781c-.04827-.06394-.05633-.11611-.02417-.15651,.0362-.04168,.08986-.06397,.14494-.06022h3.40514c.07424-.00408,.14846,.00826,.21738,.03615,.05771,.03259,.10725,.07789,.14487,.13245,.28982,.64226,.61182,1.28442,.966,1.92648,.354,.64229,.71223,1.27642,1.07469,1.90241,.36225,.62611,.69633,1.26025,1.00224,1.90242h.02417c.32183-.65811,.64786-1.30027,.97808-1.92648,.32981-.62612,.6679-1.25625,1.01425-1.8904,.34607-.634,.68015-1.26412,1.00225-1.89036,.01853-.05946,.05175-.11329,.0966-.15651,.05965-.0302,.12668-.04274,.19321-.03616h3.16363c.07392-.01856,.14889,.02633,.16745,.10025,.01304,.05195-.00515,.10675-.04667,.14058Z"/>
        <path class="cls-3" d="M25.85581,25.47765c-1.11137,.0169-2.2126-.21342-3.22405-.67429-.94127-.43411-1.72864-1.14367-2.258-2.03486-.58092-1.03907-.86498-2.21786-.82112-3.40748-.00901-1.10553,.27426-2.19381,.82112-3.15465,.56407-.97981,1.39264-1.78098,2.39085-2.3118,1.16939-.60717,2.47448-.90557,3.79153-.86691,.08035,0,.18499,.00402,.31392,.01205,.12867,.00825,.28162,.02029,.45886,.03611v-4.744c0-.11214,.04834-.16857,.14494-.16857h3.04285c.06983-.01021,.13472,.03813,.14493,.10796,.00177,.0121,.00179,.02439,.00007,.0365v14.232c0,.27318,.01206,.57018,.03618,.891,.02418,.32133,.04432,.6103,.06043,.86691,.00599,.10249-.05158,.19814-.14495,.24083-.78516,.3265-1.60278,.56867-2.43911,.72241-.76487,.14077-1.54074,.21332-2.31845,.21679Zm1.47312-2.98609v-6.57415c-.13054-.03526-.26382-.05943-.39843-.07226-.16452-.01649-.32978-.02453-.49512-.02407-.58591-.00584-1.16499,.12614-1.6905,.38529-1.15045,.5457-1.84979,1.7398-1.76294,3.01015-.01175,.52501,.07423,1.04763,.25356,1.5412,.14608,.39797,.37681,.75949,.67625,1.05957,.28699,.27639,.63417,.48246,1.01426,.602,.40175,.1297,.82156,.19472,1.24372,.19263,.2253,0,.4346-.00802,.6279-.02407,.17997-.01351,.35804-.04578,.5313-.09629Z"/>
      </g>
    </g>
  </g>
</svg>