<svg xmlns="http://www.w3.org/2000/svg" width="18" height="18" viewBox="0 0 18 18">
  <g fill="none" fill-rule="evenodd" transform="translate(2 1)">
    <path fill="#B3B3B3" fill-rule="nonzero" d="M8.81455193,0 L2.00104662,0 C0.854307915,0 -2.7065461e-11,0.773934752 -2.7065461e-11,2.02369172 L0.00666047442,14.1460299 C0.00666032347,15.288342 0.762796975,16 1.99904853,16 L11.2004616,16 C12.4240444,16 13.0423265,15.3372048 13.0423265,14.1408183 L13.0423265,4.43606089 C13.0423265,3.96707649 12.8752662,3.52648111 12.5738634,3.17385807 L10.2647314,0.710936759 C9.81397601,0.267063057 9.37814164,0 8.81455193,0 Z M8.81455193,1 C9.07896677,1 9.34900455,1.21203819 9.5354936,1.39519709 L11.7526025,3.75803996 C11.9390915,3.94186489 12.0423265,4.17764034 12.0423265,4.43606089 L12.0423265,14.1408183 C12.0423265,14.7782112 11.8758185,15 11.2004616,15 L1.99904853,15 C1.25975262,15 1.00666032,14.6823026 1.00666032,14.1454805 L1,2.02369172 C1,1.29105614 1.45023787,1 2.00104662,1 L8.81455193,1 Z"/>
    <path fill="#FFF" d="M8.81455193,1 C9.07896677,1 9.34900455,1.21203819 9.5354936,1.39519709 L11.7526025,3.75803996 C11.9390915,3.94186489 12.0423265,4.17764034 12.0423265,4.43606089 L12.0423265,14.1408183 C12.0423265,14.7782112 11.8758185,15 11.2004616,15 L1.99904853,15 C1.25975262,15 1.00666032,14.6823026 1.00666032,14.1454805 L1,2.02369172 C1,1.29105614 1.45023787,1 2.00104662,1 L8.81455193,1 Z"/>
    <path fill="#4B4B4B" fill-rule="nonzero" d="M2.66118446,4 C2.57635053,4 2.5,4.06537203 2.5,4.15070497 L2.5,5.30793953 C2.5,5.39277346 2.56886519,5.45515135 2.65369911,5.45515135 L2.83534352,5.45515135 C2.92017745,5.45515135 2.98355338,5.39077737 2.98355338,5.30594344 L2.98355338,4.46159636 L4.23310721,4.46159636 L4.23111112,7.47120465 L3.66621697,7.47120465 C3.58138305,7.47120465 3.50303642,7.55404248 3.50303642,7.63887641 L3.50303642,7.80654817 C3.50303642,7.8913821 3.58437719,7.95475803 3.66971013,7.95475803 L5.31848244,7.95475803 C5.40331637,7.95475803 5.47866885,7.88239968 5.47866885,7.79756575 L5.47866885,7.60294675 C5.47866885,7.51811282 5.39982321,7.47120465 5.31498928,7.47120465 L4.72214984,7.47120465 L4.72214984,4.46908171 L5.99415971,4.46908171 L5.99316167,5.30744051 C5.99316167,5.39227444 6.0500503,5.45515135 6.13488422,5.45515135 L6.34247783,5.45515135 C6.42731176,5.45515135 6.48270332,5.39327248 6.48270332,5.30843856 L6.48370137,4.14771084 C6.48370137,4.06287691 6.41982641,4 6.33499249,4 L2.66118446,4 Z M10.2347582,6.94099261 L6.76505059,6.94099261 C6.63630263,6.94099261 6.53100876,6.83569874 6.53100876,6.70695078 C6.53100876,6.57820282 6.63630263,6.47340797 6.76505059,6.47340797 L10.2347582,6.47340797 C10.3635061,6.47340797 10.4688,6.57820282 10.4688,6.70695078 C10.4688,6.83569874 10.3635061,6.94099261 10.2347582,6.94099261 M10.2347582,7.95465822 L6.76505059,7.95465822 C6.63630263,7.95465822 6.53100876,7.84936435 6.53100876,7.72061639 C6.53100876,7.59186843 6.63630263,7.48707358 6.76505059,7.48707358 L10.2347582,7.48707358 C10.3635061,7.48707358 10.4688,7.59186843 10.4688,7.72061639 C10.4688,7.84936435 10.3635061,7.95465822 10.2347582,7.95465822 M10.2269734,8.94491965 L3.7316888,8.94491965 C3.60343987,8.94491965 3.49814599,8.83962578 3.49814599,8.71087782 C3.49814599,8.58212986 3.60343987,8.47733501 3.7316888,8.47733501 L10.2269734,8.47733501 C10.3557214,8.47733501 10.4610152,8.58212986 10.4610152,8.71087782 C10.4610152,8.83962578 10.3557214,8.94491965 10.2269734,8.94491965"/>
  </g>
</svg>
