<svg xmlns="http://www.w3.org/2000/svg" width="18" height="18" viewBox="0 0 18 18">
  <g fill="none" fill-rule="evenodd" transform="translate(2 1)">
    <path fill="#B3B3B3" fill-rule="nonzero" d="M8.81455193,0 L2.00104662,0 C0.854307915,0 -2.7065461e-11,0.773934752 -2.7065461e-11,2.02369172 L0.00666047442,14.1460299 C0.00666032347,15.288342 0.762796975,16 1.99904853,16 L11.2004616,16 C12.4240444,16 13.0423265,15.3372048 13.0423265,14.1408183 L13.0423265,4.43606089 C13.0423265,3.96707649 12.8752662,3.52648111 12.5738634,3.17385807 L10.2647314,0.710936759 C9.81397601,0.267063057 9.37814164,0 8.81455193,0 Z M8.81455193,1 C9.07896677,1 9.34900455,1.21203819 9.5354936,1.39519709 L11.7526025,3.75803996 C11.9390915,3.94186489 12.0423265,4.17764034 12.0423265,4.43606089 L12.0423265,14.1408183 C12.0423265,14.7782112 11.8758185,15 11.2004616,15 L1.99904853,15 C1.25975262,15 1.00666032,14.6823026 1.00666032,14.1454805 L1,2.02369172 C1,1.29105614 1.45023787,1 2.00104662,1 L8.81455193,1 Z"/>
    <path fill="#FFF" d="M8.81455193,1 C9.07896677,1 9.34900455,1.21203819 9.5354936,1.39519709 L11.7526025,3.75803996 C11.9390915,3.94186489 12.0423265,4.17764034 12.0423265,4.43606089 L12.0423265,14.1408183 C12.0423265,14.7782112 11.8758185,15 11.2004616,15 L1.99904853,15 C1.25975262,15 1.00666032,14.6823026 1.00666032,14.1454805 L1,2.02369172 C1,1.29105614 1.45023787,1 2.00104662,1 L8.81455193,1 Z"/>
    <path fill="#4B4B4B" fill-rule="nonzero" d="M4.04960653,3.5 C3.7506417,3.50274784 3.50973103,3.74632563 3.50974361,4.04583975 L3.50974361,4.51656394 L3.03986292,4.51656394 C2.742029,4.52197783 2.502659,4.7639979 2.5,5.0624037 L2.5,9.45416025 C2.502659,9.75256604 2.742029,9.99458611 3.03986292,10 L8.96835758,10 C9.2661915,9.99458611 9.5055615,9.75256604 9.5082205,9.45416025 L9.5,9 L9.94988577,9 C10.2477197,8.99458611 10.4953102,8.76104062 10.4979692,8.46263482 L10.4979692,4.05585516 C10.510638,3.91542313 10.4636208,3.7761479 10.3684683,3.67224553 C10.2733158,3.56834315 10.1388467,3.50944307 9.99809611,3.51001541 L4.04960653,3.5 Z M9.00834743,9.50924499 L3.00987054,9.50924499 L3.00987054,5.00231125 L9.00834743,5.00231125 L9.00834743,9.50924499 Z M9.5,8.5 L9.5082205,5.07241911 C9.5055615,4.77401331 9.2661915,4.53199324 8.96835758,4.52657935 L4,4.51656394 L4,4 L10,4 L10,8.5 L9.5,8.5 Z"/>
    <path fill="#4B4B4B" d="M5.17998991,8.00691359 C5.08999496,8.05188629 5,7.95694392 5,7.86699852 L5,6.1230571 C5.00479227,6.08391661 5.02932691,6.04996427 5.06499636,6.03311169 C5.10083144,6.01355939 5.14415483,6.01355939 5.17998991,6.03311169 L6.93489156,6.90258392 C6.97441577,6.92762799 6.99880498,6.97075437 6.99988791,7.01751416 C7.00189982,7.06507158 6.9766957,7.10963893 6.93489156,7.13244439 L5.17998991,8.00691359 Z"/>
  </g>
</svg>
