<svg xmlns="http://www.w3.org/2000/svg" width="18" height="18" viewBox="0 0 18 18">
  <g fill="none" fill-rule="evenodd">
    <path fill="#B3B3B3" fill-rule="nonzero" d="M10.8145519,1 L4.00104662,1 C2.85430792,1 2,1.77393475 2,3.02369172 L2.00666047,15.1460299 C2.00666032,16.288342 2.76279698,17 3.99904853,17 L13.2004616,17 C14.4240444,17 15.0423265,16.3372048 15.0423265,15.1408183 L15.0423265,5.43606089 C15.0423265,4.96707649 14.8752662,4.52648111 14.5738634,4.17385807 L12.2647314,1.71093676 C11.813976,1.26706306 11.3781416,1 10.8145519,1 Z M10.8145519,2 C11.0789668,2 11.3490045,2.21203819 11.5354936,2.39519709 L13.7526025,4.75803996 C13.9390915,4.94186489 14.0423265,5.17764034 14.0423265,5.43606089 L14.0423265,15.1408183 C14.0423265,15.7782112 13.8758185,16 13.2004616,16 L3.99904853,16 C3.25975262,16 3.00666032,15.6823026 3.00666032,15.1454805 L3,3.02369172 C3,2.29105614 3.45023787,2 4.00104662,2 L10.8145519,2 Z"/>
    <path fill="#252525" d="M10.8145519,2 C11.0789668,2 11.3490045,2.21203819 11.5354936,2.39519709 L13.7526025,4.75803996 C13.9390915,4.94186489 14.0423265,5.17764034 14.0423265,5.43606089 L14.0423265,15.1408183 C14.0423265,15.7782112 13.8758185,16 13.2004616,16 L3.99904853,16 C3.25975262,16 3.00666032,15.6823026 3.00666032,15.1454805 L3,3.02369172 C3,2.29105614 3.45023787,2 4.00104662,2 L10.8145519,2 Z"/>
    <path fill="#E3E3E3" fill-rule="nonzero" d="M4.66118446,5 C4.57635053,5 4.5,5.06537203 4.5,5.15070497 L4.5,6.30793953 C4.5,6.39277346 4.56886519,6.45515135 4.65369911,6.45515135 L4.83534352,6.45515135 C4.92017745,6.45515135 4.98355338,6.39077737 4.98355338,6.30594344 L4.98355338,5.46159636 L6.23310721,5.46159636 L6.23111112,8.47120465 L5.66621697,8.47120465 C5.58138305,8.47120465 5.50303642,8.55404248 5.50303642,8.63887641 L5.50303642,8.80654817 C5.50303642,8.8913821 5.58437719,8.95475803 5.66971013,8.95475803 L7.31848244,8.95475803 C7.40331637,8.95475803 7.47866885,8.88239968 7.47866885,8.79756575 L7.47866885,8.60294675 C7.47866885,8.51811282 7.39982321,8.47120465 7.31498928,8.47120465 L6.72214984,8.47120465 L6.72214984,5.46908171 L7.99415971,5.46908171 L7.99316167,6.30744051 C7.99316167,6.39227444 8.0500503,6.45515135 8.13488422,6.45515135 L8.34247783,6.45515135 C8.42731176,6.45515135 8.48270332,6.39327248 8.48270332,6.30843856 L8.48370137,5.14771084 C8.48370137,5.06287691 8.41982641,5 8.33499249,5 L4.66118446,5 Z M12.2347582,7.94099261 L8.76505059,7.94099261 C8.63630263,7.94099261 8.53100876,7.83569874 8.53100876,7.70695078 C8.53100876,7.57820282 8.63630263,7.47340797 8.76505059,7.47340797 L12.2347582,7.47340797 C12.3635061,7.47340797 12.4688,7.57820282 12.4688,7.70695078 C12.4688,7.83569874 12.3635061,7.94099261 12.2347582,7.94099261 M12.2347582,8.95465822 L8.76505059,8.95465822 C8.63630263,8.95465822 8.53100876,8.84936435 8.53100876,8.72061639 C8.53100876,8.59186843 8.63630263,8.48707358 8.76505059,8.48707358 L12.2347582,8.48707358 C12.3635061,8.48707358 12.4688,8.59186843 12.4688,8.72061639 C12.4688,8.84936435 12.3635061,8.95465822 12.2347582,8.95465822 M12.2269734,9.94491965 L5.7316888,9.94491965 C5.60343987,9.94491965 5.49814599,9.83962578 5.49814599,9.71087782 C5.49814599,9.58212986 5.60343987,9.47733501 5.7316888,9.47733501 L12.2269734,9.47733501 C12.3557214,9.47733501 12.4610152,9.58212986 12.4610152,9.71087782 C12.4610152,9.83962578 12.3557214,9.94491965 12.2269734,9.94491965"/>
  </g>
</svg>
