<svg xmlns="http://www.w3.org/2000/svg" width="18" height="18" viewBox="0 0 18 18">
  <g fill="none" fill-rule="evenodd" transform="translate(2 1)">
    <path fill="#B3B3B3" fill-rule="nonzero" d="M8.81455193,0 L2.00104662,0 C0.854307915,0 -2.7065461e-11,0.773934752 -2.7065461e-11,2.02369172 L0.00666047442,14.1460299 C0.00666032347,15.288342 0.762796975,16 1.99904853,16 L11.2004616,16 C12.4240444,16 13.0423265,15.3372048 13.0423265,14.1408183 L13.0423265,4.43606089 C13.0423265,3.96707649 12.8752662,3.52648111 12.5738634,3.17385807 L10.2647314,0.710936759 C9.81397601,0.267063057 9.37814164,0 8.81455193,0 Z M8.81455193,1 C9.07896677,1 9.34900455,1.21203819 9.5354936,1.39519709 L11.7526025,3.75803996 C11.9390915,3.94186489 12.0423265,4.17764034 12.0423265,4.43606089 L12.0423265,14.1408183 C12.0423265,14.7782112 11.8758185,15 11.2004616,15 L1.99904853,15 C1.25975262,15 1.00666032,14.6823026 1.00666032,14.1454805 L1,2.02369172 C1,1.29105614 1.45023787,1 2.00104662,1 L8.81455193,1 Z"/>
    <path fill="#FFF" d="M8.81455193,1 C9.07896677,1 9.34900455,1.21203819 9.5354936,1.39519709 L11.7526025,3.75803996 C11.9390915,3.94186489 12.0423265,4.17764034 12.0423265,4.43606089 L12.0423265,14.1408183 C12.0423265,14.7782112 11.8758185,15 11.2004616,15 L1.99904853,15 C1.25975262,15 1.00666032,14.6823026 1.00666032,14.1454805 L1,2.02369172 C1,1.29105614 1.45023787,1 2.00104662,1 L8.81455193,1 Z"/>
    <path fill="#4B4B4B" fill-rule="nonzero" d="M9.37894252,6.01924809 L7.3527866,6.01145767 L7.35244745,4.27703329 C7.34784492,4.16526627 7.28207612,4.065113 7.18134263,4.01647338 C7.04342578,3.9809226 6.89696486,4.00345505 6.77611145,4.07881664 L2.87696952,8.01150423 C2.80953406,8.08625131 2.84669563,8.27948549 2.88667013,8.37178343 C2.92922582,8.45605392 3.01960019,8.50507821 3.11344498,8.49479915 L4.85905623,8.49479915 C4.86034719,8.90237679 5.02693825,9.29199253 5.32071625,9.57450924 C5.61449429,9.8570259 6.01032077,10.0082686 6.41763771,9.99363584 C7.06181335,9.99036691 7.63859009,9.59383301 7.87231542,8.99354523 L9.35034442,8.99354523 C9.62732085,8.98246748 9.84446906,8.7517234 9.83872655,8.47458498 L9.83872655,6.51800413 C9.84715256,6.39006499 9.80272531,6.26427061 9.7158206,6.16999977 C9.62891594,6.07572888 9.5071434,6.02123614 9.37894252,6.01924809 Z M3.39398965,8.01683084 L6.8644294,4.65741695 L6.85404052,6.01145767 C6.72413014,6.0095988 6.59898173,6.06031773 6.50701934,6.15209509 C6.41505695,6.24387244 6.3640861,6.36891846 6.36568333,6.49883233 L6.36568333,7.00894982 C5.69838283,6.98501335 5.09183344,7.39427774 4.86425317,8.02202778 L3.39398965,8.01683084 Z M6.40123395,9.5663501 C5.8244626,9.54730733 5.36245162,9.08207769 5.34741343,8.50518803 C5.34277025,8.2246101 5.45142557,7.95400609 5.64881615,7.75455061 C5.84620673,7.55509507 6.11566532,7.44362951 6.39627642,7.44535263 C6.68172894,7.4288791 6.96057942,7.53538672 7.16236565,7.73796226 C7.36415187,7.94053781 7.46957003,8.21980199 7.4519822,8.50518803 C7.48365417,8.79331155 7.38357654,9.08033687 7.17962839,9.28630633 C6.97568025,9.49227579 6.68965581,9.59517912 6.40123395,9.5663501 L6.40123395,9.5663501 Z"/>
  </g>
</svg>
