<?xml version="1.0" encoding="utf-8"?>
<!-- Generator: Adobe Illustrator 25.0.1, SVG Export Plug-In . SVG Version: 6.00 Build 0)  -->
<svg version="1.1" id="Layer_1" xmlns="http://www.w3.org/2000/svg" xmlns:xlink="http://www.w3.org/1999/xlink" x="0px" y="0px"
	 viewBox="0 0 1024 1024" style="enable-background:new 0 0 1024 1024;" xml:space="preserve">
<style type="text/css">
	.st0{fill:#F5F5F5;}
	.st1{fill:#B3B3B3;}
	.st2{fill:#4B4B4B;}
	.st3{enable-background:new    ;}
	.st4{fill:#2C2C2C;}
</style>
<g id="Surface">
	<g id="Document">
		<g id="Document_Fill">
			<path id="_1024" class="st0" d="M223.8,963c-44.1,0-80-35.2-80-78.4V129.4c0-43.2,35.9-78.4,80-78.4H664
				c21.2,0,41.5,8.3,56.7,23.1l135.8,133.5c14.9,14.5,23.4,34.5,23.3,55.3v621.7c0,43.2-35.9,78.4-80,78.4H223.8z"/>
		</g>
		<g id="Document_Outline">
			<path id="_1024-2" class="st1" d="M664.4,66.9c16.9,0.1,33.2,6.8,45.2,18.7L845.4,219c11.9,11.5,18.7,27.4,18.8,44v621.7
				c0,34.4-28.9,62.3-64.2,62.3H224c-35.3,0-64.1-28.4-64.1-62.8V129c0-34.4,29-62.2,64.3-62.2H664.4 M664.2,35.1H224
				c-53,0-95.8,42.2-95.8,94.3v755.2c0,52.1,42.5,94.4,95.5,94.4h576c53,0,96.1-42.1,96.1-94.2V263.1c0-25.1-10-49.2-28-66.8
				L732.1,62.7C714,45,689.6,35,664.2,35.1z"/>
		</g>
	</g>
</g>
<g id="Modifier">
	<g id="Photo">
		<g id="_1024-3">
			<path class="st2" d="M511.8,344H340.1c-2.2,0-4-1.8-4-4c0-0.6,0.1-1.1,0.3-1.6c22.1-49.5,63.9-87.5,115.3-104.8
				c1.8-0.6,3.8,0.2,4.7,1.8L515.3,338c1.1,1.9,0.4,4.4-1.5,5.5C513.2,343.8,512.5,344,511.8,344z"/>
			<path class="st2" d="M449.6,380.1L363.8,529c-1.1,1.9-3.5,2.6-5.5,1.5c-0.5-0.3-0.9-0.6-1.2-1.1c-24.1-32.9-37.1-72.6-37.1-113.4
				c0-13.1,1.4-26.1,4.2-38.9c0.4-1.8,2-3.1,3.9-3.1l118,0.1c2.2,0,4,1.8,4,4C450.1,378.8,449.9,379.5,449.6,380.1z"/>
			<path class="st2" d="M450.4,452.7L536,600.9c1.1,1.9,0.5,4.4-1.5,5.5c-0.5,0.3-1,0.5-1.6,0.5c-7,0.7-14,1.1-21,1.1
				c-46.7,0.1-91.8-16.9-126.8-47.9c-1.4-1.3-1.7-3.3-0.8-5l59.1-102.5c1.1-1.9,3.5-2.6,5.5-1.5C449.5,451.6,450,452.1,450.4,452.7z
				"/>
			<path class="st2" d="M513.3,488.1H684c2.2,0,4,1.8,4,4c0,0.6-0.1,1.1-0.3,1.6c-21.9,49.2-63.3,86.9-114.2,104.2
				c-1.8,0.6-3.8-0.2-4.7-1.8l-58.9-102c-1.1-1.9-0.4-4.4,1.5-5.5C511.9,488.3,512.6,488.1,513.3,488.1z"/>
			<path class="st2" d="M574.8,379l-85.6-148c-1.1-1.9-0.5-4.4,1.5-5.5c0.5-0.3,1-0.5,1.6-0.5c6.5-0.6,13-1,19.7-1
				c47.1-0.1,92.6,17.2,127.8,48.6c1.4,1.3,1.7,3.3,0.8,5L581.8,379c-1.1,1.9-3.6,2.6-5.5,1.5C575.7,380.1,575.2,379.6,574.8,379z"
				/>
			<path class="st2" d="M703.9,415.8c0,13.1-1.3,26.1-3.8,38.9c-0.4,1.9-2,3.2-3.9,3.2L578.9,458c-2.2,0-4-1.8-4-4
				c0-0.7,0.2-1.4,0.5-2l85.4-148.1c1.1-1.9,3.5-2.6,5.5-1.5c0.5,0.3,0.9,0.7,1.2,1.1C691.3,336.1,704,375.4,703.9,415.8z"/>
		</g>
	</g>
</g>
<g id="Mime">
	<g class="st3">
		<path class="st4" d="M442.3,841.1c-0.2,1.2-0.6,1.7-1.9,1.7h-71.1c-1.2,0-1.7-0.4-1.7-1.7V705.7c0-1.2,0.4-1.7,1.7-1.7H438
			c1.2,0,1.7,0.2,1.9,1.5l1.9,17.5c0.2,1-0.2,1.7-1.2,1.7h-50.1v37h45.1c1,0,1.5,0.4,1.5,1.5v17.7c0,1-0.6,1.5-1.7,1.5h-44.9v39.9
			h53.5c1.2,0,1.5,0.4,1.2,1.5L442.3,841.1z"/>
	</g>
	<g class="st3">
		<path class="st4" d="M522.6,771.2l36.2,69.5c0.6,1,0.2,2.1-0.8,2.1h-22.5c-1.5,0-2.1-0.4-2.7-1.7c-8.3-17.1-16.6-34.1-25.4-52.4
			h-0.2c-7.7,17.3-16.2,35.6-24.5,52.6c-0.6,1-1.2,1.5-2.3,1.5H459c-1.2,0-1.5-1-0.8-1.9l35.4-67.4l-34.1-67.6c-0.8-1,0-1.9,0.8-1.9
			h22.3c1.2,0,1.9,0.2,2.3,1.5c8.1,17.1,16.4,33.9,24.1,51.2h0.2c7.5-17.1,15.8-34.1,23.7-51c0.6-1,1-1.7,2.3-1.7h20.8
			c1,0,1.5,0.8,0.8,1.9L522.6,771.2z"/>
	</g>
	<g class="st3">
		<path class="st4" d="M598.9,841.3c0,1-0.4,1.5-1.5,1.5h-19.1c-1.2,0-1.7-0.4-1.7-1.7v-135c0-1,0.4-1.9,1.2-1.9
			c10.2-0.4,19.8-0.6,35.2-0.6c29.7,0,47.6,14.1,47.6,39.9c0,21.2-14.1,33.1-26,37.4c6,10.4,26.4,47.4,33.1,59.9
			c0.6,1,0.6,1.9-0.8,1.9h-21.6c-1.5,0-2.1-0.4-2.5-1c-4.8-8.3-19.8-37-29.3-54.5h-14.6V841.3z M611.6,767.2
			c15.2,0,26.2-6,26.2-21.6c0-15.2-10-22-25.4-22c-5.4,0-10.6,0.2-13.5,0.4v43.3H611.6z"/>
	</g>
</g>
</svg>
