<?xml version="1.0" encoding="utf-8"?>
<!-- Generator: Adobe Illustrator 24.0.1, SVG Export Plug-In . SVG Version: 6.00 Build 0)  -->
<svg version="1.1" id="Layer_1" xmlns="http://www.w3.org/2000/svg" xmlns:xlink="http://www.w3.org/1999/xlink" x="0px" y="0px"
	 viewBox="0 0 256 256" style="enable-background:new 0 0 256 256;" xml:space="preserve">
<style type="text/css">
	.st0{fill:#F5F5F5;}
	.st1{fill:#B3B3B3;}
	.st2{fill:#4B4B4B;}
	.st3{enable-background:new    ;}
	.st4{fill:#2C2C2C;}
</style>
<title>256</title>
<g id="Surface">
	<g id="Document">
		<g id="Document_Fill">
			<path id="_256" class="st0" d="M56,240.9c-10.9,0.1-19.9-8.7-20-19.6V32.5c0.1-10.9,9.1-19.7,20-19.6h110.1
				c5.3,0,10.4,2.1,14.2,5.8l33.9,33.4c3.7,3.6,5.8,8.6,5.8,13.8v155.4c-0.1,10.9-9.1,19.7-20,19.6L56,240.9z"/>
		</g>
		<g id="Document_Outline">
			<path id="_256-2" class="st1" d="M166.1,16.9c4.3,0.1,8.3,1.8,11.4,4.9l33.9,33.4c3,2.8,4.7,6.7,4.8,10.8v155.5
				c0,8.6-7.3,15.5-16.1,15.5H56c-8.8,0-16-6.9-16-15.5V32.7c0.1-8.8,7.2-15.8,16-15.8H166.1 M166.2,9.1H56.1
				C42.9,9.1,32,19.6,32,32.6v188.8c0,13,10.8,23.5,24,23.5h144c13.3,0,23.9-10.2,23.9-23.2V66.3c0-6.3-2.5-12.4-7-16.8L183,16.1
				C178.5,11.6,172.5,9.1,166.2,9.1L166.2,9.1z"/>
		</g>
	</g>
</g>
<g id="Modifier">
	<g id="Audio">
		<g id="_256-3">
			<path class="st2" d="M127.9,143.8c-2.2-0.1-3.9-1.9-3.9-4.1V72.5c0.3-2.2,2.3-3.7,4.5-3.5c1.8,0.2,3.2,1.6,3.5,3.3v67.2
				C131.9,141.8,130.1,143.7,127.9,143.8z"/>
			<path class="st2" d="M109,129.5c-2.2-0.1-4-1.9-4-4.2V86.9c0.1-2.2,2-4,4.2-3.9c2,0,3.7,1.6,3.7,3.7c0,0.1,0,0.2,0,0.2v38.4
				C113,127.5,111.2,129.4,109,129.5z"/>
			<path class="st2" d="M147.1,152.9c-2.3,0-4.1-1.9-4.1-4.1V60.7c0.1-2.2,1.9-4,4.1-3.9c0,0,0,0,0,0c2.1,0,3.8,1.6,3.8,3.7
				c0,0.1,0,0.1,0,0.2v88.1C151,151,149.3,152.8,147.1,152.9z"/>
			<path class="st2" d="M89.9,148.6c-1.9,0.2-3.6-1.2-3.8-3.2c0-0.1,0-0.3,0-0.4V68.2c0-2.2,1.6-4.4,3.8-4.4c2.2,0,4,1.7,4,3.9v76.8
				C93.9,146.7,92.1,148.5,89.9,148.6z"/>
			<path class="st2" d="M165.9,124.6c-2.2-0.1-3.9-1.9-3.9-4.1V91.8c-0.1-2.1,1.6-3.9,3.7-3.9c0.1,0,0.1,0,0.2,0
				c2.2-0.1,4.1,1.6,4.1,3.9c0,0,0,0,0,0v28.8C169.9,122.8,168.1,124.6,165.9,124.6z"/>
			<path class="st2" d="M70.9,129.4c-2.2-0.1-3.9-2-3.9-4.2V86.8c0-2.1,1.6-3.8,3.7-3.8c0.1,0,0.1,0,0.2,0c2.2,0,4,1.7,4.1,3.9v38.4
				C75,127.5,73.2,129.3,70.9,129.4z"/>
			<path class="st2" d="M184.9,138.9c-2.2-0.1-3.9-1.9-3.8-4c0,0,0,0,0-0.1V77.2c-0.1-2,1.4-3.7,3.5-3.8c0.1,0,0.2,0,0.3,0
				c2.2,0,4,1.8,4,4V135c0,2.1-1.6,3.8-3.8,3.9C185,138.9,185,138.9,184.9,138.9z"/>
		</g>
	</g>
</g>
<g id="Mime">
	<g class="st3">
		<path class="st4" d="M89.2,176h7.4c0.3,0,0.4,0.1,0.4,0.3c1.3,4.8,5,20.5,5.9,25.8h0.1c1-4.8,5.4-20.7,6.7-25.8
			c0.1-0.3,0.2-0.4,0.4-0.4h7.1c0.3,0,0.3,0.1,0.4,0.3l1.2,34c0.1,0.3-0.1,0.4-0.4,0.4h-5c-0.3,0-0.4-0.1-0.4-0.4
			c-0.2-11.1-0.2-26.8-0.2-29.6h-0.1c-0.9,4.4-5.5,22.2-7.4,29.6c-0.1,0.3-0.2,0.4-0.4,0.4h-4.6c-0.3,0-0.4-0.1-0.5-0.3
			c-1.9-7.7-5.5-23.8-6.7-29.6h-0.1c0,4.1-0.4,18.3-0.8,29.6c0,0.3-0.2,0.4-0.4,0.4h-4.6c-0.3,0-0.4-0.1-0.4-0.4l1.9-34
			C88.9,176,88.9,176,89.2,176z"/>
	</g>
	<g class="st3">
		<path class="st4" d="M126.2,176.4c0-0.2,0.1-0.4,0.3-0.4c2-0.1,5-0.2,8.1-0.2c8.7,0,12.5,4.8,12.5,10.9c0,8-5.8,11.4-12.9,11.4
			c-1.2,0-1.6-0.1-2.4-0.1v12.1c0,0.3-0.1,0.4-0.4,0.4h-4.9c-0.3,0-0.4-0.1-0.4-0.4V176.4z M131.8,193.2c0.7,0.1,1.3,0.1,2.5,0.1
			c3.7,0,7.1-1.3,7.1-6.3c0-4-2.4-6-6.7-6c-1.2,0-2.4,0.1-3,0.1V193.2z"/>
	</g>
	<g class="st3">
		<path class="st4" d="M150.4,210.7c-0.3,0-0.3-0.2-0.3-0.4V207c0-0.3,0-0.4,0.2-0.6c2.1-2.4,5.6-6.5,8.5-10.1
			c3.7-4.5,4.9-6.9,4.9-9.9c0-3.4-1.6-5.6-5.4-5.6c-2.5,0-4.4,0.7-6.5,1.9c-0.3,0.2-0.5,0.1-0.5-0.2v-4.3c0-0.3,0.1-0.5,0.3-0.6
			c2.1-1.2,4.6-2,7.9-2c7,0,9.9,4.6,9.9,10.2c0,3.7-1.4,7.3-5.2,11.9c-2.5,3.2-5.4,6.6-6.9,8.2c2.1-0.1,5-0.1,7.8-0.1h5.5
			c0.4,0,0.5,0.1,0.4,0.4l-1,4.3c-0.1,0.2-0.2,0.3-0.5,0.3H150.4z"/>
	</g>
</g>
</svg>
