<?xml version="1.0" encoding="utf-8"?>
<!-- Generator: Adobe Illustrator 25.0.1, SVG Export Plug-In . SVG Version: 6.00 Build 0)  -->
<svg version="1.1" id="Layer_1" xmlns="http://www.w3.org/2000/svg" xmlns:xlink="http://www.w3.org/1999/xlink" x="0px" y="0px"
	 viewBox="0 0 1024 1024" style="enable-background:new 0 0 1024 1024;" xml:space="preserve">
<style type="text/css">
	.st0{fill:#F5F5F5;}
	.st1{fill:#B3B3B3;}
	.st2{fill:#4B4B4B;}
	.st3{enable-background:new    ;}
	.st4{fill:#2C2C2C;}
</style>
<g id="Surface">
	<g id="Document">
		<g id="Document_Fill">
			<path id="_1024" class="st0" d="M223.8,963c-44.1,0-80-35.2-80-78.4V129.4c0-43.2,35.9-78.4,80-78.4H664
				c21.2,0,41.5,8.3,56.7,23.1l135.8,133.5c14.9,14.5,23.4,34.5,23.3,55.3v621.7c0,43.2-35.9,78.4-80,78.4H223.8z"/>
		</g>
		<g id="Document_Outline">
			<path id="_1024-2" class="st1" d="M664.4,66.9c16.9,0.1,33.2,6.8,45.2,18.7L845.4,219c11.9,11.5,18.7,27.4,18.8,44v621.7
				c0,34.4-28.9,62.3-64.2,62.3H224c-35.3,0-64.1-28.4-64.1-62.8V129c0-34.4,29-62.2,64.3-62.2H664.4 M664.2,35.1H224
				c-53,0-95.8,42.2-95.8,94.3v755.2c0,52.1,42.5,94.4,95.5,94.4h576c53,0,96.1-42.1,96.1-94.2V263.1c0-25.1-10-49.2-28-66.8
				L732.1,62.7C714,45,689.6,35,664.2,35.1z"/>
		</g>
	</g>
</g>
<g id="Modifier">
	<g id="_3D">
		<g id="_1024-3">
			<path class="st2" d="M711.8,315c0-0.3-0.2-0.6-0.2-1.1c0-0.7-0.2-1.4-0.5-2.1c-0.2-0.7-0.5-1.4-0.8-2.1c-0.2-0.7-0.5-1.4-1-1.9
				c-0.5-0.6-1-1.1-1.4-1.8c-0.4-0.6-0.9-1-1.4-1.4c-1.2-1-2.4-1.8-3.8-2.4c-0.5-0.3-1-0.5-1.6-0.6l-182.7-76.1l-0.6-0.3
				c-3.9-1.7-8.3-1.5-12.1,0.3l-182.4,76.1c-0.6,0.1-1.1,0.4-1.6,0.6c-1.4,0.6-2.7,1.4-3.8,2.4c-1.1,1-2,2-2.9,3.2
				c-1.2,1.8-2.1,3.8-2.6,5.9c-0.3,0.7-0.4,1.4-0.3,2.1v200.4c0.1,6.2,3.9,11.8,9.6,14.1l183.9,76.2c2,1,4.2,1.5,6.4,1.4
				c2,0,3.9-0.4,5.7-1.1l0.6-0.3l184.1-76.2c5.7-2.3,9.5-7.8,9.6-14V316C712,315.7,712,315.3,711.8,315z M512,376.3l-143.8-59.7
				l143-59.3L654.8,317L512,376.3z M680,504.5l-159.2,65.9V407L680,340.8V504.5z"/>
			<path class="st2" d="M312.3,313.8c0.5-2.1,1.4-4.1,2.6-5.9C313.5,309.6,312.6,311.6,312.3,313.8z M319.1,303.5
				c-0.5,0.3-0.9,0.7-1.3,1.1c1.2-1,2.4-1.8,3.8-2.4C320.7,302.5,319.8,302.9,319.1,303.5L319.1,303.5z"/>
			<path class="st2" d="M705.3,303.5c-0.7-0.6-1.6-1.1-2.6-1.3c1.4,0.6,2.7,1.4,3.8,2.4C706.2,304.2,705.8,303.8,705.3,303.5z"/>
		</g>
	</g>
</g>
<g id="Mime">
	<g class="st3">
		<path class="st4" d="M478.6,772c0.2,46.4-21,72.6-53.9,72.6c-33.3,0-53.7-27.5-53.7-72c0-43.3,21.8-70.5,54.1-70.5
			C458.9,702.1,478.6,730.8,478.6,772z M425.6,824.2c19.3,0,29.7-20,29.7-51.8c-0.2-31.6-11.2-49.9-30.6-49.9
			c-17.5,0-30.2,15.8-30.2,50.1C394.6,802.6,405,824.2,425.6,824.2z"/>
	</g>
	<g class="st3">
		<path class="st4" d="M503.8,705.9c0-1,0.2-1.5,1-1.7c5.8-0.2,21.6-0.6,34.3-0.6c38.5,0,45.3,22.5,45.3,36.2
			c0,15.4-7.5,23.9-12.9,28.1c7.5,4,19.1,13.5,19.1,33.3c0,26.2-21,42.2-53,42c-13.5,0-25.8-0.2-32.4-0.4c-1-0.2-1.5-0.8-1.5-1.7
			V705.9z M526,760h12.7c6,0,12.7,0.4,15.8,1c4.2-3.7,7.9-9.2,7.9-18.3c0-12.7-8.5-19.3-23.3-19.3c-5,0-9.8,0.2-13.1,0.4V760z
			 M526,823.2c3.7,0.2,7.3,0.4,11.9,0.4c16.4,0,29.5-6.2,29.5-22c0-9.8-5-17.1-15.2-20.2c-3.5-1-7.7-1.7-12.3-1.7H526V823.2z"/>
	</g>
	<g class="st3">
		<path class="st4" d="M624.2,705.5c0-1,0.4-1.5,1.7-1.5h19.6c1.2,0,1.5,0.4,1.5,1.5v102.7c0,6.4-0.4,12.7-1.7,17.7
			c-4.6,20-19.1,27.7-36.4,27.7c-2.7,0-5.2-0.2-7.5-0.6c-1.2-0.2-1.5-0.8-1.5-2.1v-17.1c0-1,0.4-1.5,1.5-1.2
			c2.3,0.2,3.3,0.2,4.8,0.2c11,0,18.1-4.8,18.1-22.5V705.5z"/>
	</g>
</g>
</svg>
