<?xml version="1.0" encoding="UTF-8"?>
<svg id="a" data-name="Layer" xmlns="http://www.w3.org/2000/svg" width="32" height="33" viewBox="0 1 35 35">
  <path id="b" data-name="White Bg" d="M6,31.50018c-1.37842,0-2.5-1.12109-2.5-2.5V3.00018c0-1.37842,1.12158-2.5,2.5-2.5h15.37988c.5332,0,1.03418.20703,1.41113.5835l5.12012,5.10156c.37402.37305.58887.88965.58887,1.4165v21.39844c0,1.37891-1.12109,2.5-2.5,2.5H6Z" fill="#2c2c2c" stroke-width="0"/>
  <path id="c" data-name="Gray Outline" d="M21.38004,1c.39691,0,.77764.15731,1.05879.43747l5.11996,5.10196c.28245.28145.44121.66379.44121,1.06253v21.39804c0,1.10457-.89543,2-2,2H6c-1.10457,0-2-.89543-2-2V3c0-1.10457.89543-2,2-2h15.38004M21.38004,0H6C4.34579,0,3,1.34579,3,3v26c0,1.65421,1.34579,3,3,3h20c1.65421,0,3-1.34579,3-3V7.60196c0-.65975-.26803-1.30521-.73536-1.77089L23.14469.72912C22.67285.25894,22.04615,0,21.38004,0h0Z" fill="#909090" stroke-width="0"/>
  <g id="d" data-name="Figure">
    <path d="M8.3389,6.99126c-.17023,0-.32325.13158-.32325.30181l-.00003,2.31884c0,.17023.138.29534.30823.29534h.36364c.17024,0,.29688-.12906.29688-.29929v-1.69177h2.50428l-.00428,6.03125h-1.13135c-.17023,0-.32747.16581-.32747.33604l.00071.33585c0,.17023.16287.29686.3331.29686h3.30402c.17023,0,.32098-.14479.32098-.31502v-.38947c0-.17023-.1571-.26426-.32733-.26426h-1.1883v-6.01562h2.54943l-.00241,1.67932c0,.17023.11362.29612.28385.29612h.41653c.17023,0,.28109-.12369.28109-.29392l.00142-2.32544c0-.17023-.12783-.29664-.29806-.29664h-7.36171Z" fill="#d5d5d5" stroke-width="0"/>
    <rect x="16.09375" y="11.94744" width="7.89062" height=".9375" rx=".46875" ry=".46875" fill="#d5d5d5" stroke-width="0"/>
    <rect x="16.09375" y="13.97869" width="7.89062" height=".9375" rx=".46875" ry=".46875" fill="#d5d5d5" stroke-width="0"/>
    <rect x="10.01563" y="15.96307" width="13.95312" height=".9375" rx=".46875" ry=".46875" fill="#d5d5d5" stroke-width="0"/>
  </g>
  <g id="e" data-name="32">
    <rect x="1.97917" y="21.93052" width="28.04167" height="5.34206" fill="none" stroke-width="0"/>
    <path d="M12.68848,25.50262c.11035-.52051.38965-1.6709.89746-3.52344.0127-.03906.02539-.05176.05859-.05176h.61719c.03223,0,.05176.01953.03906.05859l-1.24219,4.2373c-.0127.0332-.02539.03906-.05859.03906h-.70117c-.0332,0-.0459-.00586-.05859-.03906l-1.26172-4.2373c-.0127-.03906-.00586-.05859.03906-.05859h.65625c.0332,0,.03906.00684.05273.03906.50684,1.78711.8457,3.04199.94922,3.53613h.0127Z" fill="#f5f5f5" stroke-width="0"/>
    <path d="M15.84766,22.57098h-1.0918c-.0332,0-.0459-.01367-.03906-.05273l.07812-.54492c.00586-.0332.01953-.0459.05078-.0459h2.73047c.03906,0,.05273.0127.05859.05176l.05273.53906c.00586.03906-.01367.05273-.0459.05273h-1.08496v3.63965c0,.03223-.01367.05176-.05273.05176h-.60449c-.03906,0-.05176-.0127-.05176-.05176v-3.63965Z" fill="#f5f5f5" stroke-width="0"/>
    <path d="M19.20117,22.57098h-1.0918c-.0332,0-.04492-.01367-.03906-.05273l.07812-.54492c.00586-.0332.01953-.0459.05176-.0459h2.73047c.03809,0,.05176.0127.05762.05176l.05273.53906c.00586.03906-.01367.05273-.04492.05273h-1.08594v3.63965c0,.03223-.01367.05176-.05273.05176h-.60352c-.03906,0-.05273-.0127-.05273-.05176v-3.63965Z" fill="#f5f5f5" stroke-width="0"/>
  </g>
</svg>