<svg width="35" height="36" viewBox="3 1 44 45" fill="none" xmlns="http://www.w3.org/2000/svg">
<g id="acrobat_VTT_64 1">
<g id="Modifier">
<path id="White Bg" d="M7.6875 40.8594C5.9214 40.8594 4.48438 39.4224 4.48438 37.6562V4.34375C4.48438 2.57765 5.9214 1.14062 7.6875 1.14062H27.393C28.0761 1.14062 28.7186 1.4062 29.2022 1.88791L35.7618 8.42492C36.2479 8.90851 36.5156 9.5532 36.5156 10.2401V37.6562C36.5156 39.4224 35.0786 40.8594 33.3125 40.8594H7.6875Z" fill="white"/>
<path id="Gray Outline" d="M27.3932 1.78125C27.9017 1.78125 28.3895 1.98281 28.7498 2.34176L35.3097 8.87864C35.6716 9.23925 35.875 9.72913 35.875 10.24V37.6562C35.875 39.0715 34.7277 40.2188 33.3125 40.2188H7.6875C6.27227 40.2188 5.125 39.0715 5.125 37.6562V4.34375C5.125 2.92852 6.27227 1.78125 7.6875 1.78125H27.3932ZM27.3932 0.5H7.6875C5.56805 0.5 3.84375 2.2243 3.84375 4.34375V37.6562C3.84375 39.7757 5.56805 41.5 7.6875 41.5H33.3125C35.4319 41.5 37.1562 39.7757 37.1562 37.6562V10.24C37.1562 9.39471 36.8128 8.56771 36.2141 7.97105L29.6541 1.43419C29.0496 0.831773 28.2466 0.5 27.3932 0.5Z" fill="#B3B3B3"/>
<g id="Figure">
<path id="Vector" d="M9.99375 9.53271C9.80156 9.53271 9.60938 9.7249 9.60938 9.91709V12.864C9.60938 13.0562 9.80156 13.2483 9.99375 13.2483H10.4422C10.6344 13.2483 10.8266 13.0562 10.8266 12.864V10.7499H14.4674V19.078H12.6203C12.4281 19.078 12.1719 19.2702 12.1719 19.5265V19.9749C12.1719 20.1671 12.3641 20.3593 12.6203 20.3593H17.4891C17.6812 20.3593 17.8734 20.1671 17.8734 19.9749V19.4624C17.8734 19.2702 17.6813 19.078 17.425 19.078H15.6953V10.7499H19.2188V12.928C19.2188 13.1202 19.3469 13.3124 19.6031 13.3124H20.1156C20.3078 13.3124 20.5 13.1843 20.5 12.928V9.91709C20.5 9.7249 20.3078 9.53271 20.1156 9.53271H9.99375Z" fill="#4B4B4B"/>
<path id="Vector_2" d="M31.0061 17.0921H21.2045C20.8842 17.0921 20.6279 16.8358 20.6279 16.5155C20.6279 16.1952 20.8842 15.939 21.2045 15.939H31.0061C31.3264 15.939 31.5826 16.1952 31.5826 16.5155C31.5826 16.8358 31.3264 17.0921 31.0061 17.0921Z" fill="#4B4B4B"/>
<path id="Vector_3" d="M31.0061 20.2952H21.2045C20.8842 20.2952 20.6279 20.039 20.6279 19.7187C20.6279 19.3983 20.8842 19.1421 21.2045 19.1421H31.0061C31.3264 19.1421 31.5826 19.3983 31.5826 19.7187C31.5826 20.039 31.3264 20.2952 31.0061 20.2952Z" fill="#4B4B4B"/>
<path id="Vector_4" d="M31.0063 23.4983H12.7484C12.4281 23.4983 12.1719 23.2421 12.1719 22.9218C12.1719 22.6015 12.4281 22.3452 12.7484 22.3452H30.9422C31.2625 22.3452 31.5188 22.6015 31.5188 22.9218C31.5828 23.2421 31.3266 23.4983 31.0063 23.4983Z" fill="#4B4B4B"/>
</g>
</g>
<g id="Mime">
<g id="64">
<path id="Vector_5" d="M16.2564 33.2389C16.3981 32.5726 16.7562 31.0987 17.4059 28.7251C17.4225 28.6751 17.4391 28.6582 17.4807 28.6582H18.2721C18.3137 28.6582 18.3387 28.6832 18.3221 28.7333L16.7312 34.1636C16.7146 34.2055 16.698 34.2136 16.6561 34.2136H15.7568C15.7152 34.2136 15.6986 34.2055 15.6817 34.1636L14.0661 28.7333C14.0495 28.6832 14.058 28.6582 14.1161 28.6582H14.9573C14.9989 28.6582 15.0073 28.6663 15.0239 28.7082C15.6736 30.9986 16.1065 32.6064 16.2398 33.2389H16.2564Z" fill="#2C2C2C"/>
<path id="Vector_6" d="M20.3038 29.4828H18.9046C18.863 29.4828 18.8464 29.4659 18.8545 29.4164L18.9546 28.7164C18.9628 28.6751 18.9797 28.6582 19.0213 28.6582H22.5191C22.5691 28.6582 22.5854 28.6751 22.5941 28.7251L22.6604 29.4164C22.6692 29.4659 22.6442 29.4828 22.6029 29.4828H21.2115V34.1467C21.2115 34.1886 21.1953 34.2136 21.1452 34.2136H20.3704C20.3204 34.2136 20.3038 34.1967 20.3038 34.1467L20.3038 29.4828Z" fill="#2C2C2C"/>
<path id="Vector_7" d="M24.601 29.4828H23.2015C23.1596 29.4828 23.1433 29.4659 23.1514 29.4164L23.2515 28.7164C23.2597 28.6751 23.2766 28.6582 23.3185 28.6582H26.8156C26.8657 28.6582 26.8826 28.6751 26.8907 28.7251L26.9577 29.4164C26.9658 29.4659 26.9408 29.4828 26.8995 29.4828H25.5081V34.1467C25.5081 34.1886 25.4918 34.2136 25.4418 34.2136H24.6673C24.6172 34.2136 24.601 34.1967 24.601 34.1467L24.601 29.4828Z" fill="#2C2C2C"/>
</g>
</g>
</g>
</svg>
